<?xml version="1.0" encoding="UTF-8" standalone="no"?>
<!-- Created with Inkscape (http://www.inkscape.org/) -->

<svg
   xmlns:dc="http://purl.org/dc/elements/1.1/"
   xmlns:cc="http://creativecommons.org/ns#"
   xmlns:rdf="http://www.w3.org/1999/02/22-rdf-syntax-ns#"
   xmlns:svg="http://www.w3.org/2000/svg"
   xmlns="http://www.w3.org/2000/svg"
   xmlns:xlink="http://www.w3.org/1999/xlink"
   xmlns:sodipodi="http://sodipodi.sourceforge.net/DTD/sodipodi-0.dtd"
   xmlns:inkscape="http://www.inkscape.org/namespaces/inkscape"
   height="200.18948"
   id="svg1"
   inkscape:version="0.48.3.1 r9886"
   sodipodi:docname="crossed_swords.svg"
   sodipodi:version="0.32"
   width="208.64871"
   version="1.0"
   inkscape:export-filename="/home/aquarius/Programs/Mine/cardfight/svgs/crossed_swords.png"
   inkscape:export-xdpi="94.900002"
   inkscape:export-ydpi="94.900002">
  <metadata
     id="metadata3">
    <rdf:RDF>
      <cc:Work
         rdf:about="">
        <dc:title>Sword</dc:title>
        <dc:description />
        <dc:subject>
          <rdf:Bag>
            <rdf:li>weapon</rdf:li>
            <rdf:li />
            <rdf:li>tool</rdf:li>
          </rdf:Bag>
        </dc:subject>
        <dc:publisher>
          <cc:Agent
             rdf:about="http://www.openclipart.org">
            <dc:title>Nicu Buculei</dc:title>
          </cc:Agent>
        </dc:publisher>
        <dc:creator>
          <cc:Agent>
            <dc:title>Nicu Buculei</dc:title>
          </cc:Agent>
        </dc:creator>
        <dc:rights>
          <cc:Agent>
            <dc:title>Nicu Buculei</dc:title>
          </cc:Agent>
        </dc:rights>
        <dc:date />
        <dc:format>image/svg+xml</dc:format>
        <dc:type
           rdf:resource="http://purl.org/dc/dcmitype/StillImage" />
        <cc:license
           rdf:resource="http://web.resource.org/cc/PublicDomain" />
        <dc:language>en</dc:language>
      </cc:Work>
      <cc:License
         rdf:about="http://web.resource.org/cc/PublicDomain">
        <cc:permits
           rdf:resource="http://web.resource.org/cc/Reproduction" />
        <cc:permits
           rdf:resource="http://web.resource.org/cc/Distribution" />
        <cc:permits
           rdf:resource="http://web.resource.org/cc/DerivativeWorks" />
      </cc:License>
    </rdf:RDF>
  </metadata>
  <defs
     id="defs3">
    <linearGradient
       id="linearGradient2199">
      <stop
         id="stop2200"
         offset="0.0000000"
         style="stop-color:#0163ff;stop-opacity:0.10112359;" />
      <stop
         id="stop2201"
         offset="1.0000000"
         style="stop-color:#ffffff;stop-opacity:0.0000000;" />
    </linearGradient>
    <linearGradient
       id="linearGradient2180">
      <stop
         id="stop2181"
         offset="0.0000000"
         style="stop-color:#b0b0b0;stop-opacity:1.0000000;" />
      <stop
         id="stop2182"
         offset="1.0000000"
         style="stop-color:#e8e8e9;stop-opacity:1.0000000;" />
    </linearGradient>
    <linearGradient
       id="linearGradient2183"
       inkscape:collect="always"
       x1="666.22595"
       x2="692.38379"
       xlink:href="#linearGradient2180"
       y1="107.83209"
       y2="17.732885"
       gradientTransform="scale(0.33201,3.01196)"
       gradientUnits="userSpaceOnUse" />
    <linearGradient
       id="linearGradient2185"
       inkscape:collect="always"
       x1="676.04828"
       x2="571.41693"
       xlink:href="#linearGradient2180"
       y1="103.76309"
       y2="34.008873"
       gradientTransform="scale(0.33201,3.01196)"
       gradientUnits="userSpaceOnUse" />
    <linearGradient
       id="linearGradient2186"
       inkscape:collect="always"
       x1="130.54056"
       x2="130.54056"
       xlink:href="#linearGradient2180"
       y1="786.66321"
       y2="822.54553"
       gradientTransform="scale(1.693961,0.590332)"
       gradientUnits="userSpaceOnUse" />
    <linearGradient
       id="linearGradient2188"
       inkscape:collect="always"
       x1="143.7982"
       x2="106.52049"
       xlink:href="#linearGradient2180"
       y1="521.99512"
       y2="522.7182"
       gradientTransform="scale(1.504148,0.664828)"
       gradientUnits="userSpaceOnUse" />
    <linearGradient
       id="linearGradient2190"
       inkscape:collect="always"
       x1="145.81898"
       x2="193.42752"
       xlink:href="#linearGradient2180"
       y1="537.13806"
       y2="541.28821"
       gradientTransform="scale(1.509173,0.662615)"
       gradientUnits="userSpaceOnUse" />
    <linearGradient
       id="linearGradient2192"
       inkscape:collect="always"
       x1="147.87256"
       x2="118.72225"
       xlink:href="#linearGradient2180"
       y1="687.35699"
       y2="673.50146"
       gradientTransform="scale(1.462718,0.683659)"
       gradientUnits="userSpaceOnUse" />
    <linearGradient
       id="linearGradient2194"
       inkscape:collect="always"
       x1="151.10228"
       x2="177.23729"
       xlink:href="#linearGradient2180"
       y1="697.50122"
       y2="685.19318"
       gradientTransform="scale(1.49453,0.669107)"
       gradientUnits="userSpaceOnUse" />
    <linearGradient
       id="linearGradient2202"
       inkscape:collect="always"
       x1="423.39383"
       x2="556.42035"
       xlink:href="#linearGradient2199"
       y1="10.073052"
       y2="155.44394"
       gradientTransform="scale(0.463823,2.155994)"
       gradientUnits="userSpaceOnUse" />
    <linearGradient
       inkscape:collect="always"
       xlink:href="#linearGradient2180"
       id="linearGradient1400"
       x1="676.04828"
       y1="103.76309"
       x2="571.41693"
       y2="34.008873"
       gradientTransform="scale(0.33201,3.01196)"
       gradientUnits="userSpaceOnUse" />
    <linearGradient
       inkscape:collect="always"
       xlink:href="#linearGradient2180"
       id="linearGradient1402"
       x1="130.54056"
       y1="786.66321"
       x2="130.54056"
       y2="822.54553"
       gradientTransform="scale(1.693961,0.590332)"
       gradientUnits="userSpaceOnUse" />
    <linearGradient
       inkscape:collect="always"
       xlink:href="#linearGradient2180"
       id="linearGradient1404"
       x1="151.10228"
       y1="697.50122"
       x2="177.23729"
       y2="685.19318"
       gradientTransform="scale(1.49453,0.669107)"
       gradientUnits="userSpaceOnUse" />
    <linearGradient
       inkscape:collect="always"
       xlink:href="#linearGradient2180"
       id="linearGradient1406"
       x1="666.22595"
       y1="107.83209"
       x2="692.38379"
       y2="17.732885"
       gradientTransform="scale(0.33201,3.01196)"
       gradientUnits="userSpaceOnUse" />
    <linearGradient
       inkscape:collect="always"
       xlink:href="#linearGradient2199"
       id="linearGradient1408"
       x1="423.39383"
       y1="10.073052"
       x2="556.42035"
       y2="155.44394"
       gradientTransform="scale(0.463823,2.155994)"
       gradientUnits="userSpaceOnUse" />
    <linearGradient
       inkscape:collect="always"
       xlink:href="#linearGradient2180"
       id="linearGradient1410"
       x1="145.81898"
       y1="537.13806"
       x2="193.42752"
       y2="541.28821"
       gradientTransform="scale(1.509173,0.662615)"
       gradientUnits="userSpaceOnUse" />
    <linearGradient
       inkscape:collect="always"
       xlink:href="#linearGradient2180"
       id="linearGradient1412"
       x1="143.7982"
       y1="521.99512"
       x2="106.52049"
       y2="522.7182"
       gradientTransform="scale(1.504148,0.664828)"
       gradientUnits="userSpaceOnUse" />
    <linearGradient
       inkscape:collect="always"
       xlink:href="#linearGradient2180"
       id="linearGradient1414"
       x1="147.87256"
       y1="687.35699"
       x2="118.72225"
       y2="673.50146"
       gradientTransform="scale(1.462718,0.683659)"
       gradientUnits="userSpaceOnUse" />
    <linearGradient
       inkscape:collect="always"
       xlink:href="#linearGradient2180"
       id="linearGradient1462"
       gradientUnits="userSpaceOnUse"
       gradientTransform="scale(0.33201,3.01196)"
       x1="676.04828"
       y1="103.76309"
       x2="571.41693"
       y2="34.008873" />
    <linearGradient
       inkscape:collect="always"
       xlink:href="#linearGradient2180"
       id="linearGradient1464"
       gradientUnits="userSpaceOnUse"
       gradientTransform="scale(1.693961,0.590332)"
       x1="130.54056"
       y1="786.66321"
       x2="130.54056"
       y2="822.54553" />
    <linearGradient
       inkscape:collect="always"
       xlink:href="#linearGradient2180"
       id="linearGradient1466"
       gradientUnits="userSpaceOnUse"
       gradientTransform="scale(1.49453,0.669107)"
       x1="151.10228"
       y1="697.50122"
       x2="177.23729"
       y2="685.19318" />
    <linearGradient
       inkscape:collect="always"
       xlink:href="#linearGradient2180"
       id="linearGradient1468"
       gradientUnits="userSpaceOnUse"
       gradientTransform="scale(0.33201,3.01196)"
       x1="666.22595"
       y1="107.83209"
       x2="692.38379"
       y2="17.732885" />
    <linearGradient
       inkscape:collect="always"
       xlink:href="#linearGradient2199"
       id="linearGradient1470"
       gradientUnits="userSpaceOnUse"
       gradientTransform="scale(0.463823,2.155994)"
       x1="423.39383"
       y1="10.073052"
       x2="556.42035"
       y2="155.44394" />
    <linearGradient
       inkscape:collect="always"
       xlink:href="#linearGradient2180"
       id="linearGradient1472"
       gradientUnits="userSpaceOnUse"
       gradientTransform="scale(1.509173,0.662615)"
       x1="145.81898"
       y1="537.13806"
       x2="193.42752"
       y2="541.28821" />
    <linearGradient
       inkscape:collect="always"
       xlink:href="#linearGradient2180"
       id="linearGradient1474"
       gradientUnits="userSpaceOnUse"
       gradientTransform="scale(1.504148,0.664828)"
       x1="143.7982"
       y1="521.99512"
       x2="106.52049"
       y2="522.7182" />
    <linearGradient
       inkscape:collect="always"
       xlink:href="#linearGradient2180"
       id="linearGradient1476"
       gradientUnits="userSpaceOnUse"
       gradientTransform="scale(1.462718,0.683659)"
       x1="147.87256"
       y1="687.35699"
       x2="118.72225"
       y2="673.50146" />
    <linearGradient
       inkscape:collect="always"
       xlink:href="#linearGradient2180"
       id="linearGradient1478"
       gradientUnits="userSpaceOnUse"
       gradientTransform="scale(0.33201,3.01196)"
       x1="676.04828"
       y1="103.76309"
       x2="571.41693"
       y2="34.008873" />
    <linearGradient
       inkscape:collect="always"
       xlink:href="#linearGradient2180"
       id="linearGradient1480"
       gradientUnits="userSpaceOnUse"
       gradientTransform="scale(1.693961,0.590332)"
       x1="130.54056"
       y1="786.66321"
       x2="130.54056"
       y2="822.54553" />
    <linearGradient
       inkscape:collect="always"
       xlink:href="#linearGradient2180"
       id="linearGradient1482"
       gradientUnits="userSpaceOnUse"
       gradientTransform="scale(1.49453,0.669107)"
       x1="151.10228"
       y1="697.50122"
       x2="177.23729"
       y2="685.19318" />
    <linearGradient
       inkscape:collect="always"
       xlink:href="#linearGradient2180"
       id="linearGradient1484"
       gradientUnits="userSpaceOnUse"
       gradientTransform="scale(0.33201,3.01196)"
       x1="666.22595"
       y1="107.83209"
       x2="692.38379"
       y2="17.732885" />
    <linearGradient
       inkscape:collect="always"
       xlink:href="#linearGradient2199"
       id="linearGradient1486"
       gradientUnits="userSpaceOnUse"
       gradientTransform="scale(0.463823,2.155994)"
       x1="423.39383"
       y1="10.073052"
       x2="556.42035"
       y2="155.44394" />
    <linearGradient
       inkscape:collect="always"
       xlink:href="#linearGradient2180"
       id="linearGradient1488"
       gradientUnits="userSpaceOnUse"
       gradientTransform="scale(1.509173,0.662615)"
       x1="145.81898"
       y1="537.13806"
       x2="193.42752"
       y2="541.28821" />
    <linearGradient
       inkscape:collect="always"
       xlink:href="#linearGradient2180"
       id="linearGradient1490"
       gradientUnits="userSpaceOnUse"
       gradientTransform="scale(1.504148,0.664828)"
       x1="143.7982"
       y1="521.99512"
       x2="106.52049"
       y2="522.7182" />
    <linearGradient
       inkscape:collect="always"
       xlink:href="#linearGradient2180"
       id="linearGradient1492"
       gradientUnits="userSpaceOnUse"
       gradientTransform="scale(1.462718,0.683659)"
       x1="147.87256"
       y1="687.35699"
       x2="118.72225"
       y2="673.50146" />
    <filter
       id="filter4184"
       inkscape:label="Drop Shadow"
       color-interpolation-filters="sRGB">
      <feFlood
         id="feFlood4186"
         flood-opacity="1"
         flood-color="rgb(0,0,0)"
         result="flood" />
      <feComposite
         id="feComposite4188"
         in2="SourceGraphic"
         in="flood"
         operator="in"
         result="composite1" />
      <feGaussianBlur
         id="feGaussianBlur4190"
         stdDeviation="3"
         result="blur" />
      <feOffset
         id="feOffset4192"
         dx="3"
         dy="3"
         result="offset" />
      <feComposite
         id="feComposite4194"
         in2="offset"
         in="SourceGraphic"
         operator="over"
         result="composite2" />
    </filter>
  </defs>
  <sodipodi:namedview
     bordercolor="#666666"
     borderopacity="1.0"
     id="base"
     inkscape:cx="132.88713"
     inkscape:cy="100.07721"
     inkscape:pageopacity="0.0"
     inkscape:pageshadow="2"
     inkscape:window-height="744"
     inkscape:window-width="1301"
     inkscape:window-x="65"
     inkscape:window-y="24"
     inkscape:zoom="2.9844704"
     pagecolor="#ffffff"
     showgrid="false"
     inkscape:current-layer="svg1"
     inkscape:window-maximized="1"
     fit-margin-top="0"
     fit-margin-left="0"
     fit-margin-right="0"
     fit-margin-bottom="0" />
  <g
     id="g1416"
     transform="matrix(0.943478,0,0,0.941411,-153.1166,-113.73678)">
    <g
       transform="matrix(0.474621,0.350743,-0.401444,0.414678,276.1257,42.46287)"
       id="g2841">
      <path
         style="fill:#000000;fill-opacity:1;fill-rule:evenodd;stroke:#000000;stroke-width:0.78084502pt;stroke-linecap:butt;stroke-linejoin:miter;stroke-opacity:1"
         sodipodi:nodetypes="cccccc"
         id="path913"
         d="M 185.21055,64.144039 196.42823,348.20907 250.59689,347.1458 261.35665,57.671562 222.31071,1.8393175 185.21055,64.144039 z"
         inkscape:connector-curvature="0" />
      <path
         style="fill:url(#linearGradient1462);fill-opacity:1;fill-rule:evenodd;stroke:none"
         sodipodi:nodetypes="ccccc"
         id="path1556"
         d="m 186.82108,62.142974 11.7888,283.652686 25.8447,0 L 223.32104,4.3881278 186.82108,62.142974 z"
         inkscape:connector-curvature="0" />
      <path
         style="fill:#000000;fill-opacity:1;fill-rule:evenodd;stroke:#000000;stroke-width:0.78084502pt;stroke-linecap:butt;stroke-linejoin:miter;stroke-opacity:1"
         sodipodi:nodetypes="ccccc"
         id="path2830"
         d="m 194.13236,463.61209 6.98862,22.98545 44.61818,-0.45867 5.59921,-21.28356 -57.20601,-1.24322 z"
         inkscape:connector-curvature="0" />
      <path
         style="fill:url(#linearGradient1464);fill-opacity:1;fill-rule:evenodd;stroke:none"
         sodipodi:nodetypes="ccccc"
         id="path1553"
         d="m 195.20926,465.04796 7.25466,18.91018 41.26083,0.52529 7.25465,-18.91019 -55.77014,-0.52528 z"
         inkscape:connector-curvature="0" />
      <path
         style="fill:#000000;fill-opacity:1;fill-rule:evenodd;stroke:#000000;stroke-width:0.95992441pt;stroke-linecap:butt;stroke-linejoin:miter;stroke-opacity:1"
         sodipodi:nodetypes="ccccccccccccccccccccccccccccccccccccccccccccccccccccccccc"
         id="path2832"
         d="m 197.70467,347.22194 1.48696,27.03153 -1.60192,3 -0.38473,4.38473 2.49756,1.93994 0.34619,7.17533 -2.11527,3.21875 0.0962,4.28855 2.26909,2.06493 0.75973,7.58402 -0.0312,0 -2.59862,2.6104 0.19237,4.54585 2.75,2 -0.1875,6.78125 -2.31007,3.47605 -0.0962,3.6802 2.75,2 0.625,6.34375 -2.59618,2.70658 -0.19237,4.76947 3.03855,1.71145 0.0937,-0.0312 0.0312,1.03125 15.96875,0.28125 -15.0625,5.875 -2.40625,3.1875 0,3.96875 2.75,2 37.75,-14.59375 3.59375,0.0625 0.0625,-1.625 2.65868,-2.58402 -0.0962,-4.35348 -1.6729,-2.21875 -0.29585,-8.28125 2.79342,-2.52882 -0.48092,-4.09618 -1.71145,-2.16112 -0.0386,-6.90138 3.06493,-2.89652 0.38474,-4.16111 -2.88717,-2.59862 0.48092,-6.39895 2.42533,-3.53855 0,-3.77638 -2.40625,-2.59862 0.50973,-7.52638 2.24027,-3.22362 0,-3.96875 -1.83158,-2.3125 -0.19967,-7.6875 2.71875,-3.15625 0,-3.96875 -2.375,-2.34375 0.28125,-8.28125 -51.04129,0.0935 z"
         inkscape:connector-curvature="0" />
      <path
         style="fill:#303030;fill-opacity:1;fill-rule:evenodd;stroke:none"
         sodipodi:nodetypes="ccccc"
         id="path1545"
         d="m 198.83659,346.60264 3.62733,103.20028 42.62108,0.79384 3.62732,-103.20028 -49.87573,-0.79384 z"
         inkscape:connector-curvature="0" />
      <path
         style="fill:#000090;fill-opacity:1;fill-rule:evenodd;stroke:#000000;stroke-width:0.78084502pt;stroke-linecap:butt;stroke-linejoin:miter;stroke-opacity:1"
         sodipodi:nodetypes="ccccccccc"
         id="path2206"
         d="m 200.28955,383.50377 47.76384,-18.31214 2.749,-3.18472 0,-3.98089 -2.40537,-2.38853 -48.45111,18.71021 -2.40538,3.18472 0,3.98089 2.74902,1.99046 z"
         inkscape:connector-curvature="0" />
      <path
         style="fill:#000090;fill-opacity:1;fill-rule:evenodd;stroke:#000000;stroke-width:0.78084502pt;stroke-linecap:butt;stroke-linejoin:miter;stroke-opacity:1"
         sodipodi:nodetypes="ccccccccc"
         id="path2208"
         d="m 203.72579,465.11218 41.23497,-15.92359 2.749,-3.18471 0,-3.98091 -2.40537,-2.38853 -41.92223,16.32168 -2.40538,3.18471 0,3.98092 2.74901,1.99043 z"
         inkscape:connector-curvature="0" />
      <path
         style="fill:#000000;fill-opacity:1;fill-rule:evenodd;stroke:#000000;stroke-width:0.78084502pt;stroke-linecap:butt;stroke-linejoin:miter;stroke-opacity:1"
         sodipodi:nodetypes="ccccc"
         id="path1550"
         d="m 170.7901,446.96258 4.65776,26.04422 94.91515,-0.7712 2.90939,-23.8567 -102.4823,-1.41632 z"
         inkscape:connector-curvature="0" />
      <path
         style="fill:#000090;fill-opacity:1;fill-rule:evenodd;stroke:#000000;stroke-width:0.78084502pt;stroke-linecap:butt;stroke-linejoin:miter;stroke-opacity:1"
         sodipodi:nodetypes="ccccccccc"
         id="path2207"
         d="m 202.3513,448.7905 42.95309,-16.71977 2.749,-3.18472 0,-3.98089 -2.40537,-2.38855 -43.64036,17.11787 -2.40538,3.18472 0,3.9809 2.74902,1.99044 z"
         inkscape:connector-curvature="0" />
      <path
         style="fill:#000090;fill-opacity:1;fill-rule:evenodd;stroke:#000000;stroke-width:0.78084502pt;stroke-linecap:butt;stroke-linejoin:miter;stroke-opacity:1"
         id="path2203"
         d="m 201.49222,433.265 45.01486,-17.51596 2.749,-3.18472 0,-3.98088 -2.40538,-2.38854 -45.70211,17.91403 -2.40537,3.18472 0,3.9809 2.749,1.99045 z"
         inkscape:connector-curvature="0" />
      <path
         style="fill:#000090;fill-opacity:1;fill-rule:evenodd;stroke:#000000;stroke-width:0.78084502pt;stroke-linecap:butt;stroke-linejoin:miter;stroke-opacity:1"
         sodipodi:nodetypes="ccccccccc"
         id="path2204"
         d="m 201.32041,417.3414 45.7021,-17.91404 2.749,-3.18472 0,-3.9809 -2.40537,-2.38854 -46.38936,18.31213 -2.40537,3.18473 0,3.9809 2.749,1.99044 z"
         inkscape:connector-curvature="0" />
      <path
         style="fill:#000090;fill-opacity:1;fill-rule:evenodd;stroke:#000000;stroke-width:0.78084502pt;stroke-linecap:butt;stroke-linejoin:miter;stroke-opacity:1"
         sodipodi:nodetypes="ccccccccc"
         id="path2205"
         d="m 200.63316,400.22354 46.73298,-17.91405 2.749,-3.18471 0,-3.98089 -2.40537,-2.38855 -47.42024,18.31213 -2.40537,3.18473 0,3.98089 2.749,1.99045 z"
         inkscape:connector-curvature="0" />
      <path
         style="fill:url(#linearGradient1466);fill-opacity:1;fill-rule:evenodd;stroke:none"
         sodipodi:nodetypes="ccccc"
         id="path2193"
         d="m 272.51665,449.02685 -3.62733,22.06186 -46.17278,1.0374 -1.79484,-21.88239 51.59495,-1.21687 z"
         inkscape:connector-curvature="0" />
      <path
         style="fill:url(#linearGradient1468);fill-opacity:1;fill-rule:evenodd;stroke:none"
         sodipodi:nodetypes="ccccc"
         id="path2184"
         d="m 260.27442,62.142974 -11.7888,283.652686 -25.8447,0 1.13354,-341.4075322 36.49996,57.7548462 z"
         inkscape:connector-curvature="0" />
      <path
         style="fill:url(#linearGradient1470);fill-opacity:1;fill-rule:evenodd;stroke:none"
         id="path2196"
         d="m 222.5964,4.2080115 -36.49996,57.7811005 11.7888,283.652678 24.03104,0 1.81366,0 24.03104,0 L 259.54978,61.989112 223.04982,4.2080115 222.82311,72.494767 222.5964,4.2080115 z"
         inkscape:connector-curvature="0" />
      <path
         style="fill:#000000;fill-opacity:1;fill-rule:evenodd;stroke:#000000;stroke-width:0.78084502pt;stroke-linecap:butt;stroke-linejoin:miter;stroke-opacity:1"
         sodipodi:nodetypes="ccccccc"
         id="path1543"
         d="m 158.28033,346.13463 1.53184,32.0022 62.14862,-12.81379 62.91454,10.52658 0.59434,-31.0647 -63.05546,2.07443 -64.13388,-0.72472 z"
         inkscape:connector-curvature="0" />
      <path
         style="fill:url(#linearGradient1472);fill-opacity:1;fill-rule:evenodd;stroke:none"
         sodipodi:nodetypes="ccccc"
         id="path2189"
         d="m 284.53217,346.85935 -0.90684,27.3147 -60.98917,-9.94524 -0.31602,-17.09795 62.21203,-0.27151 z"
         inkscape:connector-curvature="0" />
      <path
         style="fill:url(#linearGradient1474);fill-opacity:1;fill-rule:evenodd;stroke:none"
         sodipodi:nodetypes="ccccc"
         id="path2187"
         d="m 160.06954,347.64727 0.90683,27.3147 62.08002,-10.70971 -0.41547,-17.13026 -62.57138,0.52527 z"
         inkscape:connector-curvature="0" />
      <path
         style="fill:url(#linearGradient1476);fill-opacity:1;fill-rule:evenodd;stroke:none"
         sodipodi:nodetypes="ccccc"
         id="path2191"
         d="m 172.76518,448.50155 3.62733,22.06189 47.03957,1.61927 -1.93291,-21.95966 -48.73399,-1.7215 z"
         inkscape:connector-curvature="0" />
      <path
         style="fill:#000000;fill-opacity:1;fill-rule:evenodd;stroke:none"
         sodipodi:nodetypes="ccccc"
         id="path2195"
         d="M 223,6.375 221.4375,346 l 3.75,0 L 223.625,6.6875 223,6.375 z"
         inkscape:connector-curvature="0" />
    </g>
    <g
       id="g1340"
       transform="matrix(-0.474621,0.350743,0.401444,0.414678,274.2862,42.46287)">
      <path
         d="M 185.21055,64.144039 196.42823,348.20907 250.59689,347.1458 261.35665,57.671562 222.31071,1.8393175 185.21055,64.144039 z"
         id="path1342"
         sodipodi:nodetypes="cccccc"
         style="fill:#000000;fill-opacity:1;fill-rule:evenodd;stroke:#000000;stroke-width:0.78084502pt;stroke-linecap:butt;stroke-linejoin:miter;stroke-opacity:1"
         inkscape:connector-curvature="0" />
      <path
         d="m 186.82108,62.142974 11.7888,283.652686 25.8447,0 L 223.32104,4.3881278 186.82108,62.142974 z"
         id="path1344"
         sodipodi:nodetypes="ccccc"
         style="fill:url(#linearGradient1478);fill-opacity:1;fill-rule:evenodd;stroke:none"
         inkscape:connector-curvature="0" />
      <path
         d="m 194.13236,463.61209 6.98862,22.98545 44.61818,-0.45867 5.59921,-21.28356 -57.20601,-1.24322 z"
         id="path1346"
         sodipodi:nodetypes="ccccc"
         style="fill:#000000;fill-opacity:1;fill-rule:evenodd;stroke:#000000;stroke-width:0.78084502pt;stroke-linecap:butt;stroke-linejoin:miter;stroke-opacity:1"
         inkscape:connector-curvature="0" />
      <path
         d="m 195.20926,465.04796 7.25466,18.91018 41.26083,0.52529 7.25465,-18.91019 -55.77014,-0.52528 z"
         id="path1348"
         sodipodi:nodetypes="ccccc"
         style="fill:url(#linearGradient1480);fill-opacity:1;fill-rule:evenodd;stroke:none"
         inkscape:connector-curvature="0" />
      <path
         d="m 197.70467,347.22194 1.48696,27.03153 -1.60192,3 -0.38473,4.38473 2.49756,1.93994 0.34619,7.17533 -2.11527,3.21875 0.0962,4.28855 2.26909,2.06493 0.75973,7.58402 -0.0312,0 -2.59862,2.6104 0.19237,4.54585 2.75,2 -0.1875,6.78125 -2.31007,3.47605 -0.0962,3.6802 2.75,2 0.625,6.34375 -2.59618,2.70658 -0.19237,4.76947 3.03855,1.71145 0.0937,-0.0312 0.0312,1.03125 15.96875,0.28125 -15.0625,5.875 -2.40625,3.1875 0,3.96875 2.75,2 37.75,-14.59375 3.59375,0.0625 0.0625,-1.625 2.65868,-2.58402 -0.0962,-4.35348 -1.6729,-2.21875 -0.29585,-8.28125 2.79342,-2.52882 -0.48092,-4.09618 -1.71145,-2.16112 -0.0386,-6.90138 3.06493,-2.89652 0.38474,-4.16111 -2.88717,-2.59862 0.48092,-6.39895 2.42533,-3.53855 0,-3.77638 -2.40625,-2.59862 0.50973,-7.52638 2.24027,-3.22362 0,-3.96875 -1.83158,-2.3125 -0.19967,-7.6875 2.71875,-3.15625 0,-3.96875 -2.375,-2.34375 0.28125,-8.28125 -51.04129,0.0935 z"
         id="path1350"
         sodipodi:nodetypes="ccccccccccccccccccccccccccccccccccccccccccccccccccccccccc"
         style="fill:#000000;fill-opacity:1;fill-rule:evenodd;stroke:#000000;stroke-width:0.95992441pt;stroke-linecap:butt;stroke-linejoin:miter;stroke-opacity:1"
         inkscape:connector-curvature="0" />
      <path
         d="m 198.83659,346.60264 3.62733,103.20028 42.62108,0.79384 3.62732,-103.20028 -49.87573,-0.79384 z"
         id="path1352"
         sodipodi:nodetypes="ccccc"
         style="fill:#303030;fill-opacity:1;fill-rule:evenodd;stroke:none"
         inkscape:connector-curvature="0" />
      <path
         d="m 200.28955,383.50377 47.76384,-18.31214 2.749,-3.18472 0,-3.98089 -2.40537,-2.38853 -48.45111,18.71021 -2.40538,3.18472 0,3.98089 2.74902,1.99046 z"
         id="path1354"
         sodipodi:nodetypes="ccccccccc"
         style="fill:#000090;fill-opacity:1;fill-rule:evenodd;stroke:#000000;stroke-width:0.78084502pt;stroke-linecap:butt;stroke-linejoin:miter;stroke-opacity:1"
         inkscape:connector-curvature="0" />
      <path
         d="m 203.72579,465.11218 41.23497,-15.92359 2.749,-3.18471 0,-3.98091 -2.40537,-2.38853 -41.92223,16.32168 -2.40538,3.18471 0,3.98092 2.74901,1.99043 z"
         id="path1356"
         sodipodi:nodetypes="ccccccccc"
         style="fill:#000090;fill-opacity:1;fill-rule:evenodd;stroke:#000000;stroke-width:0.78084502pt;stroke-linecap:butt;stroke-linejoin:miter;stroke-opacity:1"
         inkscape:connector-curvature="0" />
      <path
         d="m 170.7901,446.96258 4.65776,26.04422 94.91515,-0.7712 2.90939,-23.8567 -102.4823,-1.41632 z"
         id="path1358"
         sodipodi:nodetypes="ccccc"
         style="fill:#000000;fill-opacity:1;fill-rule:evenodd;stroke:#000000;stroke-width:0.78084502pt;stroke-linecap:butt;stroke-linejoin:miter;stroke-opacity:1"
         inkscape:connector-curvature="0" />
      <path
         d="m 202.3513,448.7905 42.95309,-16.71977 2.749,-3.18472 0,-3.98089 -2.40537,-2.38855 -43.64036,17.11787 -2.40538,3.18472 0,3.9809 2.74902,1.99044 z"
         id="path1360"
         sodipodi:nodetypes="ccccccccc"
         style="fill:#000090;fill-opacity:1;fill-rule:evenodd;stroke:#000000;stroke-width:0.78084502pt;stroke-linecap:butt;stroke-linejoin:miter;stroke-opacity:1"
         inkscape:connector-curvature="0" />
      <path
         d="m 201.49222,433.265 45.01486,-17.51596 2.749,-3.18472 0,-3.98088 -2.40538,-2.38854 -45.70211,17.91403 -2.40537,3.18472 0,3.9809 2.749,1.99045 z"
         id="path1362"
         style="fill:#000090;fill-opacity:1;fill-rule:evenodd;stroke:#000000;stroke-width:0.78084502pt;stroke-linecap:butt;stroke-linejoin:miter;stroke-opacity:1"
         inkscape:connector-curvature="0" />
      <path
         d="m 201.32041,417.3414 45.7021,-17.91404 2.749,-3.18472 0,-3.9809 -2.40537,-2.38854 -46.38936,18.31213 -2.40537,3.18473 0,3.9809 2.749,1.99044 z"
         id="path1364"
         sodipodi:nodetypes="ccccccccc"
         style="fill:#000090;fill-opacity:1;fill-rule:evenodd;stroke:#000000;stroke-width:0.78084502pt;stroke-linecap:butt;stroke-linejoin:miter;stroke-opacity:1"
         inkscape:connector-curvature="0" />
      <path
         d="m 200.63316,400.22354 46.73298,-17.91405 2.749,-3.18471 0,-3.98089 -2.40537,-2.38855 -47.42024,18.31213 -2.40537,3.18473 0,3.98089 2.749,1.99045 z"
         id="path1366"
         sodipodi:nodetypes="ccccccccc"
         style="fill:#000090;fill-opacity:1;fill-rule:evenodd;stroke:#000000;stroke-width:0.78084502pt;stroke-linecap:butt;stroke-linejoin:miter;stroke-opacity:1"
         inkscape:connector-curvature="0" />
      <path
         d="m 272.51665,449.02685 -3.62733,22.06186 -46.17278,1.0374 -1.79484,-21.88239 51.59495,-1.21687 z"
         id="path1368"
         sodipodi:nodetypes="ccccc"
         style="fill:url(#linearGradient1482);fill-opacity:1;fill-rule:evenodd;stroke:none"
         inkscape:connector-curvature="0" />
      <path
         d="m 260.27442,62.142974 -11.7888,283.652686 -25.8447,0 1.13354,-341.4075322 36.49996,57.7548462 z"
         id="path1370"
         sodipodi:nodetypes="ccccc"
         style="fill:url(#linearGradient1484);fill-opacity:1;fill-rule:evenodd;stroke:none"
         inkscape:connector-curvature="0" />
      <path
         d="m 222.5964,4.2080115 -36.49996,57.7811005 11.7888,283.652678 24.03104,0 1.81366,0 24.03104,0 L 259.54978,61.989112 223.04982,4.2080115 222.82311,72.494767 222.5964,4.2080115 z"
         id="path1372"
         style="fill:url(#linearGradient1486);fill-opacity:1;fill-rule:evenodd;stroke:none"
         inkscape:connector-curvature="0" />
      <path
         d="m 158.28033,346.13463 1.53184,32.0022 62.14862,-12.81379 62.91454,10.52658 0.59434,-31.0647 -63.05546,2.07443 -64.13388,-0.72472 z"
         id="path1374"
         sodipodi:nodetypes="ccccccc"
         style="fill:#000000;fill-opacity:1;fill-rule:evenodd;stroke:#000000;stroke-width:0.78084502pt;stroke-linecap:butt;stroke-linejoin:miter;stroke-opacity:1"
         inkscape:connector-curvature="0" />
      <path
         d="m 284.53217,346.85935 -0.90684,27.3147 -60.98917,-9.94524 -0.31602,-17.09795 62.21203,-0.27151 z"
         id="path1376"
         sodipodi:nodetypes="ccccc"
         style="fill:url(#linearGradient1488);fill-opacity:1;fill-rule:evenodd;stroke:none"
         inkscape:connector-curvature="0" />
      <path
         d="m 160.06954,347.64727 0.90683,27.3147 62.08002,-10.70971 -0.41547,-17.13026 -62.57138,0.52527 z"
         id="path1378"
         sodipodi:nodetypes="ccccc"
         style="fill:url(#linearGradient1490);fill-opacity:1;fill-rule:evenodd;stroke:none"
         inkscape:connector-curvature="0" />
      <path
         d="m 172.76518,448.50155 3.62733,22.06189 47.03957,1.61927 -1.93291,-21.95966 -48.73399,-1.7215 z"
         id="path1380"
         sodipodi:nodetypes="ccccc"
         style="fill:url(#linearGradient1492);fill-opacity:1;fill-rule:evenodd;stroke:none"
         inkscape:connector-curvature="0" />
      <path
         d="M 223,6.375 221.4375,346 l 3.75,0 L 223.625,6.6875 223,6.375 z"
         id="path1382"
         sodipodi:nodetypes="ccccc"
         style="fill:#000000;fill-opacity:1;fill-rule:evenodd;stroke:none"
         inkscape:connector-curvature="0" />
    </g>
  </g>
  <text
     xml:space="preserve"
     style="font-size:48px;font-style:normal;font-variant:normal;font-weight:bold;font-stretch:normal;line-height:125%;letter-spacing:0px;word-spacing:0px;fill:#00ff00;fill-opacity:1;stroke:none;filter:url(#filter4184);font-family:Bloody;-inkscape-font-specification:Bloody Bold"
     x="16.766703"
     y="106.30901"
     id="text3064"
     sodipodi:linespacing="125%"><tspan
       sodipodi:role="line"
       id="tspan3066"
       x="16.766703"
       y="106.30901">BLOCKED!</tspan></text>
</svg>
