<?xml version="1.0" encoding="UTF-8" standalone="no"?>
<!-- Created with Inkscape (http://www.inkscape.org/) -->
<svg xmlns:dc="http://purl.org/dc/elements/1.1/" xmlns:cc="http://creativecommons.org/ns#" xmlns:rdf="http://www.w3.org/1999/02/22-rdf-syntax-ns#" xmlns:svg="http://www.w3.org/2000/svg" xmlns="http://www.w3.org/2000/svg" xmlns:sodipodi="http://sodipodi.sourceforge.net/DTD/sodipodi-0.dtd" xmlns:inkscape="http://www.inkscape.org/namespaces/inkscape" width="295.56143" height="487.37097" id="svg2" version="1.1" inkscape:version="0.48.1 r9760" sodipodi:docname="spaceArmor.svg" style="display:inline">
  <title id="title4113">space armour</title>
  <defs id="defs4"/>
  <sodipodi:namedview id="base" pagecolor="#ffffff" bordercolor="#666666" borderopacity="1.0" inkscape:pageopacity="0.0" inkscape:pageshadow="2" inkscape:zoom="1.979899" inkscape:cx="113.44009" inkscape:cy="258.08393" inkscape:document-units="px" inkscape:current-layer="layer2" showgrid="false" inkscape:window-width="1920" inkscape:window-height="1152" inkscape:window-x="0" inkscape:window-y="0" inkscape:window-maximized="1" fit-margin-top="0" fit-margin-left="0" fit-margin-right="0" fit-margin-bottom="0"/>
  <metadata id="metadata7">
    <rdf:RDF>
      <cc:Work rdf:about="">
        <dc:format>image/svg+xml</dc:format>
        <dc:type rdf:resource="http://purl.org/dc/dcmitype/StillImage"/>
        <dc:title>space armour</dc:title>
        <dc:date>2011-08-07</dc:date>
        <dc:creator>
          <cc:Agent>
            <dc:title>tzunghaor (Prim András)</dc:title>
          </cc:Agent>
        </dc:creator>
        <cc:license rdf:resource="http://creativecommons.org/licenses/publicdomain/"/>
        <dc:publisher>
          <cc:Agent>
            <dc:title>openclipart.org</dc:title>
          </cc:Agent>
        </dc:publisher>
        <dc:subject>
          <rdf:Bag>
            <rdf:li>sci-fi</rdf:li>
            <rdf:li>armour</rdf:li>
            <rdf:li>armor</rdf:li>
            <rdf:li>space</rdf:li>
            <rdf:li>cartoon</rdf:li>
            <rdf:li/>
          </rdf:Bag>
        </dc:subject>
      </cc:Work>
      <cc:License rdf:about="http://creativecommons.org/licenses/publicdomain/">
        <cc:permits rdf:resource="http://creativecommons.org/ns#Reproduction"/>
        <cc:permits rdf:resource="http://creativecommons.org/ns#Distribution"/>
        <cc:permits rdf:resource="http://creativecommons.org/ns#DerivativeWorks"/>
      </cc:License>
    </rdf:RDF>
  </metadata>
  <g inkscape:groupmode="layer" id="layer2" inkscape:label="Réteg" style="display:inline" transform="translate(-135.06382,-59.904282)">
    <path style="fill:#333333;fill-opacity:1;stroke:#000000;stroke-width:0.50000000000000000;stroke-miterlimit:4;stroke-dasharray:none" d="m 302.14285,65.219332 c 0,0 13.665,3.37805 18.92858,5.714286 9.78837,4.344557 17.89636,15.527576 18.21428,29.285712 l -26.07143,2.5 z" id="path3815" inkscape:connector-curvature="0" sodipodi:nodetypes="csccc"/>
    <path style="fill:#1a1a1a;fill-opacity:1;stroke:#000000;stroke-width:0.50000000000000000;stroke-linecap:round;stroke-linejoin:round;stroke-miterlimit:4;stroke-opacity:1;stroke-dasharray:none;stroke-dashoffset:0" d="m 264.64286,368.43361 -1.78572,15 -41.07143,1.07143 5,-22.14286 z" id="path3994" inkscape:connector-curvature="0"/>
    <path style="fill:#333333;fill-opacity:1;stroke:#000000;stroke-width:0.50000000000000000;stroke-linecap:round;stroke-linejoin:round;stroke-miterlimit:4;stroke-opacity:1;stroke-dasharray:none;stroke-dashoffset:0" d="m 227.28432,455.36203 c -2.0203,1.51523 -43.43656,14.14213 -43.43656,14.14213 0,0 -8.08122,0.50508 -10.6066,5.05077 -2.52538,4.54568 -11.85145,18.7685 -3.53553,26.76904 7.45486,7.17214 60.80857,14.1443 72.2259,6.06091 6.29228,-4.45489 6.566,-9.09137 6.566,-9.09137 l 51.0127,-8.5863 -21.71828,-27.77919 z" id="path3988" inkscape:connector-curvature="0" sodipodi:nodetypes="ccssscccc"/>
    <path style="fill:#333333;fill-opacity:1;stroke:#000000;stroke-width:0.50000000000000000;stroke-linecap:round;stroke-linejoin:round;stroke-miterlimit:4;stroke-opacity:1;stroke-dasharray:none;stroke-dashoffset:0" d="m 213.92857,271.6479 c 0,0 -8.21428,-2.5 -10.71428,2.14285 -2.5,4.64286 -5.88377,37.88239 -1.42858,62.85714 2.07397,11.62621 17.14287,37.85716 21.42858,37.50001 15.8469,-4.88407 31.5515,-8.48734 46.07142,-1.42857 3.01745,-2.61513 6.78572,-56.07143 6.78572,-56.07143 z" id="path3978" inkscape:connector-curvature="0" sodipodi:nodetypes="csscccc"/>
    <path style="fill:#666666;fill-opacity:1;stroke:#000000;stroke-width:0.50000000000000000;stroke-linecap:round;stroke-linejoin:round;stroke-miterlimit:4;stroke-opacity:1;stroke-dasharray:none;stroke-dashoffset:0" d="m 211.42857,268.79075 c 0,0 -7.53445,1.73437 -8.57143,8.57143 -1.98806,13.10774 8.7467,28.43199 18.57143,38.92857 7.6488,8.17186 20,16.42857 29.28572,16.42857 9.28571,0 22.85714,-10 22.85714,-11.07142 0,-1.07143 -5,-27.14286 -5,-27.14286 z" id="path3980" inkscape:connector-curvature="0" sodipodi:nodetypes="csasscc"/>
    <path style="fill:#1a1a1a;fill-opacity:1;stroke:#000000;stroke-width:0.50000000000000000;stroke-linecap:round;stroke-linejoin:round;stroke-miterlimit:4;stroke-opacity:1;stroke-dasharray:none;stroke-dashoffset:0" d="m 168.44294,225.55232 -5.80838,13.63706 c 0,0 28.53681,25.50635 33.33503,22.72843 4.79823,-2.77792 9.59645,-26.26396 9.84899,-29.79949 0.25254,-3.53554 -37.37564,-6.566 -37.37564,-6.566 z" id="path3976" inkscape:connector-curvature="0" sodipodi:nodetypes="ccssc"/>
    <path style="fill:#333333;fill-opacity:1;stroke:#000000;stroke-width:0.50000000000000000;stroke-linecap:round;stroke-linejoin:round;stroke-miterlimit:4;stroke-opacity:1;stroke-dasharray:none;stroke-dashoffset:0" d="m 166.07143,204.86218 c 0,0 -5.35714,18.57143 1.07143,23.92857 6.42857,5.35715 22.14285,12.14286 30.71428,8.21429 C 206.42857,233.07647 222.5,224.1479 222.5,224.1479 l -1.42857,-79.64286 -27.5,1.42857 z" id="path3968" inkscape:connector-curvature="0"/>
    <path style="fill:#d45500;fill-opacity:1;stroke:#000000;stroke-width:0.50000000000000000;stroke-linecap:round;stroke-linejoin:round;stroke-miterlimit:4;stroke-opacity:1;stroke-dasharray:none;stroke-dashoffset:0" d="m 164.53125,224.09375 c 0.47457,1.93939 1.30485,3.58737 2.625,4.6875 6.42857,5.35715 22.11607,12.14732 30.6875,8.21875 3.63034,-1.66391 8.56351,-4.19424 13.09375,-6.59375 -2.2862,0.4884 -16.18179,3.97752 -25.06329,2.3125 -5.56107,-1.04254 -17.04136,-5.96309 -21.34296,-8.625 z" id="path3835" inkscape:connector-curvature="0" sodipodi:nodetypes="csscsc"/>
    <path style="opacity:0.5;fill:#000000;fill-opacity:1;stroke:none" d="m 164.39861,215.97382 c 1.89404,2.14207 5.93836,5.79279 9.97897,5.15909 0,0 -1.26269,8.33376 -1.26269,9.47018 0,0.76807 1.13643,2.65165 1.13643,2.65165 l -4.79823,-2.65165 -1.13642,1.6415 21.2132,22.47589 8.83884,3.66181 c 5.01214,-14.26841 8.96994,-28.28427 13.38452,-42.55268 l 3.28299,-75.63517 -8.71256,6.31345 -27.02158,61.99812 -14.10253,1.56752 z" id="path3991" inkscape:connector-curvature="0" sodipodi:nodetypes="ccsccccccccccc"/>
    <path style="fill:#333333;fill-opacity:1;stroke:#000000;stroke-width:0.50000000000000000;stroke-linecap:round;stroke-linejoin:round;stroke-miterlimit:4;stroke-opacity:1;stroke-dasharray:none;stroke-dashoffset:0" d="m 189.01523,248.03314 c 9.74277,4.05346 13.84191,16.4719 14.19906,20.40047 0.35714,3.92857 -9.18444,25.84622 -10.17332,39.36185 l -57.72715,7.1862 c 0.0987,-22.92796 8.45889,-64.09714 27.90047,-85.6425 3.18598,-3.8246 8.26134,11.39666 25.80094,18.69398 z" id="path3974" inkscape:connector-curvature="0" sodipodi:nodetypes="sscccs"/>
    <path style="fill:#d45500;fill-opacity:1;stroke:#000000;stroke-width:0.50000000000000000;stroke-linecap:round;stroke-linejoin:round;stroke-miterlimit:4;stroke-opacity:1;stroke-dasharray:none;stroke-dashoffset:0" d="m 187.60977,268.60723 c -24.55465,-8.66678 -29.41752,-0.41979 -39.87912,10.75 -4.93703,5.27124 -12.10739,20.93496 -12.10739,20.93496 l 0.033,19.33281 c 0.008,4.92261 2.53948,7.91438 6.81504,9.45781 1.47191,5.72172 5.18077,7.32127 10.18496,12.82344 4.34162,4.77365 21.34281,6.35597 32.375,3.75 5.25981,-1.24245 11.40178,-9.72321 10.6875,-12.9375 -0.71429,-3.21428 -3.29721,-16.60417 -2.6875,-24.9375 0.54605,-7.46319 3.6887,-17.38775 6.34375,-25.53125 -2.26836,-8.27665 -4.95725,-11.23983 -11.76523,-13.64277 z" id="path3830" inkscape:connector-curvature="0" sodipodi:nodetypes="sscscsssscs"/>
    <path style="fill:#d45500;fill-opacity:1;stroke:#000000;stroke-width:0.50000000000000000;stroke-linecap:round;stroke-linejoin:round;stroke-miterlimit:4;stroke-opacity:1;stroke-dasharray:none;stroke-dashoffset:0" d="m 170.35714,208.07647 c -2.87073,5.3827 -6.65843,4.72218 -11.42857,5.35714 -5.35729,0.71312 -3.21429,-11.78571 0.71428,-15.35714 z" id="path3916" inkscape:connector-curvature="0" sodipodi:nodetypes="cscc"/>
    <path style="fill:#333333;fill-opacity:1;stroke:#000000;stroke-width:0.50000000000000000;stroke-linecap:round;stroke-linejoin:round;stroke-miterlimit:4;stroke-opacity:1;stroke-dasharray:none;stroke-dashoffset:0" d="m 199.28571,207.00504 c 0,0 5.08669,8.06372 5.71429,15.71429 0.64883,7.90955 -3.57143,14.99999 -3.57143,14.99999 l 17.85714,-1.42857 -2.5,-31.78571 z" id="path3914" inkscape:connector-curvature="0" sodipodi:nodetypes="cscccc"/>
    <path style="fill:#333333;fill-opacity:1;stroke:#000000;stroke-width:0.50000000000000000;stroke-linecap:round;stroke-linejoin:round;stroke-miterlimit:4;stroke-opacity:1;stroke-dasharray:none;stroke-dashoffset:0" d="m 213.92857,261.29076 c -6.186,0 -5.49611,10.6689 -3.92857,16.42857 4.85393,15.9175 13.10742,30.15816 27.85714,41.42857 6.63236,5.06784 20.35715,4.64285 25,-1.42858 4.64286,-6.07142 24.36623,-35.54689 41.78572,-47.49999 7.88465,-5.41038 36.42549,-13.64015 36.42549,-13.64015 l -1.72444,-6.80366 c 0,0 -118.27249,11.51524 -125.41534,11.51524 z" id="path3925" inkscape:connector-curvature="0" sodipodi:nodetypes="scsssccs"/>
    <path style="fill:#333333;fill-opacity:1;stroke:#000000;stroke-width:0.50000000000000000;stroke-linecap:round;stroke-linejoin:round;stroke-miterlimit:4;stroke-opacity:1;stroke-dasharray:none;stroke-dashoffset:0" d="m 211.07143,149.86218 c -7.85714,21.07143 -10.71429,47.85715 -11.78572,57.14286 0,0 9.55092,3.21807 10.00001,15.35714 0.46231,12.49656 -8.21429,13.92858 -8.21429,13.92858 0.98597,10.81668 4.426,14.32366 7.85714,17.85714 L 290,258.43361 l 66.78571,-17.14286 -30,-95.71428 z" id="path3912" inkscape:connector-curvature="0" sodipodi:nodetypes="ccscccccc"/>
    <path style="fill:#666666;fill-opacity:1;stroke:#000000;stroke-width:0.50000000000000000;stroke-linecap:round;stroke-linejoin:round;stroke-miterlimit:4;stroke-opacity:1;stroke-dasharray:none;stroke-dashoffset:0" d="m 300.52038,253.92851 c 2.84402,0.55933 48.20759,-10.86944 51.01271,-14.99166 l 5.3033,7.82868 c -20.46674,7.53493 -36.40626,14.1944 -57.5787,15.15229 z" id="path3935" inkscape:connector-curvature="0" sodipodi:nodetypes="ccccc"/>
    <path style="fill:#333333;fill-opacity:1;stroke:#000000;stroke-width:0.50000000000000000;stroke-linecap:round;stroke-linejoin:round;stroke-miterlimit:4;stroke-opacity:1;stroke-dasharray:none;stroke-dashoffset:0" d="m 308.21429,204.1479 -18.92858,2.14285 c -14.55298,1.6475 -14.47716,31.21766 4.64286,32.14286 19.28125,0.933 36.07143,-5.35714 47.85715,-11.42857 z" id="path3923" inkscape:connector-curvature="0" sodipodi:nodetypes="csscc"/>
    <path style="fill:#333333;fill-opacity:1;stroke:#000000;stroke-width:0.50000000000000000;stroke-linecap:round;stroke-linejoin:round;stroke-miterlimit:4;stroke-opacity:1;stroke-dasharray:none;stroke-dashoffset:0" d="m 228.21429,104.1479 c -8.57143,0.35714 -28.56006,10.06631 -47.14286,35 -10.23261,13.72972 -24.28572,45.35714 -25.35715,55.35714 L 176.42857,205.93361 212.5,127.71932 z" id="path3910" inkscape:connector-curvature="0" sodipodi:nodetypes="cscccc"/>
    <path style="fill:#d45500;fill-opacity:1;stroke:#000000;stroke-width:0.50000000000000000;stroke-linecap:round;stroke-linejoin:round;stroke-miterlimit:4;stroke-opacity:1;stroke-dasharray:none;stroke-dashoffset:0" d="m 155.35714,201.64789 c 2.65567,3.24582 17.00155,22.4694 27.85714,9.28572 21.01794,-25.52545 32.14286,-87.85715 66.42857,-99.64286 -7.14286,-3.57143 -14.28571,-10 -24.28571,-7.5 -10,2.5 -11.90988,18.8551 -16.42857,27.5 -4.60493,8.80988 -20.49121,52.09242 -32.85715,68.57143 -5.4279,7.23329 -19.28571,-10.71428 -19.28571,-10.71428 0,0 -4.64285,8.57142 -1.42857,12.49999 z" id="path3908" inkscape:connector-curvature="0" sodipodi:nodetypes="sscssscs"/>
    <path style="fill:#d45500;fill-opacity:1;stroke:#000000;stroke-width:0.50000000000000000;stroke-linecap:round;stroke-linejoin:round;stroke-miterlimit:4;stroke-opacity:1;stroke-dasharray:none;stroke-dashoffset:0" d="m 211.78571,141.29075 c 0,0 -4.8555,29.15427 -2.85714,43.57144 2.27912,16.44266 7.66532,23.77427 13.21429,25.71428 17.58452,6.14784 35.3793,-7.70366 42.14285,-16.07143 C 276.52368,179.36438 302.5,144.1479 302.5,144.1479 L 285,137.00504 z" id="path3901" inkscape:connector-curvature="0" sodipodi:nodetypes="csssccc"/>
    <path sodipodi:nodetypes="scccs" inkscape:connector-curvature="0" id="path3937" d="m 306.43336,252.46187 c 7.37595,-1.29365 41.537,-12.93833 44.34212,-17.06055 l 5.3033,7.82868 c -20.46674,7.53493 -36.40626,14.1944 -57.5787,15.15229 0,0 0.36414,-4.59283 7.93328,-5.92042 z" style="fill:#666666;fill-opacity:1;stroke:#000000;stroke-width:0.50000000000000000;stroke-linecap:round;stroke-linejoin:round;stroke-miterlimit:4;stroke-opacity:1;stroke-dasharray:none;stroke-dashoffset:0"/>
    <path style="fill:#333333;fill-opacity:1;stroke:#000000;stroke-width:0.50000000000000000;stroke-linecap:round;stroke-linejoin:round;stroke-miterlimit:4;stroke-opacity:1;stroke-dasharray:none;stroke-dashoffset:0" d="m 216.78571,123.43361 c 0,0 -3.85068,10.93201 -4.64285,15.71429 -2.85533,17.23755 -5.90585,35.96625 2.14286,48.21428 8.21428,12.5 22.14285,12.5 33.57142,2.14286 8.22084,-7.45014 70.35715,-72.5 70.35715,-72.5 0,0 17.5,-17.857145 14.64285,-24.642859 C 330,85.576467 316.91917,68.274595 304.21393,63.6682 c -17.73349,-6.42943 -42.25479,-3.635339 -56.35679,5.122552 -5.52628,3.432034 -11.07143,16.071429 -11.07143,16.071429 L 232.5,103.79075 z" id="path3899" inkscape:connector-curvature="0" sodipodi:nodetypes="cssscsasccc"/>
    <path style="fill:#333333;fill-opacity:1;stroke:#000000;stroke-width:0.50000000000000000;stroke-linecap:round;stroke-linejoin:round;stroke-miterlimit:4;stroke-opacity:1;stroke-dasharray:none;stroke-dashoffset:0" d="m 268.35714,70.174107 c 12.65625,0.03348 25.93304,5.950893 32.36161,9.700893 8.57142,5 4.82997,23.15161 0.34375,31.40625 -8.92857,16.42858 -38.19643,29.65179 -46.76786,33.58036 -8.57143,3.92858 -26.71211,5.30836 -32.50446,-3.94197 -6.40894,-10.23502 5.47965,-27.31828 11.78125,-34.25893 8.67641,-9.556276 0.42879,-15.4867 11.41964,-30.026781 4.26081,-5.636737 19.14732,-6.470983 23.36607,-6.459822 z" id="path3962" inkscape:connector-curvature="0"/>
    <path style="fill:#000000;fill-opacity:1;stroke:none;opacity:0.5" d="m 257.59375,124.03125 c -9.59699,1.3221 -18.72888,12.88378 -25.71875,23.125 7.57294,1.67928 16.92936,0.229 22.40625,-2.28125 9.70567,-3.42199 4.66201,-10.66105 3.3125,-20.84375 z" id="path4092" inkscape:connector-curvature="0" sodipodi:nodetypes="cccc"/>
    <path style="fill:#ac9d93;fill-opacity:1;stroke:#000000;stroke-width:0.50000000000000000;stroke-linecap:round;stroke-linejoin:round;stroke-miterlimit:4;stroke-opacity:1;stroke-dasharray:none;stroke-dashoffset:0" d="m 294.90913,76.934445 c -6.92205,-2.068083 -21.67293,-0.09562 -21.67293,-0.09562 0,0 -14.96897,3.986231 -19.32455,17.249913 -2.15899,6.574622 -4.34215,12.205362 -2.73219,15.655862 1.60995,3.45051 2.42311,4.67197 0.81316,8.35251 -1.60997,3.68053 -2.30066,7.4374 -0.3212,13.83408 0.78748,2.54478 0.92043,10.68823 3.42475,13.26646 1.19875,-0.35846 3.28607,-1.00408 4.25463,-1.44808 7.80626,-3.57848 32.7058,-16.39313 40.83731,-31.3577 4.08574,-7.51904 12.29141,-24.558179 4.48516,-29.112611 -4.57162,-2.667238 -6.04507,-5.233678 -9.76414,-6.344817 z" id="path3941" inkscape:connector-curvature="0" sodipodi:nodetypes="acsssscsssa"/>
    <path style="fill:#483e37;fill-opacity:1;stroke:none" d="m 294.65659,75.671754 c 0,0 -10.73809,-0.98348 -21.42039,1.167073 -4.1268,0.830805 -5.76864,1.527422 -11.1849,5.863832 5.39415,-0.11306 17.25075,0.08142 22.68287,3.586616 2.25382,1.45433 2.29763,4.372082 0.22768,5.52225 -2.06994,1.150168 -5.49284,10.332865 -5.49284,10.332865 l 2.98833,3.9282 c 0,0 -8.75657,-1.79066 -16.10853,4.12746 -1.44454,1.1628 1.13841,3.92819 1.13841,3.92819 l -1.08149,6.49007 5.23669,-4.21285 7.11508,-0.91089 c -1.45665,-0.30667 -2.86873,-0.69077 -3.89906,-1.85023 l 10.10341,-1.82178 -1.13841,2.98885 c 0,0 3.47034,3.08547 3.21601,5.29453 -0.51891,4.50719 -11.0426,8.96654 -11.0426,8.96654 0.96385,1.5615 3.01628,3.91296 3.27977,4.76391 8.98473,-5.42329 16.68784,-13.67165 20.91149,-21.44452 4.08574,-7.51904 8.75588,-21.27518 5.49532,-28.860071 -2.0903,-4.862563 -2.08813,-6.276951 -11.02684,-7.860045 z m -39.66345,31.169396 c -2.29634,0.0323 -3.586,1.05321 -3.586,1.05321 l 2.50451,8.5111 3.01679,0.22772 2.04915,5.06681 3.21601,-10.33287 c 0,0 -0.67221,-3.00575 -4.58211,-4.15592 -0.97747,-0.28754 -1.8529,-0.38083 -2.61835,-0.37005 z m 5.83437,18.44545 c -0.22715,-0.008 -0.4426,0.007 -0.65459,0.0284 -0.48456,0.0492 -0.90695,0.19068 -1.28072,0.42698 -1.02463,0.64783 -0.65458,3.72899 -0.65458,3.72899 l 2.93141,0.48391 7.96889,-1.28094 c 0,0 -4.90328,-3.26411 -8.31041,-3.38736 z m 3.92752,8.4257 -4.24059,0.31312 -3.89906,4.07053 c 0,0 4.32549,-1.61551 6.83047,-1.79331 1.85491,-0.13166 4.65307,0.16973 6.83048,0.48391 0.26994,-0.14322 0.55203,-0.28012 0.82535,-0.42698 z" id="path3950" inkscape:connector-curvature="0" sodipodi:nodetypes="cscssccscccccccsccsscccccccsccccccccccccsccc"/>
    <path style="fill:#d45500;fill-opacity:1;stroke:#000000;stroke-width:0.50000000000000000;stroke-linecap:round;stroke-linejoin:round;stroke-miterlimit:4;stroke-opacity:1;stroke-dasharray:none;stroke-dashoffset:0" d="m 266.03125,63.96875 c -10.25994,0.01328 -21.34477,3.186006 -27.8125,11.59375 -2.90708,3.779064 -3.99364,12.985906 -4.28125,17.15625 -0.71429,10.35715 -15.69448,24.88999 -17.875,34.65625 -1.89183,8.47326 1.06928,19.6242 14.28125,21.78125 17.5,2.85714 47.0527,-8.24407 63.21875,-23.9375 10.07289,-9.77841 18.53604,-22.39582 16.09375,-38.9375 -2.21936,-15.031812 -24.33573,-20.836554 -39.3125,-22.125 -1.41619,-0.121835 -2.84679,-0.189397 -4.3125,-0.1875 z m 2.32589,6.205357 c 12.65625,0.03348 25.93304,5.950893 32.36161,9.700893 8.57142,5 4.82997,23.15161 0.34375,31.40625 -8.92857,16.42858 -38.19643,29.65179 -46.76786,33.58036 -8.57143,3.92858 -26.71211,5.30836 -32.50446,-3.94197 -6.40894,-10.23502 5.47965,-27.31828 11.78125,-34.25893 8.67641,-9.556276 0.42879,-15.4867 11.41964,-30.026781 4.26081,-5.636737 19.14732,-6.470983 23.36607,-6.459822 z" id="path3894" inkscape:connector-curvature="0" sodipodi:nodetypes="sssssssssssssasss"/>
    <path style="fill:#666666;fill-opacity:1;stroke:#000000;stroke-width:0.50000000000000000;stroke-linecap:round;stroke-linejoin:round;stroke-miterlimit:4;stroke-opacity:1;stroke-dasharray:none;stroke-dashoffset:0" d="m 210,261.29075 c -0.0684,6.2414 5.66569,9.28571 13.52284,13.92858 7.19777,4.25323 19.14829,5.28317 29.14829,1.35459 6.24544,-2.45357 25.747,-7.07374 25.54315,-11.3546 -0.35714,-7.49999 -6.25131,-12.69398 -13.74999,-11.60714 -8.16003,1.18269 -29.46039,-0.40084 -47.67858,-1.60714 -3.82525,-0.25329 -6.7437,5.45231 -6.78571,9.28571 z" id="path3929" inkscape:connector-curvature="0" sodipodi:nodetypes="sssssss"/>
    <path style="fill:#d45500;fill-opacity:1;stroke:#000000;stroke-width:0.50000000000000000;stroke-linecap:round;stroke-linejoin:round;stroke-miterlimit:4;stroke-opacity:1;stroke-dasharray:none;stroke-dashoffset:0" d="m 216.80365,265.47186 c 7.74139,2.83777 8.14404,7.0144 17.19889,7.67857 9.99872,0.7334 24.30608,-3.32576 31.18129,-5.17857 3.73001,-1.00521 4.16749,-8.29773 -0.0433,-7.5 -10.98764,2.08158 -20.28482,-1.89583 -31.19924,-2.46411 -10.01192,-0.52128 -11.54462,1.68372 -15.54841,0.60442 -4.69024,-1.26435 -3.42244,6.18767 -1.5892,6.85968 z" id="path3927" inkscape:connector-curvature="0" sodipodi:nodetypes="cssssssc"/>
    <path style="fill:#666666;fill-opacity:1;stroke:#000000;stroke-width:0.50000000000000000;stroke-linecap:round;stroke-linejoin:round;stroke-miterlimit:4;stroke-opacity:1;stroke-dasharray:none;stroke-dashoffset:0" d="m 205.35714,248.79075 c 0,0 -3.22454,-1.04383 -4.64285,3.57143 -1.25553,4.08556 -0.59174,10.01795 2.85714,12.5 1.29638,0.93296 6.01282,4.51439 9.09445,2.70921 3.15301,-1.847 3.44888,-10.62763 -0.35715,-13.21429 -1.72236,-1.17056 -6.95159,-5.56635 -6.95159,-5.56635 z" id="path3931" inkscape:connector-curvature="0" sodipodi:nodetypes="cssssc"/>
    <path style="fill:#666666;fill-opacity:1;stroke:#000000;stroke-width:0.50000000000000000;stroke-linecap:round;stroke-linejoin:round;stroke-miterlimit:4;stroke-opacity:1;stroke-dasharray:none;stroke-dashoffset:0" d="m 269.71073,258.88736 c -0.60083,3.67899 1.37242,8.63188 4.79822,10.10153 6.72873,2.8866 11.70317,0.47771 17.1726,-1.26269 5.90175,-1.87797 14.43116,-2.25139 15.9099,-9.59645 0.6488,-3.22265 1.00023,-7.01796 -2.27284,-7.32361 -9.52349,-0.88932 -19.4977,0.14673 -27.7792,3.03046 -3.59501,1.25184 -7.30092,1.81922 -7.82868,5.05076 z" id="path3933" inkscape:connector-curvature="0" sodipodi:nodetypes="ssassss"/>
    <path style="opacity:0.50000000000000000;fill:#87aade;fill-opacity:1;stroke:#000000;stroke-width:0.50000000000000000;stroke-linecap:round;stroke-linejoin:round;stroke-miterlimit:4;stroke-opacity:1;stroke-dasharray:none;stroke-dashoffset:0" d="m 256.32621,65.948221 c -14.69531,3.514866 -22.58248,14.14079 -29.54696,25.001276 -7.78367,12.137943 -12.87945,38.133263 -11.61676,41.668793 1.26269,3.53553 3.1633,12.34112 12.37437,14.89975 13.63706,3.78807 29.7995,-0.25254 49.75002,-10.85914 10.8371,-5.7615 29.80597,-24.54811 31.31472,-36.61803 1.76777,-14.142136 -0.25253,-21.970818 -9.34391,-26.769043 -8.26361,-4.361347 -28.99888,-10.656043 -42.93148,-7.323606 z" id="path3939" inkscape:connector-curvature="0" sodipodi:nodetypes="sassssss"/>
    <path style="opacity:0.5;fill:#000000;fill-opacity:1;stroke:none" d="m 298,64.4375 c 19.33119,20.474967 13.13295,31.36315 10.5625,43.625 0.95911,1.91822 -26.20648,48.18871 -30.6875,54.28125 -4.60495,6.26102 -14.94544,22.56489 -24.6875,31.78125 -6.09282,5.76404 -20.6875,14.3125 -20.6875,14.3125 l -3.9375,3.75 c -1.40777,4.57524 18.38407,0.24208 27.34375,-6.4375 6.62099,-4.93606 27.5,-30.1875 27.5,-30.1875 l 6.9375,30 c -9.83513,3.30166 -13.19237,11.55011 -11.40625,20 l 20.875,-0.34375 C 302.85302,225.16678 310,237.1875 310,237.1875 c -5.84846,2.16178 -9.11655,1.0836 -13.21875,1.0625 1.69897,4.77675 2.06721,8.89316 2.5625,12.1875 6.6112,-0.27601 7.96653,3.45482 7.75,5.625 -0.71744,7.1905 -10.93697,9.11579 -14.25,10.0625 0,0 -7.13619,2.81193 -10.90625,3.09375 -2.98123,0.22285 -8.875,-1.15625 -8.875,-1.15625 -32.16049,12.58609 -40.93308,9.10519 -50.90625,6.4375 0,0 6.94642,6.43303 22.125,6.96875 5.36569,0.18938 28.21875,-9.09375 28.21875,-9.09375 0,0 4.62947,2.48215 7.84375,2.125 3.21429,-0.35714 13.09375,-4.5 13.09375,-4.5 0,0 -25.01203,33.79103 -32.3125,40.625 -11.17821,10.46391 -32.0625,0.5625 -32.0625,0.5625 5.68178,5.71042 10.15874,12.32282 24.625,11.21875 9.09137,-0.63135 112,-66.03125 112,-66.03125 L 344.3125,114 C 333.18437,96.625185 327.10387,75.85316 304.5625,64.4375 l -6.5625,0 z m 17.75,6.4375 c 7.96039,6.824137 14.60712,16.105646 16.84375,20.96875 0.25126,-0.04806 0.4971,-0.08257 0.75,-0.125 0.86911,-0.145828 1.71107,-0.25396 2.5625,-0.375 C 332.99479,81.782794 325.2909,73.822453 315.75,70.875 z M 199.25,206.75 c 2.54601,5.13494 5.98814,10.27131 5.6875,15.40625 l 4.15625,0.25 C 209.07585,212.39836 204.20537,209.51631 199.25,206.75 z m 14.84375,49.375 -4.4375,1.40625 c -0.53572,0.71428 0.17857,9.01339 -0.625,9.90625 -1.26986,1.41095 3.1875,0.28125 3.1875,0.28125 2.55796,-0.84134 3.34201,-6.77784 1.875,-11.59375 z m 52.84375,4.21875 c -0.3609,0.003 -0.76153,0.10059 -1.21875,0.21875 0.25949,2.23214 1.48378,6.30365 -1.78125,6.34375 -3.66153,0.045 -20.50915,4.50935 -32.6875,4.46875 -3.42105,-0.0114 -6.59375,-3.29018 -9.09375,-4.71875 -2.5,-1.42857 -6.25,-2.5 -6.25,-2.5 0,0 1.24108,1.79018 2.3125,1.96875 1.07143,0.17857 7.12108,5.56832 11.34375,6.875 4.64144,1.43626 9.69454,1.24168 14.53125,0.78125 7.81819,-0.74426 20.26606,-4.73202 22.875,-5.71875 2.07272,-0.78393 2.15361,-4.25324 1.34375,-6.59375 -0.29727,-0.85913 -0.7735,-1.12994 -1.375,-1.125 z" id="path4042" inkscape:connector-curvature="0"/>
    <path style="fill:#333333;fill-opacity:1;stroke:#000000;stroke-width:0.50000000000000000;stroke-linecap:round;stroke-linejoin:round;stroke-miterlimit:4;stroke-opacity:1;stroke-dasharray:none;stroke-dashoffset:0" d="m 169.28571,274.86218 c -7.23658,1.94125 -16.25738,8.02002 -19.64286,15.71429 -3.92856,8.92857 -9.2372,36.52338 1.07143,47.85714 9.91932,10.90573 40.81324,10.34913 43.21429,-3.92857 C 194.94757,328.44561 190,321.6479 190,315.21932 c 0,-11.78571 8.21429,-23.57142 2.85714,-31.78571 -4.14779,-6.35994 -15.45315,-10.7492 -23.57143,-8.57143 z" id="path3972" inkscape:connector-curvature="0" sodipodi:nodetypes="sssssss"/>
    <path style="fill:#333333;fill-opacity:1;stroke:#000000;stroke-width:0.50000000000000000;stroke-linecap:round;stroke-linejoin:round;stroke-miterlimit:4;stroke-opacity:1;stroke-dasharray:none;stroke-dashoffset:0" d="m 172.73609,344.37152 c 0,0 3.28299,4.41941 6.06091,4.67195 2.77792,0.25254 10.85914,-2.90418 12.12183,-4.54568 1.07783,-1.40118 0.2697,-8.40186 -4.16687,-9.09137 -2.42512,-0.3769 -7.32361,0.75761 -7.32361,0.75761 z" id="path4026" inkscape:connector-curvature="0" sodipodi:nodetypes="cssscc"/>
    <path style="fill:#333333;fill-opacity:1;stroke:#000000;stroke-width:0.50000000000000000;stroke-linecap:round;stroke-linejoin:round;stroke-miterlimit:4;stroke-opacity:1;stroke-dasharray:none;stroke-dashoffset:0" d="m 153.29065,328.46161 c 0,0 -1.89404,3.53554 -0.50508,6.31346 1.38896,2.77792 7.44988,9.21764 9.47018,9.21764 2.02031,0 7.44988,-8.46003 7.44988,-8.46003 z" id="path4024" inkscape:connector-curvature="0"/>
    <path style="fill:#666666;fill-opacity:1;stroke:#000000;stroke-width:0.50000000000000000;stroke-linecap:round;stroke-linejoin:round;stroke-miterlimit:4;stroke-opacity:1;stroke-dasharray:none;stroke-dashoffset:0" d="m 197.5,465.21932 c 0,0 -1.40942,-6.93151 2.67858,-7.67857 8.36714,-1.52905 17.32142,-2.67857 17.32142,-2.67857 0,0 20.79507,11.12852 24.10714,16.25 0,0 2.86469,5.23374 -0.35714,5.89286 -8.17596,1.67264 -19.10714,2.5 -19.10714,2.5 -4.81615,0.58126 -20.35715,-15.71429 -20.35715,-15.71429 z" id="path3990" inkscape:connector-curvature="0" sodipodi:nodetypes="cscssscc"/>
    <path style="fill:#d45500;fill-opacity:1;stroke:#000000;stroke-width:0.50000000000000000;stroke-linecap:round;stroke-linejoin:round;stroke-miterlimit:4;stroke-opacity:1;stroke-dasharray:none;stroke-dashoffset:0" d="m 215.12246,367.67402 c 3.27616,4.94042 6.28152,8.38019 7.84375,8.25 8.57142,-0.71429 22.85457,-2.2179 29.625,-2.5 8.57143,-0.35714 11.08036,5.70536 16.4375,1.0625 0.4282,-0.37111 0.86697,-1.848 1.3125,-3.96875 -4.85269,-1.84712 -13.00036,-4.12555 -17.3125,-4.30235 -12.22584,-0.50124 -25.32457,0.30328 -37.90625,1.4586 z" id="path3845" inkscape:connector-curvature="0" sodipodi:nodetypes="cssscsc"/>
    <path style="fill:#333333;fill-opacity:1;stroke:#000000;stroke-width:0.50000000000000000;stroke-linecap:round;stroke-linejoin:round;stroke-miterlimit:4;stroke-opacity:1;stroke-dasharray:none;stroke-dashoffset:0" d="m 198.21429,368.07647 c 3.15856,9.36554 10.35714,29.28571 14.64285,31.42857 4.28572,2.14286 7.5,8.21428 7.5,8.21428 -1.74783,17.64827 -5.34563,27.33531 -10.71428,38.92858 -3.83169,8.27428 19.66505,12.76391 30.08666,18.0843 10.27754,5.24684 13.65283,16.55409 31.84699,13.57143 C 293.36222,474.73219 305,464.86218 305,464.86218 c 0,0 -26.78571,-73.57143 -30.71429,-79.28571 -3.92857,-5.71429 -9.05125,-7.53074 -14.11983,-9.03318 -6.97087,-2.06633 -20.52302,0.81889 -20.52302,0.81889 0,0 -2.75618,-9.54327 -12.5,-13.21428 -14.89892,-5.6132 -30.92772,-1.99915 -28.92857,3.92857 z" id="path3984" inkscape:connector-curvature="0" sodipodi:nodetypes="sscsascsscss"/>
    <path style="fill:#d45500;fill-opacity:1;stroke:#000000;stroke-width:0.50000000000000000;stroke-linecap:round;stroke-linejoin:round;stroke-miterlimit:4;stroke-opacity:1;stroke-dasharray:none;stroke-dashoffset:0" d="m 209.4375,447.15625 c -2.69908,8.02495 18.76391,14.30102 28.78125,19.84375 10.36851,5.73703 14.64959,16.54516 32.84375,13.5625 C 292.84821,476.99106 305,464.875 305,464.875 c 0,0 -0.65123,-1.76039 -0.75,-2.03125 -14.38517,2.42584 -26.70286,6.97537 -40.09708,5.40117 -19.41266,-2.28152 -38.10888,-18.82719 -54.71542,-21.08867 z" id="path3850" inkscape:connector-curvature="0" sodipodi:nodetypes="cssccac"/>
    <path style="opacity:0.5;fill:#000000;fill-opacity:1;stroke:none" d="m 227.8125,310 7.0625,16.5625 c -1.11663,15.63354 -3.06317,26.28765 -4.8125,38.125 l -6.83106,9.09375 c 0,0 8.85977,3.55901 9.11231,10.125 0.15419,4.00881 -1.20343,8.76556 -3.26134,12.26495 -0.65471,1.1133 4.23834,4.14256 5.2492,6.98514 1.01597,2.85696 -2.35572,8.05072 -3.19383,8.39583 -3.73626,1.53846 -14.20028,-9.98967 -14.20028,-9.98967 0,0 1.50587,4.29981 4.03125,5.5625 2.52538,1.26269 9.47165,10.9803 14.01734,10.22269 4.54569,-0.75762 19.0561,-3.16098 19.0561,-3.16098 0,0 9.6158,51.01507 6.33281,55.81329 -3.01386,4.40487 -7.34296,7.02162 -8.0625,7.4375 -4.93258,-3.07487 -8.68595,-7.4453 -14.09375,-10.4375 -0.21648,-0.11978 -0.46069,-0.25452 -0.6875,-0.375 L 236.125,466.21875 240.90625,470 c 0,0 -18.67481,0.26856 -19.9375,1.53125 -1.26269,1.26269 0.25,7.5625 0.25,7.5625 0,0 5.56933,4.7163 7.50446,6.87946 -10.05576,1.1995 -17.7717,-0.70668 -24.62946,0.15179 6.72059,3.471 17.31912,6.82956 31.96875,6.25 l 0,-0.0312 c 0.69326,0.26184 1.37963,0.43429 2.03125,0.5 2.55362,0.25752 4.62968,7.64378 5.8125,12.96875 4.37717,-3.91192 4.59375,-7.53125 4.59375,-7.53125 l 44.03125,-7.40625 c 0.54981,-6.16969 -0.68798,-14.7754 -1.25,-18.15625 0.0769,0.41862 0.0337,0.13767 0.25,1.21875 l -1.875,-31.71875 c 0,0 -7.90208,-44.77139 -18.6875,-58.0625 -1.94529,-2.39723 -8.34375,-4.0625 -8.34375,-4.0625 0.15595,-1.26195 0.61061,-2.96093 1.0625,-3.8125 1.55171,-0.16633 3.73418,-0.65651 4.9375,-1.46875 l -1.4375,-1.78125 6.03125,-23.40625 c 0.96917,-9.25488 1.77073,-19.18295 2.28125,-25.71875 -6.76851,-12.95353 -4.15722,-11.98297 -12.65625,-6.1875 -4.64285,6.07143 -18.36764,6.50534 -25,1.4375 -3.75076,-2.866 -7.06973,-5.92738 -10.03125,-9.15625 z" id="path3870" inkscape:connector-curvature="0" sodipodi:nodetypes="ccccsssscsscscscccscccccsccccccscccccccscc"/>
    <path style="fill:#333333;fill-opacity:1;stroke:#000000;stroke-width:0.50000000000000000;stroke-linecap:round;stroke-linejoin:round;stroke-miterlimit:4;stroke-opacity:1;stroke-dasharray:none;stroke-dashoffset:0" d="m 168.65486,290.85374 c 3.89203,-2.26398 11.33396,-2.54697 14.14214,1.26269 2.80486,3.80515 5.42957,11.36421 2.90419,14.01586 -3.06771,3.2211 -15.40482,4.67196 -18.18275,1.26269 -2.17704,-2.67182 -5.26982,-12.81475 1.13642,-16.54124 z" id="path4012" inkscape:connector-curvature="0" sodipodi:nodetypes="sssss"/>
    <path style="fill:#333333;fill-opacity:1;stroke:#000000;stroke-width:0.50000000000000000;stroke-linecap:round;stroke-linejoin:round;stroke-miterlimit:4;stroke-opacity:1;stroke-dasharray:none;stroke-dashoffset:0" d="m 149.37631,316.21351 c -2.7884,3.55679 -1.36792,8.89015 0.50507,12.75318 2.02031,4.16688 5.17703,6.31346 8.5863,5.68211 3.40926,-0.63134 10.10153,-4.29315 9.97526,-7.82868 -0.0951,-2.66195 -2.07138,-10.96282 -6.9448,-13.38453 -3.85441,-1.91534 -9.46636,-0.60933 -12.12183,2.77792 z" id="path4018" inkscape:connector-curvature="0" sodipodi:nodetypes="ssssss"/>
    <path style="fill:#333333;fill-opacity:1;stroke:#000000;stroke-width:0.50000000000000000;stroke-linecap:round;stroke-linejoin:round;stroke-miterlimit:4;stroke-opacity:1;stroke-dasharray:none;stroke-dashoffset:0" d="m 167.77098,303.60691 c -0.68436,5.22737 -0.25254,12.2481 2.14657,15.65737 2.39912,3.40926 11.24717,4.03054 13.8896,0.12626 2.40638,-3.55549 3.8517,-11.12152 0.75762,-16.41497 -1.57038,-2.68666 -16.44794,-2.01038 -16.79379,0.63134 z" id="path4016" inkscape:connector-curvature="0" sodipodi:nodetypes="sssss"/>
    <path style="fill:#333333;fill-opacity:1;stroke:#000000;stroke-width:0.50000000000000000;stroke-linecap:round;stroke-linejoin:round;stroke-miterlimit:4;stroke-opacity:1;stroke-dasharray:none;stroke-dashoffset:0" d="m 162.12948,335.91149 c -1.26542,1.18757 -2.90418,3.40926 -2.27284,5.3033 0.63135,1.89404 4.19877,4.64721 7.07107,5.3033 5.31118,1.21318 14.01586,-1.76777 16.03617,-3.15673 2.02031,-1.38896 0.87755,-9.5336 -1.89404,-10.85914 -2.90418,-1.38895 -14.01017,-1.21759 -18.94036,3.40927 z" id="path4022" inkscape:connector-curvature="0" sodipodi:nodetypes="ssasss"/>
    <path style="fill:#333333;fill-opacity:1;stroke:#000000;stroke-width:0.50000000000000000;stroke-linecap:round;stroke-linejoin:round;stroke-miterlimit:4;stroke-opacity:1;stroke-dasharray:none;stroke-dashoffset:0" d="m 159.6041,325.05234 c -2.5519,1.76224 -4.04061,5.30331 -2.52538,8.71258 1.51523,3.40926 9.9515,6.41732 11.86929,6.18718 6.31346,-0.75762 9.84899,-2.0203 10.2278,-4.92449 0.37881,-2.90419 0.98378,-7.0097 -2.27284,-8.96511 -2.44147,-1.46596 -13.41598,-3.69152 -17.29887,-1.01016 z" id="path4020" inkscape:connector-curvature="0" sodipodi:nodetypes="ssssss"/>
    <path style="fill:#d45500;fill-opacity:1;stroke:none" d="m 231.70374,150.67477 6.06091,0.3788 c -2.88178,13.69357 -0.65461,28.32288 0.63135,42.80522 -4.96021,3.31967 -7.17352,1.85897 -10.48033,1.6415 -0.73535,-16.45323 0.009,-32.50987 3.78807,-44.82552 z" id="path3826" inkscape:connector-curvature="0" sodipodi:nodetypes="ccccc"/>
    <path style="fill:#d45500;fill-opacity:1;stroke:none" d="m 222.73864,148.5282 4.67195,1.51523 c -4.05675,14.30727 -4.84584,29.26806 -4.54569,44.19417 -2.5354,-0.61665 -3.59342,-1.53629 -5.6821,-4.04061 -3.24045,-9.59336 1.38369,-30.02494 5.55584,-41.66879 z" id="path3828" inkscape:connector-curvature="0" sodipodi:nodetypes="ccccc"/>
    <path style="fill:#333333;fill-opacity:1;stroke:#000000;stroke-width:0.50000000000000000;stroke-linecap:round;stroke-linejoin:round;stroke-miterlimit:4;stroke-opacity:1;stroke-dasharray:none;stroke-dashoffset:0" d="m 316.78571,264.1479 c -26.92477,6.08804 -55.35714,51.78571 -55.71428,59.28571 -0.35714,7.5 12.17845,53.16685 19.64286,72.5 3.60282,9.33147 67.77872,5.79269 71.07142,2.5 6.07144,-6.07143 10,-2.5 10.71429,-3.92858 1.78571,-3.57142 6.07143,-59.64285 3.92857,-67.85713 -2.14286,-8.21429 -15.71428,-51.78572 -15.71428,-51.78572 -17.14286,-12.85714 -15.78915,-14.81585 -33.92858,-10.71428 z" id="path3982" inkscape:connector-curvature="0" sodipodi:nodetypes="sssssscs"/>
    <path style="fill:#333333;fill-opacity:1;stroke:#000000;stroke-width:0.50000000000000000;stroke-linecap:round;stroke-linejoin:round;stroke-miterlimit:4;stroke-opacity:1;stroke-dasharray:none;stroke-dashoffset:0" d="m 295,465.57647 -5,28.21429 c -0.6741,3.80382 -0.005,3.03707 -8.92857,5.71427 C 277.5,500.57646 277.5,520.93361 280,525.57647 c 4.30282,7.99096 16.04491,22.0547 47.14286,21.42857 53.21429,-1.07143 60.71428,-21.42857 61.07142,-31.42857 0.35714,-10 -1.42856,-13.21429 -1.42856,-13.21429 l -3.57143,-2.5 c 0.93618,-3.91519 -0.5682,-11.6693 -2.5,-16.78571 l -27.85715,-24.28572 z" id="path3992" inkscape:connector-curvature="0" sodipodi:nodetypes="csssssccccc"/>
    <path style="fill:#d45500;fill-opacity:1;stroke:#000000;stroke-width:0.50000000000000000;stroke-linecap:round;stroke-linejoin:round;stroke-miterlimit:4;stroke-opacity:1;stroke-dasharray:none;stroke-dashoffset:0" d="m 279.34375,392.25 c 0.4715,1.30924 0.93505,2.54802 1.375,3.6875 2.74875,9.99192 79.47795,11.09133 81.875,-1.65625 -37.97065,-7.5751 -53.7216,-12.02459 -83.25,-2.03125 z" id="path3860" inkscape:connector-curvature="0" sodipodi:nodetypes="cccc"/>
    <path style="fill:#666666;fill-opacity:1;stroke:#000000;stroke-width:0.50000000000000000;stroke-miterlimit:4;stroke-dasharray:none" d="m 296.60714,475.93361 c 0,0 -5.89286,7.32143 -5.17857,9.82143 0.71429,2.5 3.57143,5.89286 3.57143,5.89286 0,0 24.82143,-9.46429 34.10714,-8.57143 9.28572,0.89286 29.28572,9.28572 32.14286,8.75 2.85714,-0.53571 10,-11.07143 10,-11.07143 l -21.42857,-19.64285 -47.14286,4.28571 z" id="path3891" inkscape:connector-curvature="0"/>
    <path style="fill:#333333;fill-opacity:1;stroke:#000000;stroke-width:0.50000000000000000;stroke-linecap:round;stroke-linejoin:round;stroke-miterlimit:4;stroke-opacity:1;stroke-dasharray:none;stroke-dashoffset:0" d="m 306.96429,377.18361 c -10.47322,0.11268 -20.29317,6.22453 -23.75,13.03571 -2.66573,5.25242 3.57142,20 3.57142,20 0,0 -7.89902,5.21174 -7.5,10.00001 0.71429,8.57142 10,12.85714 10,12.85714 0.32574,-0.0738 0.12728,18.3364 -5,27.14286 -4.75056,8.15942 -7.33486,18.8364 -4.99999,23.21428 15.58515,-14.97378 33.73502,-18.48276 53.10967,-18.91063 25.08294,-1.59147 37.68365,13.91562 60.46176,16.41063 3.1179,-3.63133 -20.71429,-66.42857 -20.71429,-66.42857 l 3.92857,-5.71429 c 0,0 -5.00001,-16.07143 -10.00001,-15.35714 -5,0.71428 -13.38073,5.62878 -18.21428,1.07143 -6.25,-5.89286 -19.85036,-17.54782 -40.89285,-17.32143 z" id="path3986" inkscape:connector-curvature="0" sodipodi:nodetypes="sscscscccccsss"/>
    <path style="fill:#d45500;fill-opacity:1;stroke:#000000;stroke-width:0.50000000000000000;stroke-linecap:round;stroke-linejoin:round;stroke-miterlimit:4;stroke-opacity:1;stroke-dasharray:none;stroke-dashoffset:0" d="m 328.0625,457.625 c -25.35696,0.44377 -42.01353,10.23268 -48.8125,15.15625 -1.04833,4.42373 -1.17845,8.38807 0.0312,10.65625 2.85714,5.35714 8.94643,7.15179 10.375,3.9375 1.42857,-3.21428 4.64161,-20.9131 42.5,-21.09375 31.0748,-0.14828 33.56345,17.46496 45.34375,18.9375 8.57143,1.07143 11.55316,0.13354 15.34375,-4.28125 0.6574,-0.76566 0.0753,-4.24192 -1.1875,-9.125 -1.92501,1.04825 -4.86747,2.09985 -9.3125,2.5 -9.88832,0.89018 -23.96862,-17.218 -54.28125,-16.6875 z" id="path3855" inkscape:connector-curvature="0"/>
    <path style="opacity:0.5;fill:#000000;fill-opacity:1;stroke:none" d="m 311.0313,282.56245 c -0.0583,12.66183 -13.94913,17.0774 -18.46875,26.15625 -2.93216,2.40334 -6.84725,9.34829 -6.53125,13.9375 -0.47297,5.08118 5.83478,16.77329 1.5,26.18755 0.0142,6.57516 0.10646,7.40292 0.3125,13.18755 1.30579,2.09038 4.06615,2.9207 6.71875,3.21875 0.67145,1.00994 2.78722,3.86638 5.9375,4.375 1.18699,0.19164 2.85415,-0.0567 4.40625,-0.40625 0.82027,0.50906 1.83219,0.85865 3.09375,0.9375 5.16928,0.32308 19.94242,-6.07947 23.25,-8.625 1.6152,0.53439 3.08128,0.90491 4.15625,1.0625 2.44633,7.48505 3.66952,15.3122 4.53125,23.25 l -2.78125,0.0937 -1.96875,1.78125 c 4.47398,5.4971 16.23489,21.42731 12.84375,27.5 -4.77827,7.6934 -44.25752,1.83848 -45.1875,1.59375 -3.39286,-0.89286 -13.55804,8.93304 -16.59375,9.46875 -2.72999,0.48176 4.45535,6.42857 6.0625,6.25 1.60714,-0.17857 20.19197,-8.90625 23.40625,-8.90625 3.21429,0 40,-0.1875 41.25,-0.1875 1.25,0 18.56696,45.16518 19.28125,50.34375 0.1708,1.23828 -5.36161,1.78571 -8.21875,1.25 -2.85714,-0.53572 -13.36733,-7.97102 -20.875,-9.28125 -15.3449,-2.67796 -32.82368,-3.816 -46.625,3.40625 -7.22558,3.78116 -18.20982,11.41964 -18.03125,14.8125 0.0645,1.22557 0.56584,2.66941 1.15625,4.03125 2.53805,1.41956 5.13227,1.32741 6,-0.625 0.40927,-0.92085 0.99387,-3.04774 2.46875,-5.59375 -0.15925,1.26516 -0.59415,2.58318 -0.71875,3.75 2.57412,-4.2261 5.80706,-8.63414 9.125,-10.65625 10.09423,-6.15189 28.40625,-7.14732 35.90625,-5.71875 7.5,1.42857 31.6116,8.39286 29.46875,11.25 C 363.76334,483.26324 361.4375,487 361.4375,487 l -0.28125,4.03125 4,-0.0937 c 3.32586,2.22559 8.02847,3.06524 9.625,7.09375 2.00851,5.06806 -13.15625,14.53125 -13.15625,14.53125 1.29769,0.98111 14.05207,-6.27128 16.8125,-7.6875 2.92316,-1.49972 8.0625,1.36231 8.0625,2.625 0,0.96291 -0.1777,10.85969 -0.28125,16.5625 1.41284,-3.15385 1.91502,-6.12043 2,-8.5 0.35714,-10 -1.4375,-13.1875 -1.4375,-13.1875 l -3.5625,-2.5 c 0.79267,-3.315 -0.1716,-9.39331 -1.65625,-14.28125 6.15153,-0.56623 10.09975,-1.27104 11.5625,-6 C 393.07579,469.70252 372.15625,414.5 372.15625,414.5 l 3.90625,-5.71875 c 0,0 -5,-16.05804 -10,-15.34375 l -4.93303,0.47322 c 1.87082,-6.81778 4.17831,-38.02061 4.51785,-52.65626 0.71419,-0.61063 0.61397,-1.13566 1.32143,-1.75446 0.10407,-6.10368 -0.0164,-10.87 -0.53125,-12.84375 z" id="path3886" inkscape:connector-curvature="0" sodipodi:nodetypes="ccccccscsccccccsssssssssscsccssccccscsscscccccccccccc"/>
    <path transform="translate(135.06382,59.904282)" style="fill:#666666;fill-opacity:1;stroke:none" d="m 75.84375,301.96875 c -3.668809,0.0942 -6.825824,0.7153 -9.03125,1.6875 -1.102713,0.4861 -1.972007,1.08277 -2.53125,1.6875 -2.384481,2.77754 10.33364,4.42596 11.84375,4.84375 5.565298,1.54358 11.17657,3.19039 13.53125,4.25 2.16071,0.97232 4.722212,0.3852 6.375,-1.03125 1.63691,-1.40284 2.364931,-3.48919 1.0625,-5.75 -1.449205,-1.14326 -3.15013,-2.16991 -5.1875,-2.9375 -5.519733,-2.07957 -11.232845,-2.87396 -16.0625,-2.75 z m 97.20982,15.86161 c -9.49129,0.57701 -19.89912,4.43069 -24.45982,12.70089 -1.05721,4.07099 -0.32708,7.91587 0.75,11.375 -0.50614,-2.87453 -1.47529,-6.98763 -0.125,-9.625 0.98798,-1.92971 5.27966,-4.63402 10.28125,-7.15625 5.00159,-2.52223 11.14196,-4.51596 17.09375,-3.875 6.11981,0.65905 12.06809,2.60234 16.75,4.25 2.70665,0.99493 7.46341,3.82748 9.40625,1.65625 -6.44876,-4.47369 -15.69968,-9.09543 -29.69643,-9.32589 z" id="path4120" inkscape:connector-curvature="0" sodipodi:nodetypes="ssccsscsscccsssccc"/>
    <path style="opacity:0.5;fill:#000000;fill-opacity:1;stroke:none" d="m 164.65625,229.21875 c 0,0 10.33305,12.12498 16.90625,16.15625 4.29459,2.42221 8.14502,4.49462 12.125,6.875 -1.67816,8.7191 -3.22453,17.48856 -10.5,23.96875 -4.71397,-1.64173 -9.36015,-2.5335 -13.90625,-1.34375 -7.23658,1.94125 -16.23952,7.99323 -19.625,15.6875 -3.92856,8.92857 -9.24613,36.54124 1.0625,47.875 3.98696,8.18727 20.85479,8.32007 24.28125,8.4374 1.71421,1.43134 2.98711,2.06159 3.8125,2.15625 2.77792,0.25254 10.83106,-2.88975 12.09375,-4.53125 0.37777,-0.4911 0.53561,-1.67723 0.375,-3.03125 2.82559,-3.01593 4.86502,-6.82615 4.4375,-8.75 -0.71429,-3.21428 -3.29721,-16.60417 -2.6875,-24.9375 0.88277,-8.77467 3.63274,-17.2105 6.3437,-25.53125 2.15317,-6.60415 4.00368,-12.05325 3.84375,-13.8125 C 202.8616,264.50893 198.74277,252.08471 189,248.03125 175.4018,242.37374 169.32307,231.98846 165.78125,229.375 z m 10.50446,83.30357 c -1.5097,2.90145 0.0526,7.38757 -1.45982,7.65625 -4.53825,0.8062 -7.13556,-13.3867 -3.89285,-15.17857 5.99371,-3.31203 6.87675,4.59325 5.35267,7.52232 z M 152.375,323.21875 c 1.89583,6.5e-4 3.82416,0.50621 5.34375,0.9375 -1.6415,0.88388 -2.06626,6.41226 -2.65625,6.1875 -2.65164,-1.01015 -4.30996,-4.41212 -4.5625,-6.9375 0.60521,-0.13424 1.24306,-0.18772 1.875,-0.1875 z m 11.125,1.75 c 2.57396,0.0742 10.57821,1.73326 12.125,1.84375 4.32282,0.60568 2.00902,9.76807 -6.5625,10.25 -3.17436,0.17847 -9.70479,-3.30108 -11.09375,-4.4375 -2.09139,-2.01627 0.94642,-7.70484 4.78125,-7.5625 0.11048,-0.0631 0.38229,-0.10451 0.75,-0.0937 z m -0.625,15.75 c 0,0 9.48097,1.25254 11.375,1 1.89404,-0.25254 4.08847,1.74721 3.15625,2.15625 -6.18683,2.71463 -17.09937,-2.0862 -14.53125,-3.15625 z" id="path3938" inkscape:connector-curvature="0" sodipodi:nodetypes="cccccscccscsccssccssssscscsccscccccscc"/>
    <path style="opacity:0.4;fill:#ffffff;fill-opacity:1;stroke:none" d="m 234.94712,80.238298 c 0,0 12.82014,-6.514748 19.78989,-6.805839 15.90159,-0.664127 47.79935,10.764355 46.28845,11.708668 0,0 5.28535,9.627087 2.75997,10.63724 -2.52538,1.010152 -53.77268,9.060733 -53.77268,9.060733 2.84494,-7.399204 3.04757,-13.477255 8.5863,-22.223354 -2.08448,-1.240634 -5.47317,-2.053974 -8.64757,-0.653009 -6.04206,8.615181 -6.7409,15.980363 -9.59119,24.595543 l -10.04551,1.31128 c 2.21994,-8.423612 5.77754,-16.05539 10.10152,-23.233509 -2.83227,2.004772 -5.41076,2.486828 -8.67295,7.071068 l -10.51994,21.213201 -1.17821,-3.80076 c 2.09203,-8.74522 4.6335,-15.940979 14.90192,-28.881262 z" id="path3993" inkscape:connector-curvature="0" sodipodi:nodetypes="cacscccccccccc"/>
    <path style="fill:#1a1a1a;fill-opacity:1;stroke:#000000;stroke-width:0.50000000000000000;stroke-linecap:round;stroke-linejoin:round;stroke-miterlimit:4;stroke-opacity:1;stroke-dasharray:none;stroke-dashoffset:0" d="m 401.42857,235.93361 -10.35714,24.28571 -24.28572,-4.28571 -2.14285,-20.35714 z" id="path3970" inkscape:connector-curvature="0" sodipodi:nodetypes="ccccc"/>
    <path style="fill:#333333;fill-opacity:1;stroke:#000000;stroke-width:0.50000000000000000;stroke-miterlimit:4;stroke-dasharray:none" d="m 329.05719,219.74395 c 0,0 15.91234,25.01922 19.69798,24.4962 l 38.3858,-5.3033 19.44543,-5.55584 c 4.23712,-10.09853 -0.75761,-28.03174 -0.75761,-28.03174 z" id="path3103" inkscape:connector-curvature="0" sodipodi:nodetypes="cscccc"/>
    <path style="fill:#d45500;fill-opacity:1;stroke:#000000;stroke-width:0.50000000000000000;stroke-linecap:round;stroke-linejoin:round;stroke-miterlimit:4;stroke-opacity:1;stroke-dasharray:none;stroke-dashoffset:0" d="m 402.54219,225.58027 c -22.84402,12.38752 -28.49881,16.3901 -56.13594,16.73223 0.98673,1.00918 1.81391,1.73881 2.34375,1.9375 6.06091,2.27284 32.33772,3.02713 39.15625,-2.78125 3.84486,-3.27526 7.69527,-5.5208 9.84375,-3.53125 2.5466,2.35824 -1.78125,10.34375 -1.78125,10.34375 0,0 9.1883,-5.47792 11.125,-10.09375 1.15474,-2.75214 1.57696,-6.46213 1.59375,-10.375 -1.18118,-1.63072 -4.45672,-3.1479 -6.14531,-2.23223 z" id="path3817" inkscape:connector-curvature="0" sodipodi:nodetypes="scssscscs"/>
    <path style="opacity:0.5;fill:#000000;fill-opacity:1;stroke:none" d="m 355.34692,214.04648 -24.78442,5.42227 4.59375,9.375 c 1.52955,2.20793 3.15594,4.53034 4.8125,6.71875 0.50029,-2.85708 1.68641,-7.125 4.3125,-7.125 3.92857,0 21.4375,12.5 21.4375,12.5 l -13.34375,4.15625 14.1875,8.8125 25.90625,3.0625 3.78125,-8.84375 c 0.77441,-0.4687 8.99629,-5.53435 10.84375,-9.9375 2.10081,-6.83091 1.44758,-13.18177 0.96875,-20.125 z" id="path4060" inkscape:connector-curvature="0" sodipodi:nodetypes="ccccscccccccc"/>
    <path style="fill:#333333;fill-opacity:1;stroke:#000000;stroke-width:0.50000000000000000;stroke-linecap:round;stroke-linejoin:round;stroke-miterlimit:4;stroke-opacity:1;stroke-dasharray:none;stroke-dashoffset:0" d="m 286.70278,301.90941 c -2.50617,-0.90117 -9.07199,8.85796 -8.66707,14.73849 0.31624,4.59263 1.20142,8.48477 8.87999,7.05619 7.67857,-1.42857 9.19906,-8.20159 9.19906,-8.20159 -0.007,-5.54287 -4.05187,-11.66571 -9.41198,-13.59309 z" id="path4006" inkscape:connector-curvature="0" sodipodi:nodetypes="ssscs"/>
    <path style="fill:#333333;fill-opacity:1;stroke:#000000;stroke-width:0.50000000000000000;stroke-linecap:round;stroke-linejoin:round;stroke-miterlimit:4;stroke-opacity:1;stroke-dasharray:none;stroke-dashoffset:0" d="m 300.53571,292.54076 c -7.1376,0.80094 -14.75368,6.54797 -16.21039,10.81363 -1.52664,4.47046 4.9459,8.0198 9.67225,9.64379 3.66503,1.25931 0.11546,5.27984 3.59652,3.73636 5.91804,-2.62401 9.54877,-10.08664 9.54877,-10.08664 z" id="path3996" inkscape:connector-curvature="0" sodipodi:nodetypes="cssscc"/>
    <path style="fill:#333333;fill-opacity:1;stroke:#000000;stroke-width:0.50000000000000000;stroke-linecap:round;stroke-linejoin:round;stroke-miterlimit:4;stroke-opacity:1;stroke-dasharray:none;stroke-dashoffset:0" d="m 286.25,358.79075 c 0,0 2.44166,4.20657 6.25,4.82143 2.86977,0.46333 8.57143,-1.60714 8.57143,-1.60714 l -4.46429,-5.89286 z" id="path4010" inkscape:connector-curvature="0" sodipodi:nodetypes="csccc"/>
    <path style="fill:#333333;fill-opacity:1;stroke:#000000;stroke-width:0.50000000000000000;stroke-linecap:round;stroke-linejoin:round;stroke-miterlimit:4;stroke-opacity:1;stroke-dasharray:none;stroke-dashoffset:0" d="m 292.14286,345.75504 c 0,0 -1.0741,-1.20708 -4.28572,-1.42857 -5.17857,-0.35714 -12.74269,4.11477 -8.00507,11.69905 2.93705,4.70181 13.18364,3.12238 13.18364,3.12238 z" id="path4008" inkscape:connector-curvature="0" sodipodi:nodetypes="csscc"/>
    <path style="fill:#333333;fill-opacity:1;stroke:#000000;stroke-width:0.50000000000000000;stroke-linecap:round;stroke-linejoin:round;stroke-miterlimit:4;stroke-opacity:1;stroke-dasharray:none;stroke-dashoffset:0" d="m 292.85714,328.79075 c 0,0 -4.66843,-0.35714 -9.64286,-0.35714 -5.89286,0 -11.55484,9.59954 -3.6977,14.42096 3.71569,2.28009 17.26913,0.2219 17.26913,0.2219 z" id="path4004" inkscape:connector-curvature="0" sodipodi:nodetypes="csscc"/>
    <path style="fill:#333333;fill-opacity:1;stroke:#000000;stroke-width:0.50000000000000000;stroke-linecap:round;stroke-linejoin:round;stroke-miterlimit:4;stroke-opacity:1;stroke-dasharray:none;stroke-dashoffset:0" d="m 293.57143,357.71932 c 0,0 0.71428,6.07143 6.42857,6.42858 5.71429,0.35714 23.21429,-7.5 23.92857,-9.28572 C 324.64286,353.07647 312.5,345.57647 312.5,345.57647 z" id="path4002" inkscape:connector-curvature="0"/>
    <path style="fill:#333333;fill-opacity:1;stroke:#000000;stroke-width:0.50000000000000000;stroke-linecap:round;stroke-linejoin:round;stroke-miterlimit:4;stroke-opacity:1;stroke-dasharray:none;stroke-dashoffset:0" d="m 294.64286,342.00504 c 0,0 -6.42857,2.85714 -6.42857,6.78571 0,3.92857 0.35714,11.78572 6.07142,11.07143 C 300,359.1479 315,353.79075 315.35714,348.43361 c 0.35715,-5.35714 -9.64285,-15 -9.64285,-15 z" id="path4000" inkscape:connector-curvature="0"/>
    <path style="fill:#333333;fill-opacity:1;stroke:#000000;stroke-width:0.50000000000000000;stroke-linecap:round;stroke-linejoin:round;stroke-miterlimit:4;stroke-opacity:1;stroke-dasharray:none;stroke-dashoffset:0" d="m 302.14286,318.43361 c 0,0 -10.71429,5.35714 -13.92857,8.92857 -3.21429,3.57143 -6.07143,7.85714 -3.57143,13.57143 2.5,5.71429 11.07143,3.92857 13.21428,2.85714 C 300,342.71932 310,333.07647 310,333.07647 z" id="path3998" inkscape:connector-curvature="0"/>
    <path style="fill:#333333;fill-opacity:1;stroke:#000000;stroke-width:0.50000000000000000;stroke-miterlimit:4;stroke-dasharray:none" d="m 375.27167,242.21984 c -28.8593,-1.02712 -69.61667,33.12754 -72.2259,34.34518 -7.57615,3.53554 -2.02031,27.27413 -2.02031,27.27413 l 27.77919,52.78047 c 1.76777,-0.75762 34.73529,-23.76821 46.9721,-40.40611 11.76377,-15.99474 25.13858,-50.96367 20.20305,-62.12438 -4.08164,-9.22982 -12.75699,-11.5863 -20.70813,-11.86929 z" id="path3105" inkscape:connector-curvature="0" sodipodi:nodetypes="ssccsss"/>
    <path style="fill:#d45500;fill-opacity:1;stroke:#000000;stroke-width:0.50000000000000000;stroke-linecap:round;stroke-linejoin:round;stroke-miterlimit:4;stroke-opacity:1;stroke-dasharray:none;stroke-dashoffset:0" d="m 305.59375,274.78125 c -1.33464,0.98401 -2.24809,1.63453 -2.5625,1.78125 -7.57615,3.53554 -5.78125,27.28125 -5.78125,27.28125 0,0 -0.77379,27.00317 7.8125,39.125 3.04797,4.30302 7.0625,5.0625 7.0625,5.0625 0,0 1.37071,2.62071 2.28125,3.53125 1.51523,1.51523 12.63849,5.82011 14.40625,5.0625 0.51492,-0.22068 8.61609,-5.52231 13.14197,-8.81171 l -11.88594,-6.35723 -2.02301,-6.3006 C 308.06801,321.36823 311.7575,295.80757 305.59375,274.78125 z" id="path3840" inkscape:connector-curvature="0" sodipodi:nodetypes="cccscsscccc"/>
    <path style="opacity:0.5;fill:#000000;fill-opacity:1;stroke:none" d="m 384.53125,243.75 c -25.90662,32.86522 -42.1149,67.66797 -80.21875,98.09375 0.23895,0.38551 0.49478,0.76468 0.75,1.125 2.69921,3.81066 5.99417,4.78255 6.75,4.96875 26.07442,-21.92734 45.37775,-48.03726 68.53125,-74.875 -19.03445,29.00425 -38.54045,57.53876 -66.28125,78.125 0.11412,0.14338 0.23902,0.27027 0.34375,0.375 1.51523,1.51523 12.63849,5.82011 14.40625,5.0625 0.18694,-0.0801 0.80167,-0.45603 1.625,-1 0.10852,-0.0697 0.28937,-0.2058 0.40625,-0.28125 2.79962,-1.80724 7.86662,-5.16307 11.125,-7.53125 l -0.40625,-0.21875 c 11.14282,-8.39323 26.64877,-21.08241 34.21875,-31.375 11.76377,-15.99474 25.12303,-50.96429 20.1875,-62.125 -2.5017,-5.6571 -6.71486,-8.74397 -11.4375,-10.34375 z" id="path4052" inkscape:connector-curvature="0"/>
    <path style="fill:#333333;fill-opacity:1;stroke:#000000;stroke-width:0.50000000000000000;stroke-miterlimit:4;stroke-dasharray:none" d="m 342.29378,212.9508 c 0,0 43.6941,11.4768 65.91245,15.40483 6.26101,1.10689 17.67767,-1.76777 17.67767,-3.53554 0,-1.76777 2.92586,-35.12818 -4.90283,-42.19925 -7.82868,-7.07107 -78.68729,30.32996 -78.68729,30.32996 z" id="path3101" inkscape:connector-curvature="0" sodipodi:nodetypes="csssc"/>
    <path style="fill:#d45500;fill-opacity:1;stroke:#000000;stroke-width:0.50000000000000000;stroke-linecap:round;stroke-linejoin:round;stroke-miterlimit:4;stroke-opacity:1;stroke-dasharray:none;stroke-dashoffset:0" d="m 411.6875,182.8125 c 0.90279,12.58787 1.89233,25.16213 0.46875,37.75 -20.94933,1.30488 -40.02399,-6.21497 -57.25446,-13.29464 -5.76938,3.09829 -12.96429,8.16964 -12.96429,8.16964 0,0 40.11647,14.69251 65.90625,15.40625 6.35567,0.1759 17.6875,-1.76348 17.6875,-3.53125 0,-0.48768 0.24001,-3.67457 0.4375,-8.03125 L 422.5,220.5625 c 1.15132,-11.96751 0.49555,-24.52521 -1,-37.375 -0.17035,-0.19498 -0.34904,-0.39792 -0.53125,-0.5625 -2.87261,-1.60643 -6.59717,-0.50424 -9.28125,0.1875 z" id="path3918" inkscape:connector-curvature="0" sodipodi:nodetypes="ccccssccccc"/>
    <path style="fill:#d45500;fill-opacity:1;stroke:#000000;stroke-width:0.50000000000000000;stroke-miterlimit:4;stroke-dasharray:none" d="m 333.35034,91.707111 c -33.79847,5.671037 -53.033,61.871849 -43.43655,93.186579 9.59644,31.31472 21.46573,43.68909 37.62817,42.17386 16.16244,-1.51523 71.96494,-39.79333 81.06474,-41.66879 2.99978,-0.61825 7.50999,-2.16074 13.90754,-0.72698 l 1.98967,5.68845 c 0,0 5.34521,-1.19838 5.82107,-5.71908 1.01015,-9.59645 -13.4199,-43.5686 -24.00906,-55.20125 -34.01145,-37.36307 -50.2319,-41.547268 -72.96558,-37.732789 z" id="path3099" inkscape:connector-curvature="0" sodipodi:nodetypes="ssssccsss"/>
    <path style="fill:#333333;fill-opacity:1;stroke:#000000;stroke-width:0.50000000000000000;stroke-linecap:round;stroke-linejoin:round;stroke-miterlimit:4;stroke-opacity:1;stroke-dasharray:none;stroke-dashoffset:0" d="m 333.20089,97.732143 c -9.57766,3.603847 -30.36038,19.134907 -34.28125,43.558037 -4.66203,29.03985 2.14286,61.06696 14.64286,70.70982 8.6004,6.63459 18.57589,4.27678 22.50446,1.41964 3.92858,-2.85715 49.20787,-32.73884 77.5,-37.83482 5.28287,-0.95155 10.28455,-2.18872 16.02679,1.57143 -8.66777,-33.79527 -27.0939,-62.22751 -57.15625,-78.5 -12.86846,-2.996851 -25.71341,-6.012563 -39.23661,-0.924107 z" id="path3903" inkscape:connector-curvature="0" sodipodi:nodetypes="ssssaccs"/>
    <path style="fill:#d45500;fill-opacity:1;stroke:none" d="m 337.13841,97.515495 c 26.61004,15.591145 49.28833,52.420735 62.12438,80.054585 l 10.60661,-3.03046 c -12.21879,-28.92925 -32.99901,-61.76986 -61.99812,-78.91816 -3.49345,0.321228 -7.3657,0.705811 -10.73287,1.894035 z" id="path3822" inkscape:connector-curvature="0" sodipodi:nodetypes="ccccc"/>
    <path sodipodi:nodetypes="ccccc" inkscape:connector-curvature="0" id="path3824" d="m 356.45758,96.631612 c 28.21705,14.774758 49.15452,47.891738 60.23034,76.392778 l 8.58631,0.75762 c -9.40634,-31.74737 -30.22817,-60.85265 -57.07363,-75.256361 -3.49345,-0.562656 -7.49197,-2.198378 -11.74302,-1.894037 z" style="fill:#d45500;fill-opacity:1;stroke:none"/>
    <path style="opacity:0.5;fill:#000000;fill-opacity:1;stroke:none" d="m 355.73064,98.184962 c 26.22489,9.800528 62.94219,80.505368 57.70099,81.716208 -1.40528,0.32465 -21.58797,10.14264 -39.00752,20.63901 -25.59969,15.42542 -35.48946,23.96375 -55.23661,25.92857 2.65114,0.6624 5.42438,0.86744 8.34375,0.59375 4.71824,-0.44234 12.86126,-4.05098 22.1875,-8.9375 12.89823,4.2619 39.27415,12.19705 58.125,12.71875 6.35567,0.1759 17.6875,-1.76348 17.6875,-3.53125 0,-0.19626 0.0657,-1.09165 0.125,-2.0625 0.40106,-11.41308 2.15585,-25.02394 -0.75,-35 1.00241,-0.28162 4.98785,-1.6189 5.40625,-5.59375 0.13571,-1.28926 -10e-5,-3.03784 -0.375,-5.09375 -0.75533,-0.53303 -1.55819,-1.05553 -2.4375,-1.5 -8.45585,-27.56625 -18.41442,-53.95123 -52.24826,-76.12833 -2.88103,-1.88843 -31.77604,-10.459386 -19.5211,-3.749208 z M 405.0625,200.3125 c 1.15395,6.62367 1.56192,23.25703 -1.25,28.53125 -10.07092,-1.11107 -21.97376,-2.72031 -26,-4.5625 6.18424,-2.78381 22.40195,-18.51257 27.25,-23.96875 z" id="path4076" inkscape:connector-curvature="0" sodipodi:nodetypes="csscscssccsccsccccc"/>
  </g>
</svg>