<?xml version="1.0" encoding="UTF-8" standalone="no"?>
<!-- Created with Inkscape (http://www.inkscape.org/) -->

<svg
   xmlns:dc="http://purl.org/dc/elements/1.1/"
   xmlns:cc="http://creativecommons.org/ns#"
   xmlns:rdf="http://www.w3.org/1999/02/22-rdf-syntax-ns#"
   xmlns:svg="http://www.w3.org/2000/svg"
   xmlns="http://www.w3.org/2000/svg"
   xmlns:xlink="http://www.w3.org/1999/xlink"
   xmlns:sodipodi="http://sodipodi.sourceforge.net/DTD/sodipodi-0.dtd"
   xmlns:inkscape="http://www.inkscape.org/namespaces/inkscape"
   width="285.44543"
   height="474.09641"
   id="svg2"
   version="1.1"
   inkscape:version="0.48.3.1 r9886"
   sodipodi:docname="viking.svg"
   style="display:inline">
  <title
     id="title4391">viking warning</title>
  <defs
     id="defs4">
    <linearGradient
       inkscape:collect="always"
       id="linearGradient2880">
      <stop
         style="stop-color:#ff8080;stop-opacity:1;"
         offset="0"
         id="stop2882" />
      <stop
         style="stop-color:#ff8080;stop-opacity:0;"
         offset="1"
         id="stop2884" />
    </linearGradient>
    <inkscape:perspective
       sodipodi:type="inkscape:persp3d"
       inkscape:vp_x="0 : 526.18109 : 1"
       inkscape:vp_y="0 : 1000 : 0"
       inkscape:vp_z="744.09448 : 526.18109 : 1"
       inkscape:persp3d-origin="372.04724 : 350.78739 : 1"
       id="perspective10" />
    <inkscape:perspective
       id="perspective2824"
       inkscape:persp3d-origin="0.5 : 0.33333333 : 1"
       inkscape:vp_z="1 : 0.5 : 1"
       inkscape:vp_y="0 : 1000 : 0"
       inkscape:vp_x="0 : 0.5 : 1"
       sodipodi:type="inkscape:persp3d" />
    <linearGradient
       inkscape:collect="always"
       xlink:href="#linearGradient2880"
       id="linearGradient2886"
       x1="534.46429"
       y1="313.61218"
       x2="534.79358"
       y2="305.55484"
       gradientUnits="userSpaceOnUse" />
    <linearGradient
       inkscape:collect="always"
       xlink:href="#linearGradient2880"
       id="linearGradient4389"
       gradientUnits="userSpaceOnUse"
       x1="534.46429"
       y1="313.61218"
       x2="534.79358"
       y2="305.55484"
       gradientTransform="matrix(-1,0,0,1,1094.1532,0)" />
  </defs>
  <sodipodi:namedview
     id="base"
     pagecolor="#ffffff"
     bordercolor="#666666"
     borderopacity="1.0"
     inkscape:pageopacity="0.0"
     inkscape:pageshadow="2"
     inkscape:zoom="1.2592375"
     inkscape:cx="142.72259"
     inkscape:cy="237.04861"
     inkscape:document-units="px"
     inkscape:current-layer="layer2"
     showgrid="false"
     inkscape:window-width="1301"
     inkscape:window-height="744"
     inkscape:window-x="65"
     inkscape:window-y="24"
     inkscape:window-maximized="1"
     inkscape:snap-nodes="false" />
  <metadata
     id="metadata7">
    <rdf:RDF>
      <cc:Work
         rdf:about="">
        <dc:format>image/svg+xml</dc:format>
        <dc:type
           rdf:resource="http://purl.org/dc/dcmitype/StillImage" />
        <dc:title>viking warning</dc:title>
        <dc:date>2011-03-17</dc:date>
        <dc:creator>
          <cc:Agent>
            <dc:title>tzunghaor (Prim András)</dc:title>
          </cc:Agent>
        </dc:creator>
        <dc:publisher>
          <cc:Agent>
            <dc:title>openclipart.org</dc:title>
          </cc:Agent>
        </dc:publisher>
        <cc:license
           rdf:resource="http://creativecommons.org/licenses/publicdomain/" />
        <dc:subject>
          <rdf:Bag>
            <rdf:li>viking</rdf:li>
            <rdf:li>warrior</rdf:li>
            <rdf:li>axe</rdf:li>
            <rdf:li>cartoon</rdf:li>
            <rdf:li>medieval</rdf:li>
            <rdf:li>fighter</rdf:li>
            <rdf:li>warning</rdf:li>
            <rdf:li />
          </rdf:Bag>
        </dc:subject>
      </cc:Work>
      <cc:License
         rdf:about="http://creativecommons.org/licenses/publicdomain/">
        <cc:permits
           rdf:resource="http://creativecommons.org/ns#Reproduction" />
        <cc:permits
           rdf:resource="http://creativecommons.org/ns#Distribution" />
        <cc:permits
           rdf:resource="http://creativecommons.org/ns#DerivativeWorks" />
      </cc:License>
    </rdf:RDF>
  </metadata>
  <g
     inkscape:groupmode="layer"
     id="layer2"
     inkscape:label="Réteg"
     style="display:inline"
     transform="translate(-404.354, -212.183)">
    <path
       sodipodi:type="inkscape:offset"
       inkscape:radius="1.5471855"
       inkscape:original="M 96.875 1.53125 C 96.117273 1.543842 95.40282 1.593555 94.84375 1.75 C 93.88972 2.01697 93.06199 2.69267 92.34375 3.375 L 88.78125 6.75 C 87.64849 7.82612 86.60271 10.08529 86.09375 11.5625 L 78.78125 32.8125 C 78.78125 32.8125 77.45827 40.28151 79.125 43.375 C 79.44421 43.967463 79.88342 44.541125 80.375 45.125 C 80.3848 45.13665 80.3964 45.1446 80.40625 45.15625 C 81.085749 45.958247 81.905852 46.737643 82.8125 47.5 C 82.87463 47.55242 82.937081 47.604082 83 47.65625 C 83.147166 47.777831 83.286369 47.911132 83.4375 48.03125 C 83.624009 48.179907 83.808219 48.322543 84 48.46875 C 84.530532 48.8725 85.097853 49.242706 85.65625 49.625 C 85.75459 49.69244 85.838626 49.777067 85.9375 49.84375 C 86.454016 50.191601 86.97757 50.51827 87.5 50.84375 C 87.794461 51.027346 88.082238 51.199423 88.375 51.375 C 88.738347 51.592886 89.081114 51.795403 89.4375 52 C 89.905199 52.268579 90.335372 52.538039 90.78125 52.78125 C 91.089191 52.94916 91.425716 53.126455 91.71875 53.28125 C 91.943099 53.39967 92.161353 53.483529 92.375 53.59375 C 92.3737 53.61406 92.376 53.63632 92.375 53.65625 C 92.3696 53.74455 92.34464 53.826467 92.34375 53.90625 C 92.343443 53.95325 92.34255 53.98716 92.34375 54.03125 C 92.34815 54.200944 92.34545 54.378919 92.375 54.5 C 92.532503 54.767263 93.008655 55.109342 93.6875 55.46875 C 93.6963 55.47345 93.70991 55.46405 93.71875 55.46875 C 95.335445 56.320668 98.020862 57.291709 100.3125 58 C 100.00585 59.754055 99.78125 61.125 99.78125 61.125 C 99.979699 61.11357 100.17659 61.105 100.375 61.09375 C 99.115743 65.071772 97.128419 71.49794 95.375 78.3125 C 89.261977 80.695258 83.489661 83.229553 80.03125 86.75 C 83.62059 85.28329 84.42126 86.06447 85.75 86.40625 C 80.41726 89.62542 78.15169 93.46337 75.03125 97.125 L 78.59375 96.21875 C 73.70178 102.3497 72.62542 108.49405 69.84375 114.625 L 74.84375 109.78125 C 74.81634 110.03409 74.80177 110.27979 74.78125 110.53125 C 52.635682 135.9641 37.030913 179.43345 37.71875 206.9375 C 37.71875 206.9375 37.67631 217.58852 38.4375 224.4375 C 38.555231 225.49681 38.658532 226.72988 38.9375 227.90625 C 39.058337 228.41581 39.213091 228.90826 39.40625 229.375 C 39.4847 229.56771 39.562905 229.72531 39.65625 229.90625 C 39.838955 230.25914 40.032396 230.58188 40.28125 230.875 C 40.31893 230.9197 40.36687 230.9569 40.40625 231 C 40.47808 231.0782 40.547374 231.17754 40.625 231.25 C 40.747225 231.36393 40.893663 231.46438 41.03125 231.5625 C 41.07445 231.5932 41.11149 231.62725 41.15625 231.65625 C 41.17535 231.66875 41.19936 231.6754 41.21875 231.6875 C 41.30469 231.741 41.408271 231.7652 41.5 231.8125 C 41.58893 231.8585 41.655348 231.92901 41.75 231.96875 C 41.80949 231.99375 41.875716 232.00875 41.9375 232.03125 C 42.279206 232.15571 42.644707 232.24327 43.0625 232.28125 C 38.99314 247.33538 45.16486 263.09376 47 275.15625 C 48.83514 287.21874 47.375 289.16458 47 295.15625 C 46.68152 304.32292 44.25357 313.48958 46.46875 322.65625 C 48.02063 329.07812 49.936448 329.04517 51.875 328.96875 C 52.232112 328.95715 52.582355 328.94545 52.9375 328.96875 C 53.112657 328.97915 53.294991 328.99775 53.46875 329.03125 C 53.55193 329.04815 53.635977 329.1012 53.71875 329.125 C 53.976452 329.198 54.247648 329.27575 54.5 329.4375 C 54.66455 329.77546 54.82346 330.06574 55 330.34375 C 55.0046 330.35075 54.9954 330.3678 55 330.375 C 55.172128 330.64412 55.380122 330.87588 55.5625 331.09375 C 55.5675 331.09975 55.5575 331.1191 55.5625 331.125 C 55.744954 331.34125 55.933413 331.51692 56.125 331.6875 C 56.327606 331.86868 56.507042 332.02027 56.71875 332.15625 C 59.185654 333.7503 62.231657 332.5069 64.84375 333.375 C 66.74978 339.56294 72.45822 338.14606 77 339.0625 C 77.127253 339.41144 77.258502 339.73744 77.4375 340.0625 C 77.444 340.0744 77.46221 340.08195 77.46875 340.09375 C 77.642677 340.4054 77.845671 340.71155 78.0625 341 C 78.177746 341.15422 78.311007 341.29015 78.4375 341.4375 C 79.04066 360.61742 78.40737 380.06206 75.46875 400.3125 C 70.007139 400.2735 62.639487 401.14903 65.5625 403.375 C 68.314101 405.47044 71.169677 407.56081 72.34375 409.65625 A 2.0002 2.0002 0 0 0 72.0625 412.84375 C 72.5521 413.30149 73.042055 413.73983 73.5625 414.15625 C 73.63159 414.84054 73.66163 415.53606 73.65625 416.21875 C 73.487592 416.21075 73.325954 416.1939 73.15625 416.1875 A 2.0002 2.0002 0 0 0 72.75 416.1875 A 2.0039024 2.0039024 0 1 0 73 420.1875 C 73.116511 420.1915 73.227769 420.21355 73.34375 420.21875 C 73.27749 420.7551 73.228444 421.30285 73.15625 421.84375 C 72.674079 421.87185 72.203522 421.88085 71.71875 421.90625 A 2.0029885 2.0029885 0 0 0 71.71875 425.90625 C 68.793927 433.59121 62.13153 452.69849 64.65625 461.21875 C 65.94861 465.58011 68.11121 465.72495 72.3125 467.46875 C 79.062583 470.27046 86.804167 471.72224 94.65625 472.25 C 97.15663 472.41804 99.657376 472.50918 102.15625 472.5 C 102.93179 472.497 103.69676 472.4555 104.46875 472.4375 C 104.56235 472.4355 104.65646 472.4395 104.75 472.4375 C 105.14592 472.4273 105.54289 472.42025 105.9375 472.40625 C 106.65843 472.38035 107.37825 472.3508 108.09375 472.3125 C 108.62936 472.284 109.15558 472.25385 109.6875 472.21875 C 110.25796 472.18095 110.80946 472.13895 111.375 472.09375 C 112.03902 472.04095 112.68754 471.99995 113.34375 471.9375 C 113.76445 471.8974 114.17664 471.8564 114.59375 471.8125 C 115.38435 471.7296 116.16132 471.62702 116.9375 471.53125 C 117.21299 471.49725 117.4765 471.473 117.75 471.4375 C 118.64987 471.32075 119.52997 471.19488 120.40625 471.0625 C 120.5432 471.0418 120.67617 471.0211 120.8125 471 C 121.81854 470.84473 122.81184 470.67356 123.78125 470.5 C 124.06566 470.4491 124.3707 470.31742 124.6875 470.15625 C 125.01373 469.98766 125.37687 469.76815 125.71875 469.5 C 126.06563 469.22802 126.40634 468.9197 126.75 468.5625 C 127.08362 468.21711 127.40571 467.84701 127.71875 467.4375 C 127.72375 467.4305 127.71375 467.41285 127.71875 467.40625 C 128.03636 466.98921 128.3473 466.56012 128.625 466.09375 C 128.90696 465.61987 129.15356 465.13257 129.375 464.625 C 129.48464 464.37552 129.59594 464.12949 129.6875 463.875 C 129.96166 463.11203 130.14846 462.3334 130.21875 461.5625 C 130.27415 460.95519 129.99806 460.17682 129.46875 459.28125 C 129.12133 458.69036 128.6511 458.07122 128.125 457.40625 C 127.85741 457.06797 127.58294 456.72435 127.28125 456.375 C 126.68902 455.68858 126.05306 455.01063 125.375 454.3125 C 123.34549 452.22214 121.06681 450.13908 119.375 448.6875 C 119.368 448.6815 119.35075 448.6935 119.34375 448.6875 C 118.78639 448.20948 118.30608 447.79591 117.90625 447.46875 C 117.89925 447.46275 117.8818 447.47475 117.875 447.46875 C 110.48601 441.42687 104.96562 437.27075 100.46875 432 C 100.46375 431.994 100.47375 431.97485 100.46875 431.96875 C 100.09903 431.53498 99.731444 431.10684 99.375 430.65625 C 99.37 430.65025 99.38 430.6313 99.375 430.625 C 98.291049 429.25326 97.260257 427.80912 96.28125 426.21875 C 96.062452 425.86332 95.860255 425.51168 95.65625 425.15625 A 2.0002 2.0002 0 0 0 95.21875 421.5 C 95.103555 421.4552 94.989788 421.4194 94.875 421.375 A 2.0002 2.0002 0 0 0 93.8125 417.59375 A 2.0002 2.0002 0 0 0 93.125 417.8125 C 92.869963 417.93342 92.602015 418.04272 92.34375 418.15625 C 92.33505 418.13485 92.32121 418.11515 92.3125 418.09375 A 2.0015253 2.0015253 0 0 0 91.21875 414.25 C 91.081797 414.2808 90.94751 414.31545 90.8125 414.34375 C 90.7302 414.13471 90.645439 413.92779 90.5625 413.71875 C 91.098028 413.2274 91.682571 412.8185 92.3125 412.46875 C 92.942847 412.11858 93.611496 411.83828 94.3125 411.59375 C 94.653617 411.47494 95.02137 411.35004 95.375 411.25 C 95.738636 411.14748 96.126251 411.05597 96.5 410.96875 C 97.24708 410.79473 98.01142 410.6399 98.78125 410.5 C 99.113612 410.4396 99.370961 410.36746 99.59375 410.28125 C 99.68233 410.24685 99.771679 410.2256 99.84375 410.1875 C 99.86797 410.1751 99.88379 410.16905 99.90625 410.15625 C 100.00166 410.10125 100.06085 410.03085 100.125 409.96875 C 100.1615 409.93435 100.19175 409.9114 100.21875 409.875 C 100.23215 409.8569 100.2389 409.8311 100.25 409.8125 C 100.2869 409.7506 100.33135 409.69223 100.34375 409.625 C 100.35275 409.5782 100.34575 409.51794 100.34375 409.46875 C 100.34275 409.44895 100.34675 409.42645 100.34375 409.40625 C 100.33475 409.33605 100.31205 409.26208 100.28125 409.1875 C 100.21775 409.04515 100.10358 408.87508 99.96875 408.71875 C 99.91746 408.65885 99.842355 408.59296 99.78125 408.53125 C 99.6872 408.43815 99.552535 408.31554 99.4375 408.21875 C 99.276861 408.08465 99.103932 407.92148 98.90625 407.78125 C 98.85113 407.74235 98.776551 407.69555 98.71875 407.65625 C 98.409591 407.44628 98.035143 407.25083 97.65625 407.03125 C 97.367362 406.86422 97.042494 406.67074 96.71875 406.5 C 96.69145 406.4856 96.65253 406.48305 96.625 406.46875 C 96.262818 406.27915 95.898435 406.06695 95.5 405.875 C 95.160997 405.71169 94.76717 405.53855 94.40625 405.375 C 93.397671 404.9194 92.307006 404.46884 91.1875 404.03125 C 91.604703 401.32753 92.005955 398.63389 92.375 396 C 92.3765 395.9896 92.3735 395.97905 92.375 395.96875 C 94.131281 383.43045 95.481511 371.59656 97.625 359.5625 C 97.6268 359.5525 97.6232 359.54125 97.625 359.53125 C 98.783414 353.03157 100.17977 346.47168 102 339.71875 L 102.53125 339.4375 C 102.38706 339.3793 102.26443 339.30962 102.125 339.25 C 102.67516 337.22836 103.27382 335.18615 103.90625 333.125 C 103.90925 333.116 103.90325 333.10305 103.90625 333.09375 C 105.02699 329.44317 106.29517 325.74465 107.71875 321.9375 C 107.88355 321.49678 108.06477 321.0487 108.25 320.625 C 108.254 320.616 108.246 320.60235 108.25 320.59375 C 109.00173 318.87948 109.92407 317.30868 111 315.90625 C 111.009 315.89455 111.02235 315.8866 111.03125 315.875 C 111.57485 315.16949 112.15859 314.52249 112.78125 313.90625 C 113.08715 313.60328 113.39417 313.2802 113.71875 313 C 114.70419 312.15202 115.78505 311.40523 116.9375 310.78125 C 118.09769 310.15324 119.36495 309.65898 120.6875 309.28125 C 121.56957 309.02991 122.48626 308.81959 123.4375 308.6875 C 126.11181 308.31614 133.40262 309.90666 149.53125 310.1875 C 151.65285 310.2244 153.4327 310.21425 154.9375 310.21875 C 154.9465 310.21878 154.96005 310.21872 154.96875 310.21875 C 165.45714 310.24905 162.24721 309.63311 164.09375 310.1875 C 164.11225 310.1935 164.1055 310.1815 164.125 310.1875 C 164.2865 310.2383 164.44322 310.31783 164.59375 310.40625 C 164.64585 310.43725 164.69939 310.4647 164.75 310.5 C 164.85668 310.5727 164.96147 310.65936 165.0625 310.75 C 165.1578 310.8373 165.25369 310.92841 165.34375 311.03125 C 165.39025 311.08325 165.42355 311.13177 165.46875 311.1875 C 165.7807 311.57711 166.05653 312.04473 166.3125 312.59375 C 167.47837 315.0971 168.0158 319.03019 168.0625 322.28125 C 168.71103 367.43266 166.27195 382.57414 163.5625 403.8125 L 160.90625 403.75 C 160.90625 403.75 157.90518 423.32816 157.34375 446.4375 C 157.27935 449.08887 159.14699 453.47902 160.78125 455 C 160.83155 455.0494 160.88767 455.0814 160.9375 455.125 C 160.9606 455.1442 160.977 455.1696 161 455.1875 C 161.10303 455.2724 161.21228 455.34968 161.3125 455.40625 C 161.42803 455.46735 161.54656 455.50931 161.65625 455.53125 C 163.94382 455.98876 166.47626 456.40143 169.21875 456.78125 C 171.96173 457.16061 174.89564 457.50503 178 457.8125 C 182.65527 458.27491 187.67148 458.65009 192.875 458.96875 C 194.61006 459.07445 196.38374 459.19 198.15625 459.28125 C 201.70015 459.46482 205.283 459.61958 208.90625 459.75 C 208.91675 459.75037 208.9271 459.74963 208.9375 459.75 C 212.55044 459.8799 216.1829 459.97934 219.78125 460.0625 C 219.79165 460.06274 219.8022 460.06226 219.8125 460.0625 C 223.41048 460.1455 226.9787 460.2076 230.46875 460.25 C 230.47895 460.25012 230.4898 460.24988 230.5 460.25 C 233.9891 460.2923 237.39963 460.33605 240.6875 460.34375 C 242.07586 460.34675 243.25648 460.01256 244.25 459.46875 C 244.323 459.42935 244.39774 459.38545 244.46875 459.34375 C 244.48115 459.33675 244.4877 459.3199 244.5 459.3125 C 244.5534 459.2807 244.60397 459.25175 244.65625 459.21875 C 244.89812 459.0635 245.12603 458.89915 245.34375 458.71875 C 245.37225 458.69545 245.4095 458.67995 245.4375 458.65625 C 246.33439 457.88894 247.0257 456.90689 247.53125 455.875 C 247.8725 455.17896 248.13193 454.46403 248.3125 453.75 C 248.4028 453.39701 248.47735 453.06132 248.53125 452.71875 C 248.64058 452.02213 248.68709 451.37211 248.65625 450.78125 C 248.64305 450.50046 248.6045 450.24369 248.5625 450 C 248.5605 449.9894 248.5645 449.97925 248.5625 449.96875 C 248.5195 449.7278 248.445 449.50757 248.375 449.3125 C 248.371 449.3025 248.379 449.29075 248.375 449.28125 C 248.2264 448.87854 248.03693 448.6108 247.78125 448.46875 C 232.00686 439.70442 215.66939 431.62054 201.3125 420.6875 C 195.01256 415.88998 184.125 404.25 184.125 404.25 L 178.84375 404.125 C 178.86245 403.56162 178.88385 402.99927 178.90625 402.4375 C 179.02602 399.43049 179.18633 396.4624 179.40625 393.5 C 179.43175 393.15603 179.4732 392.81213 179.5 392.46875 C 179.5748 391.51088 179.6341 390.54713 179.71875 389.59375 C 179.80735 388.595 179.90095 387.6189 180 386.625 C 180.0292 386.33143 180.06365 386.04315 180.09375 385.75 C 180.19691 384.74695 180.29283 383.74822 180.40625 382.75 C 180.41805 382.64609 180.4256 382.54136 180.4375 382.4375 C 180.5735 381.25208 180.7251 380.05377 180.875 378.875 C 181.55396 373.53497 182.38028 368.27525 183.3125 363.0625 C 183.3165 363.0424 183.3085 363.0201 183.3125 363 C 185.29318 351.93587 187.8115 341.15721 190.5625 330.5625 C 191.17805 328.19238 191.79879 325.81975 192.4375 323.46875 C 193.42444 319.83543 194.41239 316.21734 195.4375 312.625 C 196.76794 307.96318 198.14551 303.32321 199.5 298.71875 C 203.15045 286.30942 208.96462 277.8599 212.4375 265.125 C 213.22519 262.23834 213.91297 259.10956 214.40625 255.6875 C 214.40725 255.6774 214.40525 255.66635 214.40625 255.65625 C 214.60234 254.29225 214.76864 252.87656 214.90625 251.40625 C 214.90719 251.39615 214.90531 251.385 214.90625 251.375 C 214.96765 250.7168 215.01381 250.05626 215.0625 249.375 C 215.24369 249.15174 215.42938 248.94412 215.59375 248.71875 C 216.09748 248.02811 216.53595 247.33383 216.875 246.625 C 216.9245 246.52196 216.9541 246.41588 217 246.3125 C 217.14175 245.99165 217.26855 245.66782 217.375 245.34375 C 217.4202 245.20714 217.4612 245.07465 217.5 244.9375 C 217.5813 244.64926 217.66618 244.353 217.71875 244.0625 C 218.98645 237.05737 219.70465 230.04071 219.9375 223 C 219.9763 221.82829 219.9877 220.67188 220 219.5 C 220.0126 218.31774 220.0137 217.15094 220 215.96875 C 219.9865 214.79694 219.94505 213.64027 219.90625 212.46875 C 219.7118 206.56861 219.19342 200.68733 218.40625 194.8125 C 218.60223 194.9088 218.80392 194.99752 219 195.09375 C 222.05453 196.59194 225.10913 198.08011 228.46875 199.375 C 231.2752 200.45877 234.27075 201.40644 237.625 202.125 C 238.96277 202.41136 240.35368 202.6381 241.8125 202.84375 C 244.00017 203.15242 246.32916 203.37803 248.84375 203.46875 C 250.52046 203.52915 252.27882 203.52135 254.125 203.46875 C 259.66277 203.31113 266.02515 202.62609 273.4375 201.21875 C 278.05332 197.65459 284.00464 200.81149 283.4375 183 C 283.32006 179.31187 282.20427 173.84673 278.4375 170.15625 C 282.12307 163.17678 278.25984 157.86843 271.625 153.71875 C 270.6756 150.2529 268.52794 146.50419 265.375 144.5 C 265.3203 144.4652 265.27405 144.4087 265.21875 144.375 C 265.01631 144.24499 264.80032 144.14328 264.59375 144.03125 C 264.44844 143.95625 264.30531 143.87979 264.15625 143.8125 C 263.93724 143.7081 263.72265 143.61588 263.5 143.53125 C 263.4788 143.52325 263.4587 143.5074 263.4375 143.5 C 262.6757 143.21748 261.88338 143.08194 261.09375 143.03125 C 260.22402 142.97545 259.37584 143.05395 258.5 143.28125 C 258.4715 143.28825 258.43475 143.27325 258.40625 143.28125 C 258.11611 143.34845 257.82918 143.46675 257.53125 143.5625 C 257.66272 139.80011 258.48353 135.44718 259.3125 130.65625 C 259.3445 130.47842 259.37475 130.30258 259.40625 130.125 C 259.49055 129.63324 259.57373 129.15725 259.65625 128.65625 C 259.85225 127.50628 260.02419 126.35091 260.1875 125.21875 C 260.54367 122.74962 260.84638 120.33018 260.9375 118 C 260.9534 117.59374 260.9497 117.19266 260.9375 116.8125 C 260.9247 116.45184 260.88065 116.11886 260.84375 115.78125 C 260.84175 115.75995 260.84575 115.73995 260.84375 115.71875 C 260.80685 115.39557 260.77605 115.08351 260.71875 114.78125 C 260.71275 114.74835 260.6938 114.7201 260.6875 114.6875 C 260.6306 114.3994 260.57383 114.11292 260.5 113.84375 C 260.491 113.81055 260.47805 113.7829 260.46875 113.75 C 258.12757 105.48607 247.61341 106.1833 245.5625 110.875 C 240.89821 121.54514 238.19716 131.88691 236.625 142.125 L 234.125 141.21875 C 225.73254 129.04656 209.77159 104.26753 189.40625 99.59375 C 188.43567 98.790662 187.40042 98.014807 186.28125 97.28125 C 185.63459 96.857401 185.13205 96.485481 184.75 96.125 C 184.56093 95.949297 184.41034 95.78504 184.28125 95.625 C 183.76476 94.983881 183.74623 94.498311 184.125 94.125 C 184.2174 94.03791 184.32989 93.914801 184.46875 93.84375 C 184.61539 93.7683 184.80302 93.713361 185 93.65625 C 185.39405 93.542803 185.88298 93.474957 186.46875 93.4375 C 187.05443 93.39937 187.73542 93.39589 188.5 93.4375 C 188.88232 93.45855 189.26287 93.48965 189.6875 93.53125 C 190.5454 93.61408 191.47828 93.736032 192.5 93.90625 C 191.7603 93.278024 191.10492 92.693223 190.53125 92.15625 C 186.51414 88.396434 185.74609 86.664066 176.46875 83.90625 C 177.81119 82.660463 178.47234 82.156172 179.125 82.03125 C 179.77651 81.906221 180.40661 82.152584 181.625 82.375 C 182.43154 82.522178 183.52008 82.669441 185.03125 82.6875 C 179.9587 80.90566 177.15095 79.714837 174.34375 78.90625 C 174.33375 78.90345 174.3221 78.90905 174.3125 78.90625 C 172.13611 78.281167 169.94391 77.885905 166.71875 77.5625 C 165.13742 72.53308 163.25 67.46875 163.25 67.46875 L 167 68.34375 C 164.82288 67.330025 162.88643 66.334887 161.03125 64.9375 C 161.3212 65.01426 161.61677 65.077132 161.90625 65.15625 C 161.90625 65.15625 162.14775 63.070783 162.25 60.3125 C 163.85012 59.91338 165.83098 59.329073 167.59375 58.6875 C 168.08093 58.510654 168.53799 58.333438 168.96875 58.15625 C 169.82995 57.801119 170.54318 57.465405 171 57.15625 C 171.11424 57.07905 171.23286 57.009408 171.3125 56.9375 C 171.3921 56.86554 171.45869 56.784386 171.5 56.71875 C 171.548 56.544611 171.5641 56.306895 171.5625 56.03125 C 171.56211 55.96777 171.53405 55.880873 171.53125 55.8125 C 171.72829 55.71799 171.95025 55.60092 172.15625 55.5 C 172.58141 55.291065 173.07647 55.046995 173.53125 54.8125 C 173.99815 54.571777 174.51382 54.327522 175 54.0625 C 175.24762 53.927146 175.49968 53.79745 175.75 53.65625 C 175.99194 53.520093 176.22567 53.360069 176.46875 53.21875 C 177.72139 52.488274 178.98701 51.68804 180.15625 50.84375 C 181.79124 49.666144 183.24942 48.403771 184.28125 47.09375 C 184.35685 46.99779 184.42908 46.908854 184.5 46.8125 C 184.5692 46.71867 184.62294 46.625432 184.6875 46.53125 C 184.81662 46.342837 184.95312 46.158282 185.0625 45.96875 C 185.2778 45.595696 185.45678 45.140604 185.59375 44.65625 C 185.59675 44.64675 185.59075 44.63457 185.59375 44.625 C 185.66025 44.38667 185.69969 44.132016 185.75 43.875 C 185.752 43.8654 185.748 43.85337 185.75 43.84375 C 185.90322 43.049384 185.99779 42.182188 186.03125 41.3125 C 186.03163 41.30201 186.03088 41.29174 186.03125 41.28125 C 186.14029 38.347596 185.71875 35.4375 185.71875 35.4375 L 179.03125 14 C 179.02825 13.9917 179.03425 13.9771 179.03125 13.96875 C 178.91486 13.595888 178.76688 13.19032 178.59375 12.75 C 178.41691 12.299349 178.22398 11.832571 178 11.375 C 177.56299 10.481277 177.05041 9.648135 176.5 9.09375 L 174.75 7.34375 L 173 5.59375 C 172.30201 4.89072 171.50832 4.20099 170.5625 3.90625 C 168.34546 3.21542 163.59375 3.875 163.59375 3.875 C 163.59375 3.875 166.40212 4.7993 167.09375 5.96875 L 171.1875 12.875 C 172.24586 14.66452 172.3908 16.8902 172.4375 18.96875 L 172.65625 29.34375 C 172.68745 30.73172 171.56328 32.03133 170.4375 32.84375 C 168.90495 33.949715 166.06328 34.62657 163.78125 35 C 163.63357 34.831875 163.47962 34.671414 163.34375 34.5625 C 161.73351 33.697654 154.25441 36.2214 152.46875 36.84375 C 152.37765 36.81026 152.28286 36.78301 152.1875 36.75 C 151.95927 36.67139 151.72028 36.575822 151.46875 36.5 C 151.39335 36.47735 151.29614 36.4599 151.21875 36.4375 C 150.69328 36.285643 150.07935 36.140202 149.46875 36 C 149.29246 35.95968 149.08892 35.91434 148.90625 35.875 C 147.60489 35.595538 146.13049 35.322684 144.5625 35.09375 C 133.72233 33.515896 117.68677 33.202503 112.65625 34.5625 C 111.77311 34.801254 111.00807 35.089997 110.3125 35.40625 C 107.11161 33.796983 102.7763 31.783735 101.15625 32.59375 C 101.02719 32.69115 100.8908 32.85169 100.75 33 C 98.483509 32.562938 95.669454 31.835639 94.15625 30.6875 C 94.15035 30.6829 94.13094 30.6921 94.125 30.6875 C 93.855552 30.480813 93.597061 30.228107 93.34375 29.96875 C 93.208434 29.828834 93.091797 29.683476 92.96875 29.53125 C 92.380043 28.810526 91.955181 27.991544 92 27.125 L 92 27.09375 L 92.53125 16.75 C 92.59785 15.462295 92.695161 14.102522 93.03125 12.84375 C 93.03385 12.83425 93.02865 12.82197 93.03125 12.8125 C 93.236626 12.052239 93.552421 11.346686 93.96875 10.6875 L 98.25 3.90625 C 98.336684 3.7690003 98.454998 3.6269144 98.59375 3.5 C 98.887765 3.2352811 99.28419 2.9895268 99.6875 2.78125 C 99.877547 2.6836061 100.09213 2.5826666 100.28125 2.5 C 101.08119 2.1514038 101.8125 1.9375 101.8125 1.9375 C 101.8125 1.9375 100.78898 1.7471643 99.53125 1.625 L 99.5 1.625 C 98.670332 1.5452606 97.771232 1.5163568 96.875 1.53125 z "
       style="fill:#000000;fill-opacity:1;stroke:none"
       id="path4376"
       d="M 96.84375,-0.03125 C 96.034534,-0.01780236 95.244073,0.02429616 94.4375,0.25 c -1.382805,0.38695592 -2.377458,1.2601455 -3.15625,2 l -3.5625,3.375 C 86.146801,7.1183489 85.188328,9.427493 84.625,11.0625 l -7.3125,21.25 A 1.5473403,1.5473403 0 0 0 77.25,32.53125 c 0,0 -0.340672,1.954072 -0.46875,4.3125 -0.128078,2.358428 -0.19232,5.095028 0.96875,7.25 0.402492,0.747037 0.916776,1.41276 1.4375,2.03125 0.173759,0.206561 0.184016,0.211933 0.03125,0.03125 0.756814,0.893251 1.64129,1.730372 2.59375,2.53125 0.06976,0.05885 0.125463,0.104813 0.1875,0.15625 0.0884,0.07303 0.243409,0.22715 0.46875,0.40625 0.197586,0.157486 0.396016,0.286754 0.59375,0.4375 0.590825,0.449635 1.179238,0.849385 1.71875,1.21875 -0.06048,-0.04148 0.01621,0.04 0.28125,0.21875 0.546055,0.367744 1.10198,0.705402 1.625,1.03125 0.310196,0.193407 0.614622,0.356353 0.90625,0.53125 0.368769,0.221137 0.695281,0.445434 1.0625,0.65625 0.435439,0.250054 0.87463,0.508316 1.375,0.78125 0.268932,0.14664 0.5566,0.302325 0.8125,0.4375 0.0089,0.111708 -0.01402,0.12701 0.03125,0.3125 a 1.5473403,1.5473403 0 0 0 0.15625,0.40625 c 0.556806,0.944831 1.164275,1.153124 1.9375,1.5625 0.01958,0.01046 0.01217,-0.0095 0.03125,0 1.472705,0.776042 3.584151,1.471039 5.5625,2.125 C 98.429523,59.754437 98.25,60.875 98.25,60.875 A 1.5473403,1.5473403 0 0 0 98.5,62 c -1.204379,3.830692 -2.841976,9.20441 -4.40625,15.1875 -5.880873,2.312201 -11.509782,4.756873 -15.15625,8.46875 a 1.5473403,1.5473403 0 0 0 1.6875,2.53125 c 0.139029,-0.05681 0.122151,-0.01363 0.25,-0.0625 -2.961113,2.649741 -4.87062,5.464644 -7.03125,8 A 1.5473403,1.5473403 0 0 0 75.125,98.65625 C 71.919563,103.92884 70.646153,109.13201 68.4375,114 a 1.5473403,1.5473403 0 0 0 0.34375,1.75 C 48.977399,141.90619 35.547366,180.90906 36.1875,206.9375 l -0.03125,0 c 0,0 -0.03134,10.62598 0.75,17.65625 0.114146,1.02706 0.216058,2.32713 0.53125,3.65625 0.137629,0.58037 0.302705,1.16651 0.53125,1.71875 0.102769,0.25245 0.212758,0.46291 0.3125,0.65625 0.210626,0.40682 0.457026,0.83129 0.8125,1.25 0.181851,0.21573 0.239608,0.24748 0.15625,0.15625 a 1.5473403,1.5473403 0 0 0 0.03125,0 c -0.03442,-0.0375 0.02373,0.10337 0.28125,0.34375 0.241301,0.22492 0.441024,0.35087 0.5625,0.4375 -0.05673,-0.0403 0.0058,0.0385 0.1875,0.15625 l 0,-0.0312 c 0.305831,0.20015 0.345022,0.2193 0.09375,0.0625 0.38174,0.23764 0.513894,0.25912 0.375,0.1875 -0.204912,-0.10599 -0.08375,0.0261 0.375,0.21875 0.08647,0.0363 0.04747,0.0154 0.09375,0.0312 -3.439671,15.19564 2.490274,30.57612 4.21875,41.9375 1.813065,11.91739 0.389335,13.46678 0,19.6875 a 1.5473403,1.5473403 0 0 0 0,0.0312 c -0.310248,8.92974 -2.831131,18.29101 -0.5,27.9375 0.810228,3.35282 1.726427,5.26041 3.0625,6.40625 1.336073,1.14584 2.925674,1.10116 3.90625,1.0625 0.358044,-0.0116 0.651176,-0.0167 0.90625,0 0.118213,0.007 0.232822,0.0486 0.3125,0.0625 0.0077,0.001 0.02415,-0.001 0.03125,0 -0.142879,-0.0269 -0.228066,-0.03 0.09375,0.0625 a 1.5473403,1.5473403 0 0 0 0.03125,0 c 0.04828,0.0137 0.0251,0.0197 0.0625,0.0312 0.04676,0.085 0.107546,0.16718 0.15625,0.25 0.05322,0.0905 0.100059,0.19276 0.15625,0.28125 0.0018,0.004 -2.3e-5,0.0312 0,0.0312 0.243736,0.38108 0.496804,0.62486 0.65625,0.8125 0.01045,0.0123 0.02157,0.0509 0.03125,0.0625 8.39e-4,0.002 -2.2e-5,0.0312 0,0.0312 0.254761,0.30195 0.5095,0.53244 0.71875,0.71875 0.22131,0.19791 0.464086,0.42129 0.78125,0.625 1.631278,1.05409 3.380375,1.12823 4.84375,1.125 1.249064,-0.003 2.227555,0.0374 3.09375,0.21875 1.239043,2.83763 3.469333,4.3298 5.75,4.875 2.278588,0.5447 4.485497,0.54031 6.375,0.8125 0.0522,0.10859 0.09493,0.20115 0.15625,0.3125 0.02495,0.0457 0.0076,0.0248 0.03125,0.0625 0.210159,0.37379 0.438615,0.73141 0.6875,1.0625 0.04611,0.0617 0.05212,0.0742 0.09375,0.125 0.558854,18.52151 -0.07528,37.26845 -2.8125,56.75 -2.461396,0.043 -5.047889,0.22822 -7.0625,0.6875 -1.195185,0.27247 -2.195824,0.46955 -3.0625,1.40625 -0.433338,0.46835 -0.743829,1.38021 -0.53125,2.125 0.212579,0.74479 0.678056,1.17454 1.1875,1.5625 2.381714,1.81376 4.524575,3.59772 5.6875,5.0625 -0.05246,0.0973 -0.120766,0.17841 -0.125,0.1875 -0.0074,0.0159 -0.150749,0.38964 -0.15625,0.40625 -0.0055,0.0166 -0.09021,0.35786 -0.09375,0.375 -0.0035,0.0171 -0.06096,0.38882 -0.0625,0.40625 -0.0015,0.0174 -0.03174,0.42001 -0.03125,0.4375 4.88e-4,0.0175 0.02874,0.38893 0.03125,0.40625 0.0025,0.0173 0.08926,0.38934 0.09375,0.40625 0.0045,0.0169 0.118581,0.35872 0.125,0.375 0.0064,0.0163 0.179242,0.35957 0.1875,0.375 0.0083,0.0154 0.208763,0.32938 0.21875,0.34375 0.01,0.0144 0.238419,0.33063 0.25,0.34375 0.01029,0.0117 0.194252,0.19477 0.25,0.25 0.0105,0.01 0.02074,0.0214 0.03125,0.0312 0.327096,0.30526 0.683698,0.60892 1.03125,0.90625 0.02846,0.43514 0.03466,0.87953 0.03125,1.3125 l 0.65625,0 0.125,3.9375 -1.0625,-0.125 c -0.01518,0.12285 -0.0177,0.22374 -0.03125,0.34375 -0.05504,0.003 -0.100058,-0.003 -0.15625,0 -0.01438,7.9e-4 -0.298263,0.0291 -0.3125,0.0312 -0.01424,0.002 -0.32978,0.059 -0.34375,0.0625 -0.01397,0.003 -0.298922,0.089 -0.3125,0.0937 -0.01358,0.005 -0.299435,0.11895 -0.3125,0.125 -0.01306,0.006 -0.300067,0.14899 -0.3125,0.15625 -0.01243,0.007 -0.269559,0.1791 -0.28125,0.1875 -0.01169,0.008 -0.239157,0.17803 -0.25,0.1875 -0.01084,0.009 -0.240101,0.23955 -0.25,0.25 -0.0099,0.0104 -0.209885,0.23866 -0.21875,0.25 -0.0089,0.0113 -0.179748,0.26912 -0.1875,0.28125 -0.0078,0.0121 -0.180931,0.26844 -0.1875,0.28125 -0.0066,0.0128 -0.119673,0.29912 -0.125,0.3125 -0.0053,0.0134 -0.120962,0.29868 -0.125,0.3125 -0.004,0.0138 -0.05979,0.32961 -0.0625,0.34375 -0.0027,0.0141 -0.06114,0.29817 -0.0625,0.3125 -0.0014,0.0143 0,0.32935 0,0.34375 0,0.0144 -0.0014,0.32942 0,0.34375 0.0014,0.0143 0.05979,0.29836 0.0625,0.3125 0.0027,0.0141 0.05846,0.32993 0.0625,0.34375 0.004,0.0138 0.119673,0.29912 0.125,0.3125 0.0053,0.0134 0.118431,0.29969 0.125,0.3125 0.0066,0.0128 0.179748,0.26912 0.1875,0.28125 0.0078,0.0121 0.178635,0.26991 0.1875,0.28125 0.0089,0.0113 0.208851,0.23955 0.21875,0.25 0.0099,0.0104 0.239157,0.24053 0.25,0.25 0.01084,0.009 0.238309,0.1791 0.25,0.1875 -1.483274,3.97778 -3.518189,9.84659 -5.09375,16.09375 -1.740279,6.90028 -2.925943,13.86361 -1.46875,18.78125 0.711644,2.4016 1.868758,3.98776 3.375,4.96875 1.506242,0.98099 3.12841,1.43957 5.15625,2.28125 6.962149,2.88973 14.870136,4.33907 22.84375,4.875 2.531899,0.17016 5.053465,0.29058 7.59375,0.28125 0.8268,-0.003 1.60335,-0.0765 2.34375,-0.0937 0.0274,-5.9e-4 0.12146,0.003 0.28125,0 0.38765,-0.01 0.80579,-0.0166 1.21875,-0.0312 0.7262,-0.0261 1.45911,-0.0548 2.1875,-0.0937 0.53973,-0.0287 1.05302,-0.0581 1.59375,-0.0937 0.58026,-0.0385 1.14946,-0.0795 1.71875,-0.125 0.64776,-0.0515 1.31166,-0.0907 2,-0.15625 0.42484,-0.0405 0.8271,-0.0805 1.25,-0.125 0.81769,-0.0857 1.60754,-0.18656 2.375,-0.28125 0.24522,-0.0303 0.50239,-0.0535 0.8125,-0.0937 0.91293,-0.11844 1.80316,-0.2414 2.6875,-0.375 0.14133,-0.0214 0.30205,-0.0415 0.4375,-0.0625 1.02372,-0.158 2.02382,-0.32523 3,-0.5 0.55107,-0.0986 0.94151,-0.31126 1.3125,-0.5 a 1.5473403,1.5473403 0 0 0 0.0312,0 c 0.39683,-0.20507 0.84337,-0.46906 1.28125,-0.8125 0.40655,-0.31877 0.79801,-0.68892 1.1875,-1.09375 0.37161,-0.38472 0.71164,-0.79101 1.0625,-1.25 a 1.5473403,1.5473403 0 0 0 0,-0.0312 1.5473403,1.5473403 0 0 0 0.0312,0 c 1.7e-4,-2.3e-4 0.0455,-0.0985 0.0937,-0.1875 0.042,-0.0773 0.0937,-0.15601 0.0937,-0.15625 0.26104,-0.35301 0.56198,-0.70427 0.8125,-1.125 0.31759,-0.53376 0.56785,-1.06422 0.8125,-1.625 0.10521,-0.2394 0.25576,-0.51233 0.375,-0.84375 0.31181,-0.86774 0.50951,-1.79482 0.59375,-2.71875 0.10851,-1.18953 -0.3283,-2.15676 -0.9375,-3.1875 -0.41724,-0.70964 -0.93104,-1.38286 -1.46875,-2.0625 -0.27068,-0.34219 -0.57994,-0.68464 -0.90625,-1.0625 -0.62095,-0.71971 -1.24752,-1.4146 -1.9375,-2.125 -2.07485,-2.13706 -4.39909,-4.26916 -6.125,-5.75 -3e-5,-3e-5 -0.0293,10e-4 -0.0312,0 -0.0128,-0.011 -0.0185,-0.0203 -0.0312,-0.0312 -0.52726,-0.45228 -0.99876,-0.8219 -1.40625,-1.15625 l 0,-0.0312 c -3e-5,-3e-5 -0.0293,10e-4 -0.0312,0 -0.01,-0.005 -0.079,-0.0394 -0.125,-0.0625 C 111.38818,440.20204 105.98863,436.07796 101.65625,431 a 1.5473403,1.5473403 0 0 0 0,-0.0312 c -0.36226,-0.42502 -0.70761,-0.84264 -1.03125,-1.25 -0.009,-0.0111 -0.0225,-0.0202 -0.0312,-0.0312 -8.6e-4,-0.002 2e-5,-0.0312 0,-0.0312 -1.052276,-1.33165 -2.055956,-2.71643 -3,-4.25 0.03947,-0.0606 0.120792,-0.14921 0.125,-0.15625 0.0057,-0.009 0.120046,-0.24014 0.125,-0.25 0.005,-0.01 0.08953,-0.20855 0.09375,-0.21875 0.0042,-0.0102 0.09028,-0.23952 0.09375,-0.25 0.0035,-0.0105 0.05981,-0.2393 0.0625,-0.25 0.0027,-0.0107 0.0606,-0.23913 0.0625,-0.25 0.0019,-0.0109 0.03015,-0.23902 0.03125,-0.25 0.0011,-0.011 0.03095,-0.23897 0.03125,-0.25 2.99e-4,-0.011 5.08e-4,-0.27023 0,-0.28125 -5.08e-4,-0.011 -0.02994,-0.23904 -0.03125,-0.25 -0.0013,-0.011 -0.02914,-0.23917 -0.03125,-0.25 -0.0021,-0.0108 -0.05961,-0.23935 -0.0625,-0.25 -0.0029,-0.0106 -0.09009,-0.23959 -0.09375,-0.25 -0.0037,-0.0104 -0.08934,-0.23988 -0.09375,-0.25 -0.0044,-0.0101 -0.08861,-0.20898 -0.09375,-0.21875 -0.0051,-0.01 -0.15041,-0.24064 -0.15625,-0.25 -0.0058,-0.009 -0.118492,-0.17859 -0.125,-0.1875 -0.0065,-0.009 -0.149109,-0.21034 -0.15625,-0.21875 -0.0048,-0.006 -0.07479,-0.0702 -0.125,-0.125 0.02397,-0.0603 0.0901,-0.23933 0.09375,-0.25 0.0042,-0.0123 0.05936,-0.29986 0.0625,-0.3125 0.0031,-0.0126 0.06046,-0.26839 0.0625,-0.28125 0.002,-0.0129 0.06158,-0.29951 0.0625,-0.3125 9.24e-4,-0.013 1.98e-4,-0.29948 0,-0.3125 -1.98e-4,-0.013 -0.02993,-0.29954 -0.03125,-0.3125 -0.0013,-0.013 -0.02882,-0.26846 -0.03125,-0.28125 -0.0024,-0.0128 -0.05898,-0.29996 -0.0625,-0.3125 -0.0035,-0.0125 -0.08916,-0.26906 -0.09375,-0.28125 -0.0046,-0.0122 -0.119378,-0.2695 -0.125,-0.28125 -0.0056,-0.0118 -0.149637,-0.27003 -0.15625,-0.28125 -0.0066,-0.0112 -0.148695,-0.23939 -0.15625,-0.25 -0.0076,-0.0106 -0.17906,-0.24008 -0.1875,-0.25 -0.0084,-0.01 -0.209487,-0.2096 -0.21875,-0.21875 -0.0093,-0.009 -0.208733,-0.21043 -0.21875,-0.21875 -0.01002,-0.008 -0.239303,-0.14882 -0.25,-0.15625 -0.0107,-0.007 -0.238703,-0.18102 -0.25,-0.1875 -0.0113,-0.006 -0.269437,-0.11952 -0.28125,-0.125 -0.01181,-0.005 -0.269009,-0.12056 -0.28125,-0.125 2.56e-4,-0.006 -8e-6,-0.0299 0,-0.0312 9.2e-5,-0.0143 0.0013,-0.29824 0,-0.3125 -0.0013,-0.0143 -0.02865,-0.32967 -0.03125,-0.34375 -0.0026,-0.0141 -0.08983,-0.32998 -0.09375,-0.34375 -0.0039,-0.0138 -0.08855,-0.29916 -0.09375,-0.3125 -0.0052,-0.0133 -0.149812,-0.29971 -0.15625,-0.3125 -0.0064,-0.0128 -0.148633,-0.26912 -0.15625,-0.28125 -0.0076,-0.0121 -0.178772,-0.2699 -0.1875,-0.28125 -0.0087,-0.0113 -0.208989,-0.23952 -0.21875,-0.25 -0.0098,-0.0105 -0.239293,-0.20924 -0.25,-0.21875 -0.005,-0.004 -0.06661,-0.0466 -0.125,-0.0937 0.312144,-0.13748 0.592592,-0.28594 0.9375,-0.40625 0.333,-0.11598 0.66934,-0.2278 0.96875,-0.3125 0.318694,-0.0899 0.691438,-0.19466 1.0625,-0.28125 0.717476,-0.16712 1.469246,-0.30129 2.21875,-0.4375 0.407356,-0.074 0.7679,-0.18641 1.09375,-0.3125 -0.0383,0.0149 0.0772,0.0177 0.40625,-0.15625 -0.0373,0.0191 0.0132,0.001 0.125,-0.0625 0.35045,-0.20202 0.51398,-0.41979 0.5,-0.40625 -0.0241,0.0227 0.11021,-0.0819 0.28125,-0.3125 0.28391,-0.3835 0.29509,-0.47252 0.125,-0.1875 -0.0239,0.0401 0.1782,-0.12877 0.28125,-0.6875 0.0836,-0.43476 -0.002,-0.54598 0,-0.5 0.0107,0.2115 0.0294,0.0652 0,-0.1875 -0.002,-0.0122 0.002,-0.0193 0,-0.0312 -0.0347,-0.24154 -0.0932,-0.44101 -0.15625,-0.59375 a 1.5473403,1.5473403 0 0 0 -0.0312,-0.0312 c -0.15376,-0.34469 -0.35456,-0.56954 -0.5625,-0.8125 -0.005,-0.006 0.006,-0.0249 0,-0.0312 -0.15373,-0.17584 -0.24759,-0.27882 -0.25,-0.28125 -0.13615,-0.13478 -0.28509,-0.27802 -0.4375,-0.40625 -0.106,-0.0885 -0.31266,-0.27844 -0.625,-0.5 -0.114649,-0.0809 -0.200384,-0.14376 -0.21875,-0.15625 -0.420335,-0.28548 -0.81536,-0.48994 -1.15625,-0.6875 -0.275806,-0.15947 -0.627425,-0.36601 -1,-0.5625 -0.497354,-0.26234 -0.528796,-0.25723 -0.09375,-0.0312 -0.319707,-0.16736 -0.719681,-0.39962 -1.1875,-0.625 -0.375892,-0.18108 -0.775573,-0.34166 -1.125,-0.5 -0.676074,-0.3054 -1.401102,-0.611 -2.125,-0.90625 0.350417,-2.296 0.685716,-4.60069 1,-6.84375 0.06421,-0.44521 0.06261,-0.46115 0,-0.0312 1.759721,-12.56286 3.117548,-24.37165 5.25,-36.34375 0.101358,-0.5631 0.09776,-0.57435 0,-0.0312 1.1176,-6.27071 2.49099,-12.60446 4.21875,-19.09375 a 1.5473403,1.5473403 0 0 0 0.53125,-2 c 0.47024,-1.68828 0.94085,-3.37255 1.46875,-5.09375 0.003,-0.01 -0.003,-0.0215 0,-0.0312 0.006,-0.0208 -0.005,-0.0115 0,-0.0312 0.003,-0.009 -0.003,-0.0221 0,-0.0312 1.10862,-3.60895 2.37079,-7.29045 3.78125,-11.0625 0.15497,-0.41443 0.32678,-0.82252 0.5,-1.21875 0.009,-0.021 -0.008,-0.011 0,-0.0312 0.7044,-1.60634 1.56626,-3.07644 2.5625,-4.375 -0.23531,0.3059 -0.22468,0.30232 0.0312,-0.0312 0.49588,-0.64358 1.04355,-1.23704 1.625,-1.8125 0.32279,-0.3197 0.60218,-0.60215 0.84375,-0.8125 0.90188,-0.77608 1.91464,-1.46051 2.96875,-2.03125 1.04427,-0.56526 2.2067,-1.02347 3.4375,-1.375 0.82914,-0.23626 1.6675,-0.44256 2.53125,-0.5625 0.84937,-0.11794 3.43383,0.11201 7.625,0.5 4.19117,0.38799 10.10766,0.89002 18.21875,1.03125 2.14158,0.0372 3.94331,0.0268 5.4375,0.0312 0.0211,7e-5 0.0352,10e-6 0.0312,0 5.27403,0.0152 7.15718,-0.1612 7.96875,-0.25 0.40579,-0.0444 0.36335,0.004 0.15625,-0.0312 -0.19642,-0.0331 0.0788,0.0212 0.53125,0.15625 0.0246,0.007 0.005,-0.008 0.0312,0 -0.006,-0.002 0.0607,0.0376 0.15625,0.0937 0.10747,0.0639 0.12315,0.0736 0.0625,0.0312 0.0235,0.016 0.0862,0.0621 0.15625,0.125 0.0811,0.0743 0.12641,0.12217 0.15625,0.15625 -0.023,-0.0257 0.009,0.0267 0.0625,0.0937 0.21255,0.26547 0.43798,0.62559 0.65625,1.09375 0.98085,2.10608 1.54924,5.96398 1.59375,9.0625 0.63313,44.07929 -1.64365,59.41051 -4.28125,79.9375 l -1.28125,-0.0312 A 1.5473403,1.5473403 0 0 0 159.375,403.5 c 0,0 -2.99833,19.68429 -3.5625,42.90625 -0.0415,1.70937 0.46849,3.55701 1.1875,5.3125 0.71262,1.73989 1.55713,3.3094 2.6875,4.375 0.034,0.0334 0.003,0.005 0.0312,0.0312 0.15518,0.14321 0.27312,0.23117 0.1875,0.15625 a 1.5473403,1.5473403 0 0 0 0.0312,0.0312 c -0.15546,-0.12921 -0.0111,-0.0261 0.0937,0.0625 0.0108,0.009 0.0204,0.0224 0.0312,0.0312 0.15176,0.12297 0.30748,0.23508 0.5,0.34375 a 1.5473403,1.5473403 0 0 0 0.0312,0.0312 c 0.24336,0.1287 0.47849,0.22694 0.75,0.28125 2.32745,0.46549 4.89112,0.86704 7.65625,1.25 2.7654,0.38246 5.72176,0.72203 8.84375,1.03125 4.68214,0.46508 9.72058,0.83677 14.9375,1.15625 1.73063,0.10543 3.49469,0.22053 5.28125,0.3125 3.55284,0.18403 7.15067,0.33807 10.78125,0.46875 0.11882,0.004 0.13055,0.004 0.0312,0 3.62182,0.13022 7.27221,0.22924 10.875,0.3125 0.0821,0.002 0.0936,0.001 0.0312,0 3.60377,0.0831 7.16066,0.17628 10.65625,0.21875 0.0474,5.6e-4 0.0582,3.2e-4 0.0312,0 3.48839,0.0423 6.91966,0.086 10.21875,0.0937 1.63853,0.004 3.10033,-0.43026 4.3125,-1.09375 l 0,0.0312 c 0.0976,-0.0527 0.15122,-0.11656 0.21875,-0.15625 0.0261,-0.0147 0.008,-0.0168 0.0312,-0.0312 0.0126,-0.008 0.0194,0.008 0.0312,0 0.0221,-0.0143 0.0117,-0.0174 0.0312,-0.0312 0.0392,-0.023 0.0854,-0.049 0.15625,-0.0937 a 1.5473403,1.5473403 0 0 0 0.0312,0 c 0.28089,-0.1803 0.54782,-0.40712 0.8125,-0.625 -0.0445,0.0364 0.0545,-0.0203 0.0312,0 -0.0929,0.0814 -0.13872,0.13427 0.0937,-0.0625 1.09398,-0.93593 1.88866,-2.09721 2.46875,-3.28125 0.38915,-0.79375 0.69951,-1.61997 0.90625,-2.4375 0.098,-0.38308 0.18618,-0.7506 0.25,-1.15625 0.1201,-0.76526 0.16003,-1.52871 0.125,-2.25 -5.7e-4,-0.0121 6.3e-4,-0.0193 0,-0.0312 -0.0192,-0.36251 -0.0492,-0.67923 -0.0937,-0.9375 a 1.5473403,1.5473403 0 0 0 0,-0.0312 c 0.10105,0.53556 0.10724,0.53177 0,-0.0312 -0.0686,-0.3847 -0.17283,-0.69121 -0.25,-0.90625 a 1.5473403,1.5473403 0 0 0 -0.0312,-0.0312 c -0.0127,-0.0358 0.016,-0.0246 0,-0.0625 l -0.0312,0 c -0.22261,-0.57801 -0.57943,-1.18995 -1.25,-1.5625 -15.81777,-8.78843 -32.082,-16.84326 -46.28125,-27.65625 -6.02384,-4.58726 -17,-16.28125 -17,-16.28125 a 1.5473403,1.5473403 0 0 0 -1.09375,-0.46875 l -3.71875,-0.0937 c 0.002,-0.0414 -0.002,-0.0836 0,-0.125 0.1192,-2.99261 0.28162,-5.93333 0.5,-8.875 0.022,-0.29652 0.0636,-0.64438 0.0937,-1.03125 0.0761,-0.9749 0.13659,-1.94971 0.21875,-2.875 0.088,-0.9916 0.18257,-1.94736 0.28125,-2.9375 0.0272,-0.27357 0.0619,-0.56505 0.0937,-0.875 0.10387,-1.00993 0.2011,-1.98833 0.3125,-2.96875 0.0166,-0.1462 0.0243,-0.25197 0.0312,-0.3125 0.13462,-1.17337 0.28769,-2.3844 0.4375,-3.5625 0.67387,-5.30001 1.51135,-10.50624 2.4375,-15.6875 0.002,-0.0101 -0.002,-0.0212 0,-0.0312 -0.001,-0.0106 0.0579,-0.32227 0,-0.0312 a 1.5473403,1.5473403 0 0 0 0,-0.0312 c 1.97131,-11.01178 4.47418,-21.7738 7.21875,-32.34375 0.61508,-2.36833 1.23884,-4.7209 1.875,-7.0625 0.98658,-3.63201 1.97813,-7.23152 3,-10.8125 1.32744,-4.65132 2.67602,-9.29929 4.03125,-13.90625 3.57859,-12.16505 9.42625,-20.63482 12.96875,-33.625 0.80222,-2.93991 1.49675,-6.13374 2,-9.625 a 1.5473403,1.5473403 0 0 0 0,-0.0312 1.5473403,1.5473403 0 0 0 0,-0.0312 c 0.0318,-0.32149 0.0298,-0.33254 0,-0.0312 0.19629,-1.3728 0.3622,-2.77765 0.5,-4.25 0.0283,-0.30424 0.0271,-0.31931 0,-0.0312 0.049,-0.52482 0.0875,-1.04165 0.125,-1.5625 0.0942,-0.11392 0.17421,-0.19698 0.28125,-0.34375 0.54275,-0.74413 1.04409,-1.52128 1.4375,-2.34375 0.12473,-0.25964 0.13828,-0.37366 0.125,-0.34375 0.15558,-0.35216 0.31477,-0.72353 0.4375,-1.09375 0.003,-0.009 -0.003,-0.0221 0,-0.0312 0.048,-0.14618 0.11337,-0.31718 0.15625,-0.46875 0.0801,-0.28404 0.17829,-0.60372 0.25,-1 1.2817,-7.08251 1.98355,-14.16944 2.21875,-21.28125 0.0396,-1.19535 0.0815,-2.36002 0.0937,-3.53125 0.0127,-1.19215 0.0138,-2.39881 0,-3.59375 -0.0138,-1.19656 -0.0863,-2.36249 -0.125,-3.53125 -0.16636,-5.04788 -0.67994,-10.0729 -1.28125,-15.09375 2.49047,1.20856 4.97461,2.43029 7.75,3.5 2.86884,1.10786 5.96404,2.0751 9.40625,2.8125 1.38895,0.29732 2.80138,0.54138 4.28125,0.75 2.23482,0.31532 4.61495,0.53219 7.1875,0.625 1.72039,0.062 3.50522,0.0533 5.375,0 5.63152,-0.16029 12.08114,-0.82956 19.5625,-2.25 a 1.5473403,1.5473403 0 0 0 0.65625,-0.3125 c 0.93921,-0.72522 2.00106,-1.13357 3.21875,-1.625 1.21769,-0.49143 2.60891,-1.08402 3.84375,-2.25 2.46967,-2.33196 3.82021,-6.5501 3.53125,-15.625 -0.11787,-3.70161 -1.19893,-8.98411 -4.78125,-13.03125 1.53888,-3.48668 1.49538,-6.86371 0.0937,-9.71875 -1.46127,-2.97652 -4.16441,-5.37663 -7.40625,-7.46875 -1.0998,-3.59011 -3.22498,-7.35014 -6.65625,-9.53125 0.22288,0.1418 0.11564,0.0473 -0.15625,-0.125 -0.0104,-0.007 -0.021,0.006 -0.0312,0 -0.3005,-0.19005 -0.53834,-0.32536 -0.6875,-0.40625 a 1.5473403,1.5473403 0 0 0 -0.0312,0 c -0.12606,-0.0651 -0.30307,-0.15977 -0.5,-0.25 -0.009,-0.004 -0.0222,0.004 -0.0312,0 -0.245,-0.11597 -0.46513,-0.2161 -0.71875,-0.3125 a 1.5473403,1.5473403 0 0 0 -0.0312,0 c 0.18962,0.0716 0.006,-0.003 -0.0625,-0.0312 -0.0101,-0.004 -0.0211,0.004 -0.0312,0 -0.92846,-0.3402 -1.86015,-0.50538 -2.75,-0.5625 -0.63926,-0.041 -1.26636,0.10092 -1.90625,0.1875 0.27522,-3.17905 0.86955,-6.74637 1.5625,-10.75 0.002,-0.0107 -0.002,-0.0205 0,-0.0312 0.0312,-0.17405 0.0649,-0.33747 0.0937,-0.5 a 1.5473403,1.5473403 0 0 0 0,-0.0312 c 0.0838,-0.48858 0.16592,-0.9583 0.25,-1.46875 0.19966,-1.17143 0.36727,-2.33192 0.53125,-3.46875 0.35887,-2.48788 0.65529,-4.95292 0.75,-7.375 0.0178,-0.45539 0.013,-0.90749 0,-1.3125 -0.0161,-0.45267 -0.0594,-0.81037 -0.0937,-1.125 0.0244,0.25962 0.0287,0.24133 0,-0.0625 a 1.5473403,1.5473403 0 0 0 0,-0.0312 c -0.0352,-0.30806 -0.0503,-0.63721 -0.125,-1.03125 -0.0811,-0.44477 -0.10302,-0.46515 -0.0312,-0.0937 a 1.5473403,1.5473403 0 0 0 0,-0.0312 c -0.057,-0.28874 -0.12436,-0.59338 -0.21875,-0.9375 -0.0503,-0.18556 -0.0625,-0.20428 -0.0312,-0.0937 -1.33926,-4.72735 -5.24099,-7.12082 -8.9375,-7.4375 -3.69651,-0.31668 -7.47215,1.13457 -8.875,4.34375 -4.44356,10.16518 -7.09334,20.03211 -8.71875,29.78125 l -0.34375,-0.125 C 226.73172,127.73941 211.10288,103.34831 190.1875,98.25 189.23544,97.472749 188.21923,96.717213 187.125,96 c -0.56561,-0.370722 -0.94147,-0.686189 -1.21875,-0.9375 0.20847,-0.03405 0.35307,-0.07436 0.65625,-0.09375 0.51418,-0.03347 1.13362,-0.03865 1.84375,0 0.35507,0.01955 0.71517,0.0536 1.125,0.09375 0.8201,0.07918 1.72945,0.210184 2.71875,0.375 a 1.5473403,1.5473403 0 0 0 1.25,-2.71875 c -0.7223,-0.613444 -1.35263,-1.169293 -1.90625,-1.6875 -3.23714,-3.029801 -4.97998,-5.038767 -10.71875,-7.21875 0.23097,0.04445 0.14712,0.03504 0.46875,0.09375 0.86909,0.158592 2.05346,0.324596 3.65625,0.34375 a 1.5473403,1.5473403 0 0 0 0.53125,-3.03125 c -5.03762,-1.76957 -7.81823,-2.968032 -10.75,-3.8125 a 1.5473403,1.5473403 0 0 0 -0.0312,0 c -1.98549,-0.570254 -4.21418,-0.87938 -6.875,-1.1875 -1.06525,-3.290554 -1.73248,-5.117707 -2.28125,-6.625 l 1.0625,0.25 a 1.5473403,1.5473403 0 0 0 1,-2.90625 c -1.56686,-0.729572 -2.84574,-1.54433 -4.15625,-2.375 0.0422,-0.393655 0.12656,-1.558927 0.21875,-3.0625 1.42383,-0.385001 2.93933,-0.809854 4.40625,-1.34375 0.50706,-0.184061 0.9863,-0.376906 1.4375,-0.5625 0.90057,-0.371365 1.66719,-0.719532 2.3125,-1.15625 0.0602,-0.0407 0.19073,-0.09272 0.46875,-0.34375 0.19044,-0.172164 0.33443,-0.34908 0.46875,-0.5625 A 1.5473403,1.5473403 0 0 0 173,57.125 c 0.0377,-0.136804 0.0136,-0.224226 0.0312,-0.34375 0.3854,-0.189708 0.80943,-0.382697 1.21875,-0.59375 0.43337,-0.223438 0.96091,-0.487388 1.5,-0.78125 0.22487,-0.122917 0.46569,-0.245875 0.75,-0.40625 0.32232,-0.181394 0.57311,-0.33466 0.75,-0.4375 1.28565,-0.749726 2.58983,-1.585882 3.8125,-2.46875 1.70648,-1.2291 3.2662,-2.544156 4.4375,-4.03125 0.0667,-0.08469 0.15122,-0.209539 0.25,-0.34375 0.13269,-0.179918 0.19704,-0.280836 0.21875,-0.3125 0.10801,-0.157612 0.26692,-0.360669 0.4375,-0.65625 0.29049,-0.50334 0.49483,-1.068755 0.65625,-1.625 0.007,-0.02111 -0.006,-0.01115 0,-0.03125 0.004,-0.01294 0.0276,-0.01829 0.0312,-0.03125 a 1.5473403,1.5473403 0 0 0 0,-0.03125 c 0.10062,-0.360601 0.14492,-0.626211 0.1875,-0.84375 l -0.0312,0 c 0.005,-0.02208 -0.004,-0.01088 0,-0.03125 a 1.5473403,1.5473403 0 0 0 0.0312,-0.03125 c 0.17046,-0.883728 0.245,-1.807882 0.28125,-2.75 0.004,-0.1206 0.003,-0.12992 0,-0.03125 0.11595,-3.11951 -0.3125,-6.125 -0.3125,-6.125 a 1.5473403,1.5473403 0 0 0 -0.0625,-0.25 L 180.5,13.5625 l 0,-0.03125 a 1.5473403,1.5473403 0 0 0 0,-0.03125 c -0.003,-0.009 0.003,-0.02228 0,-0.03125 -0.008,-0.02267 0.009,-0.0071 0,-0.03125 l -0.0312,0 c -0.12849,-0.404469 -0.26488,-0.810989 -0.4375,-1.25 -0.18391,-0.468674 -0.40384,-0.984354 -0.65625,-1.5 C 178.89495,9.7057583 178.35183,8.7635592 177.59375,8 l -1.75,-1.75 -1.75,-1.75 c -0.75468,-0.7601317 -1.69684,-1.6369289 -3.0625,-2.0625 -1.54177,-0.4804158 -3.33899,-0.4260949 -4.875,-0.34375 -1.53601,0.082345 -2.78125,0.25 -2.78125,0.25 a 1.5473403,1.5473403 0 0 0 -0.25,3 c 0,0 0.59335,0.2021453 1.28125,0.53125 0.6879,0.3291047 1.3741,0.9263217 1.34375,0.875 l 4.09375,6.90625 c 0.80373,1.358977 1.01686,3.312274 1.0625,5.34375 l 0.21875,10.375 c 0.012,0.531493 -0.70655,1.5785 -1.59375,2.21875 -0.93108,0.671911 -3.23365,1.324136 -5.28125,1.71875 a 1.5473403,1.5473403 0 0 0 -0.1875,-0.125 c -1.11873,-0.600859 -1.9654,-0.389107 -3.03125,-0.25 -1.06585,0.139107 -2.2537,0.408839 -3.4375,0.71875 -2.1447,0.56147 -4.03454,1.198003 -5.09375,1.5625 -0.16531,-0.06065 -0.33855,-0.110571 -0.59375,-0.1875 -0.21662,-0.06507 -0.29885,-0.10789 -0.25,-0.09375 -0.58113,-0.167942 -1.22615,-0.295691 -1.84375,-0.4375 -0.18286,-0.04182 -0.40314,-0.08395 -0.59375,-0.125 -1.33378,-0.286424 -2.83281,-0.578208 -4.4375,-0.8125 -5.51324,-0.802487 -12.2588,-1.268345 -18.3125,-1.375 -6.0537,-0.106655 -11.27477,0.0791 -14.21875,0.875 -0.70936,0.191774 -1.2814,0.445871 -1.875,0.6875 -1.48729,-0.737764 -3.12505,-1.554956 -4.71875,-2.125 -0.90238,-0.322769 -1.78006,-0.564046 -2.625,-0.6875 -0.84494,-0.123454 -1.68131,-0.159339 -2.5625,0.28125 a 1.5473403,1.5473403 0 0 0 -0.125,0.0625 c -2.044643,-0.448152 -4.326118,-1.111507 -5.25,-1.8125 -2.3e-5,-1.8e-5 -0.02848,0.0016 -0.03125,0 -0.01695,-0.013 -0.04456,-0.04794 -0.0625,-0.0625 -0.148155,-0.120231 -0.332965,-0.298403 -0.53125,-0.5 -0.01201,-0.01221 -0.01912,-0.01883 -0.03125,-0.03125 -0.06765,-0.07267 -0.137143,-0.172881 -0.25,-0.3125 a 1.5473403,1.5473403 0 0 0 -0.03125,0 c -0.456149,-0.558441 -0.64117,-1.03112 -0.625,-1.34375 a 1.5473403,1.5473403 0 0 0 0,-0.03125 1.5473403,1.5473403 0 0 0 0.03125,-0.0625 l 0,-0.03125 -0.03125,0 0.53125,-10.25 c 0.06549,-1.266177 0.185096,-2.531364 0.46875,-3.59375 0.0061,-0.02214 -0.0051,-0.01043 0,-0.03125 0.164091,-0.607434 0.411212,-1.182337 0.75,-1.71875 L 99.5625,4.71875 c 0.0047,-0.00745 0.02489,-0.028099 0.0625,-0.0625 0.133941,-0.1205951 0.45155,-0.3297372 0.78125,-0.5 0.15449,-0.079373 0.34085,-0.1804332 0.5,-0.25 C 101.6021,3.6030157 102.25,3.4375 102.25,3.4375 a 1.5473403,1.5473403 0 0 0 -0.15625,-3.03125 c 0,0 -1.075,-0.18319461 -2.40625,-0.3125 a 1.5473403,1.5473403 0 0 0 -0.03125,0 1.5473403,1.5473403 0 0 0 -0.125,-0.03125 l -0.03125,0 0,0.03125 c -0.855521,-0.07581622 -1.762068,-0.13985913 -2.65625,-0.125 z"
       transform="matrix(-1,0,0,1,689.36119,212.216)" />
    <path
       style="fill:#d4aa00;fill-opacity:1;stroke:none"
       d="m 610.22462,612.71932 c 4.58294,-0.60708 17.24935,0.0563 13.57143,2.85715 -2.89203,2.20238 -5.91747,4.40476 -6.96429,6.60714 -1.75917,4.22619 -1.09296,8.27381 -0.53571,12.5 0,0 11.60926,27.97586 8.41823,38.74474 -1.29236,4.36136 -3.47728,4.50621 -7.67857,6.25001 -15.42876,6.4039 -35.94339,5.81793 -51.45395,3.04097 -2.33654,-0.41833 -6.05367,-4.81712 -6.42857,-8.92858 -0.2931,-3.21428 9.10137,-11.47413 12.32143,-14.10714 9.863,-8.06485 16.38577,-12.768 21.60714,-21.25 2.56493,-4.16667 4.06111,-8.33333 5.71429,-12.5 -2.14211,-1.96542 -5.13497,-2.6547 -8.21429,-3.21429 -7.22888,-1.31367 12.35921,-9.03517 19.64286,-10 z"
       id="path2899"
       sodipodi:nodetypes="csccsssssscss"
       inkscape:connector-curvature="0" />
    <path
       style="fill:#aa8800;stroke:none"
       d="m 602.68444,614.625 1.5414,4.37754 -9.3539,3.77871 c 4.36255,1.11938 10.98487,0.16812 15.40625,-0.75 0.0621,1.44942 -7.22464,3.51114 -10.84375,3.78125 l 9.84375,11.375 c 0,0 -6.31373,-0.35703 -9.34375,0.375 -2.43456,0.58817 -5.47167,1.04078 -6.8125,3.15625 -7.11043,11.21833 -28.34908,26.09609 -29.4375,32.84375 -0.64842,4.01986 21.46589,8.94426 31.125,10.90625 -10.12543,0.69025 -20.46707,-0.18313 -29.21875,-1.75 -2.33654,-0.41833 -6.0626,-4.82604 -6.4375,-8.9375 -0.2931,-3.21428 9.09244,-11.46074 12.3125,-14.09375 9.863,-8.06485 16.40363,-12.768 21.625,-21.25 2.56493,-4.16667 4.06557,-8.33333 5.71875,-12.5 -2.14211,-1.96542 -5.13943,-2.65916 -8.21875,-3.21875 -5.33951,-0.97032 3.93692,-5.43655 12.09375,-8.09375 z"
       id="path3773"
       sodipodi:nodetypes="ccccccssscsssscsc"
       inkscape:connector-curvature="0" />
    <path
       style="fill:#333333;fill-opacity:1;stroke:none"
       d="m 598.61748,619.1479 c -4.79108,-29.7618 -5.57562,-54.54281 -16.96429,-85 -2.69087,-7.19632 -8.12229,-12.17551 -15.73223,-13.23223 -2.67431,-0.37136 -9.96907,1.19188 -26.0977,1.47272 -16.97282,0.29554 -12.4499,-0.61719 -14.56275,0.0171 -2.73737,0.82181 -3.89461,7.23646 -3.96446,12.09952 -0.81245,56.56412 3.20105,65.85965 6.55111,99.30366 l -17.25796,-2.91841 c 1.11565,-43.90024 -9.78138,-82.76609 -20.72173,-119.95668 -5.30975,-18.04993 -15.21901,-27.72471 -15.80094,-54.39032 l 145.4438,-9.89539 c -3.52858,58.25601 -14.37393,110.06666 -5.17857,168.92857 -3.04919,2.17578 -6.65724,5.09282 -15.71428,3.57146 z"
       id="path2897"
       sodipodi:nodetypes="csssssccscccc"
       inkscape:connector-curvature="0" />
    <path
       style="fill:#ffe6d5;fill-opacity:1;stroke:none"
       d="m 510.58176,311.29075 c -25.41306,-3.53066 -45.55338,27.92375 -55.35714,42.14286 l -2.5,0.89285 c -1.57216,-10.23809 -4.26428,-20.57985 -8.92857,-31.24999 -2.35323,-5.3833 -15.85109,-5.48896 -15.35715,7.14285 0.31411,8.03282 2.6495,17.11241 3.92857,25.71429 -7.75739,-2.91121 -13.00259,4.01209 -14.64285,10 -6.63484,4.14968 -10.47129,9.4491 -6.78572,16.42857 -3.76677,3.69048 -4.88256,9.16901 -5,12.85714 -0.56714,17.81149 5.38418,14.65013 10,18.21429 39.53254,7.50582 48.6834,-5.24281 67.14286,-11.78571 l 27.5,-90.35715 z"
       id="path2895"
       sodipodi:nodetypes="cccsscccsccc"
       inkscape:connector-curvature="0" />
    <path
       style="fill:#d38d5f;fill-opacity:1;stroke:none"
       d="m 489.59069,351.0625 3.34375,18.25 -9.84375,32.34375 c -18.45946,6.5429 -27.62371,19.28707 -67.15625,11.78125 -0.10406,-0.0804 -0.20718,-0.14492 -0.3125,-0.21875 2.88384,-1.12603 3.12239,-3.44062 2.65625,-6.25 2.93938,2.21118 8.63398,6.977 13.46875,1.9375 2.68558,-2.7993 -4.5625,-12.90625 -4.5625,-12.90625 6.56599,7.3236 10.11722,6.81048 13.65625,3.8125 5.03468,-4.26497 -2.9216,-15.08401 -4.00756,-20.47605 -0.964,-4.78651 -0.74236,-9.70456 -0.55573,-10.2178 4.36872,5.86434 6.43638,5.89162 11.87579,3.9126 0,0 -5.80488,4.30821 -6.5625,7.84375 -0.89798,4.19058 1.4364,9.73239 5.82265,13.86992 1.37127,1.29351 7.74597,2.18636 12.11485,0.25508 5.57569,-2.46475 9.49835,-7.54343 9.59375,-12.875 0.0954,-5.33157 -7.0625,-11.375 -7.0625,-11.375 l 27.53125,-19.6875 z m -71.3125,55.90625 c -1.02944,-0.77441 -1.6875,-1.34375 -1.6875,-1.34375 0,0 1.06965,0.37687 1.6875,1.34375 z"
       id="path2851"
       sodipodi:nodetypes="ccccccscssccssssccccc"
       inkscape:connector-curvature="0" />
    <path
       style="fill:#000000;fill-opacity:1;stroke:none"
       d="m 488.99694,455.53125 40.15625,20.75 10.34375,3.59375 c -13.1781,4.14413 -26.3287,2.83178 -45.34375,-1.44643 12.67112,48.92857 16.66667,101.42411 25,150.35268 0,0 -3.72536,0.40329 -8.53125,0.84375 0.87899,-43.38641 -9.91406,-81.85183 -20.75,-118.6875 -5.30975,-18.04993 -15.23057,-27.74064 -15.8125,-54.40625 l 14.9375,-1 z m 91.6875,55.15625 c 2.23778,0.0566 2.64893,0.74511 3.125,2.03125 6.89994,18.64091 12.4298,65.03687 19.25,106.84375 -1.31658,-0.0141 -2.7896,-0.12944 -4.4375,-0.40625 -4.79108,-29.7618 -5.58008,-54.54281 -16.96875,-85 -2.69087,-7.19632 -8.10881,-12.19328 -15.71875,-13.25 -2.67431,-0.37136 -9.99637,1.18791 -26.125,1.46875 -16.97282,0.29554 -12.44965,-0.60304 -14.5625,0.0312 -0.90649,0.27215 -1.60968,1.1669 -2.1875,2.40625 l -6.40625,-7.43745 c 19.72968,2.87381 43.34077,-3.99715 54.53125,-5.65625 4.89583,-0.72586 7.7595,-1.07526 9.5,-1.03125 z"
       id="path3757"
       sodipodi:nodetypes="ccccccscccsccssssccsc"
       inkscape:connector-curvature="0" />
    <path
       style="fill:#916f6f;fill-opacity:1;stroke:none"
       d="m 519.29061,303.52027 c -9.04518,13.67343 -20.25325,15.21289 -31.18347,42.08158 -14.32539,35.2147 -23.20508,73.38321 -16.45395,110.68891 3.36451,18.59179 66.15899,32.73078 103.92857,19.64285 22.7235,-7.87416 45.07773,-19.71271 43.92857,-20 l -19.64286,-143.21429 -80.57686,-9.19905 z"
       id="path2893"
       sodipodi:nodetypes="csssccc"
       inkscape:connector-curvature="0" />
    <path
       style="fill:#d4aa00;fill-opacity:1;stroke:none"
       d="m 528.46776,615.97628 c 0,0 2.97411,19.56961 3.53554,42.67895 0.0763,3.14236 -2.53816,8.74037 -4.29315,9.09137 -18.30053,3.66011 -52.66079,4.73602 -79.04444,4.79823 -7.96036,0.0188 -9.11654,-10.73292 -7.07106,-11.8693 15.77489,-8.76383 32.11012,-16.84615 46.46701,-27.77919 6.29994,-4.79752 17.1726,-16.41498 17.1726,-16.41498 l 23.2335,-0.50508 z"
       id="path2901"
       sodipodi:nodetypes="cssssscc"
       inkscape:connector-curvature="0" />
    <path
       sodipodi:type="inkscape:offset"
       inkscape:radius="2.031213"
       inkscape:original="M 8.875 277.5 C 3.57428 282.71912 -0.69296 290.14924 2.8125 294.65625 C 2.8125 294.65625 3.10016 296.81991 4.8125 297.6875 C 40.85203 315.94766 81.46706 323.20559 113.65625 346.9375 C 119.13901 350.97973 122.90189 356.4875 128.5625 359.8125 C 133.51694 362.7227 139.54756 366.02289 145.90625 369.375 C 145.47766 371.34003 145.25 373.23439 145.25 374.96875 C 145.25 377.49413 148.45749 378.42988 149.78125 379.78125 C 154.68582 384.78813 157.96252 390.5684 155.34375 392.875 C 152.05949 395.76776 141.16623 398.42927 133.875 392.875 C 124.26032 385.55139 118.21401 380.26111 111.90625 372.9375 C 109.71997 372.11997 107.82256 373.43934 106.0625 375.1875 C 104.54518 376.69456 103.13163 378.53915 101.8125 379.53125 C 106.5153 423.66532 157.20123 439.39262 176.5625 446.96875 C 178.01491 443.5899 179.55713 439.28545 181.0625 435.28125 C 185.72639 422.87552 190.54701 409.53013 195.5 404.5 C 198.54845 402.77721 201.61219 402.35647 204.09375 397.9375 C 206.81624 393.0895 211.23139 386.85101 213.9375 379 C 215.17329 375.41471 214.19694 371.27596 212.6875 367.65625 C 220.71557 353.49168 229.89519 343.94385 239.03125 334.21875 C 240.94673 332.17977 242.848 330.09445 244.75 328 C 231.00357 303.51306 195.38543 280.52701 163.75 281 C 162.48398 281.0189 161.25167 281.0607 160 281.15625 L 159.375 285.8125 L 156.9375 281.5 C 153.46074 281.95022 150.04235 282.69719 146.75 283.8125 L 147.21875 290.46875 L 147.78125 298.1875 C 169.08346 297.938 185.22393 316.20325 183.375 324.46875 C 181.26723 333.89137 175.67235 337.50794 171.75 343.90625 C 166.41405 342.0606 160.39077 341.98685 159.375 343.15625 C 158.86542 343.7429 158.33112 344.39598 157.8125 345.0625 C 141.44593 336.42128 124.90679 327.79879 108.3125 320.25 C 74.34303 304.7972 40.16988 293.87403 8.875 277.5 z "
       style="fill:#000000;fill-opacity:1;stroke:none"
       id="path4387"
       d="m 8.625,275.46875 a 2.0314162,2.0314162 0 0 0 -1.1875,0.59375 c -2.7995682,2.75647 -5.3357762,6.05955 -6.78125,9.5 -1.36579226,3.2508 -1.64629045,6.89073 0.28125,9.8125 0.0891251,0.62952 0.486984,2.86757 2.96875,4.125 36.394793,18.44016 76.839716,25.69749 108.53125,49.0625 5.13071,3.78268 8.92745,9.37796 15.09375,13 4.6387,2.72473 10.31472,5.79393 16.1875,8.90625 -0.25884,1.53102 -0.5,3.07381 -0.5,4.5 0,2.12264 1.43112,3.60516 2.59375,4.46875 1.16263,0.86359 2.27925,1.49274 2.53125,1.75 2.33709,2.38584 4.23879,4.97425 5.1875,7 0.47436,1.01287 0.71026,1.89069 0.71875,2.40625 0.008,0.51556 -0.0687,0.59034 -0.25,0.75 -1.03812,0.91438 -4.3808,2.38471 -8.0625,2.6875 -3.6817,0.30279 -7.71043,-0.39437 -10.84375,-2.78125 -9.56613,-7.28663 -15.4517,-12.42122 -21.65625,-19.625 a 2.0314162,2.0314162 0 0 0 -0.8125,-0.59375 c -1.60947,-0.60184 -3.32675,-0.39427 -4.65625,0.21875 -1.3295,0.61302 -2.38606,1.54879 -3.34375,2.5 -1.65776,1.64655 -3.12162,3.47213 -4.03125,4.15625 a 2.0314162,2.0314162 0 0 0 -0.8125,1.84375 c 2.43017,22.80628 16.81252,38.31889 32.78125,48.90625 15.96873,10.58736 33.68533,16.47606 43.25,20.21875 a 2.0314162,2.0314162 0 0 0 2.625,-1.09375 c 1.49356,-3.47459 3.03381,-7.79814 4.53125,-11.78125 2.33525,-6.21166 4.69141,-12.62955 7.0625,-18.0625 2.32512,-5.3276 4.72946,-9.6543 6.78125,-11.8125 2.65228,-1.41695 6.35262,-2.36195 9.0625,-7.1875 2.62768,-4.67918 7.14886,-11.10014 9.96875,-19.28125 1.36431,-3.95816 0.40356,-8.04688 -0.96875,-11.65625 7.79728,-13.54245 16.63286,-22.8031 25.625,-32.375 1.92943,-2.05383 3.8462,-4.15357 5.75,-6.25 A 2.0314162,2.0314162 0 0 0 246.53125,327 c -14.21398,-25.31979 -50.1707,-48.51929 -82.8125,-48.03125 -1.29104,0.0193 -2.56727,0.0564 -3.875,0.15625 a 2.0314162,2.0314162 0 0 0 -1.53125,0.875 2.0314162,2.0314162 0 0 0 -1.625,-0.5 c -3.59236,0.46519 -7.15776,1.21103 -10.59375,2.375 a 2.0314162,2.0314162 0 0 0 -1.375,2.09375 l 0.46875,6.65625 0.5625,7.71875 a 2.0314162,2.0314162 0 0 0 2.0625,1.875 c 10.06467,-0.11788 18.98227,4.17946 25.125,9.46875 3.07137,2.64465 5.43313,5.51509 6.875,8.125 1.44187,2.60991 1.88376,4.92229 1.59375,6.21875 -1.8316,8.188 -6.47953,11.60627 -10.5,17.5625 -2.39754,-0.68485 -4.80443,-1.12604 -6.875,-1.21875 -1.25342,-0.0561 -2.38258,-0.005 -3.375,0.15625 -0.99242,0.16149 -1.89989,0.23061 -2.8125,1.28125 -0.18546,0.21351 -0.37433,0.46173 -0.5625,0.6875 -15.89497,-8.38505 -31.96109,-16.74074 -48.125,-24.09375 C 75.047815,302.89023 40.897982,291.95197 9.8125,275.6875 A 2.0314162,2.0314162 0 0 0 8.625,275.46875 z"
       transform="matrix(-1,0,0,1,689.36119,212.216)" />
    <path
       style="fill:#c8beb7;fill-opacity:1;stroke:none"
       d="m 680.49572,489.70721 c 5.30072,5.21912 9.56638,12.66559 6.06092,17.1726 0,0 -0.30797,2.16287 -2.02031,3.03046 -36.03953,18.26016 -76.65474,25.51302 -108.84393,49.24493 -5.48276,4.04223 -9.23914,9.55445 -14.89975,12.87945 -22.62675,13.29078 -67.17515,34.34518 -67.17515,34.34518 -7.35601,-1.71268 -13.27316,-6.18316 -12.62691,-23.2335 32.42461,-15.29475 66.13464,-35.26111 100.05839,-50.69312 33.96947,-15.4528 68.15186,-26.37197 99.44674,-42.746 z"
       id="path2903"
       sodipodi:nodetypes="cssssccsc"
       inkscape:connector-curvature="0" />
    <path
       style="fill:#483737;stroke:none"
       d="m 519.27819,303.53125 80.59375,9.1875 4.375,32 c -0.86259,2.12294 -1.91538,4.14271 -2.8125,6.25 l -0.875,-10.1875 c -0.47534,7.88754 -5.58997,12.30566 -9.65625,17.5 l -1.25,-9.46875 c -0.13174,8.21191 -4.43341,12.87064 -7.6875,18.40625 0.80795,-3.5646 2.00281,-7.042 0.53125,-11.0625 -0.0635,3.79164 -1.2206,6.72964 -3.1875,9.09375 -1.36874,-3.69204 -2.81719,-7.0346 -4.65625,-8.375 2.15735,5.83316 0.0482,9.7721 -1.96875,13.75 -0.9875,-3.39286 -1.03224,-6.79464 -3.75,-10.1875 -0.18237,3.86398 -1.07657,6.79077 -2.6875,8.75 -0.0217,-3.10785 -0.86309,-5.93056 -2.3125,-8.5625 -1.80246,3.86905 -2.07556,7.7247 -2.5,11.59375 -1.88181,-3.15859 -3.43514,-6.37192 -2.5,-10 l -1.78125,3.5625 -1.78125,-4.28125 c 0.40492,6.00002 -2.72261,11.41578 -5,16.96875 l -2.875,-10.34375 -0.34375,4.625 c -3.47959,-1.93708 -6.2061,-4.62724 -7.3125,-8.9375 -2.47314,3.53358 -2.82289,6.7855 -1.96875,9.84375 -2.65958,-2.30707 -5.82728,-3.95004 -7.15625,-8.03125 l -1.59375,2.65625 c -3.55489,-2.86187 -4.19937,-6.54317 -4.46875,-10.34375 l -1.96875,4.28125 c -2.23765,-2.79762 -2.7418,-5.60863 -2.125,-8.40625 L 517.34069,359 c -1.22335,-3.35762 -4.34515,-6.40701 -3.03125,-10.1875 l -2.875,2.34375 c -1.98879,-2.32143 -2.62857,-4.64732 -3.21875,-6.96875 l -2.5,3.5625 -0.875,-4.8125 -4.28125,4.46875 c -0.22173,-1.45949 -0.41476,-2.90892 -0.5625,-4.34375 -16.49453,50.14044 -24.41103,102.43149 -4.3125,130.9375 -13.32275,-4.51005 -22.7814,-10.81228 -24.03125,-17.71875 -6.75113,-37.3057 2.14336,-75.4728 16.46875,-110.6875 10.93022,-26.86869 22.11107,-28.38907 31.15625,-42.0625 z m 89.53125,95.78125 0.875,62.1875 c -4.91074,2.44311 -6.36356,3.42409 -13.42857,6.37946 -2.63093,-19.99107 -5.83785,-39.98214 -3.88393,-59.97321 l -0.1875,-0.71875 16.625,-7.875 z"
       id="path3738"
       sodipodi:nodetypes="ccccccccccccccccccccccccccccccccccccccssccccccc"
       inkscape:connector-curvature="0" />
    <path
       style="fill:#917c6f;fill-opacity:1;stroke:none"
       d="m 687.74694,504.09375 c -0.15823,1.0062 -0.53676,1.94459 -1.1875,2.78125 0,0 -0.31891,2.16366 -2.03125,3.03125 -36.03953,18.26016 -76.65456,25.51809 -108.84375,49.25 -5.48276,4.04223 -9.24564,9.55 -14.90625,12.875 -6.88504,4.04422 -15.80321,8.79877 -24.875,13.46875 l -4.78125,-4.03125 c 9.69987,-6.33228 27.58833,-14.87127 29.625,-17.0625 8.53775,-9.18574 16.44088,-14.43982 25.71875,-18.83482 -1.546,-5.41682 -4.12383,-8.02771 -9,-11.44643 1.19469,-0.55459 2.39848,-1.11252 3.59375,-1.65625 3.04288,-1.38422 6.08093,-2.74386 9.125,-4.0625 l 9.5,12.34375 c 29.08262,-12.37322 56.36608,-25.77662 88.0625,-36.65625 z"
       id="path3783"
       sodipodi:nodetypes="ccsssccsccsccc"
       inkscape:connector-curvature="0" />
    <path
       style="fill:#ffe6d5;fill-opacity:1;stroke:none"
       d="m 610.58176,318.43361 c 24.23637,24.55262 41.79994,71.58389 41.07143,100.71429 0,0 0.0469,10.65102 -0.71429,17.5 -0.33603,3.02351 -0.71428,7.5 -4.64285,7.85714 4.06936,15.05413 -2.09344,30.79465 -3.92858,42.85714 -1.83514,12.06249 -0.375,14.00833 0,20 0.31848,9.16667 2.7509,18.33333 0.53572,27.5 -2.25728,9.3409 -5.32791,5.05004 -8.03572,6.78572 -2.6328,5.40743 -6.87435,2.77111 -10.35714,3.92857 -1.90603,6.18794 -7.60108,4.79784 -12.14286,5.71428 -2.03605,5.583 -11.03092,8.16742 -16.24999,5.35715 l -9.28572,-5 c 16.59091,-6.69468 1.46706,-23.04532 -5.17857,-19.28572 -0.17857,-8.75 5.55329,-19.6867 13.21428,-25.35714 6.19182,-4.583 4.9798,-11.20417 5,-17.14286 0.0879,-25.84116 -4.13997,-51.51742 -2.14285,-77.85714 l -3.21429,1.42857 c -20.21923,-10.74466 -4.63497,-51.46652 5.35714,-81.78571 l 10.71429,-13.21429 z"
       id="path2891"
       sodipodi:nodetypes="ccsczcscccsccsscccc"
       inkscape:connector-curvature="0" />
    <path
       style="fill:#d38d5f;fill-opacity:1;stroke:none"
       d="m 610.40319,326.46875 c 0.96756,5.70542 -0.17058,12.94951 -2.5,18.03125 l -1.4375,-5.34375 -3.90625,15.34375 c -0.50233,-1.97153 -0.5126,-5.65486 -1.4375,-6.78125 l -7.875,10.53125 c -7.04122,24.52918 -10.79367,36.47659 0,46.4375 2.3215,2.14239 5.08477,1.32625 7.875,0.1875 -2.26076,7.06478 1.60694,76.3983 2.125,92.3125 -3.02714,10.09738 -11.63563,16.26209 -14.15625,26.625 -1.25305,6.07775 5.45677,9.24076 8.3125,14.875 1.95689,3.86088 0.82315,12.91491 6.5625,13.40625 6.65416,0.56966 7.34375,-4.8125 7.34375,-4.8125 0,0 5.62527,1.65952 8.0625,0.5 2.61563,-1.2444 5.0625,-7.0625 5.0625,-7.0625 0,0 3.37621,2.8792 5.5625,2.03125 1.57944,-0.61258 3.28125,-4.0625 3.28125,-4.0625 0,0 3.0279,1.09691 4.53125,0.78125 1.37829,-0.2894 3.13492,-1.49034 4.5,-2.5625 -2.18529,6.5872 -4.95699,3.16002 -7.4375,4.75 -2.6328,5.40743 -6.89221,2.74879 -10.375,3.90625 -1.90603,6.18794 -7.58322,4.80231 -12.125,5.71875 -2.03605,5.583 -11.03093,8.18527 -16.25,5.375 l -9.28125,-5 c 16.59091,-6.69468 1.45813,-23.04085 -5.1875,-19.28125 -0.17857,-8.75 5.55776,-19.70456 13.21875,-25.375 6.19182,-4.583 4.9798,-11.18631 5,-17.125 0.0879,-25.84116 -4.15337,-51.53528 -2.15625,-77.875 l -3.21875,1.4375 c -20.1388,-10.70192 -4.74602,-51.12587 5.25,-81.40625 l 10.65625,-5.5625 z"
       id="path3727"
       inkscape:connector-curvature="0" />
    <path
       style="fill:#ffe680;fill-opacity:1;stroke:none"
       d="m 590.40319,289.1479 c 7.38323,2.81365 14.79594,5.61466 18.92857,9.82142 -3.58934,-1.46671 -4.38555,-0.69892 -5.71429,-0.35714 5.33274,3.21917 7.59385,7.05266 10.71429,10.71429 l -3.57143,-0.89286 c 4.89197,6.13095 5.96833,12.26191 8.75,18.39286 l -5,-4.82143 c 0.55672,5.13515 -0.32097,9.98343 -2.14286,14.64286 l -2.85714,-6.78572 c 0.8237,3.78647 0.002,7.02439 -0.53571,10.35714 l -1.07143,-4.82142 c -0.0791,5.22828 -2.61524,9.22809 -4.46429,13.57142 l -0.89285,-10.17857 c -0.47534,7.88754 -5.57658,12.30566 -9.64286,17.5 l -1.25,-9.46428 c -0.13174,8.21191 -4.42448,12.85724 -7.67857,18.39285 0.80795,-3.5646 2.00727,-7.05092 0.53571,-11.07142 -0.0635,3.79164 -1.24738,6.74303 -3.21428,9.10714 -1.36874,-3.69204 -2.8038,-7.05246 -4.64286,-8.39286 2.15735,5.83316 0.0527,9.7721 -1.96429,13.75 -0.9875,-3.39286 -1.03224,-6.78571 -3.75,-10.17857 -0.18237,3.86398 -1.06764,6.79077 -2.67857,8.75 -0.0217,-3.10785 -0.87202,-5.93949 -2.32143,-8.57143 -1.80246,3.86905 -2.07556,7.73809 -2.5,11.60714 -1.88181,-3.15859 -3.43514,-6.37192 -2.5,-10 l -1.78571,3.57143 -1.78572,-4.28571 c 0.40492,6.00002 -2.72261,11.41131 -5,16.96428 l -2.85714,-10.35714 -0.35714,4.64286 c -3.47959,-1.93708 -6.21503,-4.61831 -7.32143,-8.92857 -2.47314,3.53358 -2.81843,6.76318 -1.96429,9.82143 -2.65958,-2.30707 -5.81388,-3.95451 -7.14285,-8.03572 l -1.60715,2.67857 c -3.55489,-2.86187 -4.1949,-6.55656 -4.46428,-10.35714 l -1.96429,4.28571 c -2.23765,-2.79762 -2.75965,-5.59523 -2.14285,-8.39285 l -3.21429,5.17857 c -1.22335,-3.35762 -4.34961,-6.39808 -3.03571,-10.17857 l -2.85715,2.32143 c -1.98879,-2.32143 -2.6241,-4.64286 -3.21428,-6.96429 l -2.5,3.57143 -0.89286,-4.82143 -4.28571,4.46429 c -1.05415,-6.93868 -1.42752,-13.65045 0.35714,-19.64286 l -3.21429,1.42857 c -1.06774,-2.61905 -0.40858,-5.23809 0.89286,-7.85714 -2.14286,-1.45778 -4.28571,-1.08472 -6.42857,-0.17857 1.86095,-4.10648 4.94837,-7.03406 8.92857,-9.64286 5.02127,-3.29115 1.85373,-4.73221 -6.21718,-3.3876 5.91763,-5.02581 5.43594,-6.85347 16.03861,-10.00526 -3.57985,-3.3221 -2.46692,-1.2845 -8.5872,-1.21936 10.17857,-3.57544 11.26577,-4.65895 21.44434,-5.38778 l 64.64286,-0.35714 z"
       id="path2870"
       sodipodi:nodetypes="ccccccccccccccccccccccccccccccccccccccccccccccccsccccc"
       inkscape:connector-curvature="0" />
    <path
       style="fill:#ffe6d5;fill-opacity:1;stroke:none"
       d="m 580.40319,266.29075 c 0,1.42857 10.35714,47.14286 10.35714,47.14286 l -8.03571,11.07143 -1.07143,-5.71429 -1.25,2.5 -42.14286,1.96429 -4.28571,3.92857 -4.82143,-18.57143 6.25,-43.75 45,1.42857 z"
       id="path2872"
       inkscape:connector-curvature="0" />
    <path
       sodipodi:nodetypes="cccccsccc"
       id="path2920"
       d="m 587.23355,271.13393 c 14.73635,44.59465 9.34668,38.4211 -2.18623,53.81059 0.0854,-17.67713 -0.36146,-21.3744 -4.06377,-40.74809 l -1.0625,5.15625 c 0.31572,-4.43322 -0.93057,-7.6994 -2.5,-10.71875 0,0 1.78269,23.38487 1.0625,34.46875 -0.10064,1.54892 -2.5,3.9375 -2.5,3.9375 1.86821,-16.25459 -0.77749,-29.36355 -1.0625,-45.1875 l 12.3125,-0.71875 z"
       style="fill:#deaa87;fill-opacity:1;stroke:none"
       inkscape:connector-curvature="0" />
    <path
       style="fill:#ffe680;fill-opacity:1;stroke:none"
       d="m 572.62194,310.0625 c 2.4216,0.74207 5.8125,2.84375 5.8125,2.84375 l -1.96875,0.15625 c 2.64036,2.97619 4.7583,5.88049 4.46875,8.9375 -0.42148,4.44985 -2.29362,4.52986 -3.5625,6.4375 0.0481,-2.96476 -0.55434,-5.31024 -2.875,-5.90625 -0.95127,2.67087 -1.92645,4.06827 -4.8125,5 l -2.84375,-1.59375 c -4.28571,2.19327 -8.58929,1.87152 -12.875,1.25 l -1.25,1.25 c -5.21073,-3.08618 -5.92684,-2.47088 -7.5,-2.15625 l -5.34375,1.09375 -1.0625,1.78125 c -3.51808,-1.78307 -4.33405,-6.15064 -3.0625,-8.59375 1.9427,-3.73262 6.15068,-9.39539 12.5,-9.8125 0,0 1.3371,-0.1973 3.3125,-0.4375 -0.50346,0.50443 -0.96693,0.95115 -1.5,1.5 l 6.25,4.3125 8.375,-0.5625 2.875,-1.78125 5.15625,-0.875 c 0.36711,-1.16271 0.29765,-2.11852 -0.0937,-2.84375 z"
       id="path2874"
       inkscape:connector-curvature="0" />
    <path
       style="fill:url(#linearGradient4389);fill-opacity:1;stroke:none"
       d="m 555.22462,307.00504 c -1.14647,0.73756 -3.0907,2.67176 -5.17857,4.82143 l 6.25,4.28571 8.39285,-0.53571 2.85715,-1.78572 5.17857,-0.89285 c 1.02131,-3.23469 -1.46064,-4.69988 -4.28571,-4.82143 l -2.67858,1.07143 c -1.39303,-3.02843 -8.37672,-3.53182 -10.53571,-2.14286 z"
       id="path2878"
       sodipodi:nodetypes="ccccccccs"
       inkscape:connector-curvature="0" />
    <path
       style="fill:#c8ab37;fill-opacity:1;stroke:none"
       d="m 590.40319,289.15625 c 0.25074,0.0956 0.49932,0.18567 0.75,0.28125 1.92557,7.12014 3.73393,14.8662 4.21875,20.46875 0.35502,4.10258 -0.90625,12.3125 -0.90625,12.3125 l -1.96875,-6.78125 c -0.0795,7.37696 -3.24242,14.12741 -5.53125,21.0625 l 0.1875,-6.0625 c -0.93434,3.7031 -2.3531,5.45962 -3.75,7.3125 0.27479,-4.97546 1.69862,-11.15799 1.71875,-16.09375 l 5.625,-8.21875 c 0,0 -2.75418,-12.20679 -5.4375,-24.25 l 5.09375,-0.0312 0,-5e-5 z m -58.5,0.3125 -2.75,19.15625 0.59375,2.25 c -0.18118,4.13291 -0.12655,8.27556 0.0937,12.40625 l 0.71875,13.40625 c -1.45804,-4.13786 -2.82911,-8.4927 -3.84375,-13.75 -0.0485,-0.25135 -0.10177,-0.48084 -0.15625,-0.71875 l -3.77002,8.81891 c -4.30686,3.95619 -5.01837,7.37668 -5.07373,11.86859 l 3.75,-2.5 -0.875,10 3.90625,-2.5 c -1.91417,3.94851 -1.00561,7.89399 -0.15625,11.84375 -1.93339,-2.64134 -2.3636,-5.29616 -1.78125,-7.9375 L 519.34069,357 c -1.22335,-3.35762 -4.34515,-6.40701 -3.03125,-10.1875 l -2.875,2.34375 c -1.98879,-2.32143 -2.62857,-4.64732 -3.21875,-6.96875 l -2.5,3.5625 -0.875,-4.8125 -4.28125,4.46875 c -1.05415,-6.93868 -1.44091,-13.66384 0.34375,-19.65625 l -3.21875,1.4375 c -1.06774,-2.61905 -0.39519,-5.25595 0.90625,-7.875 -2.14286,-1.45778 -4.29464,-1.0624 -6.4375,-0.15625 1.86095,-4.10648 4.9573,-7.04745 8.9375,-9.65625 5.02127,-3.29115 1.85216,-4.71961 -6.21875,-3.375 5.91763,-5.02581 5.42858,-6.84821 16.03125,-10 -3.57985,-3.3221 -2.47347,-1.28389 -8.59375,-1.21875 10.17857,-3.57544 11.25893,-4.67742 21.4375,-5.40625 l 6.15625,-0.0312 0,-5e-5 z m -4.90625,65.5625 c 0.46976,3.5908 2.36008,7.14346 4.71875,10.28125 l -0.59375,0.96875 c -3.41686,-2.75075 -4.14723,-6.2622 -4.4375,-9.90625 l 0.3125,-1.34375 z m 14.84375,5 4.6875,9 c -2.21145,-1.75706 -3.8769,-4.06085 -4.6875,-7.21875 -0.1529,0.21846 -0.2694,0.44009 -0.40625,0.65625 0.1081,-0.73859 0.23155,-1.52301 0.40625,-2.4375 z m -9.5,0.8125 c 0.0231,-0.0168 0.051,-0.0131 0.0937,0.0312 1.3362,1.3883 4.57945,5.84745 7.09375,9.0625 0.0701,0.57594 0.18638,1.15528 0.34375,1.71875 -2.65958,-2.30707 -5.82728,-3.95004 -7.15625,-8.03125 l -0.0312,0.0312 c -0.26489,-1.38588 -0.49277,-2.70395 -0.34375,-2.8125 l 0,10e-5 z"
       id="path2935"
       sodipodi:nodetypes="ccsccccccccccccccscccccccccccccccccccsccccccccccccccccscccccccc"
       inkscape:connector-curvature="0" />
    <path
       style="fill:#c8ab37;fill-opacity:1;stroke:none"
       d="m 547.77819,310.6875 c 1.96441,0.29579 3.29953,3.74759 3.16006,1.73604 0.68873,2.43329 4.00225,3.92686 6.52871,4.0376 5.95716,0.26113 6.38681,-3.22583 8.24873,-2.08614 l 7.39911,-2.50698 c 1.02572,0.44369 2.17697,2.04858 0.96748,2.43115 -2.83738,0.89748 -6.72641,1.77871 -8.01269,2.98081 -2.70687,2.52971 -9.86867,3.13746 -13.9164,0.65752 -1.30096,-0.79706 -3.07081,-1.17109 -4.28125,-1.625 -0.41675,-0.15628 -0.98503,-0.27773 -1.53125,-0.4375 -2.75707,3.26886 -3.54984,6.33954 -3.34375,9.3125 1.51335,-1.78496 4.21662,-1.59221 6.6875,-1.78125 0.22214,1.75608 2.18407,1.77522 3.65625,2.28125 4.11214,-0.41467 8.73567,1.4486 12.25,-1.65625 1.88929,-0.37247 2.88756,0.45126 3.78125,1.40625 2.95778,0.31507 3.05735,-2.74533 4.1875,-4.5625 3.70916,0.76409 5.01611,3.09333 4.90625,6.3125 -0.38296,0.36434 -0.75732,0.74421 -1.09375,1.25 0.0481,-2.96476 -0.55434,-5.31024 -2.875,-5.90625 -0.95127,2.67087 -1.92645,4.06827 -4.8125,5 l -2.84375,-1.59375 c -4.28571,2.19327 -8.58929,1.87152 -12.875,1.25 l -1.25,1.25 c -5.21073,-3.08618 -5.92684,-2.47088 -7.5,-2.15625 l -5.34375,1.09375 -1.0625,1.78125 c -3.51808,-1.78307 -4.33405,-6.15064 -3.0625,-8.59375 0.7665,-1.47271 1.8565,-3.26322 3.34375,-4.875 3.60562,-3.90751 5.26947,-3.94549 8.6875,-5 z"
       id="path2922"
       sodipodi:nodetypes="ccsccsssscccccccccccccccccssc"
       inkscape:connector-curvature="0" />
    <path
       style="fill:#d38d5f;fill-opacity:1;stroke:none"
       d="m 554.86748,272.00504 0.89285,34.64286 c 0.0524,2.031 -3.76759,3.2237 -3.21428,5.17857 0.68873,2.43329 4.25925,3.28211 6.78571,3.39285 5.95716,0.26113 6.53094,-3.99683 8.39286,-2.85714 1.66667,1.02018 1.24278,0.30207 2.90944,-0.0956 l 2.09056,-1.69008 c 0.96258,1.0119 2.28092,2.65314 1.07143,3.03571 -2.83738,0.89748 -6.21372,0.58362 -7.5,1.78572 -2.70687,2.52971 -8.09513,3.01565 -12.14286,0.53571 -1.30096,-0.79706 -3.07527,-1.15323 -4.28571,-1.60714 -1.21045,-0.45392 -3.63516,-0.66021 -3.39286,-2.14286 0.37638,-2.30305 2.88205,-2.55404 4.28571,-4.46429 2.01151,-2.73746 1.65732,-6.61686 1.96428,-10 0.8284,-9.12993 0.35715,-26.60714 0.35715,-26.60714 l 1.78572,0.89286 z"
       id="path2876"
       sodipodi:nodetypes="csassccssszssscc"
       inkscape:connector-curvature="0" />
    <path
       style="fill:#1a1a1a;fill-opacity:1;stroke:none"
       d="m 577.72462,278.79075 c 0,0 -7.41104,1.4775 -10.17857,0.35715 -1.8374,-0.74382 -2.58095,-2.91712 -4.28572,-3.92858 -2.50505,-1.48629 -6.04714,-1.8203 -8.45413,0.0306 -2.40863,2.78059 -0.61128,2.14369 -3.86729,4.43365 -1.78572,0.89286 -8.89576,1.44055 -12.14287,-0.71429 -2.76318,-1.8337 5.35715,-8.57138 5.35715,-8.57138 l 30.35714,-1.78572 c 5.68907,3.39286 4.50776,6.78571 3.21429,10.17857 z"
       id="path2864"
       sodipodi:nodetypes="cssccsccc"
       inkscape:connector-curvature="0" />
    <path
       sodipodi:nodetypes="cssssscsssssscc"
       id="path2837"
       d="m 529.01478,247.62847 c 0,0 -7.26807,-0.53497 -10.07924,-2.56365 -1.12578,-0.81242 -2.27747,-2.1193 -2.24631,-3.50727 l 0.23277,-10.36839 c 0.0467,-2.07855 0.19215,-4.32105 1.25051,-6.11057 l 4.08556,-6.90808 c 0.69163,-1.16945 3.51249,-2.06783 3.51249,-2.06783 0,0 -4.74949,-0.66583 -6.96653,0.025 -0.94582,0.29474 -1.75397,0.9765 -2.45196,1.67953 l -3.47074,3.4958 c -1.10082,1.10877 -2.07094,3.40619 -2.53651,4.89764 l -6.69723,21.45491 c 0,0 -1.09151,7.47733 0.66492,10.52078 3.50023,6.06503 17.49043,11.63663 17.49043,11.63663 l 7.21184,-22.18454 z"
       style="fill:#e3dedb;fill-opacity:1;stroke:none"
       inkscape:connector-curvature="0" />
    <path
       sodipodi:nodetypes="ccccc"
       id="path2839"
       d="m 537.60746,249.30221 c 0,0 -9.77648,-3.51238 -11.59652,-2.53485 -2.95025,2.36499 -8.90924,19.35224 -8.13309,22.1694 0.66098,1.05018 6.46657,2.96568 9.78401,3.74357 l 9.9456,-23.37812 z"
       style="fill:#c8beb7;fill-opacity:1;stroke:none"
       inkscape:connector-curvature="0" />
    <path
       style="fill:#e3dedb;fill-opacity:1;stroke:none"
       d="m 585.22462,245.75504 c 0,0 7.24933,-0.74717 10,-2.85714 1.10156,-0.84498 2.21456,-2.18496 2.14285,-3.57143 l -0.53571,-10.35715 c -0.10739,-2.0763 -0.31836,-4.31359 -1.42857,-6.07142 l -4.28572,-6.78572 c -0.72551,-1.14873 -3.57142,-1.96428 -3.57142,-1.96428 0,0 4.728,-0.80436 6.96428,-0.17858 0.95403,0.26697 1.78176,0.92482 2.5,1.60715 l 3.57143,3.39286 c 1.13276,1.07612 2.16961,3.34421 2.67857,4.82142 l 7.32143,21.25 c 0,0 1.30959,7.44223 -0.35714,10.53572 -3.32147,6.16474 -17.14286,12.14285 -17.14286,12.14285 l -7.85714,-21.96428 z"
       id="path2835"
       sodipodi:nodetypes="cssssscsssssscc"
       inkscape:connector-curvature="0" />
    <path
       style="fill:#c8beb7;fill-opacity:1;stroke:none"
       d="m 610.12194,255.71875 c -2.51025,4.42643 -10.2841,8.7134 -14.40625,10.75 l -1.21875,-1.53125 15.625,-9.21875 z"
       id="path2887"
       inkscape:connector-curvature="0" />
    <path
       style="fill:#c8beb7;fill-opacity:1;stroke:none"
       d="m 577.7127,248.28076 c 3.17647,-1.62698 8.64147,-4.39817 10.48931,-3.47426 3.01811,2.27776 9.47104,19.08359 8.77756,21.92223 -0.63001,1.06905 -6.37713,3.15341 -9.67042,4.02792 l -9.59645,-22.47589 z"
       id="path2833"
       sodipodi:nodetypes="ccccc"
       inkscape:connector-curvature="0" />
    <path
       style="fill:#917c6f;fill-opacity:1;stroke:none"
       d="m 593.43444,258.71875 c 0.80357,1.16071 1.269,2.31284 2,5.59375 0.0769,0.34518 0.72001,0.71483 1.53125,1.0625 0.0722,0.57175 0.0727,1.04617 0,1.34375 -0.63001,1.06905 -6.36296,3.15674 -9.65625,4.03125 l -4.03125,-9.4375 10.15625,-2.59375 z"
       id="path2873"
       inkscape:connector-curvature="0" />
    <path
       style="fill:#ffeeaa;fill-opacity:1;stroke:none"
       d="m 587.71569,269.3125 c 0,0 8.51367,25.39026 9.65625,38.59375 0.35502,4.10258 -0.90625,12.3125 -0.90625,12.3125 l -1.96875,-6.78125 c -0.0795,7.37696 -3.24242,14.12741 -5.53125,21.0625 l 0.1875,-6.0625 c -0.93434,3.7031 -2.3531,5.45962 -3.75,7.3125 0.96932,-17.55086 0.90123,-34.50639 -3.9375,-53.375 l -1.0625,5.15625 c 0.31572,-4.43322 -0.93057,-7.6994 -2.5,-10.71875 0,0 1.78269,23.38487 1.0625,34.46875 -0.10064,1.54892 -2.5,3.9375 -2.5,3.9375 1.86821,-16.25459 -0.77749,-29.36355 -1.0625,-45.1875 l 12.3125,-0.71875 z"
       id="path2909"
       sodipodi:nodetypes="csccccccccsccc"
       inkscape:connector-curvature="0" />
    <path
       style="fill:#d3bc5f;fill-opacity:1;stroke:none"
       d="m 528.71569,320.9375 c -0.25799,-1.33676 -0.62854,-2.41844 -0.8125,-3.9375 l -3.40625,11.0625 c -0.79127,-9.27956 -0.0242,-14.77743 0.5625,-20.34375 l -6.625,18.21875 c 0,0 0.25573,-19.75854 2.5,-30 1.26827,-5.7876 5.1875,-16.25 5.1875,-16.25 l -3.75,0.875 c 2.92112,-1.36015 5.39374,-2.69764 7.84375,-5 l 9.59375,-3.28125 -4.0625,12.21875 -1.25,-1.4375 c -0.91297,2.19785 -1.64994,4.4328 -2.28125,6.65625 -0.63131,2.22345 -1.15471,4.44373 -1.5625,6.6875 -0.81559,4.48754 -1.22969,9.02539 -1.5,13.5625 -0.2176,3.65238 -0.30126,7.30898 -0.4375,10.96875 z"
       id="path2918"
       inkscape:connector-curvature="0" />
    <path
       style="fill:#d3bc5f;fill-opacity:1;stroke:none"
       d="m 540.77819,271.9375 0.875,-0.28125 c -0.35767,1.00424 -0.52542,1.7207 -0.84375,2.65625 l -0.0312,-2.375 z"
       id="path2916"
       inkscape:connector-curvature="0" />
    <path
       style="fill:#ffeeaa;fill-opacity:1;stroke:none"
       d="m 540.77819,271.9375 0.0312,2.375 c -2.47708,7.27991 -3.96851,12.97344 -4.6875,20.375 l -0.71875,-8.21875 c -3.49069,11.60714 -4.18087,23.21811 -3.5625,34.8125 l 0.71875,13.40625 c -1.45804,-4.13786 -2.82911,-8.4927 -3.84375,-13.75 0.13624,-3.65977 0.2199,-7.31637 0.4375,-10.96875 0.27031,-4.53711 0.68441,-9.07496 1.5,-13.5625 0.40779,-2.24377 0.93119,-4.46405 1.5625,-6.6875 0.63131,-2.22345 1.36828,-4.4584 2.28125,-6.65625 l 1.25,1.4375 4.0625,-12.21875 0.96875,-0.34375 z"
       id="path2911"
       inkscape:connector-curvature="0" />
    <path
       style="fill:#6c5d53;fill-opacity:1;stroke:none"
       d="m 589.58199,273.33062 c -21.22207,-1.22285 -42.23411,-1.39557 -62.12438,4.04061 0,0 -1.04995,-8.52359 0.25254,-13.93819 1.31503,-5.46676 1.13394,-10.99481 8.5863,-14.14213 7.45236,-3.14732 33.69874,-4.33871 40.4061,-2.52538 6.70736,1.81332 7.55786,5.98808 9.34391,10.6066 1.78605,4.61851 3.53553,15.95849 3.53553,15.95849 z"
       id="path2831"
       sodipodi:nodetypes="cczzzzc"
       inkscape:connector-curvature="0" />
    <path
       style="fill:#e6e6e6;fill-opacity:1;stroke:none"
       d="m 569.80944,274.1875 c 1.39484,1.19356 0.14683,1.76802 -0.6875,1.6875 -3.19616,-0.30844 -2.3384,-0.79061 -3.125,-1.5 l 3.8125,-0.1875 z m -26.625,0.78125 3.8125,0.0312 c -0.75924,0.7386 0.11973,1.19604 -3.0625,1.625 -0.8307,0.11198 -2.09875,-0.41084 -0.75,-1.65625 z"
       id="path2866"
       inkscape:connector-curvature="0" />
    <path
       style="fill:#cccccc;fill-opacity:1;stroke:none"
       d="m 508.30944,647.5 c 0.96434,-0.41196 1.94743,-0.80127 2.90625,-1.21875 4.50446,-1.96131 8.9392,-4.00127 13.28125,-6.125 4.34205,-2.12373 8.60597,-4.33451 12.71875,-6.6875 4.11278,-2.35299 8.08958,-4.81964 11.90625,-7.46875 3.81667,-2.64911 7.45255,-5.48792 10.90625,-8.5 3.4537,-3.01208 6.72613,-6.21435 9.75,-9.65625 1.51194,-1.72095 2.9518,-3.50281 4.34375,-5.34375 1.39195,-1.84094 2.7364,-3.74946 4,-5.71875 1.2636,-1.96929 2.46685,-3.98776 3.59375,-6.09375 0.56669,-1.05905 1.06322,-2.18604 1.59375,-3.28125 1.51732,1.50706 2.93087,3.35165 4.25,4.34375 -4.7028,44.13407 -55.38873,59.86137 -74.75,67.4375 -1.45241,-3.37885 -2.99463,-7.6833 -4.5,-11.6875 z"
       id="path3794"
       inkscape:connector-curvature="0" />
    <path
       style="fill:#808080;fill-opacity:1;stroke:none"
       d="m 450.34069,546.4375 c 0.98619,-1.40518 1.96791,-2.79661 3.0625,-4.15625 1.52131,-1.88969 3.13477,-3.73753 4.84375,-5.53125 1.70898,-1.79372 3.50361,-3.53033 5.375,-5.21875 1.87139,-1.68842 3.83522,-3.33245 5.84375,-4.90625 4.01706,-3.1476 8.27346,-6.05433 12.6875,-8.6875 4.41404,-2.63317 8.98484,-4.9871 13.59375,-7.03125 4.60891,-2.04415 9.27334,-3.77571 13.875,-5.15625 2.30083,-0.69027 4.58263,-1.30212 6.84375,-1.8125 2.26112,-0.51038 4.49135,-0.92884 6.6875,-1.25 2.19615,-0.32116 4.36283,-0.53362 6.46875,-0.65625 2.10592,-0.12263 4.13459,-0.14773 6.125,-0.0625 1.99041,0.0852 3.9316,0.26008 5.78125,0.5625 0.21832,0.0357 0.40884,0.11746 0.625,0.15625 l -0.5625,7.71875 c -21.30221,-0.2495 -37.44268,18.01575 -35.59375,26.28125 2.10777,9.42262 7.70265,13.03919 11.625,19.4375 5.33595,-1.84565 11.35923,-1.9194 12.375,-0.75 6.52256,7.50913 14.125,22.01848 14.125,31.8125 0,2.52538 -3.20749,3.46113 -4.53125,4.8125 -4.90457,5.00688 -8.18127,10.78715 -5.5625,13.09375 3.28426,2.89276 14.17752,5.55427 21.46875,0 9.61468,-7.32361 15.66099,-12.61389 21.96875,-19.9375 2.18628,-0.81753 4.08369,0.50184 5.84375,2.25 -0.53053,1.09521 -1.02706,2.2222 -1.59375,3.28125 -1.1269,2.10599 -2.33015,4.12446 -3.59375,6.09375 -1.2636,1.96929 -2.60805,3.87781 -4,5.71875 -1.39195,1.84094 -2.83181,3.6228 -4.34375,5.34375 -3.02387,3.4419 -6.2963,6.64417 -9.75,9.65625 -3.4537,3.01208 -7.08958,5.85089 -10.90625,8.5 -3.81667,2.64911 -7.79347,5.11576 -11.90625,7.46875 -4.11278,2.35299 -8.3767,4.56377 -12.71875,6.6875 -4.34205,2.12373 -8.77679,4.16369 -13.28125,6.125 -0.95882,0.41748 -1.94191,0.80679 -2.90625,1.21875 -4.66389,-12.40573 -9.48451,-25.75112 -14.4375,-30.78125 -3.04845,-1.72279 -6.11219,-2.14353 -8.59375,-6.5625 -2.72249,-4.848 -7.13764,-11.08649 -9.84375,-18.9375 -1.23579,-3.58529 -0.25944,-7.72404 1.25,-11.34375 -8.02807,-14.16457 -17.20769,-23.7124 -26.34375,-33.4375 z"
       id="path3799"
       inkscape:connector-curvature="0" />
    <path
       style="fill:#ececec;fill-opacity:1;stroke:none"
       d="m 525.62194,493.21875 c 1.26602,0.0189 2.49833,0.0607 3.75,0.15625 l 0.625,4.65625 2.4375,-4.3125 c 3.47676,0.45022 6.89515,1.19719 10.1875,2.3125 l -0.46875,6.65625 c -0.21616,-0.0388 -0.40668,-0.12055 -0.625,-0.15625 -1.84965,-0.30242 -3.79084,-0.47727 -5.78125,-0.5625 -1.99041,-0.0852 -4.01908,-0.0601 -6.125,0.0625 -2.10592,0.12263 -4.2726,0.33509 -6.46875,0.65625 -2.19615,0.32116 -4.42638,0.73962 -6.6875,1.25 -2.26112,0.51038 -4.54292,1.12223 -6.84375,1.8125 -4.60166,1.38054 -9.26609,3.1121 -13.875,5.15625 -4.60891,2.04415 -9.17971,4.39808 -13.59375,7.03125 -4.41404,2.63317 -8.67044,5.5399 -12.6875,8.6875 -2.00853,1.5738 -3.97236,3.21783 -5.84375,4.90625 -1.87139,1.68842 -3.66602,3.42503 -5.375,5.21875 -1.70898,1.79372 -3.32244,3.64156 -4.84375,5.53125 -1.09459,1.35964 -2.07631,2.75107 -3.0625,4.15625 -1.91548,-2.03898 -3.81675,-4.1243 -5.71875,-6.21875 13.74643,-24.48694 49.36457,-47.47299 81,-47 z"
       id="path2905"
       inkscape:connector-curvature="0" />
    <path
       style="fill:#c8beb7;fill-opacity:1;stroke:none"
       d="m 514.65319,219.5 c 0,0 -6.6499,21.70178 -7.28125,26.5 -0.43509,3.30672 -0.57006,8.29109 1.16006,9.2124 3.95809,2.10775 11.48858,5.56885 12.24619,5.56885 l -1.1875,8.0625 -0.0312,0 c -4.09882,-1.85131 -12.62483,-6.10748 -15.25,-10.65625 -1.75643,-3.04345 -0.65625,-10.53125 -0.65625,-10.53125 l 6.6875,-21.46875 c 0.46557,-1.49145 1.43043,-3.76623 2.53125,-4.875 l 1.7812,-1.8125 z"
       id="path2867"
       sodipodi:nodetypes="csscccscccc"
       inkscape:connector-curvature="0" />
    <path
       style="fill:#917c6f;fill-opacity:1;stroke:none"
       d="m 520.49694,257.84375 c 0.38484,0.3812 0.50153,1.90744 1.06286,2.251 2.864,1.75288 5.72974,3.41455 9.28089,4.46775 l -3.1875,8.125 c -3.31744,-0.77789 -9.12027,-2.69982 -9.78125,-3.75 -0.38381,-1.39311 0.8931,-6.25213 2.625,-11.09375 z"
       id="path2861"
       sodipodi:nodetypes="cscccc"
       inkscape:connector-curvature="0" />
    <path
       style="fill:#483e37;fill-opacity:1;stroke:none"
       d="m 546.15319,247.125 c -5.26055,9.73624 -6.06153,20.79177 -5.96875,27.53125 -4.28926,0.6905 -8.52085,1.57143 -12.71875,2.71875 0,0 -1.05249,-8.5229 0.25,-13.9375 1.31503,-5.46676 1.14139,-11.00893 8.59375,-14.15625 2.08581,-0.88089 5.65391,-1.60479 9.84375,-2.15625 z"
       id="path2856"
       inkscape:connector-curvature="0" />
    <path
       style="fill:#c8beb7;fill-opacity:1;stroke:none"
       d="m 589.84069,213.84375 2.96875,1.65625 4.90625,7.84375 1.96875,14.375 -1.78125,5.09375 -2.84375,0.21875 c 0.0537,-0.038 0.10556,-0.0861 0.15625,-0.125 1.10156,-0.84498 2.22796,-2.20728 2.15625,-3.59375 l -0.53125,-10.34375 c -0.10739,-2.0763 -0.32729,-4.30467 -1.4375,-6.0625 l -4.28125,-6.78125 c -0.72551,-1.14873 -3.5625,-1.96875 -3.5625,-1.96875 0,0 1.00657,-0.18999 2.28125,-0.3125 z"
       id="path2882"
       inkscape:connector-curvature="0" />
    <path
       style="fill:#deaa87;fill-opacity:1;stroke:none"
       d="m 642.68444,439.53125 c 1.12431,0.0165 2.00976,0.23095 2.375,0.6875 1.18533,1.48167 2.71385,1.72211 5.375,-0.0937 -0.48335,2.03823 -1.45117,3.8888 -3.65625,4.3125 -2.20172,-1.31952 -4.52211,-2.40521 -7.8125,-1.375 -2.95432,0.92498 -6.27033,3.20976 -2.3125,4.65625 2.0365,0.74429 2.73526,-1.4325 4.28125,-1.4375 5.98074,-0.0189 5.37725,3.18531 3.9375,3.59375 -4.59794,1.30437 -6.7485,0.21892 -10,0.34375 -3.02732,0.11622 -5.00327,-5.78616 -2.875,-7.6875 1.5962,-1.42601 7.31457,-3.04953 10.6875,-3 z"
       id="path3722"
       inkscape:connector-curvature="0" />
    <path
       style="font-size:medium;font-style:normal;font-variant:normal;font-weight:normal;font-stretch:normal;text-indent:0;text-align:start;text-decoration:none;line-height:normal;letter-spacing:normal;word-spacing:normal;text-transform:none;direction:ltr;block-progression:tb;writing-mode:lr-tb;text-anchor:start;color:#000000;fill:#800000;fill-opacity:1;stroke:none;stroke-width:4;marker:none;visibility:visible;display:inline;overflow:visible;enable-background:accumulate;font-family:Advert;-inkscape-font-specification:Advert"
       d="m 616.02819,621.59375 a 2.0002,2.0002 0 0 1 1.28125,3.46875 c -4.93215,4.6112 -11.39793,7.25571 -20.03125,5.3125 a 2.0015253,2.0015253 0 1 1 0.875,-3.90625 c 7.54048,1.69723 12.11092,-0.29668 16.40625,-4.3125 a 2.0002,2.0002 0 0 1 1.46875,-0.5625 z"
       id="path3765"
       inkscape:connector-curvature="0" />
    <path
       style="font-size:medium;font-style:normal;font-variant:normal;font-weight:normal;font-stretch:normal;text-indent:0;text-align:start;text-decoration:none;line-height:normal;letter-spacing:normal;word-spacing:normal;text-transform:none;direction:ltr;block-progression:tb;writing-mode:lr-tb;text-anchor:start;color:#000000;fill:#800000;fill-opacity:1;fill-rule:nonzero;stroke:none;stroke-width:4;marker:none;visibility:visible;display:inline;overflow:visible;enable-background:accumulate;font-family:Advert;-inkscape-font-specification:Advert"
       d="m 616.62194,628.40625 a 2.0039024,2.0039024 0 0 1 -0.25,4 c -7.19225,0.2717 -13.35653,2.14295 -20.78125,5.03125 a 2.0002,2.0002 0 1 1 -1.4375,-3.71875 c 7.57528,-2.94686 14.25475,-5.01754 22.0625,-5.3125 a 2.0002,2.0002 0 0 1 0.40625,0 z"
       id="path3767"
       inkscape:connector-curvature="0" />
    <path
       style="fill:none;stroke:none"
       d="m 617.01034,634.1479 -21.42858,-2.67857"
       id="path3769"
       inkscape:connector-curvature="0" />
    <path
       style="font-size:medium;font-style:normal;font-variant:normal;font-weight:normal;font-stretch:normal;text-indent:0;text-align:start;text-decoration:none;line-height:normal;letter-spacing:normal;word-spacing:normal;text-transform:none;direction:ltr;block-progression:tb;writing-mode:lr-tb;text-anchor:start;color:#000000;fill:#800000;fill-opacity:1;stroke:none;stroke-width:4;marker:none;visibility:visible;display:inline;overflow:visible;enable-background:accumulate;font-family:Advert;-inkscape-font-specification:Advert"
       d="m 595.55944,629.8125 a 2.0002,2.0002 0 0 1 0.6875,0.21875 c 6.35616,3.01363 13.72938,3.6908 21.40625,4.09375 a 2.0029885,2.0029885 0 1 1 -0.21875,4 c -7.76721,-0.40769 -15.66146,-1.07987 -22.875,-4.5 a 2.0002,2.0002 0 0 1 1,-3.8125 z"
       id="path3771"
       inkscape:connector-curvature="0" />
    <path
       style="fill:#aa8800;fill-opacity:1;stroke:none"
       d="m 443.15319,659.84375 c 0.71001,3.09924 1.02106,6.66734 3.66518,9.3125 2.64412,2.64516 70.88866,-2.34609 82.61607,-3 -0.59099,0.85596 -1.18682,1.48736 -1.71875,1.59375 -18.30053,3.66011 -52.67885,4.71904 -79.0625,4.78125 -7.96036,0.0188 -9.10798,-10.70737 -7.0625,-11.84375 0.51626,-0.28681 1.04513,-0.55828 1.5625,-0.84375 z"
       id="path3778"
       sodipodi:nodetypes="czcsssc"
       inkscape:connector-curvature="0" />
    <path
       style="opacity:0.28999999;fill:#000000;fill-opacity:1;stroke:none"
       d="m 445.49694,538.71875 c 6.56154,6.62542 25.07663,26.39564 37.59375,37.0625 1.48127,1.2623 2.96419,0.77918 6.40625,3.375 3.3863,2.55377 12.60016,16.75348 11.56504,29.23906 14.34335,-7.32879 30.05873,-11.91353 43.02871,-21.98906 -1.01839,4.23454 -5.87592,6.70859 -8.53125,10.4375 l -36.24746,16.98731 c 1.05195,7.00578 10.32173,30.26652 15.37246,44.63769 -0.57609,0.2203 -1.34438,0.51111 -1.875,0.71875 -1.45241,-3.37885 -2.99463,-7.6833 -4.5,-11.6875 -4.66389,-12.40573 -9.48451,-25.75112 -14.4375,-30.78125 -3.04845,-1.72279 -6.11219,-2.14353 -8.59375,-6.5625 -2.72249,-4.848 -7.13764,-11.08649 -9.84375,-18.9375 -1.23579,-3.58529 -0.25944,-7.72404 1.25,-11.34375 -8.02807,-14.16457 -17.20769,-23.7124 -26.34375,-33.4375 -1.91548,-2.03898 -3.81675,-4.1243 -5.71875,-6.21875 0.28176,-0.5019 0.57509,-0.99955 0.875,-1.5 z"
       id="path3801"
       sodipodi:nodetypes="cssccccccscsscscc"
       inkscape:connector-curvature="0" />
    <path
       style="fill:#917c6f;fill-opacity:1;stroke:none"
       d="m 479.28883,597.60704 c 2.63239,6.63427 7.06415,11.22321 9.89861,10.24967 l 3.75,-1.42858 c 5.94265,-5.96232 -0.92485,-23.7699 -9.53271,-24.02483 l -3.75001,1.42857 c -2.83446,0.97354 -2.99828,7.14089 -0.36589,13.77517 z"
       id="path3788"
       sodipodi:nodetypes="cccccc"
       inkscape:connector-curvature="0" />
    <path
       style="fill:#d38d5f;fill-opacity:1;stroke:none"
       d="m 428.90319,325.93751 c 0.26384,3.8585 1.01461,6.1024 1.75,9.43749 0.6485,2.94105 1.42491,4.90715 1.80108,8.45273 0.70926,6.68519 2.90695,14.39514 3.48017,21.07852 -0.56915,-1.57651 -0.96868,-2.09683 -1.40625,-3.2124 -1.03295,-4.55288 -8.78054,-5.3587 -11.37999,-4.3538 2.62165,-2.16079 5.71272,-2.69353 8.69249,-1.55879 -0.23955,-6.85562 -2.85723,-15.61555 -3.40625,-25.5625 -0.0639,-1.63484 0.11844,-3.05695 0.46875,-4.28125 z"
       id="path4189"
       sodipodi:nodetypes="csscccccc"
       inkscape:connector-curvature="0" />
  </g>
</svg>
