<?xml version="1.0" encoding="UTF-8" standalone="no"?>
<!-- Created with Inkscape (http://www.inkscape.org/) -->

<svg
   xmlns:dc="http://purl.org/dc/elements/1.1/"
   xmlns:cc="http://creativecommons.org/ns#"
   xmlns:rdf="http://www.w3.org/1999/02/22-rdf-syntax-ns#"
   xmlns:svg="http://www.w3.org/2000/svg"
   xmlns="http://www.w3.org/2000/svg"
   xmlns:sodipodi="http://sodipodi.sourceforge.net/DTD/sodipodi-0.dtd"
   xmlns:inkscape="http://www.inkscape.org/namespaces/inkscape"
   width="531.0625"
   height="301.27075"
   id="svg37547"
   version="1.1"
   inkscape:version="0.48.3.1 r9886"
   sodipodi:docname="crown.svg">
  <defs
     id="defs37549">
    <clipPath
       clipPathUnits="userSpaceOnUse"
       id="clipPath37527">
      <path
         inkscape:connector-curvature="0"
         id="path37529"
         d="m 1555.892,1355.8923 c 1.4461,13.3124 3.6344,27.1982 7.5731,40.3366 6.2638,20.8932 16.6333,40.4786 34.9788,49.3413 13.2923,6.4216 27.2273,-0.2413 38.5837,-8.4122 7.5489,-5.4311 14.0866,-11.8723 19.9685,-18.1388 -0.9615,11.9857 -1.6356,24.503 -0.2645,36.6643 1.8397,16.3161 7.5696,32.6799 21.7002,41.4447 12.1108,7.512 25.0419,8.0936 36.5629,4.4667 1.6846,-0.5301 3.2549,-1.3377 4.8814,-2.0225 -7.0831,9.9873 -12.6138,18.7996 -16.0015,25.6207 -2.4618,4.957 -3.9092,8.7907 -5.0069,12.0777 l -327.851,-43.1825 c -0.012,-10.3958 -1.3508,-19.8032 -4.2563,-29.3176 -1.4562,-4.7694 -3.3812,-9.737 -5.5221,-14.8923 3.6253,2.5349 7.1914,4.7043 10.7376,6.1182 10.3156,4.1125 19.9075,3.1534 29.2281,1.5838 7.9953,-1.3464 14.5764,-6.3466 19.4842,-12.4416 4.8907,-6.0735 8.4654,-13.3635 11.3943,-21.0448 3.9449,-10.346 6.5294,-21.4341 8.4317,-31.6037 4.5303,7.7252 9.9571,15.8255 16.6977,22.7916 10.1559,10.4957 24.0196,18.8602 39.8254,15.1683 18.5811,-4.3399 32.1954,-20.3701 42.6478,-38.5131 6.5571,-11.3816 11.7582,-23.874 16.2069,-36.0448 z"
         style="font-size:medium;font-style:normal;font-variant:normal;font-weight:normal;font-stretch:normal;text-indent:0;text-align:start;text-decoration:none;line-height:normal;letter-spacing:normal;word-spacing:normal;text-transform:none;direction:ltr;block-progression:tb;writing-mode:lr-tb;text-anchor:start;baseline-shift:baseline;color:#000000;fill:none;stroke:#ececec;stroke-width:3.15563464;marker:none;visibility:visible;display:inline;overflow:visible;enable-background:accumulate;font-family:Sans;-inkscape-font-specification:Sans" />
    </clipPath>
  </defs>
  <sodipodi:namedview
     id="base"
     pagecolor="#ffffff"
     bordercolor="#666666"
     borderopacity="1.0"
     inkscape:pageopacity="0.0"
     inkscape:pageshadow="2"
     inkscape:zoom="0.17515089"
     inkscape:cx="961.86768"
     inkscape:cy="-397.53468"
     inkscape:document-units="px"
     inkscape:current-layer="layer1"
     showgrid="false"
     inkscape:window-width="1301"
     inkscape:window-height="744"
     inkscape:window-x="65"
     inkscape:window-y="24"
     inkscape:window-maximized="1"
     fit-margin-top="0"
     fit-margin-left="0"
     fit-margin-right="0"
     fit-margin-bottom="0" />
  <metadata
     id="metadata37552">
    <rdf:RDF>
      <cc:Work
         rdf:about="">
        <dc:format>image/svg+xml</dc:format>
        <dc:type
           rdf:resource="http://purl.org/dc/dcmitype/StillImage" />
        <dc:title />
      </cc:Work>
    </rdf:RDF>
  </metadata>
  <g
     inkscape:label="Layer 1"
     inkscape:groupmode="layer"
     id="layer1"
     transform="translate(-103.72131,-365.34636)">
    <path
       style="fill:#000000;fill-opacity:1;stroke:none"
       d="m 368.84661,365.34636 c 0,0 -24.1654,30.5547 -10.0625,55.75 -8.362,-5.982 -20.2797,-13.2158 -29.0625,-13.3125 -30.7092,-0.3387 -8.2671,42.7813 2.375,27.6563 -7.5727,-11.8113 15.5962,-16.7148 21.8438,-4.6875 3.5291,6.7939 -20.9582,25.9041 -8.2188,24.3125 12.7388,-1.5917 14.25,-10.1563 14.25,-10.1563 l 4.4063,10.625 c -5.8168,32.7352 -18.7563,77.6508 -46.5,87.25 -22.3633,7.7376 -45.0293,-17.1824 -57.2188,-33.875 l 0.875,-12.0312 c 0,0 4.0026,7.5985 16.5625,4.9062 12.5592,-2.6923 -16.686,-12.6889 -15.5,-20.2812 2.0994,-13.4407 25.6412,-16.6419 22.2188,-2.9688 14.8658,10.8057 22.4228,-37.2541 -6.5313,-26.8125 -8.6331,3.1137 -17.5912,14.2358 -23.5937,22.7813 5.3335,-28.2517 -26.8438,-50.2188 -26.8438,-50.2188 0,0 -13.1791,37.2292 8.5938,56.3438 -9.8672,-2.9957 -23.4667,-6.2738 -32.0938,-3.375 -29.168,9.8006 5.7232,43.3207 11,25.5 -10.9101,-8.6815 9.3378,-20.9789 19.0625,-11.6563 5.4929,5.2662 -11.6444,31.4235 -0.094,25.7188 11.5507,-5.7047 10.375,-14.2813 10.375,-14.2813 l 7.1875,8.2813 c -0.1815,22.9801 -3.8143,61.9343 -24.0312,67.625 -17.2039,4.8425 -28.357,5.9223 -56.7813,-17.125 l -1.7812,-5.9375 c 0,0 7.1573,4.6412 17.0312,-3.7188 9.8746,-8.3601 -20.5413,-3.2838 -22.9687,-10.5625 -4.2967,-12.889 15.0471,-26.5957 18.2812,-12.875 18.094,2.479 2.6051,-43.7674 -18.2187,-20.75 -6.1591,6.8079 -8.8711,20.7887 -10.2813,31.1875 -8.0513,-28.1227 -49.4063,-30.7187 -49.4063,-30.7187 23.6392,22.9958 33.8386,26.4369 62.8438,58.75 20.9985,30.2896 28.968,41.933 30.4687,66.7187 l 343.5938,0.5938 c 0,0 -1.8929,-21.9578 38.0937,-75.0313 23.9822,-25.5991 34.3623,-30.234 56.0625,-51.3437 0,0 -41.355,2.596 -49.4062,30.7187 -1.4102,-10.3988 -4.1222,-24.3796 -10.2813,-31.1875 -20.8238,-23.0173 -36.3127,23.2289 -18.2187,20.75 3.2334,-13.7207 22.5786,-0.014 18.2812,12.875 -2.4274,7.2787 -32.8426,2.2024 -22.9687,10.5625 9.8745,8.36 17.0625,3.7188 17.0625,3.7188 l -2.4375,8.0312 c -17.9293,15.8184 -34.5887,27.8683 -55.8125,18.9688 -22.9117,-9.6072 -24.9133,-43.4039 -25.9688,-71.1875 l 7.2813,-8.3438 c 0,0 -1.1757,8.5766 10.375,14.2813 11.5507,5.7047 -5.5873,-20.4526 -0.094,-25.7188 9.7247,-9.3226 29.9726,2.9748 19.0625,11.6563 5.2768,17.8207 40.1687,-15.6994 11,-25.5 -8.6271,-2.8988 -22.2579,0.3793 -32.125,3.375 21.7736,-19.1146 8.625,-56.3438 8.625,-56.3438 0,0 -32.1766,21.9671 -26.8438,50.2188 -6.0025,-8.5455 -14.9606,-19.6676 -23.5938,-22.7813 -28.9541,-10.4416 -21.3964,37.6182 -6.5312,26.8125 -3.4225,-13.6731 20.0874,-10.4719 22.1875,2.9688 1.186,7.5923 -28.0287,17.5889 -15.4688,20.2812 12.5599,2.6923 16.5625,-4.9062 16.5625,-4.9062 l 0.75,10.625 c -11.532,16.3533 -33.2516,42.4268 -51.125,36.9375 -30.8465,-9.474 -45.1321,-56.0212 -51.5,-89.4063 l 4.0938,-9.9687 c 0,0 1.5105,8.5646 14.25,10.1562 12.7388,1.5916 -11.7479,-17.5186 -8.2188,-24.3125 6.2476,-12.0272 29.4164,-7.155 21.8438,4.6563 10.6421,15.1251 33.0842,-27.9637 2.375,-27.625 -8.9913,0.099 -21.2416,7.6924 -29.625,13.75 14.0639,-24.9861 -9.4688,-56.3438 -9.4688,-56.3438 z"
       id="path37379"
       inkscape:connector-curvature="0"
       sodipodi:nodetypes="ccccssccscccccccccsccsccscccccsccccccccscccccsccscccccccccsccsccsscccc"
       inkscape:export-filename="C:\WORK\ALENA\images\корона7.png"
       inkscape:export-xdpi="95"
       inkscape:export-ydpi="95" />
    <rect
       style="opacity:0.93774318;fill:#000000;fill-opacity:1;stroke:none"
       id="rect37397"
       width="343.57831"
       height="24.161131"
       x="197.0428"
       y="642.45599"
       inkscape:export-filename="C:\WORK\ALENA\images\корона7.png"
       inkscape:export-xdpi="95.051033"
       inkscape:export-ydpi="95.051033" />
    <path
       style="fill:#ffffff;fill-opacity:1;stroke:none"
       d="m 194.4218,643.12817 -1.21875,6.40625 -6.71875,-0.6875 4.4375,4.90625 -4.71875,4.65625 6.75,-0.28125 0.8125,6.4375 4,-5.25 5.75,3.40625 -1.78125,-6.25 6.375,-2.21875 -6.21875,-2.5625 2.15625,-6.15625 -5.96875,3.0625 -3.65625,-5.46875 z m 19.71875,0.875 -1.21875,6.375 -6.75,-0.65625 4.46875,4.90625 -4.75,4.65625 6.75,-0.28125 0.84375,6.4375 3.96875,-5.25 5.78125,3.40625 -1.8125,-6.28125 6.375,-2.1875 -6.21875,-2.5625 2.1875,-6.1875 -5.96875,3.09375 -3.65625,-5.46875 z m 19.6875,0 -1.21875,6.375 -6.71875,-0.65625 4.4375,4.90625 -4.75,4.65625 6.78125,-0.28125 0.8125,6.4375 4,-5.25 5.75,3.40625 -1.78125,-6.28125 6.375,-2.1875 -6.21875,-2.5625 2.15625,-6.1875 -5.96875,3.09375 -3.65625,-5.46875 z m 20.21875,0 -1.21875,6.375 -6.75,-0.65625 4.4375,4.90625 -4.71875,4.65625 6.75,-0.28125 0.8125,6.4375 4,-5.25 5.78125,3.40625 -1.8125,-6.28125 6.375,-2.1875 -6.21875,-2.5625 2.1875,-6.1875 -5.96875,3.09375 -3.65625,-5.46875 z m 42.40625,0 -1.21875,6.375 -6.71875,-0.65625 4.4375,4.90625 -4.75,4.65625 6.78125,-0.28125 0.8125,6.4375 4,-5.25 5.75,3.40625 -1.78125,-6.28125 6.375,-2.1875 -6.21875,-2.5625 2.15625,-6.1875 -5.96875,3.09375 -3.65625,-5.46875 z m 20.21875,0 -1.21875,6.375 -6.75,-0.65625 4.46875,4.90625 -4.75,4.65625 6.75,-0.28125 0.84375,6.4375 3.96875,-5.25 5.78125,3.40625 -1.8125,-6.28125 6.375,-2.1875 -6.21875,-2.5625 2.1875,-6.1875 -5.96875,3.09375 -3.65625,-5.46875 z m 122.21875,0 -1.21875,6.375 -6.71875,-0.65625 4.4375,4.90625 -4.75,4.65625 6.78125,-0.28125 0.8125,6.4375 4,-5.25 5.75,3.40625 -1.78125,-6.28125 6.34375,-2.1875 -6.21875,-2.5625 2.1875,-6.1875 -5.96875,3.09375 -3.65625,-5.46875 z m -164.15625,0.5 -1.21875,6.375 -6.71875,-0.65625 4.4375,4.90625 -4.75,4.65625 6.78125,-0.28125 0.8125,6.4375 4,-5.25 5.75,3.40625 -1.78125,-6.28125 6.375,-2.1875 -6.21875,-2.5625 2.15625,-6.15625 -5.96875,3.0625 -3.65625,-5.46875 z m 61.625,0 -1.21875,6.375 -6.71875,-0.65625 4.4375,4.90625 -4.75,4.65625 6.78125,-0.28125 0.8125,6.4375 4,-5.25 5.75,3.40625 -1.78125,-6.28125 6.34375,-2.1875 -6.21875,-2.5625 2.1875,-6.15625 -5.96875,3.0625 -3.65625,-5.46875 z m 19.6875,0 -1.21875,6.375 -6.71875,-0.65625 4.4375,4.90625 -4.71875,4.65625 6.75,-0.28125 0.8125,6.4375 4,-5.25 5.75,3.40625 -1.78125,-6.28125 6.375,-2.1875 -6.21875,-2.5625 2.15625,-6.15625 -5.96875,3.0625 -3.65625,-5.46875 z m 20.21875,0 -1.21875,6.375 -6.75,-0.65625 4.46875,4.90625 -4.75,4.65625 6.75,-0.28125 0.84375,6.4375 3.96875,-5.25 5.78125,3.40625 -1.78125,-6.28125 6.34375,-2.1875 -6.21875,-2.5625 2.1875,-6.15625 -5.96875,3.0625 -3.65625,-5.46875 z m 42.4375,0 -1.21875,6.375 -6.75,-0.65625 4.4375,4.90625 -4.71875,4.65625 6.75,-0.28125 0.8125,6.4375 4,-5.25 5.75,3.40625 -1.78125,-6.28125 6.375,-2.1875 -6.21875,-2.5625 2.1875,-6.15625 -5.96875,3.0625 -3.65625,-5.46875 z m 39.875,0 -1.21875,6.375 -6.71875,-0.65625 4.4375,4.90625 -4.71875,4.65625 6.75,-0.28125 0.8125,6.4375 4,-5.25 5.75,3.40625 -1.78125,-6.28125 6.375,-2.1875 -6.21875,-2.5625 2.15625,-6.15625 -5.96875,3.0625 -3.65625,-5.46875 z m 19.71875,0 -1.21875,6.375 -6.75,-0.65625 4.4375,4.90625 -4.71875,4.65625 6.75,-0.28125 0.84375,6.4375 3.96875,-5.25 5.78125,3.40625 -1.8125,-6.28125 6.375,-2.1875 -6.21875,-2.5625 2.1875,-6.15625 -5.96875,3.0625 -3.65625,-5.46875 z m 20.1875,0 -1.21875,6.375 -6.71875,-0.65625 4.4375,4.90625 -4.75,4.65625 6.78125,-0.28125 0.8125,6.4375 4,-5.25 5.75,3.40625 -1.78125,-6.28125 6.375,-2.1875 -6.21875,-2.5625 2.15625,-6.15625 -5.96875,3.0625 -3.65625,-5.46875 z m 49,0.46875 -4.6875,4.8125 -5.21875,-4 0.90625,6.4375 -6.59375,1.53125 5.78125,3.21875 -3.03125,5.90625 6.34375,-2.40625 2.8125,5.84375 2.125,-6.25 6.53125,1.375 -3.6875,-5.375 5.3125,-4.125 -6.6875,-0.4375 0.0937,-6.53125 z m -150.5,0.0312 -1.21875,6.40625 -6.75,-0.6875 4.4375,4.90625 -4.71875,4.65625 6.75,-0.28125 0.8125,6.4375 4,-5.25 5.78125,3.40625 -1.8125,-6.25 6.375,-2.21875 -6.21875,-2.5625 2.1875,-6.15625 -5.96875,3.0625 -3.65625,-5.46875 z m 122.21875,0 -1.21875,6.40625 -6.75,-0.6875 4.46875,4.90625 -4.75,4.65625 6.75,-0.28125 0.84375,6.4375 3.96875,-5.25 5.78125,3.40625 -1.78125,-6.25 6.34375,-2.21875 -6.21875,-2.5625 2.1875,-6.15625 -5.96875,3.0625 -3.65625,-5.46875 z"
       id="path37401"
       inkscape:connector-curvature="0" />
    <path
       style="fill:#ffffff"
       d="m 368.57805,383.06567 c -0.10475,0.14513 -0.2076,0.82485 -0.46875,2.1875 -0.2621,1.3683 -1.4766,3.7662 -3.375,6.625 -4.9796,7.4987 -4.86505,11.9843 0.53125,19.25 l 3.0625,4.125 -1.1875,-3.1875 c -1.3599,-3.6092 -1.5771,-6.99155 -0.75,-11.65625 0.8189,-4.6184 1.2014,-4.58295 1.1875,0.0937 -0.014,4.8234 1.36875,10.55045 3.46875,14.34375 0.8305,1.4999 1.5616,2.5351 1.625,2.3125 4.2596,-14.9468 4.1891,-17.0264 -0.6875,-26.5 -1.5016,-2.917 -2.86295,-5.89455 -3.03125,-6.59375 -0.18075,-0.75055 -0.27025,-1.14513 -0.375,-1 z m -2.15625,38.875 c -0.0201,-0.007 -0.0568,0.0111 -0.0625,0.0312 -3.086,10.8289 -3.0331,12.35515 0.5,19.21875 1.0879,2.1134 2.0655,4.2434 2.1875,4.75 0.2619,1.0876 0.2466,1.0994 0.625,-0.875 0.1898,-0.9913 1.09335,-2.71005 2.46875,-4.78125 3.6077,-5.4328 3.50335,-8.6735 -0.40625,-13.9375 l -2.21875,-3 0.875,2.3125 c 0.9852,2.6149 1.13055,5.0579 0.53125,8.4375 -0.5932,3.346 -0.85385,3.3254 -0.84375,-0.0625 0.01,-3.4946 -1.00985,-7.6268 -2.53125,-10.375 -0.52649,-0.95086 -0.98455,-1.66704 -1.125,-1.71875 z m 137.84375,17.5 c -0.14842,0.10003 -0.5031,0.68635 -1.21875,1.875 -0.7186,1.1937 -2.6687,3.00385 -5.4375,5.03125 -7.2626,5.3179 -8.6805,9.5678 -6.125,18.25 l 1.4375,4.9375 -0.0312,-3.40625 c -0.03,-3.8567 0.9255,-7.0953 3.3125,-11.1875 2.3633,-4.0515 2.72185,-3.91555 1.09375,0.46875 -1.6791,4.5218 -2.3485,10.4024 -1.6875,14.6875 0.2614,1.6944 0.58235,2.9371 0.71875,2.75 9.1588,-12.5565 9.83665,-14.5502 8.53125,-25.125 -0.4019,-3.256 -0.67715,-6.50435 -0.59375,-7.21875 0.0895,-0.76675 0.14842,-1.16253 0,-1.0625 z m -270.65625,1.8125 c -0.16213,-0.0922 -0.1,0.55781 0.0937,2.28125 0.1557,1.3845 -0.2855,4.0191 -1.25,7.3125 -2.5299,8.6386 -1.09075,12.88175 6.21875,18.21875 l 4.15625,3.03125 -2.09375,-2.6875 c -2.3696,-3.0431 -3.5931,-6.20615 -4.1875,-10.90625 -0.5886,-4.6533 -0.21825,-4.75145 1.15625,-0.28125 1.4177,4.6105 4.46265,9.6883 7.59375,12.6875 1.2381,1.1859 2.2555,1.95025 2.25,1.71875 -0.3679,-15.5375 -1.06285,-17.5253 -8.53125,-25.125 -2.2995,-2.34 -4.47545,-4.7572 -4.84375,-5.375 -0.29651,-0.49729 -0.46522,-0.81966 -0.5625,-0.875 z m 255.15625,36.40625 c -6.1101,9.4582 -6.53425,10.93555 -5.15625,18.53125 0.4243,2.3388 0.74985,4.6674 0.71875,5.1875 -0.067,1.1168 -0.0937,1.12195 0.84375,-0.65625 0.4702,-0.893 1.8303,-2.26365 3.75,-3.84375 5.0351,-4.1445 5.892,-7.29345 3.6875,-13.46875 l -1.25,-3.5 0.15625,2.46875 c 0.1796,2.7886 -0.3788,5.16065 -1.9375,8.21875 -1.5433,3.0274 -1.81,2.9253 -0.8125,-0.3125 1.0286,-3.3398 1.2788,-7.58385 0.625,-10.65625 -0.2587,-1.2149 -0.534,-2.10955 -0.625,-1.96875 z m -244.34375,1.15625 c -0.0213,-0.002 -0.0313,0.0103 -0.0312,0.0312 0.038,11.26 0.48315,12.72925 5.78125,18.34375 1.6314,1.7288 3.1798,3.51585 3.4375,3.96875 0.5533,0.9723 0.52785,1.0019 0.34375,-1 -0.093,-1.005 0.28425,-2.90985 1.03125,-5.28125 1.9594,-6.2202 0.9661,-9.30805 -4.25,-13.28125 l -2.9375,-2.28125 1.46875,1.96875 c 1.6718,2.2391 2.48215,4.55545 2.84375,7.96875 0.358,3.3792 0.0864,3.4453 -0.84375,0.1875 -0.9596,-3.3603 -3.05735,-7.06275 -5.28125,-9.28125 -0.76956,-0.76746 -1.41319,-1.33299 -1.5625,-1.34375 z"
       id="path37439"
       inkscape:connector-curvature="0" />
    <path
       style="font-size:medium;font-style:normal;font-variant:normal;font-weight:normal;font-stretch:normal;text-indent:0;text-align:start;text-decoration:none;line-height:normal;letter-spacing:normal;word-spacing:normal;text-transform:none;direction:ltr;block-progression:tb;writing-mode:lr-tb;text-anchor:start;baseline-shift:baseline;color:#000000;fill:#ffffff;fill-opacity:1;stroke:none;stroke-width:3.15563464;marker:none;visibility:visible;display:inline;overflow:visible;enable-background:accumulate;font-family:Sans;-inkscape-font-specification:Sans"
       d="m 370.38941,466.33766 -1.5376,-6.1078 -1.5248,6.1388 c -2.8355,12.5946 -6.3897,25.5599 -11.375,37.5624 -7.9586,19.1609 -19.2151,36.3605 -36.4376,42.8126 -14.5139,5.4375 -28.7181,-0.7403 -39.9062,-9.6563 -7.4336,-5.9239 -13.7743,-13.1634 -19.2188,-20.1875 l -2.5937,-3.3438 -0.2187,4.2188 c -0.5755,10.279 -1.7341,21.4993 -4.2813,32.125 -1.8943,7.9019 -4.432,15.4598 -8.375,21.9062 -3.9434,6.4476 -9.5643,11.9378 -16.8437,14.1563 -8.9724,2.7346 -17.9925,4.8034 -28.3438,2.1563 -3.5133,-0.8986 -7.2284,-2.5443 -11.0938,-4.5626 l -4.8124,-2.5 2.7187,4.6876 c 2.7743,4.8162 5.2889,9.4701 7.3125,13.9374 4.0413,8.9204 6.5434,17.8879 7.875,28.0626 l 0.1562,1.375 1.4063,0 330.6875,0.6562 1.2812,0 0.25,-1.2812 c 0.6566,-3.3537 1.5967,-7.2473 3.375,-12.4063 2.4356,-7.0653 6.7529,-16.479 12.4688,-27.25 l 2.5938,-4.875 -4.7813,2.7813 c -1.5943,0.9288 -3.0279,1.8949 -4.4687,2.5624 -10.6081,4.9163 -22.9484,5.9801 -35.5,0.2813 -14.5137,-6.5895 -22.1046,-21.5462 -25.9688,-37.25 -2.8815,-11.711 -3.8194,-24.1127 -4.4062,-36.0937 l -0.25,-4.5 -2.625,3.6562 c -5.0013,6.9355 -10.5789,14.0646 -17.25,20.3125 -5.0306,4.7118 -10.7081,9.0856 -16.7188,11.6875 -6.0107,2.6019 -12.31,3.4748 -18.9062,1.2812 -18.6902,-6.2153 -31.2792,-23.8696 -40.0938,-43.5937 -5.5369,-12.3902 -9.4596,-25.7858 -12.5938,-38.75 z m -1.4687,6.5313 c 2.9177,11.2614 6.3576,22.7231 11.1875,33.5312 8.9842,20.1035 21.9927,38.6382 41.9688,45.2812 7.4117,2.4648 14.6311,1.4496 21.1562,-1.375 6.5251,-2.8245 12.4446,-7.4291 17.625,-12.2812 5.8261,-5.4565 10.6761,-11.4991 15.125,-17.4688 0.6126,10.7745 1.557,21.8405 4.1875,32.5313 3.9824,16.184 11.951,32.2161 27.7187,39.375 13.4014,6.0846 26.847,4.9601 38.1563,-0.2813 0.068,-0.031 0.1205,-0.062 0.1875,-0.094 -4.4937,8.7965 -8.2084,16.7743 -10.3438,22.9687 -1.6245,4.7129 -2.524,8.3681 -3.1874,11.5626 l -328.0626,-0.6563 c -1.4103,-9.877 -3.9247,-18.8054 -7.9062,-27.5937 -1.4662,-3.2368 -3.3992,-6.588 -5.25,-9.9376 2.5037,1.1326 4.9978,2.118 7.4688,2.75 11.1667,2.8557 20.9211,0.5579 30.0312,-2.2187 8.232,-2.5089 14.4024,-8.6274 18.625,-15.5313 4.1946,-6.8579 6.8426,-14.6945 8.7812,-22.7812 2.3041,-9.6114 3.328,-19.5316 3.9688,-28.875 5.0059,6.2027 10.6098,12.4647 17.2812,17.7812 11.6553,9.2883 27.1148,16.1076 43,10.1563 18.5144,-6.9361 30.114,-25.0496 38.2188,-44.5625 4.3222,-10.4058 7.439,-21.4197 10.0625,-32.2812 z"
       id="path37487"
       inkscape:connector-curvature="0"
       sodipodi:nodetypes="cccssscccsccccccccccccccccccscccccsccccccsccccsccccccccscscssscc" />
  </g>
</svg>
