<?xml version="1.0" encoding="UTF-8" standalone="no"?>
<!-- Created with Inkscape (http://www.inkscape.org/) -->

<svg
   xmlns:dc="http://purl.org/dc/elements/1.1/"
   xmlns:cc="http://creativecommons.org/ns#"
   xmlns:rdf="http://www.w3.org/1999/02/22-rdf-syntax-ns#"
   xmlns:svg="http://www.w3.org/2000/svg"
   xmlns="http://www.w3.org/2000/svg"
   xmlns:sodipodi="http://sodipodi.sourceforge.net/DTD/sodipodi-0.dtd"
   xmlns:inkscape="http://www.inkscape.org/namespaces/inkscape"
   width="240"
   height="240"
   id="svg2"
   version="1.1"
   inkscape:version="0.48.3.1 r9886"
   sodipodi:docname="dwarf.svg"
   style="display:inline">
  <title
     id="title4702">dwarf warrior</title>
  <defs
     id="defs4" />
  <sodipodi:namedview
     id="base"
     pagecolor="#ffffff"
     bordercolor="#666666"
     borderopacity="1.0"
     inkscape:pageopacity="0.0"
     inkscape:pageshadow="2"
     inkscape:zoom="0.92948778"
     inkscape:cx="-290.88158"
     inkscape:cy="-1.5153125"
     inkscape:document-units="px"
     inkscape:current-layer="layer2"
     showgrid="false"
     inkscape:window-width="1301"
     inkscape:window-height="744"
     inkscape:window-x="65"
     inkscape:window-y="24"
     inkscape:window-maximized="1"
     inkscape:object-nodes="true"
     inkscape:snap-smooth-nodes="false"
     inkscape:object-paths="false"
     inkscape:snap-nodes="false"
     fit-margin-top="0"
     fit-margin-left="0"
     fit-margin-right="0"
     fit-margin-bottom="0" />
  <metadata
     id="metadata7">
    <rdf:RDF>
      <cc:Work
         rdf:about="">
        <dc:format>image/svg+xml</dc:format>
        <dc:type
           rdf:resource="http://purl.org/dc/dcmitype/StillImage" />
        <dc:title>dwarf warrior</dc:title>
        <dc:date>2011-08-29</dc:date>
        <dc:creator>
          <cc:Agent>
            <dc:title>tzunghaor (Prim András)</dc:title>
          </cc:Agent>
        </dc:creator>
        <cc:license
           rdf:resource="http://creativecommons.org/licenses/publicdomain/" />
        <dc:publisher>
          <cc:Agent>
            <dc:title>openclipart.org</dc:title>
          </cc:Agent>
        </dc:publisher>
        <dc:subject>
          <rdf:Bag>
            <rdf:li>dwarf</rdf:li>
            <rdf:li>warrior</rdf:li>
            <rdf:li>soldier</rdf:li>
            <rdf:li>rpg</rdf:li>
            <rdf:li>fantasy</rdf:li>
            <rdf:li>armor</rdf:li>
            <rdf:li>armour</rdf:li>
            <rdf:li>weapon</rdf:li>
            <rdf:li>battle hammer</rdf:li>
            <rdf:li>hammer</rdf:li>
            <rdf:li>beard</rdf:li>
          </rdf:Bag>
        </dc:subject>
      </cc:Work>
      <cc:License
         rdf:about="http://creativecommons.org/licenses/publicdomain/">
        <cc:permits
           rdf:resource="http://creativecommons.org/ns#Reproduction" />
        <cc:permits
           rdf:resource="http://creativecommons.org/ns#Distribution" />
        <cc:permits
           rdf:resource="http://creativecommons.org/ns#DerivativeWorks" />
      </cc:License>
    </rdf:RDF>
  </metadata>
  <g
     inkscape:groupmode="layer"
     id="layer2"
     inkscape:label="Réteg"
     style="display:inline"
     transform="translate(-520.8918,-86.116206)">
    <path
       style="fill:#241c1c;fill-opacity:1;stroke:none"
       d="m 581.92857,258.79076 -7.14286,40.71428 51.42857,2.14286 56.07143,-58.57143 -25,-10.71428 z"
       id="path3025"
       inkscape:connector-curvature="0" />
    <path
       style="fill:#deaa87;fill-opacity:1;stroke:none"
       d="m 578.61681,118.72869 c 0,0 -18.86344,22.82754 -21.71828,36.61803 -0.88998,4.29911 1.01015,13.13198 1.01015,13.13198 0,0 -1.02842,2.71021 -1.01016,3.78808 0.0263,1.55197 2.02031,2.27284 2.02031,2.27284 0,0 -11.23187,9.96799 -8.83884,20.45559 2.98499,13.08186 11.36422,40.65864 11.36422,40.65864 l 60.10408,4.54569 39.90102,-52.52794 -1.51522,-56.56854 -52.02286,-26.76904 z"
       id="path3051"
       inkscape:connector-curvature="0"
       sodipodi:nodetypes="cscscscccccc" />
    <path
       style="fill:#b4754b;fill-opacity:1;stroke:none"
       d="m 599.3125,153.3125 c 0,0 -6.50593,0.10605 -9.75,2.53125 -1.53011,1.14387 -1.29856,4.95129 -1.21875,5.5625 2.28232,17.47887 0.875,28.53125 0.875,28.53125 0,0 3.79727,-1.00762 5.3125,-0.25 1.51523,0.75761 3.5985,5.57274 1.875,7.46875 -2.03408,2.23769 -8.9375,-1.40625 -8.9375,-1.40625 0,0 -3.42814,3.27871 -7.46875,3.53125 -4.04061,0.25254 -7.6875,-3.53125 -7.6875,-3.53125 0,0 -1.2584,3.17274 -3.53125,1.53125 -1.94222,-1.40271 -1.53125,2 -1.53125,2 0,0 4.28712,4.04141 6.8125,3.03125 2.52538,-1.01015 3.54806,2.03125 8.09375,2.03125 4.54568,0 8.32852,-3.03379 9.84375,-2.78125 1.51523,0.25254 4.53205,2.91386 7.5625,2.15625 3.03046,-0.75762 4.89308,-5.15159 4.8125,-6.84375 -0.0534,-1.12157 -2.32735,-7.62284 -5.5,-9.90625 -1.48902,-5.76111 -3.73947,-13.16744 -3.59375,-14.1875 0.25254,-1.76776 2.53125,-0.5 2.53125,-0.5 0,0 10.94575,4.78767 8.01792,2.11945 -2.6192,-2.8987 -2.29749,-4.45223 -2.58042,-7.43195 0,0 -3.43575,-1.13389 -6.71875,-0.25 -1.85714,0.5 -2.90625,0.25 -2.90625,0.25 0,0 -0.90295,0.38943 0.65625,-2.03125 3.9445,-6.12388 20.6329,1.23243 20.1875,3.28125 l 1.28125,-1 c 0,0 -6.69337,-6.67989 -9.21875,-7.4375 -2.52539,-0.75762 -6.43322,-1.54013 -9.96875,-0.65625 0,-2.52538 2.75,-5.8125 2.75,-5.8125 z m 2.28125,6.59375 -0.375,1.875 c -1.89404,-0.46976 -3.48223,-0.12267 -5.25,1 1.39846,-2.72704 3.76069,-2.7903 5.625,-2.875 z m 17.5625,5.78125 c 0,0 3.17435,2.55178 2.77998,4.06631 -0.21887,0.84056 -2.27998,0.62119 -2.27998,0.62119 L 617.125,171 c 0.45936,1.25427 0.10074,0.10727 -2.51269,0.0677 0,0 -0.45209,3.40752 -2.21986,3.78633 -1.76776,0.37881 -4.55235,0.25127 -4.55235,0.25127 3.33859,1.73333 6.30268,2.29717 8.90689,0.99746 1.97416,-0.98526 3.20616,-1.93188 2.65926,-3.69654 0,0 4.72193,-0.006 4.09058,-1.26856 C 622.86549,169.875 629.5,170.875 629.5,170.875 c -3.73536,-1.15429 -7.11127,-3.02745 -10.34375,-5.1875 z"
       id="path3057"
       inkscape:connector-curvature="0"
       sodipodi:nodetypes="csscsscscscssssscscccscsccscccccccscccscscscc" />
    <path
       style="fill:#782121;fill-opacity:1;stroke:none"
       d="m 590.4861,148.52819 c -0.13776,2.56066 1.51523,6.81853 3.03046,7.07107 1.51522,0.25254 7.97833,-2.90194 12.12183,-2.77792 5.08553,0.1522 14.64721,4.29315 14.64721,4.29315 0,0 -0.88388,-7.44988 -5.55584,-11.11168 -3.48196,-2.7291 -6.52657,-4.11258 -10.22779,-4.41941 -4.01849,-0.33313 -8.53404,0.46253 -11.74303,2.90418 -1.22981,0.93574 -2.18982,2.49751 -2.27284,4.04061 z"
       id="path3053"
       inkscape:connector-curvature="0"
       sodipodi:nodetypes="ssacsass" />
    <path
       style="fill:#b4754b;fill-opacity:1;stroke:none"
       d="m 582.40625,155.59375 c -0.37881,0.12627 -1.375,1.90625 -1.375,1.90625 0,0 -2.40705,-1.40245 -5.4375,-1.78125 -3.03046,-0.37881 -6.08429,5.42556 -9.84375,6.6875 -2.66973,0.89615 -7.11168,1.06885 -8.4375,0.4375 0,0 0.46875,3.23223 0.46875,5 0,1.76776 2.01856,0.50127 3.28125,0.375 1.26269,-0.12627 0.004,3.40117 -0.375,3.90625 -0.37881,0.50508 -2.01856,0.0275 -3.28125,0.40625 -1.26269,0.37881 1.75,1.875 1.75,1.875 3.19859,-1.17833 2.21949,2.04824 8.59375,2.03125 3.54175,-0.36525 8.96875,-5.8125 8.96875,-5.8125 0,0 -2.27217,11.76437 -4.60747,17.8095 -5.72816,3.18798 -4.73374,6.37102 -4.98628,7.0655 -0.50508,1.38896 1.77237,-2.52491 2.65625,-3.15625 0.88388,-0.63135 2.77871,0.13975 3.03125,1.78125 0.25254,1.6415 1.875,-3.5625 1.875,-3.5625 0,0 8.09755,-35.09502 7.71875,-34.96875 z m -13.5,8.15625 0.53125,1.1875 c -1.10795,0.22635 -1.99133,1.23869 -2.86607,2.28125 -0.0119,-1.00744 0.41528,-2.41667 2.33482,-3.46875 z m 4.90625,4.09375 c 0,0 -0.61039,6.44069 -5.90625,7.28125 -1.00544,0.15958 -2.42411,-4.14286 -2.42411,-4.14286 0,0 1.8413,-2.07208 3.86161,-2.45089 2.0203,-0.37881 4.46875,-0.6875 4.46875,-0.6875 z"
       id="path3000"
       inkscape:connector-curvature="0"
       sodipodi:nodetypes="scsscssccccccssscscccccscsc" />
    <path
       style="fill:#782121;fill-opacity:1;stroke:none"
       d="m 557.65614,158.88226 c 0.28826,-1.4413 14.77703,-0.3966 17.17259,0.75761 2.59399,1.24982 3.03046,-6.56599 3.03046,-6.56599 0,0 -2.52538,-6.56599 -4.79822,-7.07107 -2.27285,-0.50508 -13.63706,1.26269 -14.89975,2.02031 -1.26269,0.75761 -5.55584,8.08122 -4.29315,9.09137 1.26269,1.01015 3.78807,1.76777 3.78807,1.76777 z"
       id="path3055"
       inkscape:connector-curvature="0"
       sodipodi:nodetypes="cscsssc" />
    <path
       style="fill:#000000;fill-opacity:1;stroke:none"
       d="m 593.76909,166.71094 c 0,0 3.68239,-0.96563 5.55584,-0.88388 5.20126,0.22694 15.15229,3.78807 15.15229,3.78807 l -0.12627,-1.2627 c 0,0 -5.44448,-3.86084 -8.5863,-4.79822 -2.87072,-0.8565 -6.22106,-1.83337 -8.9651,-0.63134 -1.48116,0.64882 -3.03046,3.78807 -3.03046,3.78807 z"
       id="path3059"
       inkscape:connector-curvature="0"
       sodipodi:nodetypes="caccaac" />
    <path
       sodipodi:type="arc"
       style="fill:#f2f2f2;fill-opacity:1;stroke:none"
       id="path3086"
       sodipodi:cx="231.07239"
       sodipodi:cy="163.99615"
       sodipodi:rx="1.0101526"
       sodipodi:ry="0.94701803"
       d="m 232.08254,163.99615 a 1.0101526,0.94701803 0 1 1 -2.0203,0 1.0101526,0.94701803 0 1 1 2.0203,0 z"
       transform="translate(367.36866,-0.06313453)" />
    <path
       style="fill:#000000;fill-opacity:1;stroke:none"
       d="m 576.5965,166.83721 -1.32583,-2.14657 c 0,0 -5.63847,-0.068 -7.57614,1.6415 -0.90338,0.79701 -1.19956,3.40926 -1.19956,3.40926 0,0 1.26269,-1.51523 2.27285,-1.6415 1.01015,-0.12626 7.82868,-1.26269 7.82868,-1.26269 z"
       id="path2998"
       inkscape:connector-curvature="0"
       sodipodi:nodetypes="ccacsc" />
    <path
       transform="matrix(0.84375001,0,0,0.86666667,373.55785,24.833476)"
       d="m 232.08254,163.99615 a 1.0101526,0.94701803 0 1 1 -2.0203,0 1.0101526,0.94701803 0 1 1 2.0203,0 z"
       sodipodi:ry="0.94701803"
       sodipodi:rx="1.0101526"
       sodipodi:cy="163.99615"
       sodipodi:cx="231.07239"
       id="path3005"
       style="fill:#f2f2f2;fill-opacity:1;stroke:none"
       sodipodi:type="arc" />
    <path
       style="fill:#b4754b;fill-opacity:1;stroke:none"
       d="m 635.14286,120.57647 c -7.39178,12.08333 -10.12155,24.16667 -13.92858,36.25 0,0 4.28572,6.42858 4.82143,8.75 0.53572,2.32143 -1.07142,5.17857 -1.07142,5.17857 0,0 -5.57436,3.9047 -5.71429,7.14286 -0.12482,2.88856 7.85714,13.03571 6.60714,17.14286 -1.25,4.10714 -9.10714,10.53571 -9.10714,10.53571 l 0.35714,23.39286 53.57143,0 34.82143,-52.5 -48.57143,-55.71428 z"
       id="path3016"
       inkscape:connector-curvature="0"
       sodipodi:nodetypes="ccscsscccccc" />
    <path
       style="fill:#782121;fill-opacity:1;stroke:none"
       d="m 601.21428,110.57647 c -3.39285,5 -17.85714,8.21429 -20.71428,9.10715 -2.85714,0.89285 -15.89286,18.75 -15.89286,18.75 0,0 -5.53571,-20 -2.67857,-23.39286 2.85714,-3.39286 22.85714,-18.214286 26.60714,-18.214286 3.75,0 21.42857,0.714286 21.42857,0.714286 0,0 9.75982,-5.874164 13.92858,-5.892857 9.66298,-0.04333 22.54696,14.522827 21.96428,13.035717 -0.46018,-1.17447 34.3215,7.35721 36.07143,8.03571 0.99897,0.38733 5.6814,-3.35751 8.39286,-2.32143 9.0537,3.45951 14.46428,20 15.71428,24.46429 l -62.14285,117.85714 c 0,0 -12.5,17.14286 -13.57143,18.57143 -1.07143,1.42857 1.96428,-8.57143 1.60714,-9.28572 -0.35714,-0.71428 -20.35714,22.5 -21.96429,26.60715 -1.60714,4.10714 -4.10714,16.78571 -5,14.82143 -0.89285,-1.96429 4.28572,-21.42858 2.85715,-23.21429 -0.70934,-1.82821 -6.96343,17.67138 -8.72679,24.26777 -0.68366,2.61729 -1.31128,-1.98441 -0.33177,-8.05584 0.97076,-6.01722 -0.13524,-11.77085 -1.92096,-9.27085 -1.78571,2.5 -1.9072,13.30352 -1.63034,19.97988 0.26559,6.40479 5.64557,18.61475 3.14557,18.9719 -2.5,0.35714 -13.39286,-23.21429 -14.28571,-24.46429 -0.89286,-1.25 2.32143,10.89286 0.89285,9.64286 -1.42857,-1.25 -5.89285,-12.67857 -6.07142,-14.10714 -0.17858,-1.42858 1.78571,7.14285 0.17857,7.5 -1.60715,0.35714 -4.64286,-4.28572 -5.35715,-8.92858 C 573,291.11219 569.25,286.11219 569.25,288.96933 c 0,2.85714 0.35714,5.35714 -1.60714,1.96429 -1.96429,-3.39286 -13.39286,-34.64286 -14.10715,-31.78572 -0.71428,2.85714 4.10715,14.46429 2.67857,14.46429 -1.42857,0 -6.42857,-11.25 -6.25,-14.10715 0.17858,-2.85714 -2.5,-43.39285 0,-45.53571 2.5,-2.14286 3.57144,-6.07143 3.57144,-6.07143 l 9.10714,15.17857 c 0,0 2.5,-15.35714 5.53571,-17.85714 3.03571,-2.5 20.35714,-1.96429 23.03571,-1.25 2.67858,0.71429 19.10715,10.17857 21.96429,13.39286 2.85714,3.21428 2.85714,4.28571 2.85714,4.28571 0,0 8.57143,-15.89286 11.96429,-16.42857 3.39286,-0.53571 23.96469,-7.01934 23.96469,-7.01934 l 5.17857,-39.67898 c 0,0 -8.96469,-9.73025 -12.0004,-11.69454 -3.03572,-1.96428 -15.89286,-25.71428 -18.92858,-28.39285 -3.03571,-2.67857 -8.03571,-4.82143 -8.03571,-4.82143 0,0 2.5,1.25 -3.39286,1.07143 -5.89285,-0.17857 -13.57143,-4.10715 -13.57143,-4.10715 z"
       id="path3010"
       inkscape:connector-curvature="0"
       sodipodi:nodetypes="cscsscsssaccssssccssassssssssssssccssscsccsscsc" />
    <path
       style="fill:#501616;fill-opacity:1;stroke:none"
       d="m 667.1875,120.84375 c -3.84363,-0.004 -7.99106,0.67699 -12.625,2.40625 l 22.65625,39.96875 c 0,0 -7.86833,-1.99973 -13.03125,-4.53125 -9.19557,-4.50885 -24.21875,-18.90625 -24.21875,-18.90625 2.27569,3.57529 4.23622,6.41572 5.1875,7.03125 3.03571,1.96429 8.375,10.90625 8.375,10.90625 L 653,170.03125 l -0.90625,1.625 1.25,4.09375 -2.65625,1.25 2.65625,1.78125 L 647.8125,182 c 0,0 4.12946,0.71875 3.59375,1.96875 -0.53572,1.25 -3.0625,9.8125 -3.0625,9.8125 0,0 -16.95089,10.90179 -20.34375,11.4375 -0.22796,0.036 -0.47565,0.22346 -0.75,0.46875 0,0 13.49585,12.7323 17.34375,20.9375 2.13739,4.55773 2.78125,14.84375 2.78125,14.84375 l -9.21875,-7.625 -0.40625,18.4375 -2.375,-4.40625 -4.0625,14.59375 c 0.35324,-0.32353 0.59126,-0.53622 0.625,-0.46875 0.35714,0.71429 -2.69643,10.70982 -1.625,9.28125 1.07143,-1.42857 13.59375,-18.5625 13.59375,-18.5625 0,0 2.29464,3.75 3.1875,2.5 0.89286,-1.25 11.8125,-13.9375 11.8125,-13.9375 0,0 55.52232,-3.56696 56.59375,-4.28125 1.07143,-0.71428 -15.89732,-17.49108 -15.71875,-18.5625 0.17857,-1.07143 19.99107,9.64285 23.5625,10 3.57143,0.35714 -4.08482,-3.74107 -5.15625,-4.8125 -1.07143,-1.07143 14.8125,4.45089 16.0625,4.09375 1.25,-0.35714 -16.24107,-17.15179 -19.8125,-20.1875 -3.57143,-3.03572 -0.5491,-3.0134 1.59375,-2.65625 2.14286,0.35714 29.30358,11.22768 31.625,11.40625 2.32143,0.17857 -1.43304,-2.85267 -8.21875,-5.53125 -6.78572,-2.67857 -31.98661,-39.625 -32.34375,-43.375 -0.35714,-3.75 0.1875,-28.03572 -1.0625,-32.5 -0.3865,-1.38035 -1.17702,-3.92926 -2.34375,-6.875 -5.39291,3.23641 -9.30676,2.38828 -14,-0.78125 -7.11196,-3.01655 -14.04402,-6.36719 -22.5,-6.375 z"
       id="path3392"
       inkscape:connector-curvature="0"
       sodipodi:nodetypes="sccscscccccccscccsccccccscscsssssssssssccs" />
    <path
       style="fill:#b4754b;fill-opacity:1;stroke:none"
       d="m 662.96454,185.6513 c 0,0 4.04061,-11.86929 10.85914,-13.63705 6.81853,-1.76777 13.8879,1.62462 15.65737,7.07107 4.0424,12.4426 -16.16245,33.58757 -19.44544,34.09264 -3.283,0.50508 -10.10153,9.09137 -10.10153,9.09137 0,0 1.76777,-25.50635 0.50508,-27.02158 -1.26269,-1.51522 2.52538,-9.59645 2.52538,-9.59645 z"
       id="path3012"
       inkscape:connector-curvature="0"
       sodipodi:nodetypes="csascsc" />
    <path
       style="fill:#754c31;fill-opacity:1;stroke:none"
       d="m 666.75261,188.9343 c 0,0 2.77792,-9.09137 6.31346,-9.84898 3.53553,-0.75762 12.6269,-1e-5 12.87944,3.53553 0.25254,3.53553 -1.01015,10.35406 -3.78807,17.67767 l -14.64721,9.34391 c 0,0 9.0042,-5.92292 11.86929,-10.85915 2.59977,-4.4791 4.29315,-14.14213 3.78807,-14.89974 -0.50507,-0.75762 -11.36421,-1.76777 -11.36421,-0.75761 0,1.01015 4.98965,2.76822 4.29314,4.79822 -0.61088,1.78042 -5.55584,1.01015 -5.55584,1.01015 0,0 -2.27284,4.29315 0.50508,5.80838 2.77792,1.51523 2.52538,7.57614 0.75762,8.33376 -1.76777,0.75761 -8.5863,2.77792 -8.5863,2.77792 0,0 4.54569,-4.04061 5.05076,-5.80838 0.50508,-1.76777 -1.51523,-11.11168 -1.51523,-11.11168 z"
       id="path3786"
       inkscape:connector-curvature="0"
       sodipodi:nodetypes="cssccscsacsscsc" />
    <path
       style="fill:#504416;fill-opacity:1;stroke:none"
       d="m 678.87444,240.45208 c 0,0 -12.87944,-3.78807 -17.17259,0 -10.17685,11.3601 -16.50308,23.85023 -20.20305,38.3858 l 16.92005,2.52538 z"
       id="path3009"
       inkscape:connector-curvature="0"
       sodipodi:nodetypes="ccccc" />
    <path
       style="fill:#c8ab37;fill-opacity:1;stroke:none"
       d="m 639.07143,271.6479 c 0.89286,-1.42857 16.24999,-1.96428 15.71428,0.71429 0,0 -3.92857,18.21428 -7.14285,19.28571 -3.21429,1.07143 -12.85714,2.14286 -15.35714,-1.07142 -1.09633,-1.40956 4.10714,-15.89287 6.78571,-18.92858 z"
       id="path3795"
       inkscape:connector-curvature="0"
       sodipodi:nodetypes="ccssc" />
    <path
       style="fill:#504416;fill-opacity:1;stroke:none"
       d="m 635.85714,289.1479 c 4.82143,1.25 10.17857,0.53572 11.42857,-0.17857 1.25,-0.71428 5.17857,-14.10714 5.17857,-14.10714 0,0 -2.67857,4.28571 -3.03571,5.53571 -0.35714,1.25 -1.42857,8.03572 -4.10714,7.67857 -2.67857,-0.35714 -8.39286,-0.71428 -9.28572,-1.78571 -0.80023,-0.96028 -0.17857,2.85714 -0.17857,2.85714 z"
       id="path3797"
       inkscape:connector-curvature="0"
       sodipodi:nodetypes="cscsssc" />
    <path
       style="fill:#501616;fill-opacity:1;stroke:none"
       d="m 565.8141,236.77371 2.0042,2.20462 -1.20252,-15.63273 1.80378,3.60755 1.40293,-2.40503 c 0,0 2.40504,7.41552 3.20672,7.41552 0.80168,0 1.40293,-8.01678 1.40293,-8.01678 l 1.80378,1.60336 1.40294,-1.40294 4.20881,-1.0021 0.80168,2.40504 1.20251,-2.0042 2.80588,6.81427 1.60335,-5.21091 1.40294,2.40503 1.0021,-2.60545 3.00629,5.41133 0.80168,-5.41133 3.20671,0.40084 1.40294,4.60965 0.40084,-3.60756 2.20461,2.80588 0.80168,-3.40713 2.80588,0.80167 1.80377,5.41133 0.80168,-3.00629 2.80587,-1.0021 3.60756,6.01259 5.61174,14.83105 1.40294,-11.74347 1.20252,18.63902 -0.20042,2.20462 -1.40294,-2.20462 -0.20042,2.20462 -10.2214,-21.84573 -1.40293,2.60545 -1.20252,2.80587 -3.00629,-7.2151 -1.0021,-0.20042 -0.20042,4.00839 -3.40713,-4.00839 -0.40084,3.00629 -2.60546,-4.60965 -2.40503,-0.60125 0.60126,6.61384 -5.01049,-6.01259 -0.40084,2.20462 -1.60336,-2.40503 -0.80168,6.61384 -3.80797,-7.81636 -0.80168,2.40503 -1.00209,-2.60545 -4.20881,1.20252 -1.40294,1.00209 -0.80168,-0.80167 -1.60336,8.01678 -3.80797,-8.01678 -0.60126,2.60545 -2.60545,-3.20671 1.80378,16.4344 z"
       id="path3066"
       inkscape:connector-curvature="0"
       sodipodi:nodetypes="cccccsccccccccccccccccccccccccccccccccccccccccccccccccccccccc" />
  </g>
</svg>
