<?xml version="1.0" encoding="UTF-8" standalone="no"?>
<!-- Created with Inkscape (http://www.inkscape.org/) -->

<svg
   xmlns:dc="http://purl.org/dc/elements/1.1/"
   xmlns:cc="http://creativecommons.org/ns#"
   xmlns:rdf="http://www.w3.org/1999/02/22-rdf-syntax-ns#"
   xmlns:svg="http://www.w3.org/2000/svg"
   xmlns="http://www.w3.org/2000/svg"
   xmlns:sodipodi="http://sodipodi.sourceforge.net/DTD/sodipodi-0.dtd"
   xmlns:inkscape="http://www.inkscape.org/namespaces/inkscape"
   width="68"
   height="68"
   id="svg3414"
   version="1.1"
   inkscape:version="0.48.3.1 r9886"
   sodipodi:docname="knight.svg">
  <title
     id="title4823">knight</title>
  <defs
     id="defs3416" />
  <sodipodi:namedview
     id="base"
     pagecolor="#ffffff"
     bordercolor="#666666"
     borderopacity="1.0"
     inkscape:pageopacity="0.0"
     inkscape:pageshadow="2"
     inkscape:zoom="2.555516"
     inkscape:cx="48.823568"
     inkscape:cy="-7.0793331"
     inkscape:document-units="px"
     inkscape:current-layer="layer1"
     showgrid="false"
     inkscape:snap-nodes="false"
     inkscape:object-paths="true"
     fit-margin-top="0"
     fit-margin-left="0"
     fit-margin-right="0"
     fit-margin-bottom="0"
     inkscape:window-width="1301"
     inkscape:window-height="744"
     inkscape:window-x="65"
     inkscape:window-y="24"
     inkscape:window-maximized="1" />
  <metadata
     id="metadata3419">
    <rdf:RDF>
      <cc:Work
         rdf:about="">
        <dc:format>image/svg+xml</dc:format>
        <dc:type
           rdf:resource="http://purl.org/dc/dcmitype/StillImage" />
        <dc:title>knight</dc:title>
        <dc:date>2011-04-21</dc:date>
        <dc:creator>
          <cc:Agent>
            <dc:title>tzunghaor (Prim András)</dc:title>
          </cc:Agent>
        </dc:creator>
        <cc:license
           rdf:resource="http://creativecommons.org/licenses/publicdomain/" />
        <dc:publisher>
          <cc:Agent>
            <dc:title>openclipart.org</dc:title>
          </cc:Agent>
        </dc:publisher>
        <dc:subject>
          <rdf:Bag>
            <rdf:li>knight</rdf:li>
            <rdf:li>fighter</rdf:li>
            <rdf:li>soldier</rdf:li>
            <rdf:li>warrior</rdf:li>
            <rdf:li>sword</rdf:li>
            <rdf:li>weapon</rdf:li>
            <rdf:li>armour</rdf:li>
            <rdf:li>plate mail</rdf:li>
            <rdf:li>medieval</rdf:li>
            <rdf:li />
          </rdf:Bag>
        </dc:subject>
      </cc:Work>
      <cc:License
         rdf:about="http://creativecommons.org/licenses/publicdomain/">
        <cc:permits
           rdf:resource="http://creativecommons.org/ns#Reproduction" />
        <cc:permits
           rdf:resource="http://creativecommons.org/ns#Distribution" />
        <cc:permits
           rdf:resource="http://creativecommons.org/ns#DerivativeWorks" />
      </cc:License>
    </rdf:RDF>
  </metadata>
  <g
     inkscape:label="1. réteg"
     inkscape:groupmode="layer"
     id="layer1"
     transform="translate(-451.8753,-299.85322)">
    <path
       inkscape:connector-curvature="0"
       style="fill:#808080;fill-opacity:1;stroke:none;display:inline"
       d="m 490.92354,351.72364 -0.375,1.4375 c 4.81456,-0.26368 6.4434,0.65651 7.15625,2.5625 0.11247,0.30072 1.875,-0.5 1.875,-0.5 -0.86616,-2.13917 -1.97573,-2.89271 -8.65625,-3.5 z m -1.125,0.78125 c 0,0 -13.0142,2.33276 -17.40625,6.75 -0.81882,0.82352 -1.75452,2.34327 -1.25,3.03125 l 7.4375,0.375 11.21875,-10.15625 z"
       id="path3851" />
    <path
       inkscape:connector-curvature="0"
       style="fill:#4d4d4d;fill-opacity:1;stroke:none;display:inline"
       d="m 489.79854,352.50489 0.15625,10.46875 8.625,-7.46875 c 0,0 -1.37842,-1.5144 -2.28379,-1.93242 -1.99271,-0.92007 -6.49746,-1.06758 -6.49746,-1.06758 z m -11.40625,4.28125 c -2.509,1.18557 -4.7578,2.26459 -5.49346,5.34173 l 5.18096,2.31452 z"
       id="path3858"
       sodipodi:nodetypes="cccsccccc" />
    <path
       inkscape:connector-curvature="0"
       style="fill:#deaa87;fill-opacity:1;stroke:none;display:inline"
       d="m 476.73766,366.63584 16.05281,-0.64211 -1.83461,-22.56567 -14.12647,8.07227"
       id="path3841"
       sodipodi:nodetypes="cccc" />
    <path
       inkscape:connector-curvature="0"
       style="fill:#784421;fill-opacity:1;stroke:none;display:inline"
       d="m 490.95479,343.44239 -14.125,8.0625 -0.0312,5.53125 c 2.79006,0.78625 5.9744,1.06299 9.46875,0.65625 2.0686,-0.24078 3.98724,-0.64932 5.75,-1.21875 l -1.0625,-13.03125 z"
       id="path4460" />
    <path
       sodipodi:nodetypes="cssccsss"
       id="path3958"
       d="m 466.25725,309.14954 c 0,0 0.33139,2.15669 0.40549,3.24388 0.15628,2.29257 -0.57084,4.71406 -0.32438,7.05541 l 0.48657,4.62252 39.16976,4.54142 c 0.94612,-6.10929 3.95888,-10.80548 3.56825,-17.96294 -0.14459,-2.64933 -14.01828,-9.05719 -21.57174,-9.28558 -7.6919,-0.23257 -21.87619,6.64726 -21.73395,7.78529 z"
       style="fill:#502d16;fill-opacity:1;stroke:none"
       inkscape:connector-curvature="0" />
    <path
       style="fill:#deaa87;fill-opacity:1;stroke:none"
       d="m 488.18275,308.43002 c -3.88258,0.16581 -7.62068,1.50349 -11.10656,2.95987 -5.88738,2.45971 -9.99422,8.1812 -11.30388,13.50264 -0.0469,0.19071 -0.0458,0.3772 -0.0845,0.56379 l 0.0845,0 c -0.0311,0.0757 -1.15426,2.81086 -0.45103,4.62303 0.27233,0.70178 1.41394,3.47626 1.15576,4.14382 -0.95701,2.47444 -0.38727,4.61894 -0.0281,7.30101 0.41525,3.10138 -0.44496,6.46307 0.0281,9.55615 0.3996,2.61232 1.03847,1.79842 2.48065,3.77736 3.75242,5.14897 11.73646,4.90421 16.37795,1.40946 2.32289,-1.74899 10.93831,-3.55072 10.96561,-6.87817 0.0317,-3.85429 0.55561,-5.79896 2.25514,-8.4004 1.89388,-1.44144 5.722,-4.57196 7.35739,-7.63928 3.20569,-6.01258 1.02337,-16.76695 -7.8648,-22.29768 -2.76245,-1.71897 -5.48741,-2.49011 -8.17488,-2.6216 -0.55989,-0.0274 -1.1367,-0.0237 -1.69135,0 z"
       id="path3960"
       inkscape:connector-curvature="0" />
    <path
       sodipodi:nodetypes="cscccccccccccccccscsscccccccsccccsccccccc"
       id="path3962"
       d="m 473.06411,344.09561 c -1.71574,0.0149 -3.35352,1.22614 -3.74105,2.45482 -0.69686,2.20942 -1.17213,7.13713 -1.17213,7.13713 l 0.68374,-0.23443 0.57629,4.30759 0.97679,1.31865 0.16605,-0.6349 4.24898,3.55547 0.0586,-0.74236 0.91817,0.85957 0.10745,-0.69352 3.67268,-1.5433 -0.16605,0.62514 3.20383,-2.46149 0.11721,0.34188 0.51769,-5.39181 0.28327,0.17582 c 0,0 -0.28984,-4.16245 -1.42609,-5.79229 -0.29435,-0.42221 -1.03539,-0.85957 -1.03539,-0.85957 -1.12565,-1.53072 -2.17706,-1.51756 -3.43825,-2.0317 -0.8702,-0.35473 -2.65173,-0.33384 -3.7899,-0.38093 -0.26335,-0.0109 -0.51679,-0.0119 -0.76189,-0.01 l 0,-10e-6 z m 3.97549,5.17691 c 1.38358,0.79208 1.86581,1.59084 1.8874,2.49078 l 0.0873,2.47062 c -0.43294,0.30315 -0.62545,0.55896 -0.91976,0.40111 l -0.50793,-0.51769 c -0.12883,0.48377 -0.34523,0.44222 -0.54699,0.48839 0,0 -0.27826,-1.10669 -0.57631,-1.58238 -0.24084,-0.38439 -0.94747,-0.97677 -0.94747,-0.97677 l -0.42221,0.26027 c -0.50352,-0.38094 -0.92585,-0.356 -1.35552,-0.36773 l -1.14283,1.88519 c -0.33313,0.24847 -0.70467,0.62875 -1.05775,0.34911 -0.68351,-0.54133 -0.76971,-1.58304 -0.77859,-2.43942 0.37443,-0.78468 -0.0961,-1.67498 1.12329,-2.35403 0.94449,0.0542 1.74374,0.0115 2.89253,0.20196 l 0.11343,-0.0794 2.15144,-0.22998 -10e-6,-2e-5 z"
       style="fill:#502d16;fill-opacity:1;stroke:none"
       inkscape:connector-curvature="0" />
    <path
       inkscape:connector-curvature="0"
       sodipodi:nodetypes="csccccc"
       id="path3968"
       d="m 468.52797,315.2318 c 0,0 1.03888,2.82777 5.75787,3.00058 5.20947,0.19078 11.06633,-4.08396 15.57059,-1.45974 l 13.24109,1.83689 -3.23039,-12.90212 -30.13908,2.41905 z"
       style="fill:#502d16;fill-opacity:1;stroke:none" />
    <path
       inkscape:connector-curvature="0"
       sodipodi:nodetypes="cccscccc"
       id="path3970"
       d="m 490.84281,310.24027 c 10.76173,2.27003 13.27872,0.89233 18.72014,0.40956 0.54229,0.5132 0.69393,1.12407 0.81097,1.74358 0,0 -0.46058,13.0549 -3.04113,20.31475 -0.8643,2.43152 -4.58197,5.71732 -4.58197,5.71732 -1.0795,-8.71098 -4.73977,-4.55924 -6.4689,-5.36432 -0.58744,-4.28222 -2.07965,-14.15731 -6.42549,-16.28852 0.97927,-1.72212 1.52943,-3.74462 0.98638,-6.53237 z"
       style="fill:#28170b;fill-opacity:1;stroke:none" />
    <path
       inkscape:export-ydpi="72"
       inkscape:export-xdpi="72"
       inkscape:export-filename="/home/bandi/tmp/fej.png"
       sodipodi:nodetypes="czscc"
       id="path3972"
       d="m 497.68226,334.73559 c 0.0811,-1.74357 2.39236,-5.39294 4.70361,-4.78471 2.31126,0.60823 2.60956,6.29227 0.77042,8.43407 -1.8243,2.12451 -3.63479,3.84895 -5.35239,2.87893 l -0.12164,-6.52829 z"
       style="fill:#deaa87;fill-opacity:1;stroke:none"
       inkscape:connector-curvature="0" />
    <path
       inkscape:export-ydpi="72"
       inkscape:export-xdpi="72"
       inkscape:export-filename="/home/bandi/tmp/fej.png"
       sodipodi:nodetypes="cscsscs"
       id="path3974"
       d="m 499.26364,335.38437 c -0.36187,-1.31328 1.16015,-3.5889 2.6762,-3.68991 1.34388,-0.0896 1.51553,1.97757 1.45975,1.98687 0,0 -1.09022,-0.82433 -1.70304,-0.40549 -1.48817,1.01715 -0.14787,4.12012 -1.50029,5.31184 -0.32514,0.28651 -1.29755,0.0811 -1.29755,0.0811 0.73535,-0.71978 0.78071,-1.77559 0.36493,-3.28442 z"
       style="opacity:0.5;fill:#000000;fill-opacity:1;stroke:none"
       inkscape:connector-curvature="0" />
    <path
       inkscape:connector-curvature="0"
       id="path3978"
       d="m 466.62556,328.00808 c 0.66683,1.17287 2.00558,2.39456 3.32104,2.43217 l 1.62146,1.13307 c 0.55043,0.93014 -1.60996,1.49083 -2.07077,1.01584 0,0 0.40678,0.48932 0.69351,0.52746 0.63694,0.0847 1.7875,-0.73258 1.7875,-0.73258 -0.0973,0.97267 -1.1483,2.6299 -1.65075,3.28197 0.62644,-0.61775 2.20942,-2.08851 2.37357,-2.54939 0.46457,-1.3044 0.71316,-2.12247 1.14225,-3.52616 0.11486,-0.37574 -0.13567,-1.10642 -0.52746,-1.13602 l -6.69035,-0.44636 z m 3.70199,7.65793 c -0.17845,0.17598 -0.28993,0.29226 -0.25396,0.28327 0.0325,-0.008 0.12803,-0.11984 0.25396,-0.28327 z m 13.69442,-7.13047 -6.93512,0.32233 c 0,0 0.0372,2.50248 0.64467,3.24291 0.91056,1.10984 2.75451,3.07684 2.75451,3.07684 -0.54606,-1.0529 -1.47258,-2.00279 -1.62145,-3.15499 1.15883,1.09266 1.77993,0.5938 2.39311,0.32234 -0.7499,0.0666 -1.48406,0.088 -2.02193,-0.69351 l 1.2112,-1.13306 c 1.18942,-0.28379 2.66943,-0.89966 3.57501,-1.98286 z"
       style="opacity:0.5;fill:#000000;fill-opacity:1;stroke:none"
       sodipodi:nodetypes="ccccsccsscccscccscccccc" />
    <path
       inkscape:connector-curvature="0"
       id="path3980"
       d="m 469.90753,325.31217 c -1.79354,0.0191 -3.69445,0.44922 -4.70806,1.07446 -0.60749,0.37472 -0.87588,3.24598 0.12698,2.95963 3.96012,-1.13073 4.82091,-0.37945 7.82398,-0.28326 0.79496,0.0255 1.22531,-2.28855 0.28327,-2.95964 -0.79849,-0.56882 -2.13118,-0.80603 -3.52617,-0.79119 z m 11.80924,0.2442 c -1.81548,-0.006 -3.50156,0.23599 -5.0011,0.62513 -0.85433,0.22171 -0.60474,3.38278 0.41025,3.11592 2.39959,-0.63088 6.73834,-0.52034 8.46866,0.2442 0.15292,0.0676 1.72581,-3.23103 0.5763,-3.4871 -1.5449,-0.34414 -3.04207,-0.49381 -4.45411,-0.49815 z"
       style="fill:#000000;fill-opacity:1;stroke:none" />
    <path
       id="path3982"
       d="m 470.43499,329.92256 c -0.15197,0.0209 -0.31766,0.0853 -0.48839,0.19536 -0.57697,0.3717 -0.5981,0.75461 -0.64468,1.13307 l -0.81072,0.32233 c 1.92127,-0.0497 2.6104,-0.0186 2.92057,0.0391 l 0.6056,0.52746 c 0.071,-0.55668 -0.51857,-2.36335 -1.58238,-2.21729 z m 9.22078,0.0293 c -0.52765,0.0759 -0.84841,0.85354 -0.98655,1.17213 l -0.44931,0.44933 c 1.3065,-0.0132 2.40593,0.10501 3.80943,0.3614 l -0.97678,-0.48839 c 0,0 -0.25795,-1.45248 -1.28934,-1.49447 -0.037,-0.002 -0.0723,-0.005 -0.10745,0 z"
       style="fill:#000000;fill-opacity:1;stroke:none"
       inkscape:connector-curvature="0" />
    <path
       d="m 304.85682,131.11078 a 0.64863157,0.84322101 0 1 1 -1.29726,0 0.64863157,0.84322101 0 1 1 1.29726,0 z"
       sodipodi:ry="0.84322101"
       sodipodi:rx="0.64863157"
       sodipodi:cy="131.11078"
       sodipodi:cx="304.20819"
       id="path3986"
       style="fill:#ffffff;fill-opacity:1;stroke:none"
       sodipodi:type="arc"
       transform="matrix(0.31256879,0,0,0.31256879,375.02337,289.67933)" />
    <path
       transform="matrix(0.31256879,0,0,0.31256879,384.22785,289.67933)"
       sodipodi:type="arc"
       style="fill:#ffffff;fill-opacity:1;stroke:none"
       id="path3988"
       sodipodi:cx="304.20819"
       sodipodi:cy="131.11078"
       sodipodi:rx="0.64863157"
       sodipodi:ry="0.84322101"
       d="m 304.85682,131.11078 a 0.64863157,0.84322101 0 1 1 -1.29726,0 0.64863157,0.84322101 0 1 1 1.29726,0 z" />
    <path
       inkscape:connector-curvature="0"
       id="path3992"
       d="m 471.99223,344.22342 1.26157,0.97485 1.51962,0.34407 1.92103,-1.08954 2.00704,-0.14336 0.34406,-1.69165 -2.32243,-2.1504 -5.50504,0.60211 -0.94617,2.52314 0.7168,0.68813 1.00352,-0.0574 z"
       style="fill:#deaa87;fill-opacity:1;stroke:none" />
    <path
       inkscape:connector-curvature="0"
       sodipodi:nodetypes="ccsssccssscscscc"
       id="path3995"
       d="m 476.7593,331.89719 c 0.8526,2.86445 0.21244,5.82841 -0.52713,8.79901 1.67278,0.63068 3.09289,2.20145 2.14906,3.08168 -0.60175,0.5612 -1.15904,0.34806 -1.86523,0.20273 -0.72704,-0.14961 -1.54507,1.33907 -2.4329,1.21646 -1.98346,-0.27393 -1.31502,-1.54812 -2.14906,-1.37865 -1.27021,0.59088 -2.05448,-0.12039 -1.21645,-1.29755 0,0 -0.71971,1.09496 -0.36494,1.66249 0.31977,0.51154 0.61778,0.19668 1.41919,0.44603 1.1594,0.36073 1.74101,1.13462 2.91949,1.1759 1.22147,0.0428 1.55012,-0.95166 2.47345,-1.05426 1.3463,-0.0291 1.91752,0.36031 2.18961,-0.93261 0.22515,-1.06984 -0.33595,-2.46515 -2.10851,-3.24387 0,0 1.26462,-3.45125 1.13535,-5.23075 -0.0837,-1.15178 -1.21645,-3.24387 -1.21645,-3.24387 l -0.40548,-0.20274 z"
       style="fill:#6f5543;fill-opacity:1;stroke:none" />
    <path
       sodipodi:nodetypes="csscscc"
       id="path3997"
       d="m 471.92055,350.88967 c 0.37039,0.1571 0.52526,0.0307 0.79437,-0.0641 1.52889,-0.53846 3.03666,0.0382 4.51036,0.43017 0.34875,0.0928 0.48239,-0.0578 0.83108,-0.065 0,0 -0.36295,0.78111 -0.75981,0.68812 -1.5146,-0.35482 -3.02012,-0.82153 -4.53017,-0.45875 -0.25805,0.12903 -0.64514,-0.24371 -0.84583,-0.53043 z"
       style="opacity:0.5;fill:#000000;fill-opacity:1;stroke:none"
       inkscape:connector-curvature="0" />
    <path
       sodipodi:nodetypes="cccsccccccccccccccccccccccsccccccccccccccccccccccccccsccc"
       id="path4000"
       d="m 480.90605,346.32266 c 1.63313,2.82173 1.89802,5.83005 1.86564,8.8789 -0.80563,-0.36211 -1.63622,-0.73671 -2.29543,-1.02561 0.442,0.78107 1.38604,1.49042 1.31865,2.34426 -0.1194,1.51296 -1.04422,1.73501 -1.63122,2.50055 l -0.31257,-0.72281 c -0.75305,0.28699 -1.49793,0.54132 -2.32473,1.12329 l -0.31256,-0.91817 c -0.24013,0.52149 -0.62814,0.94439 -0.66421,1.60192 -0.66554,0.70314 -1.5504,0.30966 -2.35404,0.32233 l -0.31257,-0.66421 c -1.15586,-0.0585 -1.91062,-0.94738 -2.92497,-1.57198 l -0.46099,-0.77763 -0.63836,0.95282 0.52746,0.71305 0.16605,-0.6349 4.24899,3.55547 0.0586,-0.74236 0.91818,0.85957 0.10744,-0.69352 3.67268,-1.5433 -0.16605,0.62514 3.20383,-2.46149 0.11722,0.34188 0.51769,-5.39181 0.28327,0.17582 c 0,0 -0.28985,-4.16245 -1.4261,-5.79229 -0.29434,-0.42221 -1.03538,-0.85957 -1.03538,-0.85957 -0.0503,-0.0684 -0.0965,-0.13299 -0.14652,-0.19535 z m -8.96682,2.19774 c -0.42596,0.49392 -0.82201,1.10748 -1.31865,1.31866 l -0.26373,-0.50792 c -0.13031,1.20789 -0.38977,2.32969 -0.97678,3.23313 l -0.16606,-0.74235 c -0.29922,0.62966 -0.68219,0.92434 -1.05492,1.26004 -0.005,0.26031 -0.01,0.6056 -0.01,0.6056 l 0.68375,-0.23443 0.0391,0.31257 1.23074,-0.68374 1.07445,0.68374 c -0.35542,-0.56919 -0.41303,-1.3583 -0.42001,-2.0317 0.37443,-0.78468 -0.0961,-1.67498 1.12329,-2.35403 0.94449,0.0542 1.74247,0.0147 2.89126,0.20512 l 0,-0.28326 c -1.03492,0.0237 -0.0659,-0.26204 -2.60801,-0.26372 L 471.939,348.5204 z m 3.43825,3.64338 0.94748,2.87173 0.37117,0.45908 0.14652,-0.6349 0.22466,0.11721 -0.0195,-0.37117 c -0.004,5.4e-4 -0.006,-5.4e-4 -0.01,0 0,0 -0.27825,-1.10669 -0.5763,-1.58238 -0.20018,-0.3195 -0.64997,-0.71229 -0.82049,-0.85957 l -0.26373,0 -2e-5,0 z"
       style="fill:#28170b;fill-opacity:1;stroke:none"
       inkscape:connector-curvature="0" />
  </g>
</svg>
