<?xml version="1.0" encoding="UTF-8" standalone="no"?>
<!-- Created with Inkscape (http://www.inkscape.org/) -->

<svg
   xmlns:dc="http://purl.org/dc/elements/1.1/"
   xmlns:cc="http://creativecommons.org/ns#"
   xmlns:rdf="http://www.w3.org/1999/02/22-rdf-syntax-ns#"
   xmlns:svg="http://www.w3.org/2000/svg"
   xmlns="http://www.w3.org/2000/svg"
   xmlns:sodipodi="http://sodipodi.sourceforge.net/DTD/sodipodi-0.dtd"
   xmlns:inkscape="http://www.inkscape.org/namespaces/inkscape"
   width="250"
   height="250"
   id="svg2"
   version="1.1"
   inkscape:version="0.48.3.1 r9886"
   sodipodi:docname="robot.svg"
   style="display:inline">
  <title
     id="title4055">robot</title>
  <defs
     id="defs4">
    <inkscape:perspective
       sodipodi:type="inkscape:persp3d"
       inkscape:vp_x="0 : 526.18109 : 1"
       inkscape:vp_y="0 : 1000 : 0"
       inkscape:vp_z="744.09448 : 526.18109 : 1"
       inkscape:persp3d-origin="372.04724 : 350.78739 : 1"
       id="perspective10" />
    <inkscape:perspective
       id="perspective3779"
       inkscape:persp3d-origin="0.5 : 0.33333333 : 1"
       inkscape:vp_z="1 : 0.5 : 1"
       inkscape:vp_y="0 : 1000 : 0"
       inkscape:vp_x="0 : 0.5 : 1"
       sodipodi:type="inkscape:persp3d" />
  </defs>
  <sodipodi:namedview
     id="base"
     pagecolor="#ffffff"
     bordercolor="#666666"
     borderopacity="1.0"
     inkscape:pageopacity="0.0"
     inkscape:pageshadow="2"
     inkscape:zoom="1.7178771"
     inkscape:cx="201.36799"
     inkscape:cy="98.291575"
     inkscape:document-units="px"
     inkscape:current-layer="layer2"
     showgrid="false"
     inkscape:window-width="1301"
     inkscape:window-height="744"
     inkscape:window-x="65"
     inkscape:window-y="24"
     inkscape:window-maximized="1"
     fit-margin-top="0"
     fit-margin-left="0"
     fit-margin-right="0"
     fit-margin-bottom="0" />
  <metadata
     id="metadata7">
    <rdf:RDF>
      <cc:Work
         rdf:about="">
        <dc:format>image/svg+xml</dc:format>
        <dc:type
           rdf:resource="http://purl.org/dc/dcmitype/StillImage" />
        <dc:title>robot</dc:title>
        <dc:date>2011-03-06</dc:date>
        <dc:creator>
          <cc:Agent>
            <dc:title>tzunghaor (Prim András)</dc:title>
          </cc:Agent>
        </dc:creator>
        <cc:license
           rdf:resource="http://creativecommons.org/licenses/publicdomain/" />
        <dc:publisher>
          <cc:Agent>
            <dc:title>openclipart.org</dc:title>
          </cc:Agent>
        </dc:publisher>
        <dc:subject>
          <rdf:Bag>
            <rdf:li>robot</rdf:li>
            <rdf:li>machine</rdf:li>
            <rdf:li>droid</rdf:li>
            <rdf:li />
          </rdf:Bag>
        </dc:subject>
      </cc:Work>
      <cc:License
         rdf:about="http://creativecommons.org/licenses/publicdomain/">
        <cc:permits
           rdf:resource="http://creativecommons.org/ns#Reproduction" />
        <cc:permits
           rdf:resource="http://creativecommons.org/ns#Distribution" />
        <cc:permits
           rdf:resource="http://creativecommons.org/ns#DerivativeWorks" />
      </cc:License>
    </rdf:RDF>
  </metadata>
  <g
     inkscape:groupmode="layer"
     id="layer2"
     inkscape:label="Réteg"
     transform="translate(-539.56736,-139.94644)">
    <path
       style="fill:#000000;fill-opacity:1;stroke:none"
       d="m 637.99542,142.23188 c 14.09651,-0.19422 31.6212,1.01128 46.84334,2.62403 14.88243,1.57674 26.95274,3.37463 32.50234,4.92985 0.13998,0.0168 0.27186,0.0858 0.41193,0.10475 0.0331,0.01 0.12498,0.0138 0.1576,0.0234 3.08724,0.43862 6.16961,1.37895 8.74521,3.478 6.86774,5.59703 8.63805,11.76025 9.06735,15.03872 l 0.65051,0.49969 c 0.57251,0.29442 1.15003,0.57197 1.64126,0.91995 1.71915,1.21783 3.27741,2.55848 4.73125,3.92707 0.0105,0.01 0.0223,0.0198 0.0327,0.0296 l 2.01395,1.49598 c 0.72119,0.54145 1.229,1.35971 1.39405,2.2463 7.51093,8.95997 10.83137,20.20094 11.45602,32.31673 1.12538,-0.79156 2.97424,-1.08461 4.12798,-0.67373 3.77646,1.34489 5.99288,4.46852 8.02059,7.80038 1.95455,3.21164 3.54792,6.79768 4.68312,9.90551 0.6857,0.95199 1.15101,1.98206 1.50284,3.17957 0.72198,2.4574 2.29857,8.04995 3.5858,13.65187 0.64361,2.80095 1.21514,5.57385 1.58633,8.02511 0.3712,2.45127 0.68593,4.30123 0.22788,6.49668 -0.4802,2.30139 -1.23381,5.06502 -2.65816,7.60953 -1.30704,2.33493 -3.51389,4.69225 -6.67864,5.3994 9.25615,25.36906 9.4655,53.62606 11.35705,78.97247 0.13267,1.77733 -0.47819,3.3246 -1.55806,4.55137 -0.0143,0.0162 -0.0463,0.0181 -0.0609,0.0343 0.99533,11.22464 -1.144,16.88113 -21.61569,21.62497 -12.57634,2.91427 -23.82977,-92.62953 -26.05833,-82.76884 -1.61303,7.13714 -23.20896,49.30391 -25.73147,57.8228 -2.87438,9.70718 -2.69267,26.71799 -10.44904,28.86222 -17.98128,4.97088 -35.38258,9.18261 -60.47457,6.9933 l -35.17444,-4.1533 c -3.51675,-1.04521 -6.3492,-3.07091 -8.31352,-5.50183 -2.47568,-3.06376 -3.76934,-6.6017 -4.33361,-9.79767 -2.35579,-13.34291 -4.01522,-29.43041 -5.17733,-43.26564 -1.68127,-2.79015 -3.25568,-5.72279 -4.59781,-8.81465 -0.28369,0.91855 -0.7038,2.12909 -0.94868,2.95679 -0.55019,1.85963 -0.98585,3.46942 -1.27098,4.66231 -0.28512,1.19289 -0.32456,2.29159 -0.3535,1.70707 0.0894,1.80636 -0.57673,3.91096 -1.99534,5.19879 0.32353,1.17126 -11.87379,-0.21117 -11.81131,1.0506 -12.17436,-3.59117 -11.23385,-2.64908 -13.74474,-9.76606 -0.18319,-1.306 -0.2024,-2.60546 -0.0965,-3.84368 2.04202,-23.87148 0.4368,-46.76254 9.55802,-70.46518 -0.15894,-0.0528 -0.31699,-0.0775 -0.4759,-0.13288 -1.3782,-0.48 -2.81857,-1.33167 -3.73463,-2.75617 -0.91606,-1.4245 -1.0797,-2.99881 -1.02633,-4.29825 0.10673,-2.59888 0.83881,-5.04156 1.4446,-8.73839 1.34737,-8.22238 4.55753,-18.46528 8.69637,-24.67904 2.2413,-3.36493 4.14642,-5.68778 6.24258,-7.25511 1.04808,-0.78366 2.18237,-1.42617 3.54638,-1.67744 1.364,-0.25127 2.97056,0.018 4.16631,0.73235 2.03312,1.21456 2.85383,3.04612 3.46828,4.95954 0.99292,-6.16032 2.03007,-12.02835 3.2245,-17.02405 1.73101,-7.23996 3.47966,-12.84014 6.21744,-16.60907 3.83145,-5.27448 6.99573,-8.69619 12.03402,-10.98359 3.00183,-1.36284 6.34454,-1.55328 9.24083,-1.67782 2.01742,-0.0868 2.77515,-0.0189 3.66105,0.006 4.95785,-4.4117 8.92321,-9.49759 20.70622,-14.667 0.43969,-0.18611 0.91627,-0.2846 1.39371,-0.28803 z"
       id="path3757"
       inkscape:connector-curvature="0"
       sodipodi:nodetypes="cscccsccscccccsscssscsccccssssccssccsscccccccssssssccsssccccc" />
    <path
       style="fill:#808080;fill-opacity:1;stroke:none"
       d="m 579.5406,213.82708 c -0.60055,-12.128 -3.62008,-18.30422 -12.41062,-5.10676 -3.52444,5.29135 -6.87923,15.57059 -8.14392,23.28841 -1.2647,7.71782 -2.77213,10.46093 0.93957,11.75363 6.79197,2.36549 13.44501,1.92542 20.09917,1.50782 l -0.4842,-31.4431 z"
       id="path3845"
       sodipodi:nodetypes="cszscc"
       inkscape:connector-curvature="0" />
    <path
       d="m 206.78571,252.18361 a 15.892858,16.25 0 1 1 -31.78571,0 15.892858,16.25 0 1 1 31.78571,0 z"
       sodipodi:ry="16.25"
       sodipodi:rx="15.892858"
       sodipodi:cy="252.18361"
       sodipodi:cx="190.89285"
       id="path3837"
       style="fill:#1a1a1a;fill-opacity:1;stroke:none"
       sodipodi:type="arc"
       transform="matrix(-0.80121615,0.03967347,0.03967347,0.80121615,908.93863,149.62096)" />
    <path
       d="m 206.78571,252.18361 a 15.892858,16.25 0 1 1 -31.78571,0 15.892858,16.25 0 1 1 31.78571,0 z"
       sodipodi:ry="16.25"
       sodipodi:rx="15.892858"
       sodipodi:cy="252.18361"
       sodipodi:cx="190.89285"
       id="path3806"
       style="fill:#1a1a1a;fill-opacity:1;stroke:none"
       sodipodi:type="arc"
       transform="matrix(-0.92022087,0.04556618,0.04510819,0.91097179,746.63123,-11.332844)" />
    <path
       style="fill:#ffffff;fill-opacity:1;stroke:none"
       d="m 730.11654,221.74704 0.0431,58.64105 -51.48457,101.24154 c -24.58755,1.69505 -40.62493,2.28904 -73.01528,-1.39066 -7.97658,-0.90618 -11.48563,-7.55247 -12.44247,-12.97195 -5.12868,-29.04831 -7.18795,-72.94807 -7.18795,-72.94807 l 97.20667,-87.77199 46.88054,15.20008 z"
       id="path3794"
       sodipodi:nodetypes="cccssccc"
       inkscape:connector-curvature="0" />
    <path
       style="fill:#666666;fill-opacity:1;stroke:none"
       d="m 698.52311,337.68653 c -7.82643,15.5584 -21.72503,20.32601 -34.84236,21.44738 -13.11733,1.12137 -49.43691,2.44795 -55.31068,-3.83524 -5.87377,-6.28318 -16.79212,-12.31658 -13.37604,-35.24201 0,0 18.21903,-122.26897 21.77521,-121.93936 3.55618,0.3296 118.28814,9.31362 118.28814,9.31362 l -7.63087,80.78338 -28.9034,49.47223 z"
       id="path3876"
       sodipodi:nodetypes="czzcsccc"
       inkscape:connector-curvature="0" />
    <rect
       style="fill:#1a1a1a;fill-opacity:1;stroke:none"
       id="rect3798"
       width="112.32143"
       height="16.964287"
       x="-759.26251"
       y="166.73862"
       transform="matrix(-0.99583542,-0.09116912,-0.09116912,0.99583542,0,0)" />
    <path
       style="fill:#ffffff;fill-opacity:1;stroke:none"
       d="m 569.13279,234.72452 c 8.73757,3.14315 8.96718,7.78032 8.96718,7.78032 0,0 -10.75332,71.69098 -11.21946,76.72018 -0.46613,5.02921 1.19032,9.59574 -5.64009,8.86121 -6.83039,-0.73452 -8.39932,-5.34106 -8.00304,-9.97355 2.49102,-29.12035 -0.42694,-55.6008 15.89541,-83.38816 z"
       id="path3847"
       sodipodi:nodetypes="ccsssc"
       inkscape:connector-curvature="0" />
    <path
       style="fill:#999999;fill-opacity:1;stroke:none"
       d="m 575.05204,238.72238 c 0,0 -12.85717,83.62072 -13.09024,86.13533 -0.23306,2.5146 1.37041,4.25904 5.34629,3.36498 2.65364,-0.59673 6.52301,1.38558 6.31106,-2.89489 -0.21196,-4.28047 14.55732,-45.41838 14.55732,-45.41838 l -0.80215,-37.86381 -12.32228,-3.32323 z"
       id="path3849"
       sodipodi:nodetypes="csssccc"
       inkscape:connector-curvature="0" />
    <path
       style="fill:#ffffff;fill-opacity:1;stroke:none"
       d="m 724.79354,164.79774 17.8284,13.42042 -50.83879,56.51201 -8.08321,82.28616 c 0,0 -14.62106,29.688 -38.55569,30.158 -14.3941,0.28265 -36.05258,-5.33189 -41.51572,-7.95653 -12.8203,-6.15922 -24.96559,-28.00281 -25.94474,-47.34624 -0.72086,-14.24102 5.18693,-104.67032 16.23404,-119.87814 3.73714,-5.14466 6.21283,-7.83073 10.59865,-9.8219 3.90838,-1.77442 12.80609,-1.34927 12.80609,-1.34927 5.83431,-4.93745 8.76967,-9.73133 20.71349,-14.9713 30.01628,-0.41356 77.16865,5.83354 80.50263,8.17151 3.334,2.33798 6.27251,11.13198 6.25485,10.77528 z"
       id="path3788"
       sodipodi:nodetypes="ccccsssssccsc"
       inkscape:connector-curvature="0" />
    <path
       style="fill:#999999;fill-opacity:1;stroke:none"
       d="m 735.91863,172.8288 c 43.15822,30.57292 -2.54459,119.27626 -11.87215,135.75327 -10.03562,17.72777 -24.53087,53.42142 -23.42887,61.23362 1.102,7.8122 -22.22863,13.25843 -31.57364,12.29084 -9.345,-0.9676 -1.02445,-20.68894 -1.02445,-20.68894 0,0 40.46631,-34.90115 56.58443,-99.34858 2.79443,-11.17338 -1.85889,-47.50846 -14.46639,-32.18107 -13.49106,16.40156 -12.17406,78.19291 -34.39802,99.6803 5.60258,-28.30438 11.50764,-80.8709 11.32157,-103.54376 -0.18607,-22.67287 34.10278,-63.6478 48.85752,-53.19568 z"
       id="path3786"
       sodipodi:nodetypes="cssscssczs"
       inkscape:connector-curvature="0" />
    <path
       style="fill:#999999;fill-opacity:1;stroke:none"
       d="m 732.22793,170.50848 c 0,0 0.65099,-7.33682 -7.8583,-14.27168 -7.78046,-6.34088 -24.60927,-1.27067 -28.14444,2.10878 -10.61086,10.14348 -10.04391,22.47666 -13.10592,31.40087 0,0 20.48732,-26.76025 31.58053,-26.59439 11.80602,0.17653 17.4928,6.64301 17.52813,7.35642 z"
       id="path3790"
       sodipodi:nodetypes="cssczc"
       inkscape:connector-curvature="0" />
    <path
       style="fill:#000000;fill-opacity:1;stroke:none"
       d="m 650.9985,227.09501 c 6.9717,3.58817 8.65147,8.1635 10.35524,14.14804 1.70376,5.98455 1.7507,14.1041 -1.52549,19.74246 -3.27619,5.63835 -18.99767,8.25611 -23.34485,-2.06227 -4.34717,-10.31837 -14.48985,-11.8617 -19.49172,-3.68338 -5.00188,8.17832 -17.3054,2.97798 -18.97606,-0.49069 -1.67066,-3.46867 -3.87209,-10.93902 -2.00625,-18.85242 1.89021,-8.01676 5.29768,-12.01141 15.04153,-13.97529 9.74385,-1.96387 32.9759,1.58538 39.9476,5.17355 z"
       id="path3792"
       sodipodi:nodetypes="czzzzzzzz"
       inkscape:connector-curvature="0" />
    <path
       sodipodi:type="arc"
       style="fill:#1a1a1a;fill-opacity:1;stroke:none"
       id="path3796"
       sodipodi:cx="190.89285"
       sodipodi:cy="252.18361"
       sodipodi:rx="15.892858"
       sodipodi:ry="16.25"
       d="m 206.78571,252.18361 a 15.892858,16.25 0 1 1 -31.78571,0 15.892858,16.25 0 1 1 31.78571,0 z"
       transform="matrix(-0.9987763,0.04945597,0.04945597,0.9987763,923.15858,-17.597972)" />
    <path
       style="fill:#1a1a1a;fill-opacity:1;stroke:none"
       d="m 713.84758,232.77884 27.06187,2.47716 -1.57182,16.91093 -24.64157,-2.25283 -0.84848,-17.13526 z"
       id="rect3800"
       inkscape:connector-curvature="0" />
    <path
       style="fill:#ffffff;fill-opacity:1;stroke:none"
       d="m 757.63802,253.99683 c -7.90051,-0.68154 -26.98062,1.65692 -27.2544,5.6405 -0.72741,10.58465 12.04915,51.96769 13.86456,59.74457 1.8154,7.77688 6.15272,37.59887 10.41554,37.0302 4.2628,-0.56866 14.10926,-3.91686 13.93263,-7.48392 -0.17663,-3.56706 -10.54864,-93.87891 -10.95833,-94.93135 z"
       id="path3833"
       sodipodi:nodetypes="cssssc"
       inkscape:connector-curvature="0" />
    <path
       style="fill:#999999;fill-opacity:1;stroke:none"
       d="m 762.2986,258.36377 c -3.13514,-3.8949 -6.66543,-7.88292 -7.33295,-1.09716 -1.46614,14.90438 5.59128,55.10437 6.31404,67.17729 0.72276,12.07293 -3.35091,29.30347 1.66064,29.41289 5.01154,0.10943 3.58637,-2.93136 8.4713,-2.85373 4.88493,0.0776 3.4282,1.29057 5.14588,1.98703 1.79412,0.72747 3.31698,-0.93789 3.2027,-2.46922 -2.28164,-30.57345 -2.10597,-64.63056 -17.46161,-92.1571 z"
       id="path3835"
       sodipodi:nodetypes="cszszssc"
       inkscape:connector-curvature="0" />
    <path
       style="fill:#e6e6e6;fill-opacity:1;stroke:none"
       d="m 760.54968,212.61872 c 6.20374,2.20932 11.99401,18.35786 12.15298,21.56822 0.15896,3.21035 1.09165,29.26754 -0.90729,32.22716 -1.99892,2.95963 -11.61466,5.07468 -13.78788,3.18579 -4.67078,-4.05968 -0.29021,-34.00536 0.51505,-50.98071 0.20912,-4.40845 0.78925,-6.4413 2.02714,-6.00046 z"
       id="path3808"
       sodipodi:nodetypes="csssss"
       inkscape:connector-curvature="0" />
    <path
       style="fill:#999999;fill-opacity:1;stroke:none"
       d="m 772.49664,231.08364 c 1.39586,4.75111 6.16252,22.29648 5.29553,26.45159 -0.86699,4.15511 -2.88069,9.89213 -6.99626,10.35869 -5.60046,0.63489 -5.98794,0.49426 -5.76739,-4.54176 0.66905,-15.27697 1.75446,-28.13102 2.55662,-31.41488 0.80215,-3.28386 3.35138,-6.16386 4.9115,-0.85364 z"
       id="path3810"
       sodipodi:nodetypes="czsszs"
       inkscape:connector-curvature="0" />
    <path
       sodipodi:type="arc"
       style="fill:#ffffff;fill-opacity:1;stroke:none"
       id="path4019"
       sodipodi:cx="195.75589"
       sodipodi:cy="241.49167"
       sodipodi:rx="3.3085501"
       sodipodi:ry="1.9299877"
       d="m 199.06444,241.49167 a 3.3085501,1.9299877 0 1 1 -6.6171,0 3.3085501,1.9299877 0 1 1 6.6171,0 z"
       transform="matrix(-0.95330492,0.30200949,0.30200949,0.95330492,853.73665,-57.735372)" />
    <path
       transform="matrix(-0.95330492,0.30200949,0.30200949,0.95330492,690.43622,-72.009372)"
       d="m 199.06444,241.49167 a 3.3085501,1.9299877 0 1 1 -6.6171,0 3.3085501,1.9299877 0 1 1 6.6171,0 z"
       sodipodi:ry="1.9299877"
       sodipodi:rx="3.3085501"
       sodipodi:cy="241.49167"
       sodipodi:cx="195.75589"
       id="path4021"
       style="fill:#ffffff;fill-opacity:1;stroke:none"
       sodipodi:type="arc" />
    <path
       style="fill:#ffffff;fill-opacity:1;stroke:none"
       d="m 634.57978,225.53399 c 6.6327,1.07697 12.77287,2.74944 15.15259,3.97423 2.28503,1.17605 3.05362,2.02068 4.23439,3.34225 -26.98351,-9.64597 -44.41141,-7.4474 -50.54728,-2.1679 -2.57739,2.21767 -4.29689,2.77233 -5.85018,6.90039 0.93285,-7.57154 7.2485,-11.39217 14.02871,-13.0073 7.61201,-1.19902 15.42083,-0.13734 22.98177,0.95833 z"
       id="path4029"
       sodipodi:nodetypes="cscsccc"
       inkscape:connector-curvature="0" />
  </g>
</svg>
