<?xml version="1.0" encoding="UTF-8" standalone="no"?>
<!-- Created with Inkscape (http://www.inkscape.org/) -->

<svg
   xmlns:dc="http://purl.org/dc/elements/1.1/"
   xmlns:cc="http://creativecommons.org/ns#"
   xmlns:rdf="http://www.w3.org/1999/02/22-rdf-syntax-ns#"
   xmlns:svg="http://www.w3.org/2000/svg"
   xmlns="http://www.w3.org/2000/svg"
   xmlns:sodipodi="http://sodipodi.sourceforge.net/DTD/sodipodi-0.dtd"
   xmlns:inkscape="http://www.inkscape.org/namespaces/inkscape"
   width="280"
   height="280"
   id="svg2"
   version="1.1"
   inkscape:version="0.48.3.1 r9886"
   sodipodi:docname="spacearmour2.svg"
   style="display:inline">
  <title
     id="title4113">space armour</title>
  <defs
     id="defs4" />
  <sodipodi:namedview
     id="base"
     pagecolor="#ffffff"
     bordercolor="#666666"
     borderopacity="1.0"
     inkscape:pageopacity="0.0"
     inkscape:pageshadow="2"
     inkscape:zoom="1.2249396"
     inkscape:cx="-173.11972"
     inkscape:cy="90.788836"
     inkscape:document-units="px"
     inkscape:current-layer="layer2"
     showgrid="false"
     inkscape:window-width="1301"
     inkscape:window-height="744"
     inkscape:window-x="65"
     inkscape:window-y="24"
     inkscape:window-maximized="1"
     fit-margin-top="0"
     fit-margin-left="0"
     fit-margin-right="0"
     fit-margin-bottom="0" />
  <metadata
     id="metadata7">
    <rdf:RDF>
      <cc:Work
         rdf:about="">
        <dc:format>image/svg+xml</dc:format>
        <dc:type
           rdf:resource="http://purl.org/dc/dcmitype/StillImage" />
        <dc:title>space armour</dc:title>
        <dc:date>2011-08-07</dc:date>
        <dc:creator>
          <cc:Agent>
            <dc:title>tzunghaor (Prim András)</dc:title>
          </cc:Agent>
        </dc:creator>
        <cc:license
           rdf:resource="http://creativecommons.org/licenses/publicdomain/" />
        <dc:publisher>
          <cc:Agent>
            <dc:title>openclipart.org</dc:title>
          </cc:Agent>
        </dc:publisher>
        <dc:subject>
          <rdf:Bag>
            <rdf:li>sci-fi</rdf:li>
            <rdf:li>armour</rdf:li>
            <rdf:li>armor</rdf:li>
            <rdf:li>space</rdf:li>
            <rdf:li>cartoon</rdf:li>
            <rdf:li />
          </rdf:Bag>
        </dc:subject>
      </cc:Work>
      <cc:License
         rdf:about="http://creativecommons.org/licenses/publicdomain/">
        <cc:permits
           rdf:resource="http://creativecommons.org/ns#Reproduction" />
        <cc:permits
           rdf:resource="http://creativecommons.org/ns#Distribution" />
        <cc:permits
           rdf:resource="http://creativecommons.org/ns#DerivativeWorks" />
      </cc:License>
    </rdf:RDF>
  </metadata>
  <g
     inkscape:groupmode="layer"
     id="layer2"
     inkscape:label="Réteg"
     style="display:inline"
     transform="translate(-455.96425,48.894762)">
    <path
       style="fill:#333333;fill-opacity:1;stroke:#000000;stroke-width:0.5;stroke-miterlimit:4;stroke-dasharray:none"
       d="m 606.14285,7.219332 c 0,0 13.665,3.37805 18.92858,5.714286 9.78837,4.344557 17.89636,15.527576 18.21428,29.285712 l -26.07143,2.5 z"
       id="path3815"
       inkscape:connector-curvature="0"
       sodipodi:nodetypes="csccc" />
    <path
       style="fill:#d45500;fill-opacity:1;stroke:#000000;stroke-width:0.5;stroke-linecap:round;stroke-linejoin:round;stroke-miterlimit:4;stroke-opacity:1;stroke-dasharray:none;stroke-dashoffset:0"
       d="m 474.35714,150.07647 c -2.87073,5.3827 -6.65843,4.72218 -11.42857,5.35714 -5.35729,0.71312 -3.21429,-11.78571 0.71428,-15.35714 z"
       id="path3916"
       inkscape:connector-curvature="0"
       sodipodi:nodetypes="cscc" />
    <path
       style="fill:#333333;fill-opacity:1;stroke:#000000;stroke-width:0.5;stroke-linecap:round;stroke-linejoin:round;stroke-miterlimit:4;stroke-opacity:1;stroke-dasharray:none;stroke-dashoffset:0"
       d="m 532.21429,46.1479 c -8.57143,0.35714 -28.56006,10.06631 -47.14286,35 -10.23261,13.72972 -24.28572,45.35714 -25.35715,55.35714 L 480.42857,147.93361 516.5,69.71932 z"
       id="path3910"
       inkscape:connector-curvature="0"
       sodipodi:nodetypes="cscccc" />
    <path
       style="fill:#d45500;fill-opacity:1;stroke:#000000;stroke-width:0.5;stroke-linecap:round;stroke-linejoin:round;stroke-miterlimit:4;stroke-opacity:1;stroke-dasharray:none;stroke-dashoffset:0"
       d="m 459.35714,143.64789 c 2.65567,3.24582 17.00155,22.4694 27.85714,9.28572 21.01794,-25.52545 32.14286,-87.85715 66.42857,-99.64286 -7.14286,-3.57143 -14.28571,-10 -24.28571,-7.5 -10,2.5 -11.90988,18.8551 -16.42857,27.5 -4.60493,8.80988 -20.49121,52.09242 -32.85715,68.57143 -5.4279,7.23329 -19.28571,-10.71428 -19.28571,-10.71428 0,0 -4.64285,8.57142 -1.42857,12.49999 z"
       id="path3908"
       inkscape:connector-curvature="0"
       sodipodi:nodetypes="sscssscs" />
    <path
       style="fill:#d45500;fill-opacity:1;stroke:#000000;stroke-width:0.5;stroke-linecap:round;stroke-linejoin:round;stroke-miterlimit:4;stroke-opacity:1;stroke-dasharray:none;stroke-dashoffset:0"
       d="m 515.78571,83.29075 c 0,0 -4.8555,29.15427 -2.85714,43.57144 2.27912,16.44266 7.66532,23.77427 13.21429,25.71428 17.58452,6.14784 35.3793,-7.70366 42.14285,-16.07143 C 580.52368,121.36438 606.5,86.1479 606.5,86.1479 L 589,79.00504 z"
       id="path3901"
       inkscape:connector-curvature="0"
       sodipodi:nodetypes="csssccc" />
    <path
       style="fill:#333333;fill-opacity:1;stroke:#000000;stroke-width:0.5;stroke-linecap:round;stroke-linejoin:round;stroke-miterlimit:4;stroke-opacity:1;stroke-dasharray:none;stroke-dashoffset:0"
       d="m 520.78571,65.43361 c 0,0 -3.85068,10.93201 -4.64285,15.71429 -2.85533,17.23755 -5.90585,35.96625 2.14286,48.21428 8.21428,12.5 22.14285,12.5 33.57142,2.14286 8.22084,-7.45014 70.35715,-72.5 70.35715,-72.5 0,0 17.5,-17.857145 14.64285,-24.642859 C 634,27.576467 620.91917,10.274595 608.21393,5.6682 590.48044,-0.76123 565.95914,2.032861 551.85714,10.790752 546.33086,14.222786 540.78571,26.862181 540.78571,26.862181 L 536.5,45.79075 z"
       id="path3899"
       inkscape:connector-curvature="0"
       sodipodi:nodetypes="cssscsasccc" />
    <path
       style="fill:#333333;fill-opacity:1;stroke:#000000;stroke-width:0.5;stroke-linecap:round;stroke-linejoin:round;stroke-miterlimit:4;stroke-opacity:1;stroke-dasharray:none;stroke-dashoffset:0"
       d="m 572.35714,12.174107 c 12.65625,0.03348 25.93304,5.950893 32.36161,9.700893 8.57142,5 4.82997,23.15161 0.34375,31.40625 -8.92857,16.42858 -38.19643,29.65179 -46.76786,33.58036 -8.57143,3.92858 -26.71211,5.30836 -32.50446,-3.94197 -6.40894,-10.23502 5.47965,-27.31828 11.78125,-34.25893 8.67641,-9.556276 0.42879,-15.4867 11.41964,-30.026781 4.26081,-5.636737 19.14732,-6.470983 23.36607,-6.459822 z"
       id="path3962"
       inkscape:connector-curvature="0" />
    <path
       style="opacity:0.5;fill:#000000;fill-opacity:1;stroke:none"
       d="m 561.59375,66.03125 c -9.59699,1.3221 -18.72888,12.88378 -25.71875,23.125 7.57294,1.67928 16.92936,0.229 22.40625,-2.28125 9.70567,-3.42199 4.66201,-10.66105 3.3125,-20.84375 z"
       id="path4092"
       inkscape:connector-curvature="0"
       sodipodi:nodetypes="cccc" />
    <path
       style="fill:#ac9d93;fill-opacity:1;stroke:#000000;stroke-width:0.5;stroke-linecap:round;stroke-linejoin:round;stroke-miterlimit:4;stroke-opacity:1;stroke-dasharray:none;stroke-dashoffset:0"
       d="m 598.90913,18.934445 c -6.92205,-2.068083 -21.67293,-0.09562 -21.67293,-0.09562 0,0 -14.96897,3.986231 -19.32455,17.249913 -2.15899,6.574622 -4.34215,12.205362 -2.73219,15.655862 1.60995,3.45051 2.42311,4.67197 0.81316,8.35251 -1.60997,3.68053 -2.30066,7.4374 -0.3212,13.83408 0.78748,2.54478 0.92043,10.68823 3.42475,13.26646 1.19875,-0.35846 3.28607,-1.00408 4.25463,-1.44808 7.80626,-3.57848 32.7058,-16.39313 40.83731,-31.3577 4.08574,-7.51904 12.29141,-24.558179 4.48516,-29.112611 -4.57162,-2.667238 -6.04507,-5.233678 -9.76414,-6.344817 z"
       id="path3941"
       inkscape:connector-curvature="0"
       sodipodi:nodetypes="acsssscsssa" />
    <path
       style="fill:#483e37;fill-opacity:1;stroke:none"
       d="m 598.65659,17.671754 c 0,0 -10.73809,-0.98348 -21.42039,1.167073 -4.1268,0.830805 -5.76864,1.527422 -11.1849,5.863832 5.39415,-0.11306 17.25075,0.08142 22.68287,3.586616 2.25382,1.45433 2.29763,4.372082 0.22768,5.52225 -2.06994,1.150168 -5.49284,10.332865 -5.49284,10.332865 l 2.98833,3.9282 c 0,0 -8.75657,-1.79066 -16.10853,4.12746 -1.44454,1.1628 1.13841,3.92819 1.13841,3.92819 l -1.08149,6.49007 5.23669,-4.21285 7.11508,-0.91089 c -1.45665,-0.30667 -2.86873,-0.69077 -3.89906,-1.85023 l 10.10341,-1.82178 -1.13841,2.98885 c 0,0 3.47034,3.08547 3.21601,5.29453 -0.51891,4.50719 -11.0426,8.96654 -11.0426,8.96654 0.96385,1.5615 3.01628,3.91296 3.27977,4.76391 8.98473,-5.42329 16.68784,-13.67165 20.91149,-21.44452 4.08574,-7.51904 8.75588,-21.27518 5.49532,-28.860071 -2.0903,-4.862563 -2.08813,-6.276951 -11.02684,-7.860045 z M 558.99314,48.84115 c -2.29634,0.0323 -3.586,1.05321 -3.586,1.05321 l 2.50451,8.5111 3.01679,0.22772 2.04915,5.06681 3.21601,-10.33287 c 0,0 -0.67221,-3.00575 -4.58211,-4.15592 -0.97747,-0.28754 -1.8529,-0.38083 -2.61835,-0.37005 z m 5.83437,18.44545 c -0.22715,-0.008 -0.4426,0.007 -0.65459,0.0284 -0.48456,0.0492 -0.90695,0.19068 -1.28072,0.42698 -1.02463,0.64783 -0.65458,3.72899 -0.65458,3.72899 l 2.93141,0.48391 7.96889,-1.28094 c 0,0 -4.90328,-3.26411 -8.31041,-3.38736 z m 3.92752,8.4257 -4.24059,0.31312 -3.89906,4.07053 c 0,0 4.32549,-1.61551 6.83047,-1.79331 1.85491,-0.13166 4.65307,0.16973 6.83048,0.48391 0.26994,-0.14322 0.55203,-0.28012 0.82535,-0.42698 z"
       id="path3950"
       inkscape:connector-curvature="0"
       sodipodi:nodetypes="cscssccscccccccsccsscccccccsccccccccccccsccc" />
    <path
       style="fill:#d45500;fill-opacity:1;stroke:#000000;stroke-width:0.5;stroke-linecap:round;stroke-linejoin:round;stroke-miterlimit:4;stroke-opacity:1;stroke-dasharray:none;stroke-dashoffset:0"
       d="m 570.03125,5.96875 c -10.25994,0.01328 -21.34477,3.186006 -27.8125,11.59375 -2.90708,3.779064 -3.99364,12.985906 -4.28125,17.15625 -0.71429,10.35715 -15.69448,24.88999 -17.875,34.65625 -1.89183,8.47326 1.06928,19.6242 14.28125,21.78125 17.5,2.85714 47.0527,-8.24407 63.21875,-23.9375 10.07289,-9.77841 18.53604,-22.39582 16.09375,-38.9375 -2.21936,-15.031812 -24.33573,-20.836554 -39.3125,-22.125 -1.41619,-0.121835 -2.84679,-0.189397 -4.3125,-0.1875 z m 2.32589,6.205357 c 12.65625,0.03348 25.93304,5.950893 32.36161,9.700893 8.57142,5 4.82997,23.15161 0.34375,31.40625 -8.92857,16.42858 -38.19643,29.65179 -46.76786,33.58036 -8.57143,3.92858 -26.71211,5.30836 -32.50446,-3.94197 -6.40894,-10.23502 5.47965,-27.31828 11.78125,-34.25893 8.67641,-9.556276 0.42879,-15.4867 11.41964,-30.026781 4.26081,-5.636737 19.14732,-6.470983 23.36607,-6.459822 z"
       id="path3894"
       inkscape:connector-curvature="0"
       sodipodi:nodetypes="sssssssssssssasss" />
    <path
       style="opacity:0.5;fill:#87aade;fill-opacity:1;stroke:#000000;stroke-width:0.5;stroke-linecap:round;stroke-linejoin:round;stroke-miterlimit:4;stroke-opacity:1;stroke-dasharray:none;stroke-dashoffset:0"
       d="m 560.32621,7.948221 c -14.69531,3.514866 -22.58248,14.14079 -29.54696,25.001276 -7.78367,12.137943 -12.87945,38.133263 -11.61676,41.668793 1.26269,3.53553 3.1633,12.34112 12.37437,14.89975 13.63706,3.78807 29.7995,-0.25254 49.75002,-10.85914 10.8371,-5.7615 29.80597,-24.54811 31.31472,-36.61803 1.76777,-14.142136 -0.25253,-21.970818 -9.34391,-26.769043 C 594.99408,10.91048 574.25881,4.615784 560.32621,7.948221 z"
       id="path3939"
       inkscape:connector-curvature="0"
       sodipodi:nodetypes="sassssss" />
    <path
       style="fill:#d45500;fill-opacity:1;stroke:none"
       d="m 535.70374,92.67477 6.06091,0.3788 c -2.88178,13.69357 -0.65461,28.32288 0.63135,42.80522 -4.96021,3.31967 -7.17352,1.85897 -10.48033,1.6415 -0.73535,-16.45323 0.009,-32.50987 3.78807,-44.82552 z"
       id="path3826"
       inkscape:connector-curvature="0"
       sodipodi:nodetypes="ccccc" />
    <path
       style="fill:#d45500;fill-opacity:1;stroke:none"
       d="m 526.73864,90.5282 4.67195,1.51523 c -4.05675,14.30727 -4.84584,29.26806 -4.54569,44.19417 -2.5354,-0.61665 -3.59342,-1.53629 -5.6821,-4.04061 -3.24045,-9.59336 1.38369,-30.02494 5.55584,-41.66879 z"
       id="path3828"
       inkscape:connector-curvature="0"
       sodipodi:nodetypes="ccccc" />
    <path
       style="opacity:0.4;fill:#ffffff;fill-opacity:1;stroke:none"
       d="m 538.94712,22.238298 c 0,0 12.82014,-6.514748 19.78989,-6.805839 15.90159,-0.664127 47.79935,10.764355 46.28845,11.708668 0,0 5.28535,9.627087 2.75997,10.63724 -2.52538,1.010152 -53.77268,9.060733 -53.77268,9.060733 2.84494,-7.399204 3.04757,-13.477255 8.5863,-22.223354 -2.08448,-1.240634 -5.47317,-2.053974 -8.64757,-0.653009 -6.04206,8.615181 -6.7409,15.980363 -9.59119,24.595543 l -10.04551,1.31128 c 2.21994,-8.423612 5.77754,-16.05539 10.10152,-23.233509 -2.83227,2.004772 -5.41076,2.486828 -8.67295,7.071068 L 525.22341,54.92032 524.0452,51.11956 c 2.09203,-8.74522 4.6335,-15.940979 14.90192,-28.881262 z"
       id="path3993"
       inkscape:connector-curvature="0"
       sodipodi:nodetypes="cacscccccccccc" />
    <path
       style="fill:#333333;fill-opacity:1;stroke:#000000;stroke-width:0.5;stroke-miterlimit:4;stroke-dasharray:none"
       d="m 646.29378,154.9508 c 0,0 43.6941,11.4768 65.91245,15.40483 6.26101,1.10689 17.67767,-1.76777 17.67767,-3.53554 0,-1.76777 2.92586,-35.12818 -4.90283,-42.19925 -7.82868,-7.07107 -78.68729,30.32996 -78.68729,30.32996 z"
       id="path3101"
       inkscape:connector-curvature="0"
       sodipodi:nodetypes="csssc" />
    <path
       style="fill:#d45500;fill-opacity:1;stroke:#000000;stroke-width:0.5;stroke-linecap:round;stroke-linejoin:round;stroke-miterlimit:4;stroke-opacity:1;stroke-dasharray:none;stroke-dashoffset:0"
       d="m 715.6875,124.8125 c 0.90279,12.58787 1.89233,25.16213 0.46875,37.75 -20.94933,1.30488 -40.02399,-6.21497 -57.25446,-13.29464 -5.76938,3.09829 -12.96429,8.16964 -12.96429,8.16964 0,0 40.11647,14.69251 65.90625,15.40625 6.35567,0.1759 17.6875,-1.76348 17.6875,-3.53125 0,-0.48768 0.24001,-3.67457 0.4375,-8.03125 L 726.5,162.5625 c 1.15132,-11.96751 0.49555,-24.52521 -1,-37.375 -0.17035,-0.19498 -0.34904,-0.39792 -0.53125,-0.5625 -2.87261,-1.60643 -6.59717,-0.50424 -9.28125,0.1875 z"
       id="path3918"
       inkscape:connector-curvature="0"
       sodipodi:nodetypes="ccccssccccc" />
    <path
       style="fill:#d45500;fill-opacity:1;stroke:#000000;stroke-width:0.5;stroke-miterlimit:4;stroke-dasharray:none"
       d="m 637.35034,33.707111 c -33.79847,5.671037 -53.033,61.871849 -43.43655,93.186579 9.59644,31.31472 21.46573,43.68909 37.62817,42.17386 16.16244,-1.51523 71.96494,-39.79333 81.06474,-41.66879 2.99978,-0.61825 7.50999,-2.16074 13.90754,-0.72698 l 1.98967,5.68845 c 0,0 5.34521,-1.19838 5.82107,-5.71908 1.01015,-9.59645 -13.4199,-43.5686 -24.00906,-55.20125 -34.01145,-37.36307 -50.2319,-41.547268 -72.96558,-37.732789 z"
       id="path3099"
       inkscape:connector-curvature="0"
       sodipodi:nodetypes="ssssccsss" />
    <path
       style="fill:#333333;fill-opacity:1;stroke:#000000;stroke-width:0.5;stroke-linecap:round;stroke-linejoin:round;stroke-miterlimit:4;stroke-opacity:1;stroke-dasharray:none;stroke-dashoffset:0"
       d="m 637.20089,39.732143 c -9.57766,3.603847 -30.36038,19.134907 -34.28125,43.558037 -4.66203,29.03985 2.14286,61.06696 14.64286,70.70982 8.6004,6.63459 18.57589,4.27678 22.50446,1.41964 3.92858,-2.85715 49.20787,-32.73884 77.5,-37.83482 5.28287,-0.95155 10.28455,-2.18872 16.02679,1.57143 -8.66777,-33.79527 -27.0939,-62.22751 -57.15625,-78.5 -12.86846,-2.996851 -25.71341,-6.012563 -39.23661,-0.924107 z"
       id="path3903"
       inkscape:connector-curvature="0"
       sodipodi:nodetypes="ssssaccs" />
    <path
       style="fill:#d45500;fill-opacity:1;stroke:none"
       d="m 641.13841,39.515495 c 26.61004,15.591145 49.28833,52.420735 62.12438,80.054585 l 10.60661,-3.03046 C 701.65061,87.61037 680.87039,54.76976 651.87128,37.62146 c -3.49345,0.321228 -7.3657,0.705811 -10.73287,1.894035 z"
       id="path3822"
       inkscape:connector-curvature="0"
       sodipodi:nodetypes="ccccc" />
    <path
       sodipodi:nodetypes="ccccc"
       inkscape:connector-curvature="0"
       id="path3824"
       d="m 660.45758,38.631612 c 28.21705,14.774758 49.15452,47.891738 60.23034,76.392778 l 8.58631,0.75762 C 719.86789,84.03464 699.04606,54.92936 672.2006,40.525649 c -3.49345,-0.562656 -7.49197,-2.198378 -11.74302,-1.894037 z"
       style="fill:#d45500;fill-opacity:1;stroke:none" />
    <path
       style="opacity:0.5;fill:#000000;fill-opacity:1;stroke:none"
       d="m 659.73064,40.184962 c 26.22489,9.800528 62.94219,80.505368 57.70099,81.716208 -1.40528,0.32465 -21.58797,10.14264 -39.00752,20.63901 -25.59969,15.42542 -35.48946,23.96375 -55.23661,25.92857 2.65114,0.6624 5.42438,0.86744 8.34375,0.59375 4.71824,-0.44234 12.86126,-4.05098 22.1875,-8.9375 12.89823,4.2619 39.27415,12.19705 58.125,12.71875 6.35567,0.1759 17.6875,-1.76348 17.6875,-3.53125 0,-0.19626 0.0657,-1.09165 0.125,-2.0625 0.40106,-11.41308 2.15585,-25.02394 -0.75,-35 1.00241,-0.28162 4.98785,-1.6189 5.40625,-5.59375 0.13571,-1.28926 -10e-5,-3.03784 -0.375,-5.09375 -0.75533,-0.53303 -1.55819,-1.05553 -2.4375,-1.5 C 723.04415,92.49625 713.08558,66.11127 679.25174,43.93417 676.37071,42.04574 647.4757,33.474784 659.73064,40.184962 z M 709.0625,142.3125 c 1.15395,6.62367 1.56192,23.25703 -1.25,28.53125 -10.07092,-1.11107 -21.97376,-2.72031 -26,-4.5625 6.18424,-2.78381 22.40195,-18.51257 27.25,-23.96875 z"
       id="path4076"
       inkscape:connector-curvature="0"
       sodipodi:nodetypes="csscscssccsccsccccc" />
  </g>
</svg>
