<?xml version="1.0" encoding="UTF-8" standalone="no"?>
<!-- Created with Inkscape (http://www.inkscape.org/) -->

<svg
   xmlns:dc="http://purl.org/dc/elements/1.1/"
   xmlns:cc="http://creativecommons.org/ns#"
   xmlns:rdf="http://www.w3.org/1999/02/22-rdf-syntax-ns#"
   xmlns:svg="http://www.w3.org/2000/svg"
   xmlns="http://www.w3.org/2000/svg"
   xmlns:sodipodi="http://sodipodi.sourceforge.net/DTD/sodipodi-0.dtd"
   xmlns:inkscape="http://www.inkscape.org/namespaces/inkscape"
   width="145"
   height="145"
   id="svg2"
   version="1.1"
   inkscape:version="0.48.3.1 r9886"
   sodipodi:docname="superheroine2.svg"
   style="display:inline;enable-background:new"
   inkscape:export-filename="/media/data/images/mygfx/superheroine2.png"
   inkscape:export-xdpi="121.26907"
   inkscape:export-ydpi="121.26907">
  <defs
     id="defs4">
    <inkscape:perspective
       sodipodi:type="inkscape:persp3d"
       inkscape:vp_x="0 : 526.18109 : 1"
       inkscape:vp_y="0 : 1000 : 0"
       inkscape:vp_z="744.09448 : 526.18109 : 1"
       inkscape:persp3d-origin="372.04724 : 350.78739 : 1"
       id="perspective10" />
    <inkscape:perspective
       id="perspective2824"
       inkscape:persp3d-origin="0.5 : 0.33333333 : 1"
       inkscape:vp_z="1 : 0.5 : 1"
       inkscape:vp_y="0 : 1000 : 0"
       inkscape:vp_x="0 : 0.5 : 1"
       sodipodi:type="inkscape:persp3d" />
    <clipPath
       clipPathUnits="userSpaceOnUse"
       id="clipCloth">
      <path
         id="path3752"
         d="m 310.28125,277.84375 c -12.78128,1.66742 -28.19721,6.68507 -26.6875,7.0625 l 10.375,17.15625 c -1.29432,2.1682 -2.48855,4.29548 -3.625,6.40625 -3.58874,0.30134 -6.79258,1.08433 -9.28125,2.4375 -4.75546,4.86801 -5.70525,7.20491 -7.0625,9.8125 -10.88777,8.44265 -14.30089,12.83334 -14.90625,15.1875 -2.27285,8.83884 4.3125,15.40625 4.3125,15.40625 l -1.28125,2.78125 3.8125,2.53125 c 0,0 -2.72434,1.82393 -3.03125,3.28125 -0.64184,3.04779 4.03125,9.34375 4.03125,9.34375 0,0 1.17067,10.22356 -0.25,15.90625 -2.27284,9.09137 -8.79641,34.77032 -11.375,38.375 -4.96811,6.94504 -6.60152,26.85612 -5.5625,29.8125 3.95697,11.25906 3.67529,27.80276 3.53125,32.3125 -4.68936,45.78681 -0.45573,102.39348 10.625,110.875 3.47781,2.66201 12.85977,80.31561 12.625,110.09375 1.23255,12.4434 -20.7621,22.28327 -32.59375,29.8125 -5.55584,3.53553 -11.84375,3.53125 -11.84375,3.53125 0,0 -1.02285,9.85724 1.25,11.625 2.27284,1.76777 12.6131,1.25254 16.90625,1 4.29315,-0.25253 9.1114,-1.13969 15.9375,-0.75 6.05746,0.34582 15.46443,2.02349 25,1.25 5.43823,-0.44113 11.59375,-0.75824 11.59375,-12.375 0,-2.28683 -4.53632,-23.47367 -4.03125,-32.3125 -3.28299,-39.64848 19.72793,-70.01065 -9.84375,-118.9375 l 1.5,-3.28125 -3.28125,-2.78125 c -2.54343,-16.48741 13.65958,-48.50015 16.4375,-88.90625 5.36922,33.4334 25.0349,93.37172 25,95.21875 -0.21152,10.94265 4.03125,17.40625 4.03125,17.40625 l 3.53125,7.34375 c 9.79536,45.44836 17.94146,48.9244 25.75,87.375 3.51811,35.77744 -9.17843,55.61213 -7.3125,63.375 0.25254,4.79823 7.59193,12.42036 11.125,12.125 11.79928,-0.98642 26.67552,1.58996 32.0625,-18.4375 1.05906,-3.93732 -10.28342,-34.38202 -13.90625,-53.53125 -1.76777,-9.34392 -2.05568,-49.56088 -3.53125,-56.5625 -1.47557,-7.00162 -2.1298,-21.37748 -17.90625,-69.96875 0,0 -3.03009,-103.45956 -8.09375,-115.40625 -1.42606,-3.36449 -3.04901,-6.80413 -4.75,-10.1875 -2.68684,0.93085 -5.42021,1.02592 -6.375,-0.40625 -1.01016,-1.51523 -8.28809,-8.25898 -9.09375,-15.15625 -0.39235,-3.35891 -0.75035,-8.15786 0.96875,-9.96875 -0.46076,-0.72602 -1.21875,-1.90625 -1.21875,-1.90625 0,0 -6.02301,-13.12521 -7.8125,-17.15625 C 315.13238,384.1053 331.25917,370.54678 348,339.6875 c 0,0 -18.70431,-19.43829 -23.25,-22.46875 -4.80095,-3.20063 -11.04312,-5.69267 -17.46875,-7.21875 1.59979,-1.25254 3.29191,-2.46478 5.09375,-3.625 L 323.25,300.8125 337.65625,296.75 342.1875,283 c -1.05743,-1.90554 -11.43726,-4.66549 -14,-4.09375 l -1.78125,6.40625 c -2.26029,0.95653 -3.80992,0.81966 -5.6875,1.0625 -0.87071,0.11261 -9.17736,11.8114 -12.625,15.1875 l -5.9375,-1.75 -0.375,0 0,-3.3125 c 1.99617,-3.34152 4.22743,-7.0766 5.71875,-9.5 1.55157,-2.52131 2.35961,-6.24058 2.78125,-9.15625 z"
         style="fill:none;stroke:#000000;stroke-width:1px;stroke-linecap:butt;stroke-linejoin:miter;stroke-opacity:1"
         inkscape:connector-curvature="0" />
    </clipPath>
    <clipPath
       clipPathUnits="userSpaceOnUse"
       id="arm_cloth">
      <path
         sodipodi:nodetypes="ccccccccccccccccc"
         id="path3789"
         d="m 365.9375,313.1875 c -3.66772,11.04871 -6.80004,21.1874 -13.15625,27.53125 10.54814,13.2676 17.85108,22.05114 27.53125,31.5625 7.57615,-3.22335 15.17385,-6.00483 22.75,-13.125 -12.43335,-15.3274 -27.76815,-33.48819 -37.125,-45.96875 z m -104.75,56.90625 c -7.8799,0.15691 -14.49085,2.26462 -18.74239,8.75 5.40242,20.00482 12.42368,29.95549 14.64864,46.71875 L 272.25,415.21875 266.6875,370.25 c -1.84147,-0.14327 -3.68156,-0.19246 -5.5,-0.15625 z M 385.96875,386.625 c -1.77962,0.0111 -3.74287,0.35977 -5.90625,1.0625 -10.27373,14.69465 -10.6088,19.6497 -22.71875,30.5625 5.92335,0.53176 12.168,7.96095 12.125,13.875 11.28004,-9.68063 21.0338,-18.10172 32.5625,-32.3125 -3.93194,-7.29597 -8.35082,-13.23559 -16.0625,-13.1875 z"
         style="fill:#ffffff;stroke:#000000;stroke-width:1px;stroke-linecap:butt;stroke-linejoin:miter;stroke-opacity:1"
         inkscape:connector-curvature="0" />
    </clipPath>
    <clipPath
       clipPathUnits="userSpaceOnUse"
       id="clipFlesh">
      <path
         style="fill:#ffccaa;stroke:#000000;stroke-width:1px;stroke-linecap:butt;stroke-linejoin:miter;stroke-opacity:1;display:inline"
         d="M 302.5,206.65625 C 291.07143,220.58482 291.0625,223.94857 291.0625,227 c 0,5.35714 0.17821,9.60155 -0.34375,12.5 -1.20623,6.69815 5.92429,28.84785 9.625,30.375 3.97539,1.6405 10.375,3.5625 10.375,3.5625 0,0 -0.0762,1.91371 -0.4375,4.40625 -0.0312,0.21511 -0.0582,0.40174 -0.0937,0.625 -0.0868,0.55088 -0.19607,1.10416 -0.3125,1.6875 -0.002,0.0103 0.002,0.021 0,0.0312 -0.15076,0.74988 -0.32416,1.52519 -0.53125,2.28125 -0.009,0.0321 -0.0223,0.0617 -0.0312,0.0937 -0.003,0.01 0.003,0.0216 0,0.0312 -0.10921,0.39182 -0.24875,0.77435 -0.375,1.15625 -0.0309,0.0935 -0.0618,0.18859 -0.0937,0.28125 -0.10247,0.29467 -0.19858,0.59116 -0.3125,0.875 -0.0243,0.061 -0.0376,0.12715 -0.0625,0.1875 -0.12823,0.30933 -0.26321,0.61527 -0.40625,0.90625 -0.0159,0.0326 -0.0464,0.0614 -0.0625,0.0937 -0.15656,0.3119 -0.32505,0.62195 -0.5,0.90625 -1.49132,2.4234 -3.72258,6.15848 -5.71875,9.5 l 0,3.3125 0.375,0 5.9375,1.75 c 3.44764,-3.3761 11.75429,-15.07489 12.625,-15.1875 1.87758,-0.24284 3.42721,-0.10597 5.6875,-1.0625 l 1.78125,-6.40625 c 0.009,-0.002 0.0223,0.002 0.0312,0 1.98049,-7.30263 4.64165,-15.48854 6.0625,-15.84375 L 338.9375,257 c 2.48464,2.26652 5.44532,6.30715 10.71875,-6.0625 3.68014,-8.63234 -1.60781,-9.47194 -5.71875,-6.4375 -3.55464,-6.75061 -7.03863,-13.90803 -9.65625,-25.34375 -4.7872,1.064 -10.33176,-1.72129 -16.0625,-5.375 l 2.84375,10 c -7.25858,-3.04403 -13.20237,-9.33485 -18.5625,-17.125 z m 34,90.40625 -13.25,3.75 -10.875,5.5625 c -1.80184,1.16022 -3.49396,2.37246 -5.09375,3.625 6.42563,1.52608 12.6678,4.01812 17.46875,7.21875 4.33002,2.88668 21.06734,20.19489 22.6875,21.875 0.71039,-1.29082 1.39049,-2.693 2.0625,-4.1875 11.85538,15.1214 23.76097,28.97408 38.90625,43.4375 -15.46644,19.16662 -15.50958,28.01317 -32.0625,41.90625 -6.05702,-0.73568 -13.37098,5.06683 -20.21875,6.8125 -0.43483,0.11085 -0.76491,0.34277 -1.0625,0.65625 -0.10744,0.11318 -0.22078,0.23956 -0.3125,0.375 -0.0828,0.12329 -0.17949,0.2663 -0.25,0.40625 -0.004,0.008 0.004,0.0229 0,0.0312 -0.15397,0.31109 -0.27397,0.65273 -0.375,1.03125 -0.10103,0.37852 -0.16268,0.7901 -0.21875,1.21875 -0.0469,0.35855 -0.0732,0.74248 -0.0937,1.125 -0.006,0.11544 -0.0272,0.22673 -0.0312,0.34375 -0.0147,0.42237 -0.009,0.84662 0,1.28125 0.0103,0.41707 0.0361,0.83354 0.0625,1.25 0.0123,0.20423 0.016,0.3917 0.0312,0.59375 0.0196,0.25077 0.0395,0.50496 0.0625,0.75 0.0489,0.52934 0.0998,1.07954 0.15625,1.5625 0.80566,6.89727 8.08359,13.64102 9.09375,15.15625 0.0631,0.0947 0.14057,0.16834 0.21875,0.25 0.0688,0.0715 0.13913,0.15712 0.21875,0.21875 0.0113,0.009 0.0197,0.0226 0.0312,0.0312 0.16351,0.12177 0.35971,0.22907 0.5625,0.3125 0.0212,0.009 0.0409,0.023 0.0625,0.0312 0.19902,0.0768 0.39542,0.11287 0.625,0.15625 0.32061,0.0637 0.66254,0.0911 1.03125,0.0937 0.22081,6.8e-4 0.45365,-0.0116 0.6875,-0.0312 0.30814,-0.0258 0.613,-0.0663 0.9375,-0.125 0.11069,-0.02 0.23171,-0.0389 0.34375,-0.0625 0.21487,-0.0451 0.43798,-0.0983 0.65625,-0.15625 0.33374,-0.0889 0.66415,-0.19614 1,-0.3125 0.1558,-0.054 0.31364,-0.0967 0.46875,-0.15625 4.44063,-1.70515 8.07536,-5.29968 12.375,-10.875 1.9963,-2.58859 2.92139,-8.22824 5.28125,-10.09375 16.39083,-12.95727 37.70157,-35.04174 43.4375,-49.25 1.2306,-3.04829 2.54801,-7.27236 0.5,-9.84375 -9.85352,-12.37164 -20.82772,-26.58126 -30.84375,-39.0625 -5.38617,-6.71184 -10.27399,-11.18506 -14.09375,-17.25 -2.49435,-3.96047 -11.42173,-17.79007 -18.4375,-18.9375 -2.58572,-0.4229 -7.19408,-0.62733 -11.75,-0.71875 z m -44.75,1.3125 c -2.28803,0.0518 -4.3059,0.1248 -5.375,0.15625 -8.58629,0.25254 -11.10215,13.64942 -13.375,17.4375 -1.20003,2.00005 -3.41965,5.89835 -6.15625,10.625 1.92399,-1.70768 4.26631,-3.63407 7.15625,-5.875 1.35725,-2.60759 2.30704,-4.94449 7.0625,-9.8125 2.48867,-1.35317 5.69251,-2.13616 9.28125,-2.4375 1.13645,-2.11077 2.33068,-4.23805 3.625,-6.40625 L 291.75,298.375 z m -33.09375,42.03125 c -4.9373,8.08373 -10.43742,16.58972 -15.59375,23.28125 -4.1502,5.38584 -3.97692,7.14378 -3.15625,8.84375 l 5.3125,10.96875 22.15625,-4.90625 c 10e-4,-0.0831 -10e-4,-0.16701 0,-0.25 -0.90419,-3.87185 -1.10235,-7.75339 -3.21875,-11.625 0.22474,-0.26053 0.43611,-0.52137 0.65625,-0.78125 -1.13551,-1.9989 -2.23982,-4.44726 -1.90625,-6.03125 0.30691,-1.45732 3.03125,-3.28125 3.03125,-3.28125 l -3.8125,-2.53125 1.28125,-2.78125 c 0,0 -4.42276,-4.42471 -4.75,-10.90625 z"
         id="path3857"
         inkscape:connector-curvature="0" />
    </clipPath>
    <clipPath
       clipPathUnits="userSpaceOnUse"
       id="clipHair">
      <path
         style="fill:#784421;stroke:#000000;stroke-width:1px;stroke-linecap:butt;stroke-linejoin:miter;stroke-opacity:1;display:inline"
         d="m 311.78125,184.15625 c -5.63821,0.0554 -18.20089,2.48661 -25.34375,0.34375 l 9.625,9.28125 c -10.56744,6.4443 -20.37661,6.82683 -30,5.71875 4.2264,6.19031 9.96423,11.16968 18.9375,13.5625 0,0 1.87666,1.32604 -2.84375,4.65625 -4.72042,3.3302 -12.6717,1.32464 -15.71875,5 4.28732,2.14318 4.2504,5.20633 14.625,6.78125 0.73736,4.88095 0.0164,9.7753 4.28125,14.65625 -11.45964,8.40562 -23.2763,11.80839 -35.6875,7.84375 6.2439,5.84553 11.41527,12.21729 21.40625,9.28125 9.99098,-2.93604 15.88427,5.78192 9.65625,7.5 l -10.375,2.875 c 3.44067,1.80914 6.8599,3.68347 12.15625,1.78125 1.0837,1.9806 4.70998,3.9569 7.65625,5.9375 l 0.625,2.71875 c 5.33885,-1.57279 12.74781,-3.36912 19.5,-4.25 0.3613,-2.49254 0.4375,-4.40625 0.4375,-4.40625 0,0 -6.39961,-1.922 -10.375,-3.5625 -3.70071,-1.52715 -10.83123,-23.67685 -9.625,-30.375 0.52196,-2.89845 0.34375,-7.14286 0.34375,-12.5 0,-3.05143 0.009,-6.41518 11.4375,-20.34375 5.36013,7.79015 11.30392,14.08097 18.5625,17.125 l -2.84375,-10 c 5.73074,3.65371 11.2753,6.439 16.0625,5.375 2.61762,11.43572 6.10161,18.59314 9.65625,25.34375 4.11094,-3.03444 9.39889,-2.19484 5.71875,6.4375 -5.27343,12.36965 -8.23411,8.32902 -10.71875,6.0625 l -4.65625,6.0625 c -1.42085,0.35521 -4.08201,8.54112 -6.0625,15.84375 2.60719,-0.54705 12.91495,2.19475 13.96875,4.09375 l -1.28125,3.84375 c 12.95931,-4.84575 22.47342,-14.85889 30.875,-19.46875 -2.67817,-0.59605 -5.05242,-1.81778 -6.78125,-4.3125 3.58807,-3.97562 8.84911,-6.6965 20,-5 0.36519,-0.91298 -20.28843,-18.06976 -19.28125,-28.5625 2.6542,-27.65128 -23.19907,-50.14222 -46.75,-41.6875 -1.88841,0.67794 -1.19218,-3.71516 -7.1875,-3.65625 z M 309.875,280.1875 c -0.15168,0.75692 -0.32127,1.5176 -0.53125,2.28125 0.20709,-0.75606 0.38049,-1.53137 0.53125,-2.28125 z m -0.5625,2.40625 c -0.10989,0.39259 -0.24761,0.77335 -0.375,1.15625 0.12625,-0.3819 0.26579,-0.76443 0.375,-1.15625 z"
         id="path3903"
         inkscape:connector-curvature="0" />
    </clipPath>
    <clipPath
       clipPathUnits="userSpaceOnUse"
       id="clipPath4024">
      <path
         id="path4026"
         d="m 311.78125,184.15625 c -5.63821,0.0554 -18.20089,2.48661 -25.34375,0.34375 l 9.625,9.28125 c -10.56744,6.4443 -20.37661,6.82683 -30,5.71875 4.2264,6.19031 9.96423,11.16968 18.9375,13.5625 0,0 1.87666,1.32604 -2.84375,4.65625 -4.72042,3.3302 -12.6717,1.32464 -15.71875,5 4.28732,2.14318 4.2504,5.20633 14.625,6.78125 0.73736,4.88095 0.0164,9.7753 4.28125,14.65625 -11.45964,8.40562 -23.2763,11.80839 -35.6875,7.84375 6.2439,5.84553 11.41527,12.21729 21.40625,9.28125 9.99098,-2.93604 15.88427,5.78192 9.65625,7.5 l -10.375,2.875 c 3.44067,1.80914 6.8599,3.68347 12.15625,1.78125 1.0837,1.9806 4.70998,3.9569 7.65625,5.9375 l 0.625,2.71875 c -4.76711,1.40436 -7.89965,2.63446 -7.1875,2.8125 L 291.75,298.375 c -2.28803,0.0518 -4.3059,0.1248 -5.375,0.15625 -8.58629,0.25254 -11.10215,13.64942 -13.375,17.4375 -1.20003,2.00005 -3.41965,5.89835 -6.15625,10.625 -0.66557,0.59074 -1.27914,1.15371 -1.84375,1.6875 -0.10954,0.10351 -0.23787,0.24235 -0.34375,0.34375 -0.69417,0.66656 -1.2988,1.29503 -1.84375,1.875 -0.0552,0.0586 -0.13373,0.0985 -0.1875,0.15625 -0.53397,0.57516 -1.00694,1.13079 -1.40625,1.625 -0.39913,0.49398 -0.72039,0.9245 -1,1.34375 -0.0481,0.072 -0.0802,0.14888 -0.125,0.21875 -0.22098,0.34556 -0.41586,0.67225 -0.5625,0.96875 -0.063,0.12695 -0.10562,0.25645 -0.15625,0.375 -0.009,0.0216 -0.0224,0.0412 -0.0312,0.0625 -0.027,0.0652 -0.0704,0.12477 -0.0937,0.1875 -0.0605,0.16246 -0.11872,0.3228 -0.15625,0.46875 -0.14259,0.55453 -0.23913,1.08836 -0.3125,1.625 -0.0571,0.41803 -0.1038,0.84459 -0.125,1.25 -0.01,0.16671 -0.0273,0.33556 -0.0312,0.5 -0.008,0.38549 0.0125,0.75322 0.0312,1.125 -4.9373,8.08373 -10.43742,16.58972 -15.59375,23.28125 -4.1502,5.38584 -3.97692,7.14378 -3.15625,8.84375 l 2.84375,5.875 c -0.10239,0.14745 -0.2127,0.28526 -0.3125,0.4375 4.92845,18.24976 11.21629,28.14822 13.96875,42.46875 -0.41256,1.01269 -0.78202,1.78298 -1.09375,2.21875 -0.15525,0.21703 -0.31999,0.44606 -0.46875,0.6875 -0.0125,0.0205 -0.0188,0.0418 -0.0312,0.0625 -0.4903,0.80479 -0.92349,1.75405 -1.34375,2.78125 -0.47902,-0.24981 -0.95571,-0.48269 -1.4375,-0.75 L 249,441.21875 c 0.34481,0.16367 0.68833,0.31113 1.03125,0.46875 -0.0121,0.0976 -0.0195,0.18414 -0.0312,0.28125 -0.1017,0.84011 -0.17661,1.6738 -0.25,2.46875 -0.0666,0.7303 -0.11337,1.4177 -0.15625,2.09375 -0.01,0.15418 -0.0227,0.28664 -0.0312,0.4375 -0.0442,0.75118 -0.0792,1.43768 -0.0937,2.09375 -0.009,0.41007 -0.0336,0.82175 -0.0312,1.1875 0.004,0.46217 0.041,0.86848 0.0625,1.25 0.0232,0.41185 0.0501,0.78945 0.0937,1.09375 0.044,0.30655 0.0919,0.56694 0.15625,0.75 3.95697,11.25906 3.67529,27.80276 3.53125,32.3125 -4.68936,45.78681 -0.45573,102.39348 10.625,110.875 3.47781,2.66201 12.85977,80.31561 12.625,110.09375 1.23255,12.4434 -20.7621,22.28327 -32.59375,29.8125 -5.55584,3.53553 -11.84375,3.53125 -11.84375,3.53125 0,0 -1.02285,9.85724 1.25,11.625 1.42052,1.10486 6.00398,1.30723 10.28125,1.25 0.85545,-0.0114 1.69568,-0.0344 2.5,-0.0625 1.60864,-0.0562 3.05171,-0.12437 4.125,-0.1875 4.29315,-0.25253 9.1114,-1.13969 15.9375,-0.75 5.30028,0.30259 13.16604,1.62983 21.4375,1.4375 0.59082,-0.0137 1.18707,-0.0324 1.78125,-0.0625 0.59418,-0.0301 1.18528,-0.0767 1.78125,-0.125 5.43823,-0.44113 11.59375,-0.75824 11.59375,-12.375 0,-2.28683 -4.53632,-23.47367 -4.03125,-32.3125 -3.28299,-39.64848 19.72793,-70.01065 -9.84375,-118.9375 l 1.5,-3.28125 -3.28125,-2.78125 c -2.54343,-16.48741 13.65958,-48.50015 16.4375,-88.90625 5.36922,33.4334 25.0349,93.37172 25,95.21875 -0.21152,10.94265 4.03125,17.40625 4.03125,17.40625 l 3.53125,7.34375 c 9.79536,45.44836 17.94146,48.9244 25.75,87.375 3.51811,35.77744 -9.17843,55.61213 -7.3125,63.375 0.25254,4.79823 7.59193,12.42036 11.125,12.125 1.47491,-0.1233 2.98473,-0.18693 4.53125,-0.25 1.54652,-0.0631 3.11845,-0.1137 4.6875,-0.21875 2.74583,-0.18385 5.48564,-0.50717 8.09375,-1.25 0.37259,-0.10612 0.75829,-0.25108 1.125,-0.375 5.86734,-1.98264 10.93151,-6.33002 13.625,-16.34375 1.05906,-3.93732 -10.28342,-34.38202 -13.90625,-53.53125 -1.76777,-9.34392 -2.05568,-49.56088 -3.53125,-56.5625 -1.47557,-7.00162 -2.1298,-21.37748 -17.90625,-69.96875 0,0 -3.03009,-103.45956 -8.09375,-115.40625 -1.42606,-3.36449 -3.04901,-6.80413 -4.75,-10.1875 0.1558,-0.054 0.31364,-0.0967 0.46875,-0.15625 4.44063,-1.70515 8.07536,-5.29968 12.375,-10.875 1.9963,-2.58859 2.92139,-8.22824 5.28125,-10.09375 0.54948,-0.43438 1.12773,-0.8895 1.6875,-1.34375 0.0634,0.45222 0.0969,0.90478 0.0937,1.34375 11.28004,-9.68063 21.0338,-18.10172 32.5625,-32.3125 -0.22983,-0.42647 -0.45378,-0.83372 -0.6875,-1.25 4.42523,-5.6728 7.92461,-11.08848 9.78125,-15.6875 1.2306,-3.04829 2.54801,-7.27236 0.5,-9.84375 -3.21758,-4.03985 -6.58456,-8.28611 -9.96875,-12.59375 0.47367,-0.41228 0.93274,-0.83624 1.40625,-1.28125 -12.43335,-15.3274 -27.76815,-33.48819 -37.125,-45.96875 -0.17466,0.52615 -0.35861,1.00954 -0.53125,1.53125 -3.50024,-5.34385 -11.04948,-15.93874 -17.15625,-16.9375 -2.58572,-0.4229 -7.19408,-0.62733 -11.75,-0.71875 l 1.15625,-0.3125 3.25,-9.90625 c 12.95931,-4.84575 22.47342,-14.85889 30.875,-19.46875 -2.67817,-0.59605 -5.05242,-1.81778 -6.78125,-4.3125 3.58807,-3.97562 8.84911,-6.6965 20,-5 0.36519,-0.91298 -20.28843,-18.06976 -19.28125,-28.5625 2.6542,-27.65128 -23.19907,-50.14222 -46.75,-41.6875 -1.88841,0.67794 -1.19218,-3.71516 -7.1875,-3.65625 z m 37.71875,150.75 c 1.32588,1.69114 2.66841,3.36922 4,5.03125 -0.24118,0.26217 -0.46775,0.53073 -0.71875,0.78125 10.54814,13.2676 17.85108,22.05114 27.53125,31.5625 0.44677,-0.19008 0.89683,-0.37451 1.34375,-0.5625 2.18602,2.20065 4.42254,4.40233 6.75,6.625 -2.60461,3.22774 -4.74269,6.12798 -6.625,8.84375 -0.55722,0.13877 -1.13246,0.30956 -1.71875,0.5 -10.27373,14.69465 -10.6088,19.6497 -22.71875,30.5625 0.3502,0.0314 0.71142,0.10958 1.0625,0.1875 -0.67114,0.59687 -1.32937,1.19717 -2.0625,1.8125 -6.05702,-0.73568 -13.37098,5.06683 -20.21875,6.8125 -0.024,0.006 -0.039,0.0245 -0.0625,0.0312 l -3.21875,-6.3437 c -0.4076,0.077 -0.81239,0.16782 -1.21875,0.25 -1.92095,-4.19614 -4.41415,-9.68657 -5.59375,-12.34375 C 315.13238,384.1053 331.25917,370.54678 348,339.6875 c 0,0 -0.4818,-0.51007 -0.5625,-0.59375 0.71039,-1.29082 1.39049,-2.693 2.0625,-4.1875 z m -84.6875,31.03125 c 0.19975,0.35162 0.3997,0.68353 0.59375,1 0.0355,0.0578 0.0587,0.13119 0.0937,0.1875 0.0801,0.12908 0.17329,0.22315 0.25,0.34375 0.16596,0.25949 0.32696,0.53872 0.46875,0.75 0.42339,0.63464 0.71875,1.03125 0.71875,1.03125 0,0 0.0687,0.64025 0.15625,1.6875 0.0102,0.11445 0.0203,0.15141 0.0312,0.28125 0.0379,0.4694 0.0568,0.9705 0.0937,1.5625 0.0425,0.68789 0.0962,1.38149 0.125,2.1875 0.002,0.0531 -0.002,0.10275 0,0.15625 0.005,0.14969 -0.004,0.31687 0,0.46875 L 266.6875,370.25 c -0.36621,-0.0285 -0.72781,-0.0414 -1.09375,-0.0625 -0.35973,-1.15712 -0.80565,-2.31288 -1.4375,-3.46875 0.22474,-0.26053 0.43611,-0.52137 0.65625,-0.78125 z"
         clip-path="none"
         style="fill:none;stroke:#000000;stroke-width:2;stroke-miterlimit:4;stroke-opacity:1;stroke-dasharray:none;display:inline"
         inkscape:connector-curvature="0" />
    </clipPath>
  </defs>
  <sodipodi:namedview
     id="base"
     pagecolor="#ffffff"
     bordercolor="#666666"
     borderopacity="1.0"
     inkscape:pageopacity="0.0"
     inkscape:pageshadow="2"
     inkscape:zoom="4.1172414"
     inkscape:cx="72.5"
     inkscape:cy="72.5"
     inkscape:document-units="px"
     inkscape:current-layer="layer4"
     showgrid="false"
     inkscape:window-width="1301"
     inkscape:window-height="744"
     inkscape:window-x="65"
     inkscape:window-y="24"
     inkscape:window-maximized="1"
     fit-margin-top="0"
     fit-margin-left="0"
     fit-margin-right="0"
     fit-margin-bottom="0" />
  <metadata
     id="metadata7">
    <rdf:RDF>
      <cc:Work
         rdf:about="">
        <dc:format>image/svg+xml</dc:format>
        <dc:type
           rdf:resource="http://purl.org/dc/dcmitype/StillImage" />
        <dc:title />
      </cc:Work>
    </rdf:RDF>
  </metadata>
  <g
     inkscape:groupmode="layer"
     id="layer2"
     inkscape:label="base"
     style="display:inline"
     transform="translate(-373.3125,-155.30953)">
    <path
       style="fill:#1a1a1a;stroke:#000000;stroke-width:1px;stroke-linecap:butt;stroke-linejoin:miter;stroke-opacity:1"
       d="m 422.85714,276.93361 39.28572,-1.78572 c 17.63527,-2.60597 29.45121,-16.19366 39.64286,-21.78571 -2.67817,-0.59605 -5.05689,-1.79099 -6.78572,-4.28571 3.58807,-3.97562 8.84911,-6.6965 20,-5 0.36519,-0.91298 -20.29289,-18.07869 -19.28571,-28.57143 2.6542,-27.65128 -23.19832,-50.14513 -46.74925,-41.69041 -1.88841,0.67794 -1.18401,-3.72564 -7.17933,-3.66673 -5.63821,0.0554 -18.21428,2.5 -25.35714,0.35714 l 9.64286,9.28571 c -10.56744,6.4443 -20.37661,6.82237 -30,5.71429 4.2264,6.19031 9.9553,11.17861 18.92857,13.57143 0,0 1.86327,1.31265 -2.85714,4.64286 -4.72042,3.3302 -12.66724,1.32463 -15.71429,4.99999 4.28732,2.14318 4.26826,5.2108 14.64286,6.78572 0.73736,4.88095 0.0209,9.76191 4.28571,14.64286 -11.45964,8.40562 -23.30308,11.82178 -35.71428,7.85714 6.2439,5.84553 11.43759,12.22176 21.42857,9.28572 9.99098,-2.93604 15.87088,5.78191 9.64286,7.49999 l -10.35715,2.85715 c 3.44067,1.80914 6.84651,3.68793 12.14286,1.78571 1.0837,1.9806 4.70329,3.96121 7.64956,5.94181 l 2.70758,11.55819 z"
       id="hair"
       sodipodi:nodetypes="ccccccczcccczcccczzcccc"
       inkscape:connector-curvature="0" />
    <path
       style="fill:#784421;stroke:#000000;stroke-width:1px;stroke-linecap:butt;stroke-linejoin:miter;stroke-opacity:1"
       d="M 430.5,192.65625 C 419.07143,206.58482 419.0625,209.94857 419.0625,213 c 0,5.35714 0.17821,9.60155 -0.34375,12.5 -1.20623,6.69815 5.92429,28.84785 9.625,30.375 3.97539,1.6405 10.375,3.5625 10.375,3.5625 0,0 -0.36161,8.91964 -3.21875,13.5625 -1.77603,2.88606 -2.83844,9.49066 -6.8125,11.3125 3.48064,5.81848 19.66134,-7.81125 20.3125,-1.0625 2.07591,-3.21658 3.93458,-6.03086 4.75,-7.15625 -0.27167,-1.79052 6.05047,-26.41106 8.53125,-27.03125 L 466.9375,243 c 2.48464,2.26652 5.44532,6.30715 10.71875,-6.0625 3.68014,-8.63234 -1.60781,-9.47194 -5.71875,-6.4375 -3.55464,-6.75061 -7.03863,-13.90803 -9.65625,-25.34375 -4.7872,1.064 -10.33176,-1.72129 -16.0625,-5.375 l 2.84375,10 c -7.25858,-3.04403 -13.20237,-9.33485 -18.5625,-17.125 z m 23.25,83.4375 c 0.0281,0.18523 0.13195,0.1361 0.3125,-0.21875 0.27981,-0.54993 0.0759,-0.31733 -0.3125,0.21875 z"
       id="flesh"
       inkscape:connector-curvature="0"
       sodipodi:nodetypes="cssscscccccsccccccsc" />
    <path
       style="fill:#ff6600;fill-opacity:1;stroke:#000000;stroke-width:1px;stroke-linecap:butt;stroke-linejoin:miter;stroke-opacity:1"
       d="m 427.1875,205.03125 c -1.35637,0.006 -2.96496,0.5846 -4.34375,1.1875 -1.76171,3.3997 -1.78125,5.14512 -1.78125,6.78125 0,5.35714 0.17821,9.60155 -0.34375,12.5 -0.24016,1.33361 -0.14156,3.2897 0.1875,5.5625 1.44064,-0.26026 3.15304,-1.24871 4.09375,-1.625 5.35714,-2.14286 3.40395,-6.8405 7.84375,-6.8125 4.4398,0.028 12.41984,8.76554 15.71875,10.90625 2.9438,1.91027 18.05356,-3.13492 23.96875,-5.71875 -1.76656,-3.47676 -3.45502,-7.19659 -5.03125,-11.625 -6.39641,-2.9657 -11.85443,-7.714 -17.15625,-8.9375 l 0.71875,2.53125 C 449.29011,209.03796 447.62705,208.10662 446,207 c -5.69443,0.38317 -12.23912,2.03715 -17.0625,-1.5 -0.45821,-0.33602 -1.07704,-0.47173 -1.75,-0.46875 z"
       id="mask"
       inkscape:connector-curvature="0" />
    <path
       style="fill:#ffffff;stroke:#000000;stroke-width:1px;stroke-linecap:butt;stroke-linejoin:miter;stroke-opacity:1"
       d="m 423.03125,214.0625 c -1.63678,0.90767 -0.39895,10.37175 0.71875,7.6875 0.65024,-1.5616 5.31659,-1.66645 6.625,-1.1875 0.0316,-0.0226 3.93054,-3.86429 -7.34375,-6.5 z m 23.40625,1.625 c -1.72128,-0.18206 -5.73271,6.26109 -3.21875,6.4375 5.59364,0.6258 9.85803,1.08586 13.5625,2.65625 0.1852,-0.0794 -3.50094,-8.36998 -10.34375,-9.09375 z"
       id="eyes"
       inkscape:connector-curvature="0" />
  </g>
  <g
     inkscape:groupmode="layer"
     id="layer4"
     inkscape:label="shade"
     style="display:inline"
     transform="translate(-373.3125,-155.30953)">
    <path
       style="fill:#000000;fill-opacity:0.39215686;stroke:none"
       d="m 336.0625,184.875 c 8.03571,16.78572 7.55121,17.9754 1.98214,23.54464 -9.6042,9.60451 -17.02456,1.01027 -25.35714,0.0179 6.69494,7.40774 5.56329,13.25016 8.03125,19.8125 l 3.21875,-4.8125 16.40625,17.6875 -12.65179,37.31696 16.58483,12.31697 56.06696,-28.22768 -29.09375,-73.75 -35.1875,-3.90625 z m -34.28571,18.72768 c -4.27939,8.24173 -13.81822,21.8765 -21.24554,21.80357 l 4.46875,2.5 c -1.6827,7.07246 1.54628,10.40696 3.40625,16.59375 L 272.5,257.53125 c 18.3051,3.25858 17.7574,10.80392 26.4375,16.25 l 4.45536,4.66071 9.28571,-1.43303 -8.93303,-68.57143 -1.96875,-4.83482 z"
       id="shadeHair"
       clip-path="url(#clipHair)"
       sodipodi:nodetypes="csccccccccccccccccccc"
       inkscape:connector-curvature="0"
       transform="translate(128,-14)" />
    <path
       style="fill:#000000;fill-opacity:0.39215686;stroke:none"
       d="m 324.03125,214.59375 c 1.74829,4.77079 2.52318,9.43993 1.25,13.875 -1.68446,-5.25432 -12.20782,-5.18936 -16.5,-3.0625 0.42385,1.96534 1.09115,3.19925 2.5,4.03125 -0.062,2.66356 0.49554,4.54102 0.84375,6.78125 1.19948,-2.07207 0.40469,-5.76316 3.9375,-6.5625 5.24502,-1.01427 7.73931,5.28589 11.21875,8.90625 2.35408,6.81705 0.18965,11.45481 -4,15 4.80481,0.59097 5.63663,1.36006 11.6875,-0.96875 -1.70274,6.26498 -4.26043,11.07601 -9.3125,15.5 -4.77316,4.17976 -23.48995,2.32131 -25.875,1.375 l 6.03125,4.3125 c 8.57492,3.10553 11.17574,4.37457 15.75,1.8125 -4.52149,8.99924 -8.02421,14.95487 -13.21875,18.90625 l -5.3125,4.78125 c 1.72228,1.17042 2.77833,-2.0857 4.8125,-0.625 -0.29865,3.42427 0.38504,3.14281 -1.25,4.5625 l 21.96875,-12 L 347.5,269.75 l 9.59375,-29.5625 -11.625,-25 -21.4375,-0.59375 z m -24.25,54.875 L 299.5,269.25 c -0.0569,0.0632 0.0757,0.13719 0.28125,0.21875 z m -5.8125,-45.90625 c -1.28017,0.045 -2.24491,0.6318 -2.8125,1.9375 l -1.4375,7.9375 2.78125,0.25 c -0.10152,-1.52077 -0.67035,-2.86892 0.0937,-5.53125 3.94121,0.26853 6.77938,2.87954 9.09375,4.8125 -0.21081,-3.18354 0.005,-6.55967 -2.96875,-8.03125 -1.85634,-0.91863 -3.46983,-1.41997 -4.75,-1.375 z M 298.9375,242.5 c -0.0837,-0.008 -0.14286,-0.002 -0.1875,0.0312 -0.71429,0.53572 0.1875,3.03125 0.1875,3.03125 l 6.59375,1.625 c 0,0 -5.33817,-4.55998 -6.59375,-4.6875 z m 2.84375,6.125 c -1.34754,0.18093 -1.49407,0.67097 -2.3125,0.6875 -0.91556,0.0185 -1.96875,-0.53125 -1.96875,-0.53125 -2.14286,-0.89286 -0.53125,3.9375 -0.53125,3.9375 0,0 2.05486,1.34309 4.1875,1.6875 2.13265,0.3444 8.5625,0 8.5625,0 L 306.25,251.8125 c 0,0 -3.12121,-3.36843 -4.46875,-3.1875 z m -5,5.59375 c -0.43747,1.43161 -1.50413,3.20114 1.15625,4.84375 3.2108,1.98246 6.33968,1.64677 9.03125,0.875 l 1.4375,-1.5 c 0,0 -5.82064,0.36363 -7.6875,0 -1.86685,-0.36363 -2.68344,-0.51885 -3.84375,-1.78125 -0.35607,-0.38739 -0.24258,-1.50041 -0.0937,-2.4375 z"
       id="shadeFace"
       clip-path="url(#clipFlesh)"
       inkscape:connector-curvature="0"
       transform="translate(130,-14)" />
  </g>
</svg>
