<?xml version="1.0" encoding="UTF-8" standalone="no"?>
<!-- Created with Inkscape (http://www.inkscape.org/) -->

<svg
   xmlns:dc="http://purl.org/dc/elements/1.1/"
   xmlns:cc="http://creativecommons.org/ns#"
   xmlns:rdf="http://www.w3.org/1999/02/22-rdf-syntax-ns#"
   xmlns:svg="http://www.w3.org/2000/svg"
   xmlns="http://www.w3.org/2000/svg"
   xmlns:xlink="http://www.w3.org/1999/xlink"
   xmlns:sodipodi="http://sodipodi.sourceforge.net/DTD/sodipodi-0.dtd"
   xmlns:inkscape="http://www.inkscape.org/namespaces/inkscape"
   width="168"
   height="168"
   id="svg2"
   version="1.1"
   inkscape:version="0.48.3.1 r9886"
   sodipodi:docname="viking.svg"
   style="display:inline">
  <title
     id="title4391">viking warning</title>
  <defs
     id="defs4">
    <linearGradient
       inkscape:collect="always"
       id="linearGradient2880">
      <stop
         style="stop-color:#ff8080;stop-opacity:1;"
         offset="0"
         id="stop2882" />
      <stop
         style="stop-color:#ff8080;stop-opacity:0;"
         offset="1"
         id="stop2884" />
    </linearGradient>
    <inkscape:perspective
       sodipodi:type="inkscape:persp3d"
       inkscape:vp_x="0 : 526.18109 : 1"
       inkscape:vp_y="0 : 1000 : 0"
       inkscape:vp_z="744.09448 : 526.18109 : 1"
       inkscape:persp3d-origin="372.04724 : 350.78739 : 1"
       id="perspective10" />
    <inkscape:perspective
       id="perspective2824"
       inkscape:persp3d-origin="0.5 : 0.33333333 : 1"
       inkscape:vp_z="1 : 0.5 : 1"
       inkscape:vp_y="0 : 1000 : 0"
       inkscape:vp_x="0 : 0.5 : 1"
       sodipodi:type="inkscape:persp3d" />
    <linearGradient
       inkscape:collect="always"
       xlink:href="#linearGradient2880"
       id="linearGradient2886"
       x1="534.46429"
       y1="313.61218"
       x2="534.79358"
       y2="305.55484"
       gradientUnits="userSpaceOnUse" />
    <linearGradient
       inkscape:collect="always"
       xlink:href="#linearGradient2880"
       id="linearGradient4389"
       gradientUnits="userSpaceOnUse"
       x1="534.46429"
       y1="313.61218"
       x2="534.79358"
       y2="305.55484"
       gradientTransform="matrix(-1,0,0,1,1144.1532,-2)" />
  </defs>
  <sodipodi:namedview
     id="base"
     pagecolor="#ffffff"
     bordercolor="#666666"
     borderopacity="1.0"
     inkscape:pageopacity="0.0"
     inkscape:pageshadow="2"
     inkscape:zoom="1.2592375"
     inkscape:cx="22.923407"
     inkscape:cy="-72.761479"
     inkscape:document-units="px"
     inkscape:current-layer="layer2"
     showgrid="false"
     inkscape:window-width="1301"
     inkscape:window-height="744"
     inkscape:window-x="65"
     inkscape:window-y="24"
     inkscape:window-maximized="1"
     inkscape:snap-nodes="false"
     fit-margin-top="0"
     fit-margin-left="0"
     fit-margin-right="0"
     fit-margin-bottom="0" />
  <metadata
     id="metadata7">
    <rdf:RDF>
      <cc:Work
         rdf:about="">
        <dc:format>image/svg+xml</dc:format>
        <dc:type
           rdf:resource="http://purl.org/dc/dcmitype/StillImage" />
        <dc:title>viking warning</dc:title>
        <dc:date>2011-03-17</dc:date>
        <dc:creator>
          <cc:Agent>
            <dc:title>tzunghaor (Prim András)</dc:title>
          </cc:Agent>
        </dc:creator>
        <dc:publisher>
          <cc:Agent>
            <dc:title>openclipart.org</dc:title>
          </cc:Agent>
        </dc:publisher>
        <cc:license
           rdf:resource="http://creativecommons.org/licenses/publicdomain/" />
        <dc:subject>
          <rdf:Bag>
            <rdf:li>viking</rdf:li>
            <rdf:li>warrior</rdf:li>
            <rdf:li>axe</rdf:li>
            <rdf:li>cartoon</rdf:li>
            <rdf:li>medieval</rdf:li>
            <rdf:li>fighter</rdf:li>
            <rdf:li>warning</rdf:li>
            <rdf:li />
          </rdf:Bag>
        </dc:subject>
      </cc:Work>
      <cc:License
         rdf:about="http://creativecommons.org/licenses/publicdomain/">
        <cc:permits
           rdf:resource="http://creativecommons.org/ns#Reproduction" />
        <cc:permits
           rdf:resource="http://creativecommons.org/ns#Distribution" />
        <cc:permits
           rdf:resource="http://creativecommons.org/ns#DerivativeWorks" />
      </cc:License>
    </rdf:RDF>
  </metadata>
  <g
     inkscape:groupmode="layer"
     id="layer2"
     inkscape:label="Réteg"
     style="display:inline"
     transform="translate(-524.15319,-208.46932)">
    <path
       style="fill:#ffe680;fill-opacity:1;stroke:none"
       d="m 640.40319,287.1479 c 7.38323,2.81365 14.79594,5.61466 18.92857,9.82142 -3.58934,-1.46671 -4.38555,-0.69892 -5.71429,-0.35714 5.33274,3.21917 7.59385,7.05266 10.71429,10.71429 l -3.57143,-0.89286 c 4.89197,6.13095 5.96833,12.26191 8.75,18.39286 l -5,-4.82143 c 0.55672,5.13515 -0.32097,9.98343 -2.14286,14.64286 l -2.85714,-6.78572 c 0.8237,3.78647 0.002,7.02439 -0.53571,10.35714 l -1.07143,-4.82142 c -0.0791,5.22828 -2.61524,9.22809 -4.46429,13.57142 l -0.89285,-10.17857 c -0.47534,7.88754 -5.57658,12.30566 -9.64286,17.5 l -1.25,-9.46428 c -0.13174,8.21191 -4.42448,12.85724 -7.67857,18.39285 0.80795,-3.5646 2.00727,-7.05092 0.53571,-11.07142 -0.0635,3.79164 -1.24738,6.74303 -3.21428,9.10714 -1.36874,-3.69204 -2.8038,-7.05246 -4.64286,-8.39286 2.15735,5.83316 0.0527,9.7721 -1.96429,13.75 -0.9875,-3.39286 -1.03224,-6.78571 -3.75,-10.17857 -0.18237,3.86398 -1.06764,6.79077 -2.67857,8.75 -0.0217,-3.10785 -0.87202,-5.93949 -2.32143,-8.57143 -1.80246,3.86905 -2.07556,7.73809 -2.5,11.60714 -1.88181,-3.15859 -3.43514,-6.37192 -2.5,-10 l -1.78571,3.57143 -1.78572,-4.28571 c 0.40492,6.00002 -2.72261,11.41131 -5,16.96428 l -2.85714,-10.35714 -0.35714,4.64286 c -3.47959,-1.93708 -6.21503,-4.61831 -7.32143,-8.92857 -2.47314,3.53358 -2.81843,6.76318 -1.96429,9.82143 -2.65958,-2.30707 -5.81388,-3.95451 -7.14285,-8.03572 l -1.60715,2.67857 c -3.55489,-2.86187 -4.1949,-6.55656 -4.46428,-10.35714 l -1.96429,4.28571 c -2.23765,-2.79762 -2.75965,-5.59523 -2.14285,-8.39285 l -3.21429,5.17857 c -1.22335,-3.35762 -4.34961,-6.39808 -3.03571,-10.17857 l -2.85715,2.32143 c -1.98879,-2.32143 -2.6241,-4.64286 -3.21428,-6.96429 l -2.5,3.57143 -0.89286,-4.82143 -4.28571,4.46429 c -1.05415,-6.93868 -1.42752,-13.65045 0.35714,-19.64286 l -3.21429,1.42857 c -1.06774,-2.61905 -0.40858,-5.23809 0.89286,-7.85714 -2.14286,-1.45778 -4.28571,-1.08472 -6.42857,-0.17857 1.86095,-4.10648 4.94837,-7.03406 8.92857,-9.64286 5.02127,-3.29115 1.85373,-4.73221 -6.21718,-3.3876 5.91763,-5.02581 5.43594,-6.85347 16.03861,-10.00526 -3.57985,-3.3221 -2.46692,-1.2845 -8.5872,-1.21936 10.17857,-3.57544 11.26577,-4.65895 21.44434,-5.38778 l 64.64286,-0.35714 z"
       id="path2870"
       sodipodi:nodetypes="ccccccccccccccccccccccccccccccccccccccccccccccccsccccc"
       inkscape:connector-curvature="0" />
    <path
       style="fill:#ffe6d5;fill-opacity:1;stroke:none"
       d="m 630.40319,264.29075 c 0,1.42857 10.35714,47.14286 10.35714,47.14286 l -8.03571,11.07143 -1.07143,-5.71429 -1.25,2.5 -42.14286,1.96429 -4.28571,3.92857 -4.82143,-18.57143 6.25,-43.75 45,1.42857 z"
       id="path2872"
       inkscape:connector-curvature="0" />
    <path
       sodipodi:nodetypes="cccccsccc"
       id="path2920"
       d="m 637.23355,269.13393 c 14.73635,44.59465 9.34668,38.4211 -2.18623,53.81059 0.0854,-17.67713 -0.36146,-21.3744 -4.06377,-40.74809 l -1.0625,5.15625 c 0.31572,-4.43322 -0.93057,-7.6994 -2.5,-10.71875 0,0 1.78269,23.38487 1.0625,34.46875 -0.10064,1.54892 -2.5,3.9375 -2.5,3.9375 1.86821,-16.25459 -0.77749,-29.36355 -1.0625,-45.1875 l 12.3125,-0.71875 z"
       style="fill:#deaa87;fill-opacity:1;stroke:none"
       inkscape:connector-curvature="0" />
    <path
       style="fill:#ffe680;fill-opacity:1;stroke:none"
       d="m 622.62194,308.0625 c 2.4216,0.74207 5.8125,2.84375 5.8125,2.84375 l -1.96875,0.15625 c 2.64036,2.97619 4.7583,5.88049 4.46875,8.9375 -0.42148,4.44985 -2.29362,4.52986 -3.5625,6.4375 0.0481,-2.96476 -0.55434,-5.31024 -2.875,-5.90625 -0.95127,2.67087 -1.92645,4.06827 -4.8125,5 l -2.84375,-1.59375 c -4.28571,2.19327 -8.58929,1.87152 -12.875,1.25 l -1.25,1.25 c -5.21073,-3.08618 -5.92684,-2.47088 -7.5,-2.15625 l -5.34375,1.09375 -1.0625,1.78125 c -3.51808,-1.78307 -4.33405,-6.15064 -3.0625,-8.59375 1.9427,-3.73262 6.15068,-9.39539 12.5,-9.8125 0,0 1.3371,-0.1973 3.3125,-0.4375 -0.50346,0.50443 -0.96693,0.95115 -1.5,1.5 l 6.25,4.3125 8.375,-0.5625 2.875,-1.78125 5.15625,-0.875 c 0.36711,-1.16271 0.29765,-2.11852 -0.0937,-2.84375 z"
       id="path2874"
       inkscape:connector-curvature="0" />
    <path
       style="fill:url(#linearGradient4389);fill-opacity:1;stroke:none"
       d="m 605.22462,305.00504 c -1.14647,0.73756 -3.0907,2.67176 -5.17857,4.82143 l 6.25,4.28571 8.39285,-0.53571 2.85715,-1.78572 5.17857,-0.89285 c 1.02131,-3.23469 -1.46064,-4.69988 -4.28571,-4.82143 l -2.67858,1.07143 c -1.39303,-3.02843 -8.37672,-3.53182 -10.53571,-2.14286 z"
       id="path2878"
       sodipodi:nodetypes="ccccccccs"
       inkscape:connector-curvature="0" />
    <path
       style="fill:#c8ab37;fill-opacity:1;stroke:none"
       d="m 640.40319,287.15625 c 0.25074,0.0956 0.49932,0.18567 0.75,0.28125 1.92557,7.12014 3.73393,14.8662 4.21875,20.46875 0.35502,4.10258 -0.90625,12.3125 -0.90625,12.3125 l -1.96875,-6.78125 c -0.0795,7.37696 -3.24242,14.12741 -5.53125,21.0625 l 0.1875,-6.0625 c -0.93434,3.7031 -2.3531,5.45962 -3.75,7.3125 0.27479,-4.97546 1.69862,-11.15799 1.71875,-16.09375 l 5.625,-8.21875 c 0,0 -2.75418,-12.20679 -5.4375,-24.25 l 5.09375,-0.0312 0,-5e-5 z m -58.5,0.3125 -2.75,19.15625 0.59375,2.25 c -0.18118,4.13291 -0.12655,8.27556 0.0937,12.40625 l 0.71875,13.40625 c -1.45804,-4.13786 -2.82911,-8.4927 -3.84375,-13.75 -0.0485,-0.25135 -0.10177,-0.48084 -0.15625,-0.71875 l -3.77002,8.81891 c -4.30686,3.95619 -5.01837,7.37668 -5.07373,11.86859 l 3.75,-2.5 -0.875,10 3.90625,-2.5 c -1.91417,3.94851 -1.00561,7.89399 -0.15625,11.84375 -1.93339,-2.64134 -2.3636,-5.29616 -1.78125,-7.9375 L 569.34069,355 c -1.22335,-3.35762 -4.34515,-6.40701 -3.03125,-10.1875 l -2.875,2.34375 c -1.98879,-2.32143 -2.62857,-4.64732 -3.21875,-6.96875 l -2.5,3.5625 -0.875,-4.8125 -4.28125,4.46875 c -1.05415,-6.93868 -1.44091,-13.66384 0.34375,-19.65625 l -3.21875,1.4375 c -1.06774,-2.61905 -0.39519,-5.25595 0.90625,-7.875 -2.14286,-1.45778 -4.29464,-1.0624 -6.4375,-0.15625 1.86095,-4.10648 4.9573,-7.04745 8.9375,-9.65625 5.02127,-3.29115 1.85216,-4.71961 -6.21875,-3.375 5.91763,-5.02581 5.42858,-6.84821 16.03125,-10 -3.57985,-3.3221 -2.47347,-1.28389 -8.59375,-1.21875 10.17857,-3.57544 11.25893,-4.67742 21.4375,-5.40625 l 6.15625,-0.0312 0,-5e-5 z m -4.90625,65.5625 c 0.46976,3.5908 2.36008,7.14346 4.71875,10.28125 l -0.59375,0.96875 c -3.41686,-2.75075 -4.14723,-6.2622 -4.4375,-9.90625 l 0.3125,-1.34375 z m 14.84375,5 4.6875,9 c -2.21145,-1.75706 -3.8769,-4.06085 -4.6875,-7.21875 -0.1529,0.21846 -0.2694,0.44009 -0.40625,0.65625 0.1081,-0.73859 0.23155,-1.52301 0.40625,-2.4375 z m -9.5,0.8125 c 0.0231,-0.0168 0.051,-0.0131 0.0937,0.0312 1.3362,1.3883 4.57945,5.84745 7.09375,9.0625 0.0701,0.57594 0.18638,1.15528 0.34375,1.71875 -2.65958,-2.30707 -5.82728,-3.95004 -7.15625,-8.03125 l -0.0312,0.0312 c -0.26489,-1.38588 -0.49277,-2.70395 -0.34375,-2.8125 l 0,10e-5 z"
       id="path2935"
       sodipodi:nodetypes="ccsccccccccccccccscccccccccccccccccccsccccccccccccccccscccccccc"
       inkscape:connector-curvature="0" />
    <path
       style="fill:#c8ab37;fill-opacity:1;stroke:none"
       d="m 597.77819,308.6875 c 1.96441,0.29579 3.29953,3.74759 3.16006,1.73604 0.68873,2.43329 4.00225,3.92686 6.52871,4.0376 5.95716,0.26113 6.38681,-3.22583 8.24873,-2.08614 l 7.39911,-2.50698 c 1.02572,0.44369 2.17697,2.04858 0.96748,2.43115 -2.83738,0.89748 -6.72641,1.77871 -8.01269,2.98081 -2.70687,2.52971 -9.86867,3.13746 -13.9164,0.65752 -1.30096,-0.79706 -3.07081,-1.17109 -4.28125,-1.625 -0.41675,-0.15628 -0.98503,-0.27773 -1.53125,-0.4375 -2.75707,3.26886 -3.54984,6.33954 -3.34375,9.3125 1.51335,-1.78496 4.21662,-1.59221 6.6875,-1.78125 0.22214,1.75608 2.18407,1.77522 3.65625,2.28125 4.11214,-0.41467 8.73567,1.4486 12.25,-1.65625 1.88929,-0.37247 2.88756,0.45126 3.78125,1.40625 2.95778,0.31507 3.05735,-2.74533 4.1875,-4.5625 3.70916,0.76409 5.01611,3.09333 4.90625,6.3125 -0.38296,0.36434 -0.75732,0.74421 -1.09375,1.25 0.0481,-2.96476 -0.55434,-5.31024 -2.875,-5.90625 -0.95127,2.67087 -1.92645,4.06827 -4.8125,5 l -2.84375,-1.59375 c -4.28571,2.19327 -8.58929,1.87152 -12.875,1.25 l -1.25,1.25 c -5.21073,-3.08618 -5.92684,-2.47088 -7.5,-2.15625 l -5.34375,1.09375 -1.0625,1.78125 c -3.51808,-1.78307 -4.33405,-6.15064 -3.0625,-8.59375 0.7665,-1.47271 1.8565,-3.26322 3.34375,-4.875 3.60562,-3.90751 5.26947,-3.94549 8.6875,-5 z"
       id="path2922"
       sodipodi:nodetypes="ccsccsssscccccccccccccccccssc"
       inkscape:connector-curvature="0" />
    <path
       style="fill:#d38d5f;fill-opacity:1;stroke:none"
       d="m 604.86748,270.00504 0.89285,34.64286 c 0.0524,2.031 -3.76759,3.2237 -3.21428,5.17857 0.68873,2.43329 4.25925,3.28211 6.78571,3.39285 5.95716,0.26113 6.53094,-3.99683 8.39286,-2.85714 1.66667,1.02018 1.24278,0.30207 2.90944,-0.0956 l 2.09056,-1.69008 c 0.96258,1.0119 2.28092,2.65314 1.07143,3.03571 -2.83738,0.89748 -6.21372,0.58362 -7.5,1.78572 -2.70687,2.52971 -8.09513,3.01565 -12.14286,0.53571 -1.30096,-0.79706 -3.07527,-1.15323 -4.28571,-1.60714 -1.21045,-0.45392 -3.63516,-0.66021 -3.39286,-2.14286 0.37638,-2.30305 2.88205,-2.55404 4.28571,-4.46429 2.01151,-2.73746 1.65732,-6.61686 1.96428,-10 0.8284,-9.12993 0.35715,-26.60714 0.35715,-26.60714 l 1.78572,0.89286 z"
       id="path2876"
       sodipodi:nodetypes="csassccssszssscc"
       inkscape:connector-curvature="0" />
    <path
       style="fill:#1a1a1a;fill-opacity:1;stroke:none"
       d="m 627.72462,276.79075 c 0,0 -7.41104,1.4775 -10.17857,0.35715 -1.8374,-0.74382 -2.58095,-2.91712 -4.28572,-3.92858 -2.50505,-1.48629 -6.04714,-1.8203 -8.45413,0.0306 -2.40863,2.78059 -0.61128,2.14369 -3.86729,4.43365 -1.78572,0.89286 -8.89576,1.44055 -12.14287,-0.71429 -2.76318,-1.8337 5.35715,-8.57138 5.35715,-8.57138 l 30.35714,-1.78572 c 5.68907,3.39286 4.50776,6.78571 3.21429,10.17857 z"
       id="path2864"
       sodipodi:nodetypes="cssccsccc"
       inkscape:connector-curvature="0" />
    <path
       sodipodi:nodetypes="cssssscsssssscc"
       id="path2837"
       d="m 579.01478,245.62847 c 0,0 -7.26807,-0.53497 -10.07924,-2.56365 -1.12578,-0.81242 -2.27747,-2.1193 -2.24631,-3.50727 l 0.23277,-10.36839 c 0.0467,-2.07855 0.19215,-4.32105 1.25051,-6.11057 l 4.08556,-6.90808 c 0.69163,-1.16945 3.51249,-2.06783 3.51249,-2.06783 0,0 -4.74949,-0.66583 -6.96653,0.025 -0.94582,0.29474 -1.75397,0.9765 -2.45196,1.67953 l -3.47074,3.4958 c -1.10082,1.10877 -2.07094,3.40619 -2.53651,4.89764 l -6.69723,21.45491 c 0,0 -1.09151,7.47733 0.66492,10.52078 3.50023,6.06503 17.49043,11.63663 17.49043,11.63663 l 7.21184,-22.18454 z"
       style="fill:#e3dedb;fill-opacity:1;stroke:none"
       inkscape:connector-curvature="0" />
    <path
       sodipodi:nodetypes="ccccc"
       id="path2839"
       d="m 587.60746,247.30221 c 0,0 -9.77648,-3.51238 -11.59652,-2.53485 -2.95025,2.36499 -8.90924,19.35224 -8.13309,22.1694 0.66098,1.05018 6.46657,2.96568 9.78401,3.74357 l 9.9456,-23.37812 z"
       style="fill:#c8beb7;fill-opacity:1;stroke:none"
       inkscape:connector-curvature="0" />
    <path
       style="fill:#e3dedb;fill-opacity:1;stroke:none"
       d="m 635.22462,243.75504 c 0,0 7.24933,-0.74717 10,-2.85714 1.10156,-0.84498 2.21456,-2.18496 2.14285,-3.57143 l -0.53571,-10.35715 c -0.10739,-2.0763 -0.31836,-4.31359 -1.42857,-6.07142 l -4.28572,-6.78572 c -0.72551,-1.14873 -3.57142,-1.96428 -3.57142,-1.96428 0,0 4.728,-0.80436 6.96428,-0.17858 0.95403,0.26697 1.78176,0.92482 2.5,1.60715 l 3.57143,3.39286 c 1.13276,1.07612 2.16961,3.34421 2.67857,4.82142 l 7.32143,21.25 c 0,0 1.30959,7.44223 -0.35714,10.53572 -3.32147,6.16474 -17.14286,12.14285 -17.14286,12.14285 l -7.85714,-21.96428 z"
       id="path2835"
       sodipodi:nodetypes="cssssscsssssscc"
       inkscape:connector-curvature="0" />
    <path
       style="fill:#c8beb7;fill-opacity:1;stroke:none"
       d="m 660.12194,253.71875 c -2.51025,4.42643 -10.2841,8.7134 -14.40625,10.75 l -1.21875,-1.53125 15.625,-9.21875 z"
       id="path2887"
       inkscape:connector-curvature="0" />
    <path
       style="fill:#c8beb7;fill-opacity:1;stroke:none"
       d="m 627.7127,246.28076 c 3.17647,-1.62698 8.64147,-4.39817 10.48931,-3.47426 3.01811,2.27776 9.47104,19.08359 8.77756,21.92223 -0.63001,1.06905 -6.37713,3.15341 -9.67042,4.02792 l -9.59645,-22.47589 z"
       id="path2833"
       sodipodi:nodetypes="ccccc"
       inkscape:connector-curvature="0" />
    <path
       style="fill:#917c6f;fill-opacity:1;stroke:none"
       d="m 643.43444,256.71875 c 0.80357,1.16071 1.269,2.31284 2,5.59375 0.0769,0.34518 0.72001,0.71483 1.53125,1.0625 0.0722,0.57175 0.0727,1.04617 0,1.34375 -0.63001,1.06905 -6.36296,3.15674 -9.65625,4.03125 l -4.03125,-9.4375 10.15625,-2.59375 z"
       id="path2873"
       inkscape:connector-curvature="0" />
    <path
       style="fill:#ffeeaa;fill-opacity:1;stroke:none"
       d="m 637.71569,267.3125 c 0,0 8.51367,25.39026 9.65625,38.59375 0.35502,4.10258 -0.90625,12.3125 -0.90625,12.3125 l -1.96875,-6.78125 c -0.0795,7.37696 -3.24242,14.12741 -5.53125,21.0625 l 0.1875,-6.0625 c -0.93434,3.7031 -2.3531,5.45962 -3.75,7.3125 0.96932,-17.55086 0.90123,-34.50639 -3.9375,-53.375 l -1.0625,5.15625 c 0.31572,-4.43322 -0.93057,-7.6994 -2.5,-10.71875 0,0 1.78269,23.38487 1.0625,34.46875 -0.10064,1.54892 -2.5,3.9375 -2.5,3.9375 1.86821,-16.25459 -0.77749,-29.36355 -1.0625,-45.1875 l 12.3125,-0.71875 z"
       id="path2909"
       sodipodi:nodetypes="csccccccccsccc"
       inkscape:connector-curvature="0" />
    <path
       style="fill:#d3bc5f;fill-opacity:1;stroke:none"
       d="m 578.71569,318.9375 c -0.25799,-1.33676 -0.62854,-2.41844 -0.8125,-3.9375 l -3.40625,11.0625 c -0.79127,-9.27956 -0.0242,-14.77743 0.5625,-20.34375 l -6.625,18.21875 c 0,0 0.25573,-19.75854 2.5,-30 1.26827,-5.7876 5.1875,-16.25 5.1875,-16.25 l -3.75,0.875 c 2.92112,-1.36015 5.39374,-2.69764 7.84375,-5 l 9.59375,-3.28125 -4.0625,12.21875 -1.25,-1.4375 c -0.91297,2.19785 -1.64994,4.4328 -2.28125,6.65625 -0.63131,2.22345 -1.15471,4.44373 -1.5625,6.6875 -0.81559,4.48754 -1.22969,9.02539 -1.5,13.5625 -0.2176,3.65238 -0.30126,7.30898 -0.4375,10.96875 z"
       id="path2918"
       inkscape:connector-curvature="0" />
    <path
       style="fill:#d3bc5f;fill-opacity:1;stroke:none"
       d="m 590.77819,269.9375 0.875,-0.28125 c -0.35767,1.00424 -0.52542,1.7207 -0.84375,2.65625 l -0.0312,-2.375 z"
       id="path2916"
       inkscape:connector-curvature="0" />
    <path
       style="fill:#ffeeaa;fill-opacity:1;stroke:none"
       d="m 590.77819,269.9375 0.0312,2.375 c -2.47708,7.27991 -3.96851,12.97344 -4.6875,20.375 l -0.71875,-8.21875 c -3.49069,11.60714 -4.18087,23.21811 -3.5625,34.8125 l 0.71875,13.40625 c -1.45804,-4.13786 -2.82911,-8.4927 -3.84375,-13.75 0.13624,-3.65977 0.2199,-7.31637 0.4375,-10.96875 0.27031,-4.53711 0.68441,-9.07496 1.5,-13.5625 0.40779,-2.24377 0.93119,-4.46405 1.5625,-6.6875 0.63131,-2.22345 1.36828,-4.4584 2.28125,-6.65625 l 1.25,1.4375 4.0625,-12.21875 0.96875,-0.34375 z"
       id="path2911"
       inkscape:connector-curvature="0" />
    <path
       style="fill:#6c5d53;fill-opacity:1;stroke:none"
       d="m 639.58199,271.33062 c -21.22207,-1.22285 -42.23411,-1.39557 -62.12438,4.04061 0,0 -1.04995,-8.52359 0.25254,-13.93819 1.31503,-5.46676 1.13394,-10.99481 8.5863,-14.14213 7.45236,-3.14732 33.69874,-4.33871 40.4061,-2.52538 6.70736,1.81332 7.55786,5.98808 9.34391,10.6066 1.78605,4.61851 3.53553,15.95849 3.53553,15.95849 z"
       id="path2831"
       sodipodi:nodetypes="cczzzzc"
       inkscape:connector-curvature="0" />
    <path
       style="fill:#e6e6e6;fill-opacity:1;stroke:none"
       d="m 619.80944,272.1875 c 1.39484,1.19356 0.14683,1.76802 -0.6875,1.6875 -3.19616,-0.30844 -2.3384,-0.79061 -3.125,-1.5 l 3.8125,-0.1875 z m -26.625,0.78125 3.8125,0.0312 c -0.75924,0.7386 0.11973,1.19604 -3.0625,1.625 -0.8307,0.11198 -2.09875,-0.41084 -0.75,-1.65625 z"
       id="path2866"
       inkscape:connector-curvature="0" />
    <path
       style="fill:#c8beb7;fill-opacity:1;stroke:none"
       d="m 564.65319,217.5 c 0,0 -6.6499,21.70178 -7.28125,26.5 -0.43509,3.30672 -0.57006,8.29109 1.16006,9.2124 3.95809,2.10775 11.48858,5.56885 12.24619,5.56885 l -1.1875,8.0625 -0.0312,0 c -4.09882,-1.85131 -12.62483,-6.10748 -15.25,-10.65625 -1.75643,-3.04345 -0.65625,-10.53125 -0.65625,-10.53125 l 6.6875,-21.46875 c 0.46557,-1.49145 1.43043,-3.76623 2.53125,-4.875 l 1.7812,-1.8125 z"
       id="path2867"
       sodipodi:nodetypes="csscccscccc"
       inkscape:connector-curvature="0" />
    <path
       style="fill:#917c6f;fill-opacity:1;stroke:none"
       d="m 570.49694,255.84375 c 0.38484,0.3812 0.50153,1.90744 1.06286,2.251 2.864,1.75288 5.72974,3.41455 9.28089,4.46775 l -3.1875,8.125 c -3.31744,-0.77789 -9.12027,-2.69982 -9.78125,-3.75 -0.38381,-1.39311 0.8931,-6.25213 2.625,-11.09375 z"
       id="path2861"
       sodipodi:nodetypes="cscccc"
       inkscape:connector-curvature="0" />
    <path
       style="fill:#483e37;fill-opacity:1;stroke:none"
       d="m 596.15319,245.125 c -5.26055,9.73624 -6.06153,20.79177 -5.96875,27.53125 -4.28926,0.6905 -8.52085,1.57143 -12.71875,2.71875 0,0 -1.05249,-8.5229 0.25,-13.9375 1.31503,-5.46676 1.14139,-11.00893 8.59375,-14.15625 2.08581,-0.88089 5.65391,-1.60479 9.84375,-2.15625 z"
       id="path2856"
       inkscape:connector-curvature="0" />
    <path
       style="fill:#c8beb7;fill-opacity:1;stroke:none"
       d="m 639.84069,211.84375 2.96875,1.65625 4.90625,7.84375 1.96875,14.375 -1.78125,5.09375 -2.84375,0.21875 c 0.0537,-0.038 0.10556,-0.0861 0.15625,-0.125 1.10156,-0.84498 2.22796,-2.20728 2.15625,-3.59375 l -0.53125,-10.34375 c -0.10739,-2.0763 -0.32729,-4.30467 -1.4375,-6.0625 l -4.28125,-6.78125 c -0.72551,-1.14873 -3.5625,-1.96875 -3.5625,-1.96875 0,0 1.00657,-0.18999 2.28125,-0.3125 z"
       id="path2882"
       inkscape:connector-curvature="0" />
  </g>
</svg>
